<?xml version="1.0" encoding="utf-8"?>
<svg xmlns="http://www.w3.org/2000/svg" xmlns:xlink="http://www.w3.org/1999/xlink" width="600" height="400" viewBox="0 0 2400 1600">
<defs>
  <clipPath id="clip710">
    <rect x="0" y="0" width="2400" height="1600"/>
  </clipPath>
</defs>
<path clip-path="url(#clip710)" d="
M0 1600 L2400 1600 L2400 0 L0 0  Z
  " fill="#ffffff" fill-rule="evenodd" fill-opacity="1"/>
<defs>
  <clipPath id="clip711">
    <rect x="480" y="0" width="1681" height="1600"/>
  </clipPath>
</defs>
<path clip-path="url(#clip710)" d="
M159.422 1552.76 L2352.76 1552.76 L2352.76 47.2441 L159.422 47.2441  Z
  " fill="#ffffff" fill-rule="evenodd" fill-opacity="1"/>
<defs>
  <clipPath id="clip712">
    <rect x="159" y="47" width="2194" height="1507"/>
  </clipPath>
</defs>
<polyline clip-path="url(#clip710)" style="stroke:#000000; stroke-linecap:round; stroke-linejoin:round; stroke-width:4; stroke-opacity:1; fill:none" points="
  159.422,1552.76 2352.76,1552.76 
  "/>
<polyline clip-path="url(#clip710)" style="stroke:#000000; stroke-linecap:round; stroke-linejoin:round; stroke-width:4; stroke-opacity:1; fill:none" points="
  159.422,47.2441 2352.76,47.2441 
  "/>
<polyline clip-path="url(#clip712)" style="stroke:#000000; stroke-linecap:round; stroke-linejoin:round; stroke-width:10; stroke-opacity:0.3; fill:none" points="
  159.422,1524.66 2352.76,1524.66 
  "/>
<polyline clip-path="url(#clip712)" style="stroke:#000000; stroke-linecap:round; stroke-linejoin:round; stroke-width:10; stroke-opacity:0.3; fill:none" points="
  159.422,1234.8 2352.76,1234.8 
  "/>
<polyline clip-path="url(#clip712)" style="stroke:#000000; stroke-linecap:round; stroke-linejoin:round; stroke-width:10; stroke-opacity:0.3; fill:none" points="
  159.422,944.933 2352.76,944.933 
  "/>
<polyline clip-path="url(#clip712)" style="stroke:#000000; stroke-linecap:round; stroke-linejoin:round; stroke-width:10; stroke-opacity:0.3; fill:none" points="
  159.422,655.067 2352.76,655.067 
  "/>
<polyline clip-path="url(#clip712)" style="stroke:#000000; stroke-linecap:round; stroke-linejoin:round; stroke-width:10; stroke-opacity:0.3; fill:none" points="
  159.422,365.201 2352.76,365.201 
  "/>
<polyline clip-path="url(#clip712)" style="stroke:#000000; stroke-linecap:round; stroke-linejoin:round; stroke-width:10; stroke-opacity:0.3; fill:none" points="
  159.422,75.335 2352.76,75.335 
  "/>
<polyline clip-path="url(#clip710)" style="stroke:#000000; stroke-linecap:round; stroke-linejoin:round; stroke-width:4; stroke-opacity:1; fill:none" points="
  159.422,1552.76 159.422,47.2441 
  "/>
<polyline clip-path="url(#clip710)" style="stroke:#000000; stroke-linecap:round; stroke-linejoin:round; stroke-width:4; stroke-opacity:1; fill:none" points="
  2352.76,1552.76 2352.76,47.2441 
  "/>
<polyline clip-path="url(#clip710)" style="stroke:#000000; stroke-linecap:round; stroke-linejoin:round; stroke-width:4; stroke-opacity:1; fill:none" points="
  159.422,1524.66 178.32,1524.66 
  "/>
<polyline clip-path="url(#clip710)" style="stroke:#000000; stroke-linecap:round; stroke-linejoin:round; stroke-width:4; stroke-opacity:1; fill:none" points="
  159.422,1234.8 178.32,1234.8 
  "/>
<polyline clip-path="url(#clip710)" style="stroke:#000000; stroke-linecap:round; stroke-linejoin:round; stroke-width:4; stroke-opacity:1; fill:none" points="
  159.422,944.933 178.32,944.933 
  "/>
<polyline clip-path="url(#clip710)" style="stroke:#000000; stroke-linecap:round; stroke-linejoin:round; stroke-width:4; stroke-opacity:1; fill:none" points="
  159.422,655.067 178.32,655.067 
  "/>
<polyline clip-path="url(#clip710)" style="stroke:#000000; stroke-linecap:round; stroke-linejoin:round; stroke-width:4; stroke-opacity:1; fill:none" points="
  159.422,365.201 178.32,365.201 
  "/>
<polyline clip-path="url(#clip710)" style="stroke:#000000; stroke-linecap:round; stroke-linejoin:round; stroke-width:4; stroke-opacity:1; fill:none" points="
  159.422,75.335 178.32,75.335 
  "/>
<path clip-path="url(#clip710)" d="M53.6382 1544.46 L61.2771 1544.46 L61.2771 1518.09 L52.9669 1519.76 L52.9669 1515.5 L61.2308 1513.83 L65.9067 1513.83 L65.9067 1544.46 L73.5455 1544.46 L73.5455 1548.39 L53.6382 1548.39 L53.6382 1544.46 Z" fill="#000000" fill-rule="evenodd" fill-opacity="1" /><path clip-path="url(#clip710)" d="M92.9899 1516.91 Q89.3788 1516.91 87.5501 1520.48 Q85.7445 1524.02 85.7445 1531.15 Q85.7445 1538.25 87.5501 1541.82 Q89.3788 1545.36 92.9899 1545.36 Q96.6241 1545.36 98.4297 1541.82 Q100.258 1538.25 100.258 1531.15 Q100.258 1524.02 98.4297 1520.48 Q96.6241 1516.91 92.9899 1516.91 M92.9899 1513.21 Q98.8 1513.21 101.856 1517.81 Q104.934 1522.4 104.934 1531.15 Q104.934 1539.87 101.856 1544.48 Q98.8 1549.06 92.9899 1549.06 Q87.1797 1549.06 84.101 1544.48 Q81.0455 1539.87 81.0455 1531.15 Q81.0455 1522.4 84.101 1517.81 Q87.1797 1513.21 92.9899 1513.21 Z" fill="#000000" fill-rule="evenodd" fill-opacity="1" /><path clip-path="url(#clip710)" d="M117.63 1505.84 Q120.357 1506.42 121.88 1508.27 Q123.422 1510.11 123.422 1512.82 Q123.422 1516.98 120.564 1519.25 Q117.705 1521.53 112.439 1521.53 Q110.671 1521.53 108.79 1521.17 Q106.928 1520.83 104.934 1520.14 L104.934 1516.47 Q106.514 1517.39 108.395 1517.86 Q110.276 1518.33 112.326 1518.33 Q115.899 1518.33 117.761 1516.92 Q119.642 1515.51 119.642 1512.82 Q119.642 1510.34 117.893 1508.95 Q116.162 1507.53 113.059 1507.53 L109.787 1507.53 L109.787 1504.41 L113.21 1504.41 Q116.012 1504.41 117.498 1503.3 Q118.984 1502.17 118.984 1500.07 Q118.984 1497.91 117.441 1496.76 Q115.918 1495.59 113.059 1495.59 Q111.498 1495.59 109.711 1495.93 Q107.925 1496.27 105.781 1496.98 L105.781 1493.6 Q107.943 1493 109.824 1492.7 Q111.724 1492.39 113.398 1492.39 Q117.724 1492.39 120.244 1494.37 Q122.764 1496.33 122.764 1499.67 Q122.764 1502.01 121.429 1503.62 Q120.093 1505.22 117.63 1505.84 Z" fill="#000000" fill-rule="evenodd" fill-opacity="1" /><path clip-path="url(#clip710)" d="M51.6634 1254.59 L59.3023 1254.59 L59.3023 1228.23 L50.9921 1229.89 L50.9921 1225.63 L59.256 1223.97 L63.9319 1223.97 L63.9319 1254.59 L71.5707 1254.59 L71.5707 1258.53 L51.6634 1258.53 L51.6634 1254.59 Z" fill="#000000" fill-rule="evenodd" fill-opacity="1" /><path clip-path="url(#clip710)" d="M91.0151 1227.05 Q87.404 1227.05 85.5753 1230.61 Q83.7697 1234.15 83.7697 1241.28 Q83.7697 1248.39 85.5753 1251.95 Q87.404 1255.49 91.0151 1255.49 Q94.6493 1255.49 96.4548 1251.95 Q98.2835 1248.39 98.2835 1241.28 Q98.2835 1234.15 96.4548 1230.61 Q94.6493 1227.05 91.0151 1227.05 M91.0151 1223.34 Q96.8252 1223.34 99.8808 1227.95 Q102.959 1232.53 102.959 1241.28 Q102.959 1250.01 99.8808 1254.61 Q96.8252 1259.2 91.0151 1259.2 Q85.2049 1259.2 82.1262 1254.61 Q79.0707 1250.01 79.0707 1241.28 Q79.0707 1232.53 82.1262 1227.95 Q85.2049 1223.34 91.0151 1223.34 Z" fill="#000000" fill-rule="evenodd" fill-opacity="1" /><path clip-path="url(#clip710)" d="M115.636 1206.35 L106.044 1221.34 L115.636 1221.34 L115.636 1206.35 M114.639 1203.04 L119.416 1203.04 L119.416 1221.34 L123.422 1221.34 L123.422 1224.5 L119.416 1224.5 L119.416 1231.12 L115.636 1231.12 L115.636 1224.5 L102.959 1224.5 L102.959 1220.83 L114.639 1203.04 Z" fill="#000000" fill-rule="evenodd" fill-opacity="1" /><path clip-path="url(#clip710)" d="M53.958 964.725 L61.5968 964.725 L61.5968 938.36 L53.2867 940.026 L53.2867 935.767 L61.5505 934.101 L66.2264 934.101 L66.2264 964.725 L73.8653 964.725 L73.8653 968.661 L53.958 968.661 L53.958 964.725 Z" fill="#000000" fill-rule="evenodd" fill-opacity="1" /><path clip-path="url(#clip710)" d="M93.3096 937.179 Q89.6985 937.179 87.8698 940.744 Q86.0643 944.286 86.0643 951.415 Q86.0643 958.522 87.8698 962.087 Q89.6985 965.628 93.3096 965.628 Q96.9438 965.628 98.7494 962.087 Q100.578 958.522 100.578 951.415 Q100.578 944.286 98.7494 940.744 Q96.9438 937.179 93.3096 937.179 M93.3096 933.476 Q99.1198 933.476 102.175 938.082 Q105.254 942.665 105.254 951.415 Q105.254 960.142 102.175 964.749 Q99.1198 969.332 93.3096 969.332 Q87.4995 969.332 84.4208 964.749 Q81.3652 960.142 81.3652 951.415 Q81.3652 942.665 84.4208 938.082 Q87.4995 933.476 93.3096 933.476 Z" fill="#000000" fill-rule="evenodd" fill-opacity="1" /><path clip-path="url(#clip710)" d="M106.439 913.17 L121.353 913.17 L121.353 916.368 L109.918 916.368 L109.918 923.251 Q110.746 922.969 111.573 922.837 Q112.401 922.687 113.228 922.687 Q117.93 922.687 120.676 925.264 Q123.422 927.84 123.422 932.241 Q123.422 936.774 120.601 939.294 Q117.78 941.796 112.645 941.796 Q110.878 941.796 109.034 941.495 Q107.21 941.194 105.254 940.592 L105.254 936.774 Q106.947 937.696 108.752 938.147 Q110.558 938.598 112.57 938.598 Q115.824 938.598 117.724 936.887 Q119.623 935.175 119.623 932.241 Q119.623 929.307 117.724 927.596 Q115.824 925.884 112.57 925.884 Q111.047 925.884 109.523 926.223 Q108.019 926.561 106.439 927.276 L106.439 913.17 Z" fill="#000000" fill-rule="evenodd" fill-opacity="1" /><path clip-path="url(#clip710)" d="M52.7355 674.859 L60.3743 674.859 L60.3743 648.494 L52.0642 650.16 L52.0642 645.901 L60.328 644.235 L65.0039 644.235 L65.0039 674.859 L72.6428 674.859 L72.6428 678.795 L52.7355 678.795 L52.7355 674.859 Z" fill="#000000" fill-rule="evenodd" fill-opacity="1" /><path clip-path="url(#clip710)" d="M92.0871 647.313 Q88.476 647.313 86.6473 650.878 Q84.8418 654.42 84.8418 661.549 Q84.8418 668.656 86.6473 672.221 Q88.476 675.762 92.0871 675.762 Q95.7213 675.762 97.5269 672.221 Q99.3556 668.656 99.3556 661.549 Q99.3556 654.42 97.5269 650.878 Q95.7213 647.313 92.0871 647.313 M92.0871 643.61 Q97.8973 643.61 100.953 648.216 Q104.031 652.799 104.031 661.549 Q104.031 670.276 100.953 674.883 Q97.8973 679.466 92.0871 679.466 Q86.2769 679.466 83.1983 674.883 Q80.1427 670.276 80.1427 661.549 Q80.1427 652.799 83.1983 648.216 Q86.2769 643.61 92.0871 643.61 Z" fill="#000000" fill-rule="evenodd" fill-opacity="1" /><path clip-path="url(#clip710)" d="M114.056 635.83 Q111.498 635.83 109.994 637.579 Q108.508 639.328 108.508 642.375 Q108.508 645.403 109.994 647.171 Q111.498 648.92 114.056 648.92 Q116.614 648.92 118.1 647.171 Q119.604 645.403 119.604 642.375 Q119.604 639.328 118.1 637.579 Q116.614 635.83 114.056 635.83 M121.598 623.925 L121.598 627.385 Q120.169 626.708 118.702 626.351 Q117.253 625.994 115.824 625.994 Q112.062 625.994 110.069 628.533 Q108.094 631.072 107.812 636.206 Q108.922 634.57 110.595 633.705 Q112.269 632.821 114.282 632.821 Q118.513 632.821 120.958 635.398 Q123.422 637.955 123.422 642.375 Q123.422 646.701 120.864 649.315 Q118.307 651.93 114.056 651.93 Q109.185 651.93 106.608 648.206 Q104.031 644.463 104.031 637.372 Q104.031 630.714 107.191 626.765 Q110.351 622.796 115.673 622.796 Q117.103 622.796 118.551 623.079 Q120.018 623.361 121.598 623.925 Z" fill="#000000" fill-rule="evenodd" fill-opacity="1" /><path clip-path="url(#clip710)" d="M54.0708 384.993 L61.7097 384.993 L61.7097 358.628 L53.3995 360.295 L53.3995 356.035 L61.6634 354.369 L66.3393 354.369 L66.3393 384.993 L73.9781 384.993 L73.9781 388.929 L54.0708 388.929 L54.0708 384.993 Z" fill="#000000" fill-rule="evenodd" fill-opacity="1" /><path clip-path="url(#clip710)" d="M93.4225 357.447 Q89.8114 357.447 87.9827 361.012 Q86.1771 364.554 86.1771 371.683 Q86.1771 378.79 87.9827 382.355 Q89.8114 385.896 93.4225 385.896 Q97.0567 385.896 98.8622 382.355 Q100.691 378.79 100.691 371.683 Q100.691 364.554 98.8622 361.012 Q97.0567 357.447 93.4225 357.447 M93.4225 353.744 Q99.2326 353.744 102.288 358.35 Q105.367 362.933 105.367 371.683 Q105.367 380.41 102.288 385.017 Q99.2326 389.6 93.4225 389.6 Q87.6123 389.6 84.5336 385.017 Q81.4781 380.41 81.4781 371.683 Q81.4781 362.933 84.5336 358.35 Q87.6123 353.744 93.4225 353.744 Z" fill="#000000" fill-rule="evenodd" fill-opacity="1" /><path clip-path="url(#clip710)" d="M105.367 333.438 L123.422 333.438 L123.422 335.056 L113.228 361.518 L109.26 361.518 L118.852 336.636 L105.367 336.636 L105.367 333.438 Z" fill="#000000" fill-rule="evenodd" fill-opacity="1" /><path clip-path="url(#clip710)" d="M52.8671 95.1274 L60.506 95.1274 L60.506 68.7618 L52.1958 70.4285 L52.1958 66.1693 L60.4597 64.5026 L65.1356 64.5026 L65.1356 95.1274 L72.7744 95.1274 L72.7744 99.0626 L52.8671 99.0626 L52.8671 95.1274 Z" fill="#000000" fill-rule="evenodd" fill-opacity="1" /><path clip-path="url(#clip710)" d="M92.2188 67.5813 Q88.6077 67.5813 86.779 71.1461 Q84.9734 74.6877 84.9734 81.8173 Q84.9734 88.9238 86.779 92.4886 Q88.6077 96.0302 92.2188 96.0302 Q95.853 96.0302 97.6585 92.4886 Q99.4872 88.9238 99.4872 81.8173 Q99.4872 74.6877 97.6585 71.1461 Q95.853 67.5813 92.2188 67.5813 M92.2188 63.8776 Q98.0289 63.8776 101.084 68.4841 Q104.163 73.0674 104.163 81.8173 Q104.163 90.5441 101.084 95.1506 Q98.0289 99.7339 92.2188 99.7339 Q86.4086 99.7339 83.3299 95.1506 Q80.2744 90.5441 80.2744 81.8173 Q80.2744 73.0674 83.3299 68.4841 Q86.4086 63.8776 92.2188 63.8776 Z" fill="#000000" fill-rule="evenodd" fill-opacity="1" /><path clip-path="url(#clip710)" d="M113.793 58.3175 Q111.084 58.3175 109.523 59.7657 Q107.981 61.2139 107.981 63.7529 Q107.981 66.292 109.523 67.7402 Q111.084 69.1884 113.793 69.1884 Q116.501 69.1884 118.062 67.7402 Q119.623 66.2732 119.623 63.7529 Q119.623 61.2139 118.062 59.7657 Q116.52 58.3175 113.793 58.3175 M109.994 56.7 Q107.549 56.0982 106.176 54.4243 Q104.821 52.7504 104.821 50.343 Q104.821 46.9764 107.21 45.0204 Q109.617 43.0644 113.793 43.0644 Q117.987 43.0644 120.375 45.0204 Q122.764 46.9764 122.764 50.343 Q122.764 52.7504 121.391 54.4243 Q120.037 56.0982 117.611 56.7 Q120.357 57.3395 121.88 59.2015 Q123.422 61.0634 123.422 63.7529 Q123.422 67.8342 120.921 70.0159 Q118.438 72.1976 113.793 72.1976 Q109.147 72.1976 106.646 70.0159 Q104.163 67.8342 104.163 63.7529 Q104.163 61.0634 105.705 59.2015 Q107.248 57.3395 109.994 56.7 M108.602 50.7004 Q108.602 52.8821 109.956 54.1046 Q111.329 55.3271 113.793 55.3271 Q116.238 55.3271 117.611 54.1046 Q119.002 52.8821 119.002 50.7004 Q119.002 48.5187 117.611 47.2962 Q116.238 46.0736 113.793 46.0736 Q111.329 46.0736 109.956 47.2962 Q108.602 48.5187 108.602 50.7004 Z" fill="#000000" fill-rule="evenodd" fill-opacity="1" /><path clip-path="url(#clip712)" d="
M280.06 1240.6 L280.06 1552.76 L419.492 1552.76 L419.492 1240.6 L280.06 1240.6 L280.06 1240.6  Z
  " fill="#00bfff" fill-rule="evenodd" fill-opacity="1"/>
<polyline clip-path="url(#clip712)" style="stroke:#000000; stroke-linecap:round; stroke-linejoin:round; stroke-width:24; stroke-opacity:0.8; fill:none" points="
  280.06,1240.6 280.06,1552.76 419.492,1552.76 419.492,1240.6 280.06,1240.6 
  "/>
<path clip-path="url(#clip712)" d="
M419.492 1207.02 L419.492 1552.76 L558.925 1552.76 L558.925 1207.02 L419.492 1207.02 L419.492 1207.02  Z
  " fill="#1c86ee" fill-rule="evenodd" fill-opacity="1"/>
<polyline clip-path="url(#clip712)" style="stroke:#000000; stroke-linecap:round; stroke-linejoin:round; stroke-width:24; stroke-opacity:0.8; fill:none" points="
  419.492,1207.02 419.492,1552.76 558.925,1552.76 558.925,1207.02 419.492,1207.02 
  "/>
<path clip-path="url(#clip712)" d="
M558.925 1073.93 L558.925 1552.76 L698.358 1552.76 L698.358 1073.93 L558.925 1073.93 L558.925 1073.93  Z
  " fill="#87cefa" fill-rule="evenodd" fill-opacity="1"/>
<polyline clip-path="url(#clip712)" style="stroke:#000000; stroke-linecap:round; stroke-linejoin:round; stroke-width:24; stroke-opacity:0.8; fill:none" points="
  558.925,1073.93 558.925,1552.76 698.358,1552.76 698.358,1073.93 558.925,1073.93 
  "/>
<path clip-path="url(#clip712)" d="
M837.791 876.148 L837.791 1552.76 L977.224 1552.76 L977.224 876.148 L837.791 876.148 L837.791 876.148  Z
  " fill="#54ff9f" fill-rule="evenodd" fill-opacity="1"/>
<polyline clip-path="url(#clip712)" style="stroke:#000000; stroke-linecap:round; stroke-linejoin:round; stroke-width:24; stroke-opacity:0.8; fill:none" points="
  837.791,876.148 837.791,1552.76 977.224,1552.76 977.224,876.148 837.791,876.148 
  "/>
<path clip-path="url(#clip712)" d="
M977.224 1288.56 L977.224 1552.76 L1116.66 1552.76 L1116.66 1288.56 L977.224 1288.56 L977.224 1288.56  Z
  " fill="#7fff00" fill-rule="evenodd" fill-opacity="1"/>
<polyline clip-path="url(#clip712)" style="stroke:#000000; stroke-linecap:round; stroke-linejoin:round; stroke-width:24; stroke-opacity:0.8; fill:none" points="
  977.224,1288.56 977.224,1552.76 1116.66,1552.76 1116.66,1288.56 977.224,1288.56 
  "/>
<path clip-path="url(#clip712)" d="
M1256.09 878.471 L1256.09 1552.76 L1395.52 1552.76 L1395.52 878.471 L1256.09 878.471 L1256.09 878.471  Z
  " fill="#ffa500" fill-rule="evenodd" fill-opacity="1"/>
<polyline clip-path="url(#clip712)" style="stroke:#000000; stroke-linecap:round; stroke-linejoin:round; stroke-width:24; stroke-opacity:0.8; fill:none" points="
  1256.09,878.471 1256.09,1552.76 1395.52,1552.76 1395.52,878.471 1256.09,878.471 
  "/>
<path clip-path="url(#clip712)" d="
M1534.95 512.1 L1534.95 1552.76 L1674.39 1552.76 L1674.39 512.1 L1534.95 512.1 L1534.95 512.1  Z
  " fill="#f08080" fill-rule="evenodd" fill-opacity="1"/>
<polyline clip-path="url(#clip712)" style="stroke:#000000; stroke-linecap:round; stroke-linejoin:round; stroke-width:24; stroke-opacity:0.8; fill:none" points="
  1534.95,512.1 1534.95,1552.76 1674.39,1552.76 1674.39,512.1 1534.95,512.1 
  "/>
<path clip-path="url(#clip712)" d="
M1813.82 252.767 L1813.82 1552.76 L1953.25 1552.76 L1953.25 252.767 L1813.82 252.767 L1813.82 252.767  Z
  " fill="#ff3030" fill-rule="evenodd" fill-opacity="1"/>
<polyline clip-path="url(#clip712)" style="stroke:#000000; stroke-linecap:round; stroke-linejoin:round; stroke-width:24; stroke-opacity:0.8; fill:none" points="
  1813.82,252.767 1813.82,1552.76 1953.25,1552.76 1953.25,252.767 1813.82,252.767 
  "/>
<path clip-path="url(#clip712)" d="
M2092.69 943.716 L2092.69 1552.76 L2232.12 1552.76 L2232.12 943.716 L2092.69 943.716 L2092.69 943.716  Z
  " fill="#8b1a1a" fill-rule="evenodd" fill-opacity="1"/>
<polyline clip-path="url(#clip712)" style="stroke:#000000; stroke-linecap:round; stroke-linejoin:round; stroke-width:24; stroke-opacity:0.8; fill:none" points="
  2092.69,943.716 2092.69,1552.76 2232.12,1552.76 2232.12,943.716 2092.69,943.716 
  "/>
<circle clip-path="url(#clip712)" style="fill:#00bfff; stroke:none; fill-opacity:0" cx="349.776" cy="1240.6" r="2"/>
<circle clip-path="url(#clip712)" style="fill:#1c86ee; stroke:none; fill-opacity:0" cx="489.209" cy="1207.02" r="2"/>
<circle clip-path="url(#clip712)" style="fill:#87cefa; stroke:none; fill-opacity:0" cx="628.642" cy="1073.93" r="2"/>
<circle clip-path="url(#clip712)" style="fill:#54ff9f; stroke:none; fill-opacity:0" cx="907.507" cy="876.148" r="2"/>
<circle clip-path="url(#clip712)" style="fill:#7fff00; stroke:none; fill-opacity:0" cx="1046.94" cy="1288.56" r="2"/>
<circle clip-path="url(#clip712)" style="fill:#ffa500; stroke:none; fill-opacity:0" cx="1325.81" cy="878.471" r="2"/>
<circle clip-path="url(#clip712)" style="fill:#f08080; stroke:none; fill-opacity:0" cx="1604.67" cy="512.1" r="2"/>
<circle clip-path="url(#clip712)" style="fill:#ff3030; stroke:none; fill-opacity:0" cx="1883.54" cy="252.767" r="2"/>
<circle clip-path="url(#clip712)" style="fill:#8b1a1a; stroke:none; fill-opacity:0" cx="2162.4" cy="943.716" r="2"/>
<path clip-path="url(#clip712)" d="M349.776 1288.6 L308.208 1264.6 L308.208 1216.6 L349.776 1192.6 L391.344 1216.6 L391.344 1264.6 Z" fill="#00bfff" fill-rule="evenodd" fill-opacity="0.6" stroke="#404040" stroke-opacity="0.6" stroke-width="12.8"/>
<path clip-path="url(#clip712)" d="M527.609 1207.02 L470.009 1173.42 L470.009 1240.62 L527.609 1207.02 Z" fill="#1c86ee" fill-rule="evenodd" fill-opacity="0.6" stroke="#404040" stroke-opacity="0.6" stroke-width="12.8"/>
<path clip-path="url(#clip712)" d="M628.642 1025.93 L617.362 1058.38 L582.994 1059.1 L610.402 1079.88 L600.418 1112.76 L628.642 1093.13 L656.866 1112.76 L646.882 1079.88 L674.29 1059.1 L639.922 1058.38 L628.642 1025.93 Z" fill="#87cefa" fill-rule="evenodd" fill-opacity="0.6" stroke="#404040" stroke-opacity="0.6" stroke-width="12.8"/>
<path clip-path="url(#clip712)" d="M907.507 924.148 L893.923 889.732 L859.507 876.148 L893.923 862.564 L907.507 828.148 L921.091 862.564 L955.507 876.148 L921.091 889.732 L907.507 924.148 Z" fill="#54ff9f" fill-rule="evenodd" fill-opacity="0.6" stroke="#404040" stroke-opacity="0.6" stroke-width="12.8"/>
<circle clip-path="url(#clip712)" cx="1046.94" cy="1288.56" r="43.2" fill="#7fff00" fill-rule="evenodd" fill-opacity="0.6" stroke="#404040" stroke-opacity="0.6" stroke-width="12.8"/>
<path clip-path="url(#clip712)" d="M1325.81 830.471 L1277.81 878.471 L1325.81 926.471 L1373.81 878.471 L1325.81 830.471 Z" fill="#ffa500" fill-rule="evenodd" fill-opacity="0.6" stroke="#404040" stroke-opacity="0.6" stroke-width="12.8"/>
<path clip-path="url(#clip712)" d="M1604.67 560.1 L1570.74 546.036 L1556.67 512.1 L1570.74 478.164 L1604.67 464.1 L1638.61 478.164 L1652.67 512.1 L1638.61 546.036 Z" fill="#f08080" fill-rule="evenodd" fill-opacity="0.6" stroke="#404040" stroke-opacity="0.6" stroke-width="12.8"/>
<path clip-path="url(#clip712)" d="M1883.54 204.767 L1837.89 237.935 L1855.31 291.599 L1911.76 291.599 L1929.18 237.935 Z" fill="#ff3030" fill-rule="evenodd" fill-opacity="0.6" stroke="#404040" stroke-opacity="0.6" stroke-width="12.8"/>
<path clip-path="url(#clip712)" d="M2162.4 895.716 L2114.4 991.716 L2210.4 991.716 L2162.4 895.716 Z" fill="#8b1a1a" fill-rule="evenodd" fill-opacity="0.6" stroke="#404040" stroke-opacity="0.6" stroke-width="12.8"/>
</svg>
