<?xml version="1.0" encoding="utf-8"?>
<svg xmlns="http://www.w3.org/2000/svg" xmlns:xlink="http://www.w3.org/1999/xlink" width="600" height="400" viewBox="0 0 2400 1600">
<defs>
  <clipPath id="clip860">
    <rect x="0" y="0" width="2400" height="1600"/>
  </clipPath>
</defs>
<path clip-path="url(#clip860)" d="
M0 1600 L2400 1600 L2400 0 L0 0  Z
  " fill="#ffffff" fill-rule="evenodd" fill-opacity="1"/>
<defs>
  <clipPath id="clip861">
    <rect x="480" y="0" width="1681" height="1600"/>
  </clipPath>
</defs>
<path clip-path="url(#clip860)" d="
M221.618 1410.9 L2352.76 1410.9 L2352.76 47.2441 L221.618 47.2441  Z
  " fill="#ffffff" fill-rule="evenodd" fill-opacity="1"/>
<defs>
  <clipPath id="clip862">
    <rect x="221" y="47" width="2132" height="1365"/>
  </clipPath>
</defs>
<polyline clip-path="url(#clip862)" style="stroke:#000000; stroke-linecap:round; stroke-linejoin:round; stroke-width:10; stroke-opacity:0.3; fill:none" points="
  315.759,1410.9 315.759,47.2441 
  "/>
<polyline clip-path="url(#clip862)" style="stroke:#000000; stroke-linecap:round; stroke-linejoin:round; stroke-width:10; stroke-opacity:0.3; fill:none" points="
  1287.19,1410.9 1287.19,47.2441 
  "/>
<polyline clip-path="url(#clip862)" style="stroke:#000000; stroke-linecap:round; stroke-linejoin:round; stroke-width:10; stroke-opacity:0.3; fill:none" points="
  2258.61,1410.9 2258.61,47.2441 
  "/>
<polyline clip-path="url(#clip860)" style="stroke:#000000; stroke-linecap:round; stroke-linejoin:round; stroke-width:4; stroke-opacity:1; fill:none" points="
  221.618,1410.9 2352.76,1410.9 
  "/>
<polyline clip-path="url(#clip860)" style="stroke:#000000; stroke-linecap:round; stroke-linejoin:round; stroke-width:4; stroke-opacity:1; fill:none" points="
  221.618,47.2441 2352.76,47.2441 
  "/>
<polyline clip-path="url(#clip860)" style="stroke:#000000; stroke-linecap:round; stroke-linejoin:round; stroke-width:4; stroke-opacity:1; fill:none" points="
  315.759,1410.9 315.759,1392 
  "/>
<polyline clip-path="url(#clip860)" style="stroke:#000000; stroke-linecap:round; stroke-linejoin:round; stroke-width:4; stroke-opacity:1; fill:none" points="
  1287.19,1410.9 1287.19,1392 
  "/>
<polyline clip-path="url(#clip860)" style="stroke:#000000; stroke-linecap:round; stroke-linejoin:round; stroke-width:4; stroke-opacity:1; fill:none" points="
  2258.61,1410.9 2258.61,1392 
  "/>
<path clip-path="url(#clip860)" d="M281.203 1485.02 L288.842 1485.02 L288.842 1458.66 L280.532 1460.32 L280.532 1456.06 L288.796 1454.4 L293.471 1454.4 L293.471 1485.02 L301.11 1485.02 L301.11 1488.96 L281.203 1488.96 L281.203 1485.02 Z" fill="#000000" fill-rule="evenodd" fill-opacity="1" /><path clip-path="url(#clip860)" d="M320.555 1457.48 Q316.944 1457.48 315.115 1461.04 Q313.309 1464.58 313.309 1471.71 Q313.309 1478.82 315.115 1482.38 Q316.944 1485.92 320.555 1485.92 Q324.189 1485.92 325.994 1482.38 Q327.823 1478.82 327.823 1471.71 Q327.823 1464.58 325.994 1461.04 Q324.189 1457.48 320.555 1457.48 M320.555 1453.77 Q326.365 1453.77 329.42 1458.38 Q332.499 1462.96 332.499 1471.71 Q332.499 1480.44 329.42 1485.04 Q326.365 1489.63 320.555 1489.63 Q314.744 1489.63 311.666 1485.04 Q308.61 1480.44 308.61 1471.71 Q308.61 1462.96 311.666 1458.38 Q314.744 1453.77 320.555 1453.77 Z" fill="#000000" fill-rule="evenodd" fill-opacity="1" /><path clip-path="url(#clip860)" d="M345.194 1446.41 Q347.921 1446.99 349.445 1448.83 Q350.987 1450.68 350.987 1453.38 Q350.987 1457.54 348.128 1459.82 Q345.269 1462.09 340.003 1462.09 Q338.235 1462.09 336.355 1461.73 Q334.493 1461.4 332.499 1460.7 L332.499 1457.03 Q334.079 1457.95 335.96 1458.42 Q337.84 1458.89 339.89 1458.89 Q343.464 1458.89 345.326 1457.48 Q347.207 1456.07 347.207 1453.38 Q347.207 1450.9 345.458 1449.51 Q343.727 1448.1 340.624 1448.1 L337.351 1448.1 L337.351 1444.98 L340.774 1444.98 Q343.577 1444.98 345.063 1443.87 Q346.548 1442.74 346.548 1440.63 Q346.548 1438.47 345.006 1437.32 Q343.483 1436.16 340.624 1436.16 Q339.063 1436.16 337.276 1436.49 Q335.489 1436.83 333.345 1437.55 L333.345 1434.16 Q335.508 1433.56 337.389 1433.26 Q339.289 1432.96 340.962 1432.96 Q345.288 1432.96 347.809 1434.93 Q350.329 1436.89 350.329 1440.24 Q350.329 1442.57 348.993 1444.19 Q347.658 1445.79 345.194 1446.41 Z" fill="#000000" fill-rule="evenodd" fill-opacity="1" /><path clip-path="url(#clip860)" d="M1251.64 1485.02 L1259.28 1485.02 L1259.28 1458.66 L1250.97 1460.32 L1250.97 1456.06 L1259.24 1454.4 L1263.91 1454.4 L1263.91 1485.02 L1271.55 1485.02 L1271.55 1488.96 L1251.64 1488.96 L1251.64 1485.02 Z" fill="#000000" fill-rule="evenodd" fill-opacity="1" /><path clip-path="url(#clip860)" d="M1290.99 1457.48 Q1287.38 1457.48 1285.56 1461.04 Q1283.75 1464.58 1283.75 1471.71 Q1283.75 1478.82 1285.56 1482.38 Q1287.38 1485.92 1290.99 1485.92 Q1294.63 1485.92 1296.43 1482.38 Q1298.26 1478.82 1298.26 1471.71 Q1298.26 1464.58 1296.43 1461.04 Q1294.63 1457.48 1290.99 1457.48 M1290.99 1453.77 Q1296.81 1453.77 1299.86 1458.38 Q1302.94 1462.96 1302.94 1471.71 Q1302.94 1480.44 1299.86 1485.04 Q1296.81 1489.63 1290.99 1489.63 Q1285.18 1489.63 1282.11 1485.04 Q1279.05 1480.44 1279.05 1471.71 Q1279.05 1462.96 1282.11 1458.38 Q1285.18 1453.77 1290.99 1453.77 Z" fill="#000000" fill-rule="evenodd" fill-opacity="1" /><path clip-path="url(#clip860)" d="M1315.62 1436.78 L1306.02 1451.77 L1315.62 1451.77 L1315.62 1436.78 M1314.62 1433.47 L1319.4 1433.47 L1319.4 1451.77 L1323.4 1451.77 L1323.4 1454.93 L1319.4 1454.93 L1319.4 1461.55 L1315.62 1461.55 L1315.62 1454.93 L1302.94 1454.93 L1302.94 1451.26 L1314.62 1433.47 Z" fill="#000000" fill-rule="evenodd" fill-opacity="1" /><path clip-path="url(#clip860)" d="M2224.22 1485.02 L2231.86 1485.02 L2231.86 1458.66 L2223.55 1460.32 L2223.55 1456.06 L2231.81 1454.4 L2236.49 1454.4 L2236.49 1485.02 L2244.13 1485.02 L2244.13 1488.96 L2224.22 1488.96 L2224.22 1485.02 Z" fill="#000000" fill-rule="evenodd" fill-opacity="1" /><path clip-path="url(#clip860)" d="M2263.57 1457.48 Q2259.96 1457.48 2258.13 1461.04 Q2256.32 1464.58 2256.32 1471.71 Q2256.32 1478.82 2258.13 1482.38 Q2259.96 1485.92 2263.57 1485.92 Q2267.2 1485.92 2269.01 1482.38 Q2270.84 1478.82 2270.84 1471.71 Q2270.84 1464.58 2269.01 1461.04 Q2267.2 1457.48 2263.57 1457.48 M2263.57 1453.77 Q2269.38 1453.77 2272.44 1458.38 Q2275.51 1462.96 2275.51 1471.71 Q2275.51 1480.44 2272.44 1485.04 Q2269.38 1489.63 2263.57 1489.63 Q2257.76 1489.63 2254.68 1485.04 Q2251.63 1480.44 2251.63 1471.71 Q2251.63 1462.96 2254.68 1458.38 Q2257.76 1453.77 2263.57 1453.77 Z" fill="#000000" fill-rule="evenodd" fill-opacity="1" /><path clip-path="url(#clip860)" d="M2276.7 1433.47 L2291.61 1433.47 L2291.61 1436.66 L2280.18 1436.66 L2280.18 1443.55 Q2281.01 1443.27 2281.83 1443.13 Q2282.66 1442.98 2283.49 1442.98 Q2288.19 1442.98 2290.94 1445.56 Q2293.68 1448.14 2293.68 1452.54 Q2293.68 1457.07 2290.86 1459.59 Q2288.04 1462.09 2282.91 1462.09 Q2281.14 1462.09 2279.29 1461.79 Q2277.47 1461.49 2275.51 1460.89 L2275.51 1457.07 Q2277.21 1457.99 2279.01 1458.44 Q2280.82 1458.89 2282.83 1458.89 Q2286.08 1458.89 2287.98 1457.18 Q2289.88 1455.47 2289.88 1452.54 Q2289.88 1449.6 2287.98 1447.89 Q2286.08 1446.18 2282.83 1446.18 Q2281.31 1446.18 2279.78 1446.52 Q2278.28 1446.86 2276.7 1447.57 L2276.7 1433.47 Z" fill="#000000" fill-rule="evenodd" fill-opacity="1" /><path clip-path="url(#clip860)" d="M808.581 1526.67 L818.162 1526.67 L830.289 1559 L842.479 1526.67 L852.059 1526.67 L852.059 1574.19 L845.789 1574.19 L845.789 1532.46 L833.535 1565.05 L827.074 1565.05 L814.82 1532.46 L814.82 1574.19 L808.581 1574.19 L808.581 1526.67 Z" fill="#000000" fill-rule="evenodd" fill-opacity="1" /><path clip-path="url(#clip860)" d="M878.381 1542.64 Q873.671 1542.64 870.934 1546.34 Q868.196 1550 868.196 1556.39 Q868.196 1562.79 870.902 1566.48 Q873.639 1570.14 878.381 1570.14 Q883.06 1570.14 885.797 1566.45 Q888.535 1562.76 888.535 1556.39 Q888.535 1550.06 885.797 1546.37 Q883.06 1542.64 878.381 1542.64 M878.381 1537.68 Q886.02 1537.68 890.381 1542.64 Q894.741 1547.61 894.741 1556.39 Q894.741 1565.15 890.381 1570.14 Q886.02 1575.11 878.381 1575.11 Q870.711 1575.11 866.35 1570.14 Q862.022 1565.15 862.022 1556.39 Q862.022 1547.61 866.35 1542.64 Q870.711 1537.68 878.381 1537.68 Z" fill="#000000" fill-rule="evenodd" fill-opacity="1" /><path clip-path="url(#clip860)" d="M927.907 1543.95 L927.907 1524.66 L933.763 1524.66 L933.763 1574.19 L927.907 1574.19 L927.907 1568.84 Q926.061 1572.02 923.228 1573.58 Q920.427 1575.11 916.48 1575.11 Q910.019 1575.11 905.945 1569.95 Q901.903 1564.8 901.903 1556.39 Q901.903 1547.99 905.945 1542.83 Q910.019 1537.68 916.48 1537.68 Q920.427 1537.68 923.228 1539.24 Q926.061 1540.77 927.907 1543.95 M907.95 1556.39 Q907.95 1562.85 910.592 1566.55 Q913.265 1570.21 917.912 1570.21 Q922.559 1570.21 925.233 1566.55 Q927.907 1562.85 927.907 1556.39 Q927.907 1549.93 925.233 1546.27 Q922.559 1542.58 917.912 1542.58 Q913.265 1542.58 910.592 1546.27 Q907.95 1549.93 907.95 1556.39 Z" fill="#000000" fill-rule="evenodd" fill-opacity="1" /><path clip-path="url(#clip860)" d="M976.318 1554.9 L976.318 1557.76 L949.391 1557.76 Q949.773 1563.81 953.019 1566.99 Q956.298 1570.14 962.122 1570.14 Q965.496 1570.14 968.647 1569.32 Q971.83 1568.49 974.949 1566.83 L974.949 1572.37 Q971.798 1573.71 968.488 1574.41 Q965.178 1575.11 961.772 1575.11 Q953.242 1575.11 948.245 1570.14 Q943.28 1565.18 943.28 1556.71 Q943.28 1547.96 947.99 1542.83 Q952.733 1537.68 960.754 1537.68 Q967.947 1537.68 972.116 1542.33 Q976.318 1546.94 976.318 1554.9 M970.461 1553.18 Q970.398 1548.37 967.756 1545.51 Q965.146 1542.64 960.817 1542.64 Q955.916 1542.64 952.956 1545.41 Q950.027 1548.18 949.582 1553.21 L970.461 1553.18 Z" fill="#000000" fill-rule="evenodd" fill-opacity="1" /><path clip-path="url(#clip860)" d="M985.93 1524.66 L991.786 1524.66 L991.786 1574.19 L985.93 1574.19 L985.93 1524.66 Z" fill="#000000" fill-rule="evenodd" fill-opacity="1" /><path clip-path="url(#clip860)" d="M1038.83 1524.72 Q1034.56 1532.04 1032.5 1539.21 Q1030.43 1546.37 1030.43 1553.72 Q1030.43 1561.07 1032.5 1568.3 Q1034.6 1575.49 1038.83 1582.78 L1033.74 1582.78 Q1028.96 1575.3 1026.58 1568.07 Q1024.22 1560.85 1024.22 1553.72 Q1024.22 1546.62 1026.58 1539.43 Q1028.93 1532.24 1033.74 1524.72 L1038.83 1524.72 Z" fill="#000000" fill-rule="evenodd" fill-opacity="1" /><path clip-path="url(#clip860)" d="M1055.86 1568.84 L1055.86 1587.74 L1049.97 1587.74 L1049.97 1538.54 L1055.86 1538.54 L1055.86 1543.95 Q1057.7 1540.77 1060.5 1539.24 Q1063.34 1537.68 1067.25 1537.68 Q1073.74 1537.68 1077.79 1542.83 Q1081.86 1547.99 1081.86 1556.39 Q1081.86 1564.8 1077.79 1569.95 Q1073.74 1575.11 1067.25 1575.11 Q1063.34 1575.11 1060.5 1573.58 Q1057.7 1572.02 1055.86 1568.84 M1075.78 1556.39 Q1075.78 1549.93 1073.11 1546.27 Q1070.47 1542.58 1065.82 1542.58 Q1061.17 1542.58 1058.5 1546.27 Q1055.86 1549.93 1055.86 1556.39 Q1055.86 1562.85 1058.5 1566.55 Q1061.17 1570.21 1065.82 1570.21 Q1070.47 1570.21 1073.11 1566.55 Q1075.78 1562.85 1075.78 1556.39 Z" fill="#000000" fill-rule="evenodd" fill-opacity="1" /><path clip-path="url(#clip860)" d="M1121.2 1552.67 L1121.2 1574.19 L1115.34 1574.19 L1115.34 1552.86 Q1115.34 1547.8 1113.37 1545.29 Q1111.4 1542.77 1107.45 1542.77 Q1102.71 1542.77 1099.97 1545.79 Q1097.23 1548.82 1097.23 1554.04 L1097.23 1574.19 L1091.35 1574.19 L1091.35 1524.66 L1097.23 1524.66 L1097.23 1544.08 Q1099.34 1540.86 1102.17 1539.27 Q1105.03 1537.68 1108.76 1537.68 Q1114.9 1537.68 1118.05 1541.5 Q1121.2 1545.29 1121.2 1552.67 Z" fill="#000000" fill-rule="evenodd" fill-opacity="1" /><path clip-path="url(#clip860)" d="M1147.71 1577.5 Q1145.23 1583.86 1142.88 1585.8 Q1140.52 1587.74 1136.57 1587.74 L1131.9 1587.74 L1131.9 1582.84 L1135.33 1582.84 Q1137.75 1582.84 1139.09 1581.7 Q1140.43 1580.55 1142.05 1576.29 L1143.1 1573.61 L1128.68 1538.54 L1134.89 1538.54 L1146.03 1566.42 L1157.17 1538.54 L1163.37 1538.54 L1147.71 1577.5 Z" fill="#000000" fill-rule="evenodd" fill-opacity="1" /><path clip-path="url(#clip860)" d="M1194.18 1539.59 L1194.18 1545.13 Q1191.7 1543.85 1189.03 1543.22 Q1186.35 1542.58 1183.49 1542.58 Q1179.13 1542.58 1176.93 1543.92 Q1174.77 1545.25 1174.77 1547.93 Q1174.77 1549.96 1176.33 1551.14 Q1177.89 1552.29 1182.6 1553.34 L1184.6 1553.78 Q1190.84 1555.12 1193.45 1557.57 Q1196.09 1559.99 1196.09 1564.35 Q1196.09 1569.32 1192.15 1572.21 Q1188.23 1575.11 1181.36 1575.11 Q1178.49 1575.11 1175.37 1574.54 Q1172.29 1573.99 1168.85 1572.88 L1168.85 1566.83 Q1172.1 1568.52 1175.25 1569.38 Q1178.4 1570.21 1181.48 1570.21 Q1185.62 1570.21 1187.85 1568.81 Q1190.08 1567.37 1190.08 1564.8 Q1190.08 1562.41 1188.45 1561.14 Q1186.86 1559.86 1181.42 1558.68 L1179.38 1558.21 Q1173.94 1557.06 1171.52 1554.71 Q1169.1 1552.32 1169.1 1548.18 Q1169.1 1543.15 1172.67 1540.42 Q1176.23 1537.68 1182.79 1537.68 Q1186.04 1537.68 1188.9 1538.16 Q1191.77 1538.63 1194.18 1539.59 Z" fill="#000000" fill-rule="evenodd" fill-opacity="1" /><path clip-path="url(#clip860)" d="M1205.42 1538.54 L1211.28 1538.54 L1211.28 1574.19 L1205.42 1574.19 L1205.42 1538.54 M1205.42 1524.66 L1211.28 1524.66 L1211.28 1532.08 L1205.42 1532.08 L1205.42 1524.66 Z" fill="#000000" fill-rule="evenodd" fill-opacity="1" /><path clip-path="url(#clip860)" d="M1249.18 1539.91 L1249.18 1545.38 Q1246.7 1544.01 1244.19 1543.34 Q1241.7 1542.64 1239.16 1542.64 Q1233.46 1542.64 1230.31 1546.27 Q1227.16 1549.87 1227.16 1556.39 Q1227.16 1562.92 1230.31 1566.55 Q1233.46 1570.14 1239.16 1570.14 Q1241.7 1570.14 1244.19 1569.47 Q1246.7 1568.77 1249.18 1567.41 L1249.18 1572.82 Q1246.73 1573.96 1244.09 1574.54 Q1241.48 1575.11 1238.52 1575.11 Q1230.47 1575.11 1225.73 1570.05 Q1220.98 1564.99 1220.98 1556.39 Q1220.98 1547.67 1225.76 1542.68 Q1230.56 1537.68 1238.9 1537.68 Q1241.61 1537.68 1244.19 1538.25 Q1246.76 1538.79 1249.18 1539.91 Z" fill="#000000" fill-rule="evenodd" fill-opacity="1" /><path clip-path="url(#clip860)" d="M1275.57 1556.27 Q1268.47 1556.27 1265.73 1557.89 Q1263 1559.51 1263 1563.43 Q1263 1566.55 1265.03 1568.39 Q1267.1 1570.21 1270.64 1570.21 Q1275.51 1570.21 1278.43 1566.77 Q1281.39 1563.3 1281.39 1557.57 L1281.39 1556.27 L1275.57 1556.27 M1287.25 1553.85 L1287.25 1574.19 L1281.39 1574.19 L1281.39 1568.77 Q1279.39 1572.02 1276.4 1573.58 Q1273.41 1575.11 1269.08 1575.11 Q1263.6 1575.11 1260.36 1572.05 Q1257.14 1568.97 1257.14 1563.81 Q1257.14 1557.79 1261.15 1554.74 Q1265.19 1551.68 1273.18 1551.68 L1281.39 1551.68 L1281.39 1551.11 Q1281.39 1547.07 1278.72 1544.87 Q1276.08 1542.64 1271.27 1542.64 Q1268.22 1542.64 1265.32 1543.38 Q1262.42 1544.11 1259.75 1545.57 L1259.75 1540.16 Q1262.97 1538.92 1265.99 1538.31 Q1269.01 1537.68 1271.88 1537.68 Q1279.61 1537.68 1283.43 1541.69 Q1287.25 1545.7 1287.25 1553.85 Z" fill="#000000" fill-rule="evenodd" fill-opacity="1" /><path clip-path="url(#clip860)" d="M1299.31 1524.66 L1305.17 1524.66 L1305.17 1574.19 L1299.31 1574.19 L1299.31 1524.66 Z" fill="#000000" fill-rule="evenodd" fill-opacity="1" /><path clip-path="url(#clip860)" d="M1316.5 1524.72 L1321.59 1524.72 Q1326.37 1532.24 1328.72 1539.43 Q1331.11 1546.62 1331.11 1553.72 Q1331.11 1560.85 1328.72 1568.07 Q1326.37 1575.3 1321.59 1582.78 L1316.5 1582.78 Q1320.73 1575.49 1322.8 1568.3 Q1324.9 1561.07 1324.9 1553.72 Q1324.9 1546.37 1322.8 1539.21 Q1320.73 1532.04 1316.5 1524.72 Z" fill="#000000" fill-rule="evenodd" fill-opacity="1" /><path clip-path="url(#clip860)" d="M1381.62 1524.66 L1381.62 1529.53 L1376.02 1529.53 Q1372.87 1529.53 1371.63 1530.8 Q1370.42 1532.08 1370.42 1535.39 L1370.42 1538.54 L1380.06 1538.54 L1380.06 1543.09 L1370.42 1543.09 L1370.42 1574.19 L1364.53 1574.19 L1364.53 1543.09 L1358.93 1543.09 L1358.93 1538.54 L1364.53 1538.54 L1364.53 1536.05 Q1364.53 1530.1 1367.3 1527.4 Q1370.07 1524.66 1376.08 1524.66 L1381.62 1524.66 Z" fill="#000000" fill-rule="evenodd" fill-opacity="1" /><path clip-path="url(#clip860)" d="M1386.52 1538.54 L1392.38 1538.54 L1392.38 1574.19 L1386.52 1574.19 L1386.52 1538.54 M1386.52 1524.66 L1392.38 1524.66 L1392.38 1532.08 L1386.52 1532.08 L1386.52 1524.66 Z" fill="#000000" fill-rule="evenodd" fill-opacity="1" /><path clip-path="url(#clip860)" d="M1434.27 1552.67 L1434.27 1574.19 L1428.41 1574.19 L1428.41 1552.86 Q1428.41 1547.8 1426.44 1545.29 Q1424.46 1542.77 1420.52 1542.77 Q1415.77 1542.77 1413.04 1545.79 Q1410.3 1548.82 1410.3 1554.04 L1410.3 1574.19 L1404.41 1574.19 L1404.41 1538.54 L1410.3 1538.54 L1410.3 1544.08 Q1412.4 1540.86 1415.23 1539.27 Q1418.1 1537.68 1421.82 1537.68 Q1427.96 1537.68 1431.12 1541.5 Q1434.27 1545.29 1434.27 1552.67 Z" fill="#000000" fill-rule="evenodd" fill-opacity="1" /><path clip-path="url(#clip860)" d="M1462.15 1556.27 Q1455.05 1556.27 1452.31 1557.89 Q1449.58 1559.51 1449.58 1563.43 Q1449.58 1566.55 1451.61 1568.39 Q1453.68 1570.21 1457.22 1570.21 Q1462.08 1570.21 1465.01 1566.77 Q1467.97 1563.3 1467.97 1557.57 L1467.97 1556.27 L1462.15 1556.27 M1473.83 1553.85 L1473.83 1574.19 L1467.97 1574.19 L1467.97 1568.77 Q1465.97 1572.02 1462.98 1573.58 Q1459.98 1575.11 1455.66 1575.11 Q1450.18 1575.11 1446.93 1572.05 Q1443.72 1568.97 1443.72 1563.81 Q1443.72 1557.79 1447.73 1554.74 Q1451.77 1551.68 1459.76 1551.68 L1467.97 1551.68 L1467.97 1551.11 Q1467.97 1547.07 1465.3 1544.87 Q1462.66 1542.64 1457.85 1542.64 Q1454.8 1542.64 1451.9 1543.38 Q1449 1544.11 1446.33 1545.57 L1446.33 1540.16 Q1449.54 1538.92 1452.57 1538.31 Q1455.59 1537.68 1458.46 1537.68 Q1466.19 1537.68 1470.01 1541.69 Q1473.83 1545.7 1473.83 1553.85 Z" fill="#000000" fill-rule="evenodd" fill-opacity="1" /><path clip-path="url(#clip860)" d="M1485.89 1524.66 L1491.75 1524.66 L1491.75 1574.19 L1485.89 1574.19 L1485.89 1524.66 Z" fill="#000000" fill-rule="evenodd" fill-opacity="1" /><path clip-path="url(#clip860)" d="M1530.52 1528.42 L1530.52 1538.54 L1542.58 1538.54 L1542.58 1543.09 L1530.52 1543.09 L1530.52 1562.44 Q1530.52 1566.8 1531.69 1568.04 Q1532.9 1569.28 1536.56 1569.28 L1542.58 1569.28 L1542.58 1574.19 L1536.56 1574.19 Q1529.78 1574.19 1527.21 1571.67 Q1524.63 1569.12 1524.63 1562.44 L1524.63 1543.09 L1520.33 1543.09 L1520.33 1538.54 L1524.63 1538.54 L1524.63 1528.42 L1530.52 1528.42 Z" fill="#000000" fill-rule="evenodd" fill-opacity="1" /><path clip-path="url(#clip860)" d="M1550.28 1538.54 L1556.14 1538.54 L1556.14 1574.19 L1550.28 1574.19 L1550.28 1538.54 M1550.28 1524.66 L1556.14 1524.66 L1556.14 1532.08 L1550.28 1532.08 L1550.28 1524.66 Z" fill="#000000" fill-rule="evenodd" fill-opacity="1" /><path clip-path="url(#clip860)" d="M1596.15 1545.38 Q1598.34 1541.43 1601.4 1539.56 Q1604.45 1537.68 1608.59 1537.68 Q1614.16 1537.68 1617.19 1541.59 Q1620.21 1545.48 1620.21 1552.67 L1620.21 1574.19 L1614.32 1574.19 L1614.32 1552.86 Q1614.32 1547.74 1612.51 1545.25 Q1610.69 1542.77 1606.97 1542.77 Q1602.42 1542.77 1599.78 1545.79 Q1597.13 1548.82 1597.13 1554.04 L1597.13 1574.19 L1591.25 1574.19 L1591.25 1552.86 Q1591.25 1547.7 1589.43 1545.25 Q1587.62 1542.77 1583.83 1542.77 Q1579.34 1542.77 1576.7 1545.83 Q1574.06 1548.85 1574.06 1554.04 L1574.06 1574.19 L1568.17 1574.19 L1568.17 1538.54 L1574.06 1538.54 L1574.06 1544.08 Q1576.06 1540.8 1578.86 1539.24 Q1581.66 1537.68 1585.52 1537.68 Q1589.4 1537.68 1592.1 1539.65 Q1594.84 1541.62 1596.15 1545.38 Z" fill="#000000" fill-rule="evenodd" fill-opacity="1" /><path clip-path="url(#clip860)" d="M1662.38 1554.9 L1662.38 1557.76 L1635.45 1557.76 Q1635.84 1563.81 1639.08 1566.99 Q1642.36 1570.14 1648.19 1570.14 Q1651.56 1570.14 1654.71 1569.32 Q1657.89 1568.49 1661.01 1566.83 L1661.01 1572.37 Q1657.86 1573.71 1654.55 1574.41 Q1651.24 1575.11 1647.84 1575.11 Q1639.31 1575.11 1634.31 1570.14 Q1629.34 1565.18 1629.34 1556.71 Q1629.34 1547.96 1634.05 1542.83 Q1638.8 1537.68 1646.82 1537.68 Q1654.01 1537.68 1658.18 1542.33 Q1662.38 1546.94 1662.38 1554.9 M1656.53 1553.18 Q1656.46 1548.37 1653.82 1545.51 Q1651.21 1542.64 1646.88 1542.64 Q1641.98 1542.64 1639.02 1545.41 Q1636.09 1548.18 1635.65 1553.21 L1656.53 1553.18 Z" fill="#000000" fill-rule="evenodd" fill-opacity="1" /><path clip-path="url(#clip860)" d="M1706.78 1524.72 Q1702.52 1532.04 1700.45 1539.21 Q1698.38 1546.37 1698.38 1553.72 Q1698.38 1561.07 1700.45 1568.3 Q1702.55 1575.49 1706.78 1582.78 L1701.69 1582.78 Q1696.92 1575.3 1694.53 1568.07 Q1692.17 1560.85 1692.17 1553.72 Q1692.17 1546.62 1694.53 1539.43 Q1696.88 1532.24 1701.69 1524.72 L1706.78 1524.72 Z" fill="#000000" fill-rule="evenodd" fill-opacity="1" /><path clip-path="url(#clip860)" d="M1740.87 1539.59 L1740.87 1545.13 Q1738.39 1543.85 1735.71 1543.22 Q1733.04 1542.58 1730.18 1542.58 Q1725.82 1542.58 1723.62 1543.92 Q1721.46 1545.25 1721.46 1547.93 Q1721.46 1549.96 1723.02 1551.14 Q1724.57 1552.29 1729.29 1553.34 L1731.29 1553.78 Q1737.53 1555.12 1740.14 1557.57 Q1742.78 1559.99 1742.78 1564.35 Q1742.78 1569.32 1738.83 1572.21 Q1734.92 1575.11 1728.04 1575.11 Q1725.18 1575.11 1722.06 1574.54 Q1718.97 1573.99 1715.54 1572.88 L1715.54 1566.83 Q1718.78 1568.52 1721.93 1569.38 Q1725.08 1570.21 1728.17 1570.21 Q1732.31 1570.21 1734.54 1568.81 Q1736.77 1567.37 1736.77 1564.8 Q1736.77 1562.41 1735.14 1561.14 Q1733.55 1559.86 1728.11 1558.68 L1726.07 1558.21 Q1720.63 1557.06 1718.21 1554.71 Q1715.79 1552.32 1715.79 1548.18 Q1715.79 1543.15 1719.35 1540.42 Q1722.92 1537.68 1729.48 1537.68 Q1732.72 1537.68 1735.59 1538.16 Q1738.45 1538.63 1740.87 1539.59 Z" fill="#000000" fill-rule="evenodd" fill-opacity="1" /><path clip-path="url(#clip860)" d="M1751.18 1524.72 L1756.28 1524.72 Q1761.05 1532.24 1763.41 1539.43 Q1765.79 1546.62 1765.79 1553.72 Q1765.79 1560.85 1763.41 1568.07 Q1761.05 1575.3 1756.28 1582.78 L1751.18 1582.78 Q1755.42 1575.49 1757.49 1568.3 Q1759.59 1561.07 1759.59 1553.72 Q1759.59 1546.37 1757.49 1539.21 Q1755.42 1532.04 1751.18 1524.72 Z" fill="#000000" fill-rule="evenodd" fill-opacity="1" /><polyline clip-path="url(#clip862)" style="stroke:#000000; stroke-linecap:round; stroke-linejoin:round; stroke-width:10; stroke-opacity:0.3; fill:none" points="
  221.618,1369.52 2352.76,1369.52 
  "/>
<polyline clip-path="url(#clip862)" style="stroke:#000000; stroke-linecap:round; stroke-linejoin:round; stroke-width:10; stroke-opacity:0.3; fill:none" points="
  221.618,942.553 2352.76,942.553 
  "/>
<polyline clip-path="url(#clip862)" style="stroke:#000000; stroke-linecap:round; stroke-linejoin:round; stroke-width:10; stroke-opacity:0.3; fill:none" points="
  221.618,515.587 2352.76,515.587 
  "/>
<polyline clip-path="url(#clip862)" style="stroke:#000000; stroke-linecap:round; stroke-linejoin:round; stroke-width:10; stroke-opacity:0.3; fill:none" points="
  221.618,88.6214 2352.76,88.6214 
  "/>
<polyline clip-path="url(#clip860)" style="stroke:#000000; stroke-linecap:round; stroke-linejoin:round; stroke-width:4; stroke-opacity:1; fill:none" points="
  221.618,1410.9 221.618,47.2441 
  "/>
<polyline clip-path="url(#clip860)" style="stroke:#000000; stroke-linecap:round; stroke-linejoin:round; stroke-width:4; stroke-opacity:1; fill:none" points="
  2352.76,1410.9 2352.76,47.2441 
  "/>
<polyline clip-path="url(#clip860)" style="stroke:#000000; stroke-linecap:round; stroke-linejoin:round; stroke-width:4; stroke-opacity:1; fill:none" points="
  221.618,1369.52 240.516,1369.52 
  "/>
<polyline clip-path="url(#clip860)" style="stroke:#000000; stroke-linecap:round; stroke-linejoin:round; stroke-width:4; stroke-opacity:1; fill:none" points="
  221.618,942.553 240.516,942.553 
  "/>
<polyline clip-path="url(#clip860)" style="stroke:#000000; stroke-linecap:round; stroke-linejoin:round; stroke-width:4; stroke-opacity:1; fill:none" points="
  221.618,515.587 240.516,515.587 
  "/>
<polyline clip-path="url(#clip860)" style="stroke:#000000; stroke-linecap:round; stroke-linejoin:round; stroke-width:4; stroke-opacity:1; fill:none" points="
  221.618,88.6214 240.516,88.6214 
  "/>
<path clip-path="url(#clip860)" d="M116.154 1389.31 L123.793 1389.31 L123.793 1362.95 L115.483 1364.61 L115.483 1360.35 L123.747 1358.69 L128.422 1358.69 L128.422 1389.31 L136.061 1389.31 L136.061 1393.25 L116.154 1393.25 L116.154 1389.31 Z" fill="#000000" fill-rule="evenodd" fill-opacity="1" /><path clip-path="url(#clip860)" d="M155.506 1361.77 Q151.895 1361.77 150.066 1365.33 Q148.26 1368.87 148.26 1376 Q148.26 1383.11 150.066 1386.67 Q151.895 1390.21 155.506 1390.21 Q159.14 1390.21 160.945 1386.67 Q162.774 1383.11 162.774 1376 Q162.774 1368.87 160.945 1365.33 Q159.14 1361.77 155.506 1361.77 M155.506 1358.06 Q161.316 1358.06 164.371 1362.67 Q167.45 1367.25 167.45 1376 Q167.45 1384.73 164.371 1389.33 Q161.316 1393.92 155.506 1393.92 Q149.695 1393.92 146.617 1389.33 Q143.561 1384.73 143.561 1376 Q143.561 1367.25 146.617 1362.67 Q149.695 1358.06 155.506 1358.06 Z" fill="#000000" fill-rule="evenodd" fill-opacity="1" /><path clip-path="url(#clip860)" d="M168.635 1337.76 L183.549 1337.76 L183.549 1340.95 L172.114 1340.95 L172.114 1347.84 Q172.942 1347.56 173.769 1347.42 Q174.597 1347.27 175.424 1347.27 Q180.126 1347.27 182.872 1349.85 Q185.618 1352.43 185.618 1356.83 Q185.618 1361.36 182.797 1363.88 Q179.976 1366.38 174.841 1366.38 Q173.073 1366.38 171.23 1366.08 Q169.406 1365.78 167.45 1365.18 L167.45 1361.36 Q169.143 1362.28 170.948 1362.73 Q172.754 1363.18 174.766 1363.18 Q178.02 1363.18 179.92 1361.47 Q181.819 1359.76 181.819 1356.83 Q181.819 1353.89 179.92 1352.18 Q178.02 1350.47 174.766 1350.47 Q173.243 1350.47 171.719 1350.81 Q170.215 1351.15 168.635 1351.86 L168.635 1337.76 Z" fill="#000000" fill-rule="evenodd" fill-opacity="1" /><path clip-path="url(#clip860)" d="M114.931 962.346 L122.57 962.346 L122.57 935.98 L114.26 937.647 L114.26 933.388 L122.524 931.721 L127.2 931.721 L127.2 962.346 L134.839 962.346 L134.839 966.281 L114.931 966.281 L114.931 962.346 Z" fill="#000000" fill-rule="evenodd" fill-opacity="1" /><path clip-path="url(#clip860)" d="M154.283 934.8 Q150.672 934.8 148.843 938.364 Q147.038 941.906 147.038 949.036 Q147.038 956.142 148.843 959.707 Q150.672 963.249 154.283 963.249 Q157.917 963.249 159.723 959.707 Q161.552 956.142 161.552 949.036 Q161.552 941.906 159.723 938.364 Q157.917 934.8 154.283 934.8 M154.283 931.096 Q160.093 931.096 163.149 935.702 Q166.227 940.286 166.227 949.036 Q166.227 957.762 163.149 962.369 Q160.093 966.952 154.283 966.952 Q148.473 966.952 145.394 962.369 Q142.339 957.762 142.339 949.036 Q142.339 940.286 145.394 935.702 Q148.473 931.096 154.283 931.096 Z" fill="#000000" fill-rule="evenodd" fill-opacity="1" /><path clip-path="url(#clip860)" d="M176.252 923.317 Q173.694 923.317 172.19 925.066 Q170.704 926.815 170.704 929.862 Q170.704 932.89 172.19 934.658 Q173.694 936.407 176.252 936.407 Q178.81 936.407 180.296 934.658 Q181.8 932.89 181.8 929.862 Q181.8 926.815 180.296 925.066 Q178.81 923.317 176.252 923.317 M183.794 911.411 L183.794 914.872 Q182.365 914.195 180.898 913.837 Q179.449 913.48 178.02 913.48 Q174.258 913.48 172.265 916.019 Q170.29 918.558 170.008 923.693 Q171.117 922.056 172.791 921.191 Q174.465 920.307 176.478 920.307 Q180.709 920.307 183.154 922.884 Q185.618 925.442 185.618 929.862 Q185.618 934.187 183.06 936.802 Q180.503 939.416 176.252 939.416 Q171.381 939.416 168.804 935.692 Q166.227 931.949 166.227 924.859 Q166.227 918.201 169.387 914.251 Q172.547 910.283 177.869 910.283 Q179.299 910.283 180.747 910.565 Q182.214 910.847 183.794 911.411 Z" fill="#000000" fill-rule="evenodd" fill-opacity="1" /><path clip-path="url(#clip860)" d="M116.267 535.38 L123.906 535.38 L123.906 509.014 L115.596 510.681 L115.596 506.422 L123.859 504.755 L128.535 504.755 L128.535 535.38 L136.174 535.38 L136.174 539.315 L116.267 539.315 L116.267 535.38 Z" fill="#000000" fill-rule="evenodd" fill-opacity="1" /><path clip-path="url(#clip860)" d="M155.618 507.834 Q152.007 507.834 150.179 511.398 Q148.373 514.94 148.373 522.07 Q148.373 529.176 150.179 532.741 Q152.007 536.283 155.618 536.283 Q159.253 536.283 161.058 532.741 Q162.887 529.176 162.887 522.07 Q162.887 514.94 161.058 511.398 Q159.253 507.834 155.618 507.834 M155.618 504.13 Q161.429 504.13 164.484 508.736 Q167.563 513.32 167.563 522.07 Q167.563 530.796 164.484 535.403 Q161.429 539.986 155.618 539.986 Q149.808 539.986 146.73 535.403 Q143.674 530.796 143.674 522.07 Q143.674 513.32 146.73 508.736 Q149.808 504.13 155.618 504.13 Z" fill="#000000" fill-rule="evenodd" fill-opacity="1" /><path clip-path="url(#clip860)" d="M167.563 483.825 L185.618 483.825 L185.618 485.442 L175.424 511.905 L171.456 511.905 L181.048 487.022 L167.563 487.022 L167.563 483.825 Z" fill="#000000" fill-rule="evenodd" fill-opacity="1" /><path clip-path="url(#clip860)" d="M115.063 108.414 L122.702 108.414 L122.702 82.0482 L114.392 83.7149 L114.392 79.4556 L122.656 77.789 L127.332 77.789 L127.332 108.414 L134.97 108.414 L134.97 112.349 L115.063 112.349 L115.063 108.414 Z" fill="#000000" fill-rule="evenodd" fill-opacity="1" /><path clip-path="url(#clip860)" d="M154.415 80.8677 Q150.804 80.8677 148.975 84.4325 Q147.169 87.9741 147.169 95.1037 Q147.169 102.21 148.975 105.775 Q150.804 109.317 154.415 109.317 Q158.049 109.317 159.855 105.775 Q161.683 102.21 161.683 95.1037 Q161.683 87.9741 159.855 84.4325 Q158.049 80.8677 154.415 80.8677 M154.415 77.164 Q160.225 77.164 163.28 81.7704 Q166.359 86.3537 166.359 95.1037 Q166.359 103.831 163.28 108.437 Q160.225 113.02 154.415 113.02 Q148.605 113.02 145.526 108.437 Q142.47 103.831 142.47 95.1037 Q142.47 86.3537 145.526 81.7704 Q148.605 77.164 154.415 77.164 Z" fill="#000000" fill-rule="evenodd" fill-opacity="1" /><path clip-path="url(#clip860)" d="M175.989 71.6039 Q173.28 71.6039 171.719 73.0521 Q170.177 74.5003 170.177 77.0393 Q170.177 79.5784 171.719 81.0266 Q173.28 82.4748 175.989 82.4748 Q178.697 82.4748 180.258 81.0266 Q181.819 79.5596 181.819 77.0393 Q181.819 74.5003 180.258 73.0521 Q178.716 71.6039 175.989 71.6039 M172.19 69.9864 Q169.745 69.3845 168.372 67.7107 Q167.017 66.0368 167.017 63.6294 Q167.017 60.2628 169.406 58.3068 Q171.813 56.3508 175.989 56.3508 Q180.183 56.3508 182.571 58.3068 Q184.96 60.2628 184.96 63.6294 Q184.96 66.0368 183.587 67.7107 Q182.233 69.3845 179.807 69.9864 Q182.553 70.6259 184.076 72.4878 Q185.618 74.3498 185.618 77.0393 Q185.618 81.1206 183.117 83.3023 Q180.634 85.484 175.989 85.484 Q171.343 85.484 168.842 83.3023 Q166.359 81.1206 166.359 77.0393 Q166.359 74.3498 167.901 72.4878 Q169.444 70.6259 172.19 69.9864 M170.798 63.9867 Q170.798 66.1684 172.152 67.3909 Q173.525 68.6134 175.989 68.6134 Q178.434 68.6134 179.807 67.3909 Q181.198 66.1684 181.198 63.9867 Q181.198 61.805 179.807 60.5825 Q178.434 59.36 175.989 59.36 Q173.525 59.36 172.152 60.5825 Q170.798 61.805 170.798 63.9867 Z" fill="#000000" fill-rule="evenodd" fill-opacity="1" /><path clip-path="url(#clip860)" d="M18.0438 1090.37 L24.314 1090.37 Q22.5634 1094.03 21.704 1097.28 Q20.8447 1100.53 20.8447 1103.55 Q20.8447 1108.8 22.8817 1111.67 Q24.9187 1114.5 28.6745 1114.5 Q31.8255 1114.5 33.4488 1112.62 Q35.0402 1110.71 36.0269 1105.43 L36.8226 1101.54 Q38.1912 1094.35 41.6605 1090.94 Q45.098 1087.51 50.8908 1087.51 Q57.7976 1087.51 61.3624 1092.15 Q64.9272 1096.77 64.9272 1105.71 Q64.9272 1109.09 64.1633 1112.91 Q63.3994 1116.69 61.9035 1120.77 L55.2831 1120.77 Q57.4793 1116.85 58.5933 1113.1 Q59.7073 1109.34 59.7073 1105.71 Q59.7073 1100.21 57.543 1097.22 Q55.3786 1094.22 51.3682 1094.22 Q47.8671 1094.22 45.8937 1096.39 Q43.9204 1098.52 42.9337 1103.42 L42.1698 1107.34 Q40.7375 1114.53 37.682 1117.74 Q34.6264 1120.96 29.1837 1120.96 Q22.8817 1120.96 19.2532 1116.54 Q15.6248 1112.08 15.6248 1104.28 Q15.6248 1100.94 16.2295 1097.47 Q16.8343 1094 18.0438 1090.37 Z" fill="#000000" fill-rule="evenodd" fill-opacity="1" /><path clip-path="url(#clip860)" d="M28.3562 1077.74 L28.3562 1071.88 L64.0042 1071.88 L64.0042 1077.74 L28.3562 1077.74 M14.479 1077.74 L14.479 1071.88 L21.895 1071.88 L21.895 1077.74 L14.479 1077.74 Z" fill="#000000" fill-rule="evenodd" fill-opacity="1" /><path clip-path="url(#clip860)" d="M35.1993 1031.87 Q31.2526 1029.67 29.3747 1026.62 Q27.4968 1023.56 27.4968 1019.43 Q27.4968 1013.86 31.4117 1010.83 Q35.2948 1007.81 42.4881 1007.81 L64.0042 1007.81 L64.0042 1013.7 L42.679 1013.7 Q37.5546 1013.7 35.072 1015.51 Q32.5894 1017.33 32.5894 1021.05 Q32.5894 1025.6 35.6131 1028.24 Q38.6368 1030.88 43.8567 1030.88 L64.0042 1030.88 L64.0042 1036.77 L42.679 1036.77 Q37.5228 1036.77 35.072 1038.59 Q32.5894 1040.4 32.5894 1044.19 Q32.5894 1048.68 35.6449 1051.32 Q38.6686 1053.96 43.8567 1053.96 L64.0042 1053.96 L64.0042 1059.85 L28.3562 1059.85 L28.3562 1053.96 L33.8944 1053.96 Q30.616 1051.95 29.0564 1049.15 Q27.4968 1046.35 27.4968 1042.5 Q27.4968 1038.62 29.4702 1035.91 Q31.4436 1033.18 35.1993 1031.87 Z" fill="#000000" fill-rule="evenodd" fill-opacity="1" /><path clip-path="url(#clip860)" d="M49.9359 996.732 L28.3562 996.732 L28.3562 990.876 L49.7131 990.876 Q54.7739 990.876 57.3202 988.903 Q59.8346 986.929 59.8346 982.982 Q59.8346 978.24 56.8109 975.503 Q53.7872 972.734 48.5673 972.734 L28.3562 972.734 L28.3562 966.877 L64.0042 966.877 L64.0042 972.734 L58.5296 972.734 Q61.7762 974.866 63.3676 977.699 Q64.9272 980.5 64.9272 984.224 Q64.9272 990.367 61.1078 993.55 Q57.2883 996.732 49.9359 996.732 M27.4968 981.996 L27.4968 981.996 Z" fill="#000000" fill-rule="evenodd" fill-opacity="1" /><path clip-path="url(#clip860)" d="M14.479 954.814 L14.479 948.958 L64.0042 948.958 L64.0042 954.814 L14.479 954.814 Z" fill="#000000" fill-rule="evenodd" fill-opacity="1" /><path clip-path="url(#clip860)" d="M46.0847 920.503 Q46.0847 927.601 47.7079 930.338 Q49.3312 933.075 53.2461 933.075 Q56.3653 933.075 58.2114 931.038 Q60.0256 928.969 60.0256 925.437 Q60.0256 920.567 56.5881 917.639 Q53.1188 914.678 47.3897 914.678 L46.0847 914.678 L46.0847 920.503 M43.6657 908.822 L64.0042 908.822 L64.0042 914.678 L58.5933 914.678 Q61.8398 916.684 63.3994 919.676 Q64.9272 922.667 64.9272 926.996 Q64.9272 932.471 61.8716 935.717 Q58.7843 938.932 53.6281 938.932 Q47.6125 938.932 44.5569 934.921 Q41.5014 930.879 41.5014 922.89 L41.5014 914.678 L40.9285 914.678 Q36.8862 914.678 34.6901 917.352 Q32.4621 919.994 32.4621 924.8 Q32.4621 927.855 33.1941 930.752 Q33.9262 933.648 35.3903 936.322 L29.9795 936.322 Q28.7381 933.107 28.1334 930.083 Q27.4968 927.06 27.4968 924.195 Q27.4968 916.461 31.5072 912.641 Q35.5176 908.822 43.6657 908.822 Z" fill="#000000" fill-rule="evenodd" fill-opacity="1" /><path clip-path="url(#clip860)" d="M18.2347 890.966 L28.3562 890.966 L28.3562 878.903 L32.9077 878.903 L32.9077 890.966 L52.2594 890.966 Q56.6199 890.966 57.8613 889.789 Q59.1026 888.579 59.1026 884.919 L59.1026 878.903 L64.0042 878.903 L64.0042 884.919 Q64.0042 891.698 61.4897 894.276 Q58.9434 896.854 52.2594 896.854 L32.9077 896.854 L32.9077 901.151 L28.3562 901.151 L28.3562 896.854 L18.2347 896.854 L18.2347 890.966 Z" fill="#000000" fill-rule="evenodd" fill-opacity="1" /><path clip-path="url(#clip860)" d="M28.3562 871.201 L28.3562 865.344 L64.0042 865.344 L64.0042 871.201 L28.3562 871.201 M14.479 871.201 L14.479 865.344 L21.895 865.344 L21.895 871.201 L14.479 871.201 Z" fill="#000000" fill-rule="evenodd" fill-opacity="1" /><path clip-path="url(#clip860)" d="M32.4621 839.277 Q32.4621 843.987 36.1542 846.725 Q39.8145 849.462 46.212 849.462 Q52.6095 849.462 56.3017 846.756 Q59.9619 844.019 59.9619 839.277 Q59.9619 834.598 56.2698 831.861 Q52.5777 829.123 46.212 829.123 Q39.8781 829.123 36.186 831.861 Q32.4621 834.598 32.4621 839.277 M27.4968 839.277 Q27.4968 831.638 32.4621 827.277 Q37.4273 822.917 46.212 822.917 Q54.9649 822.917 59.9619 827.277 Q64.9272 831.638 64.9272 839.277 Q64.9272 846.947 59.9619 851.308 Q54.9649 855.637 46.212 855.637 Q37.4273 855.637 32.4621 851.308 Q27.4968 846.947 27.4968 839.277 Z" fill="#000000" fill-rule="evenodd" fill-opacity="1" /><path clip-path="url(#clip860)" d="M42.4881 783.577 L64.0042 783.577 L64.0042 789.433 L42.679 789.433 Q37.6183 789.433 35.1038 791.407 Q32.5894 793.38 32.5894 797.327 Q32.5894 802.069 35.6131 804.806 Q38.6368 807.544 43.8567 807.544 L64.0042 807.544 L64.0042 813.432 L28.3562 813.432 L28.3562 807.544 L33.8944 807.544 Q30.6797 805.443 29.0883 802.61 Q27.4968 799.746 27.4968 796.022 Q27.4968 789.879 31.3163 786.728 Q35.1038 783.577 42.4881 783.577 Z" fill="#000000" fill-rule="evenodd" fill-opacity="1" /><path clip-path="url(#clip860)" d="M33.8307 730.519 Q33.2578 731.505 33.0032 732.683 Q32.7167 733.829 32.7167 735.229 Q32.7167 740.194 35.9632 742.868 Q39.1779 745.51 45.2253 745.51 L64.0042 745.51 L64.0042 751.398 L28.3562 751.398 L28.3562 745.51 L33.8944 745.51 Q30.6479 743.664 29.0883 740.704 Q27.4968 737.744 27.4968 733.51 Q27.4968 732.906 27.5923 732.174 Q27.656 731.442 27.8151 730.55 L33.8307 730.519 Z" fill="#000000" fill-rule="evenodd" fill-opacity="1" /><path clip-path="url(#clip860)" d="M49.9359 724.98 L28.3562 724.98 L28.3562 719.124 L49.7131 719.124 Q54.7739 719.124 57.3202 717.151 Q59.8346 715.177 59.8346 711.23 Q59.8346 706.488 56.8109 703.751 Q53.7872 700.982 48.5673 700.982 L28.3562 700.982 L28.3562 695.125 L64.0042 695.125 L64.0042 700.982 L58.5296 700.982 Q61.7762 703.114 63.3676 705.947 Q64.9272 708.748 64.9272 712.472 Q64.9272 718.615 61.1078 721.798 Q57.2883 724.98 49.9359 724.98 M27.4968 710.244 L27.4968 710.244 Z" fill="#000000" fill-rule="evenodd" fill-opacity="1" /><path clip-path="url(#clip860)" d="M42.4881 653.43 L64.0042 653.43 L64.0042 659.286 L42.679 659.286 Q37.6183 659.286 35.1038 661.26 Q32.5894 663.233 32.5894 667.18 Q32.5894 671.922 35.6131 674.659 Q38.6368 677.397 43.8567 677.397 L64.0042 677.397 L64.0042 683.285 L28.3562 683.285 L28.3562 677.397 L33.8944 677.397 Q30.6797 675.296 29.0883 672.463 Q27.4968 669.599 27.4968 665.875 Q27.4968 659.732 31.3163 656.581 Q35.1038 653.43 42.4881 653.43 Z" fill="#000000" fill-rule="evenodd" fill-opacity="1" /><path clip-path="url(#clip860)" d="M18.2347 635.956 L28.3562 635.956 L28.3562 623.893 L32.9077 623.893 L32.9077 635.956 L52.2594 635.956 Q56.6199 635.956 57.8613 634.778 Q59.1026 633.569 59.1026 629.909 L59.1026 623.893 L64.0042 623.893 L64.0042 629.909 Q64.0042 636.688 61.4897 639.266 Q58.9434 641.844 52.2594 641.844 L32.9077 641.844 L32.9077 646.141 L28.3562 646.141 L28.3562 641.844 L18.2347 641.844 L18.2347 635.956 Z" fill="#000000" fill-rule="evenodd" fill-opacity="1" /><path clip-path="url(#clip860)" d="M28.3562 616.19 L28.3562 610.334 L64.0042 610.334 L64.0042 616.19 L28.3562 616.19 M14.479 616.19 L14.479 610.334 L21.895 610.334 L21.895 616.19 L14.479 616.19 Z" fill="#000000" fill-rule="evenodd" fill-opacity="1" /><path clip-path="url(#clip860)" d="M35.1993 570.326 Q31.2526 568.129 29.3747 565.074 Q27.4968 562.018 27.4968 557.881 Q27.4968 552.311 31.4117 549.287 Q35.2948 546.263 42.4881 546.263 L64.0042 546.263 L64.0042 552.151 L42.679 552.151 Q37.5546 552.151 35.072 553.966 Q32.5894 555.78 32.5894 559.504 Q32.5894 564.055 35.6131 566.697 Q38.6368 569.339 43.8567 569.339 L64.0042 569.339 L64.0042 575.227 L42.679 575.227 Q37.5228 575.227 35.072 577.041 Q32.5894 578.856 32.5894 582.643 Q32.5894 587.131 35.6449 589.773 Q38.6686 592.415 43.8567 592.415 L64.0042 592.415 L64.0042 598.303 L28.3562 598.303 L28.3562 592.415 L33.8944 592.415 Q30.616 590.409 29.0564 587.608 Q27.4968 584.808 27.4968 580.956 Q27.4968 577.073 29.4702 574.368 Q31.4436 571.631 35.1993 570.326 Z" fill="#000000" fill-rule="evenodd" fill-opacity="1" /><path clip-path="url(#clip860)" d="M44.7161 504.09 L47.5806 504.09 L47.5806 531.017 Q53.6281 530.635 56.8109 527.389 Q59.9619 524.111 59.9619 518.286 Q59.9619 514.912 59.1344 511.761 Q58.3069 508.578 56.6518 505.459 L62.1899 505.459 Q63.5267 508.61 64.227 511.92 Q64.9272 515.23 64.9272 518.636 Q64.9272 527.166 59.9619 532.163 Q54.9967 537.128 46.5303 537.128 Q37.7774 537.128 32.6531 532.418 Q27.4968 527.675 27.4968 519.655 Q27.4968 512.461 32.1438 508.292 Q36.7589 504.09 44.7161 504.09 M42.9973 509.947 Q38.1912 510.01 35.3266 512.652 Q32.4621 515.262 32.4621 519.591 Q32.4621 524.492 35.2312 527.453 Q38.0002 530.381 43.0292 530.826 L42.9973 509.947 Z" fill="#000000" fill-rule="evenodd" fill-opacity="1" /><path clip-path="url(#clip860)" d="M14.5426 459.69 Q21.8632 463.955 29.0246 466.023 Q36.186 468.092 43.5384 468.092 Q50.8908 468.092 58.1159 466.023 Q65.3091 463.923 72.5979 459.69 L72.5979 464.782 Q65.1182 469.556 57.8931 471.944 Q50.668 474.299 43.5384 474.299 Q36.4406 474.299 29.2474 471.944 Q22.0542 469.588 14.5426 464.782 L14.5426 459.69 Z" fill="#000000" fill-rule="evenodd" fill-opacity="1" /><path clip-path="url(#clip860)" d="M35.1993 420.572 Q31.2526 418.376 29.3747 415.321 Q27.4968 412.265 27.4968 408.127 Q27.4968 402.557 31.4117 399.534 Q35.2948 396.51 42.4881 396.51 L64.0042 396.51 L64.0042 402.398 L42.679 402.398 Q37.5546 402.398 35.072 404.212 Q32.5894 406.027 32.5894 409.751 Q32.5894 414.302 35.6131 416.944 Q38.6368 419.586 43.8567 419.586 L64.0042 419.586 L64.0042 425.474 L42.679 425.474 Q37.5228 425.474 35.072 427.288 Q32.5894 429.102 32.5894 432.89 Q32.5894 437.378 35.6449 440.02 Q38.6686 442.661 43.8567 442.661 L64.0042 442.661 L64.0042 448.55 L28.3562 448.55 L28.3562 442.661 L33.8944 442.661 Q30.616 440.656 29.0564 437.855 Q27.4968 435.054 27.4968 431.203 Q27.4968 427.32 29.4702 424.615 Q31.4436 421.877 35.1993 420.572 Z" fill="#000000" fill-rule="evenodd" fill-opacity="1" /><path clip-path="url(#clip860)" d="M29.4065 362.103 L34.9447 362.103 Q33.6716 364.586 33.035 367.26 Q32.3984 369.933 32.3984 372.798 Q32.3984 377.158 33.7352 379.354 Q35.072 381.519 37.7456 381.519 Q39.7826 381.519 40.9603 379.959 Q42.1061 378.4 43.1565 373.689 L43.6021 371.684 Q44.9389 365.445 47.3897 362.835 Q49.8086 360.194 54.1691 360.194 Q59.1344 360.194 62.0308 364.14 Q64.9272 368.055 64.9272 374.93 Q64.9272 377.795 64.3543 380.914 Q63.8132 384.001 62.6992 387.439 L56.6518 387.439 Q58.3387 384.192 59.198 381.041 Q60.0256 377.89 60.0256 374.803 Q60.0256 370.665 58.6251 368.437 Q57.1929 366.209 54.6147 366.209 Q52.2276 366.209 50.9545 367.832 Q49.6813 369.424 48.5037 374.867 L48.0262 376.904 Q46.8804 382.346 44.5251 384.765 Q42.138 387.184 38.0002 387.184 Q32.9713 387.184 30.2341 383.619 Q27.4968 380.055 27.4968 373.498 Q27.4968 370.251 27.9743 367.387 Q28.4517 364.522 29.4065 362.103 Z" fill="#000000" fill-rule="evenodd" fill-opacity="1" /><path clip-path="url(#clip860)" d="M14.5426 351.791 L14.5426 346.698 Q22.0542 341.924 29.2474 339.569 Q36.4406 337.182 43.5384 337.182 Q50.668 337.182 57.8931 339.569 Q65.1182 341.924 72.5979 346.698 L72.5979 351.791 Q65.3091 347.558 58.1159 345.489 Q50.8908 343.388 43.5384 343.388 Q36.186 343.388 29.0246 345.489 Q21.8632 347.558 14.5426 351.791 Z" fill="#000000" fill-rule="evenodd" fill-opacity="1" /><polyline clip-path="url(#clip862)" style="stroke:#00f5ff; stroke-linecap:round; stroke-linejoin:round; stroke-width:24; stroke-opacity:0.8; fill:none" points="
  702.388,755.616 1485.36,509.79 2268.33,162.678 
  "/>
<circle clip-path="url(#clip862)" cx="702.388" cy="755.616" r="21.6" fill="#00f5ff" fill-rule="evenodd" fill-opacity="0.6" stroke="#000000" stroke-opacity="0.6" stroke-width="3.2"/>
<circle clip-path="url(#clip862)" cx="1485.36" cy="509.79" r="21.6" fill="#00f5ff" fill-rule="evenodd" fill-opacity="0.6" stroke="#000000" stroke-opacity="0.6" stroke-width="3.2"/>
<circle clip-path="url(#clip862)" cx="2268.33" cy="162.678" r="21.6" fill="#00f5ff" fill-rule="evenodd" fill-opacity="0.6" stroke="#000000" stroke-opacity="0.6" stroke-width="3.2"/>
<polyline clip-path="url(#clip862)" style="stroke:#66cdaa; stroke-linecap:round; stroke-linejoin:round; stroke-width:24; stroke-opacity:0.8; fill:none" points="
  702.388,718.833 1485.36,603.093 2268.33,302.778 
  "/>
<path clip-path="url(#clip862)" d="M702.388 742.833 L698.716 727.713 L685.42 735.801 L693.508 722.505 L678.388 718.833 L693.508 715.161 L685.42 701.865 L698.716 709.953 L702.388 694.833 L706.06 709.953 L719.356 701.865 L711.268 715.161 L726.388 718.833 L711.268 722.505 L719.356 735.801 L706.06 727.713 L702.388 742.833 Z" fill="#66cdaa" fill-rule="evenodd" fill-opacity="0.6" stroke="#000000" stroke-opacity="0.6" stroke-width="3.2"/>
<path clip-path="url(#clip862)" d="M1485.36 627.093 L1481.69 611.973 L1468.39 620.061 L1476.48 606.765 L1461.36 603.093 L1476.48 599.421 L1468.39 586.125 L1481.69 594.213 L1485.36 579.093 L1489.03 594.213 L1502.33 586.125 L1494.24 599.421 L1509.36 603.093 L1494.24 606.765 L1502.33 620.061 L1489.03 611.973 L1485.36 627.093 Z" fill="#66cdaa" fill-rule="evenodd" fill-opacity="0.6" stroke="#000000" stroke-opacity="0.6" stroke-width="3.2"/>
<path clip-path="url(#clip862)" d="M2268.33 326.778 L2264.66 311.658 L2251.36 319.746 L2259.45 306.45 L2244.33 302.778 L2259.45 299.106 L2251.36 285.81 L2264.66 293.898 L2268.33 278.778 L2272 293.898 L2285.3 285.81 L2277.21 299.106 L2292.33 302.778 L2277.21 306.45 L2285.3 319.746 L2272 311.658 L2268.33 326.778 Z" fill="#66cdaa" fill-rule="evenodd" fill-opacity="0.6" stroke="#000000" stroke-opacity="0.6" stroke-width="3.2"/>
<polyline clip-path="url(#clip862)" style="stroke:#008080; stroke-linecap:round; stroke-linejoin:round; stroke-width:24; stroke-opacity:0.8; fill:none" points="
  702.388,1363.01 1485.36,1100.06 2268.33,747.915 
  "/>
<path clip-path="url(#clip862)" d="M702.388 1339.01 L678.388 1363.01 L702.388 1387.01 L726.388 1363.01 L702.388 1339.01 Z" fill="#008080" fill-rule="evenodd" fill-opacity="0.6" stroke="#000000" stroke-opacity="0.6" stroke-width="3.2"/>
<path clip-path="url(#clip862)" d="M1485.36 1076.06 L1461.36 1100.06 L1485.36 1124.06 L1509.36 1100.06 L1485.36 1076.06 Z" fill="#008080" fill-rule="evenodd" fill-opacity="0.6" stroke="#000000" stroke-opacity="0.6" stroke-width="3.2"/>
<path clip-path="url(#clip862)" d="M2268.33 723.915 L2244.33 747.915 L2268.33 771.915 L2292.33 747.915 L2268.33 723.915 Z" fill="#008080" fill-rule="evenodd" fill-opacity="0.6" stroke="#000000" stroke-opacity="0.6" stroke-width="3.2"/>
<polyline clip-path="url(#clip862)" style="stroke:#ffa500; stroke-linecap:round; stroke-linejoin:round; stroke-width:24; stroke-opacity:0.8; fill:none" stroke-dasharray="96, 60" points="
  702.388,501.039 1485.36,258.213 
  "/>
<path clip-path="url(#clip862)" d="M702.388 477.039 L678.388 501.039 L702.388 525.039 L726.388 501.039 L702.388 477.039 Z" fill="#ffa500" fill-rule="evenodd" fill-opacity="0.6" stroke="#000000" stroke-opacity="0.6" stroke-width="3.2"/>
<path clip-path="url(#clip862)" d="M1485.36 234.213 L1461.36 258.213 L1485.36 282.213 L1509.36 258.213 L1485.36 234.213 Z" fill="#ffa500" fill-rule="evenodd" fill-opacity="0.6" stroke="#000000" stroke-opacity="0.6" stroke-width="3.2"/>
<path clip-path="url(#clip860)" d="
M292.656 319.499 L1052.32 319.499 L1052.32 92.6992 L292.656 92.6992  Z
  " fill="#ffffff" fill-rule="evenodd" fill-opacity="1"/>
<polyline clip-path="url(#clip860)" style="stroke:#000000; stroke-linecap:round; stroke-linejoin:round; stroke-width:4; stroke-opacity:1; fill:none" points="
  292.656,319.499 1052.32,319.499 1052.32,92.6992 292.656,92.6992 292.656,319.499 
  "/>
<circle clip-path="url(#clip860)" cx="387.373" cy="138.059" r="20.16" fill="#00f5ff" fill-rule="evenodd" fill-opacity="0.6" stroke="#000000" stroke-opacity="0.6" stroke-width="2.98667"/>
<path clip-path="url(#clip860)" d="M506.477 125.268 L506.477 129.583 Q504.411 127.658 502.062 126.707 Q499.732 125.755 497.099 125.755 Q491.914 125.755 489.159 128.935 Q486.405 132.094 486.405 138.09 Q486.405 144.065 489.159 147.245 Q491.914 150.404 497.099 150.404 Q499.732 150.404 502.062 149.452 Q504.411 148.5 506.477 146.576 L506.477 150.85 Q504.33 152.308 501.92 153.037 Q499.53 153.767 496.856 153.767 Q489.99 153.767 486.04 149.574 Q482.091 145.361 482.091 138.09 Q482.091 130.798 486.04 126.605 Q489.99 122.392 496.856 122.392 Q499.57 122.392 501.96 123.121 Q504.371 123.83 506.477 125.268 Z" fill="#000000" fill-rule="evenodd" fill-opacity="1" /><path clip-path="url(#clip860)" d="M522.944 141.776 Q518.427 141.776 516.685 142.809 Q514.943 143.842 514.943 146.333 Q514.943 148.318 516.24 149.493 Q517.556 150.647 519.805 150.647 Q522.904 150.647 524.767 148.46 Q526.651 146.252 526.651 142.606 L526.651 141.776 L522.944 141.776 M530.377 140.237 L530.377 153.179 L526.651 153.179 L526.651 149.736 Q525.375 151.802 523.471 152.794 Q521.567 153.767 518.812 153.767 Q515.328 153.767 513.262 151.822 Q511.217 149.857 511.217 146.576 Q511.217 142.748 513.769 140.804 Q516.341 138.859 521.425 138.859 L526.651 138.859 L526.651 138.495 Q526.651 135.922 524.949 134.525 Q523.268 133.107 520.21 133.107 Q518.265 133.107 516.422 133.573 Q514.579 134.039 512.878 134.97 L512.878 131.527 Q514.923 130.737 516.847 130.352 Q518.772 129.947 520.595 129.947 Q525.516 129.947 527.947 132.499 Q530.377 135.051 530.377 140.237 Z" fill="#000000" fill-rule="evenodd" fill-opacity="1" /><path clip-path="url(#clip860)" d="M541.74 124.053 L541.74 130.494 L549.417 130.494 L549.417 133.391 L541.74 133.391 L541.74 145.705 Q541.74 148.48 542.49 149.27 Q543.259 150.06 545.589 150.06 L549.417 150.06 L549.417 153.179 L545.589 153.179 Q541.274 153.179 539.634 151.579 Q537.993 149.959 537.993 145.705 L537.993 133.391 L535.259 133.391 L535.259 130.494 L537.993 130.494 L537.993 124.053 L541.74 124.053 Z" fill="#000000" fill-rule="evenodd" fill-opacity="1" /><path clip-path="url(#clip860)" d="M564.628 141.776 Q560.111 141.776 558.369 142.809 Q556.627 143.842 556.627 146.333 Q556.627 148.318 557.924 149.493 Q559.24 150.647 561.488 150.647 Q564.587 150.647 566.451 148.46 Q568.334 146.252 568.334 142.606 L568.334 141.776 L564.628 141.776 M572.061 140.237 L572.061 153.179 L568.334 153.179 L568.334 149.736 Q567.058 151.802 565.154 152.794 Q563.251 153.767 560.496 153.767 Q557.012 153.767 554.946 151.822 Q552.9 149.857 552.9 146.576 Q552.9 142.748 555.453 140.804 Q558.025 138.859 563.109 138.859 L568.334 138.859 L568.334 138.495 Q568.334 135.922 566.633 134.525 Q564.952 133.107 561.893 133.107 Q559.949 133.107 558.106 133.573 Q556.263 134.039 554.561 134.97 L554.561 131.527 Q556.607 130.737 558.531 130.352 Q560.455 129.947 562.278 129.947 Q567.2 129.947 569.631 132.499 Q572.061 135.051 572.061 140.237 Z" fill="#000000" fill-rule="evenodd" fill-opacity="1" /><path clip-path="url(#clip860)" d="M579.738 121.663 L583.465 121.663 L583.465 153.179 L579.738 153.179 L579.738 121.663 Z" fill="#000000" fill-rule="evenodd" fill-opacity="1" /><path clip-path="url(#clip860)" d="M600.701 155.286 Q599.121 159.337 597.622 160.572 Q596.124 161.808 593.612 161.808 L590.635 161.808 L590.635 158.688 L592.822 158.688 Q594.361 158.688 595.212 157.959 Q596.063 157.23 597.096 154.516 L597.764 152.815 L588.589 130.494 L592.539 130.494 L599.628 148.237 L606.717 130.494 L610.666 130.494 L600.701 155.286 Z" fill="#000000" fill-rule="evenodd" fill-opacity="1" /><path clip-path="url(#clip860)" d="M630.273 131.163 L630.273 134.687 Q628.693 133.877 626.992 133.472 Q625.29 133.066 623.467 133.066 Q620.692 133.066 619.295 133.917 Q617.917 134.768 617.917 136.469 Q617.917 137.765 618.91 138.515 Q619.902 139.244 622.9 139.912 L624.176 140.196 Q628.146 141.047 629.807 142.606 Q631.488 144.146 631.488 146.921 Q631.488 150.08 628.976 151.923 Q626.485 153.767 622.11 153.767 Q620.287 153.767 618.302 153.402 Q616.338 153.058 614.15 152.349 L614.15 148.5 Q616.216 149.574 618.221 150.121 Q620.226 150.647 622.191 150.647 Q624.824 150.647 626.242 149.756 Q627.66 148.845 627.66 147.204 Q627.66 145.685 626.627 144.875 Q625.614 144.065 622.151 143.315 L620.854 143.011 Q617.391 142.282 615.852 140.783 Q614.312 139.264 614.312 136.631 Q614.312 133.431 616.581 131.689 Q618.849 129.947 623.022 129.947 Q625.088 129.947 626.91 130.251 Q628.733 130.555 630.273 131.163 Z" fill="#000000" fill-rule="evenodd" fill-opacity="1" /><path clip-path="url(#clip860)" d="M641.109 124.053 L641.109 130.494 L648.785 130.494 L648.785 133.391 L641.109 133.391 L641.109 145.705 Q641.109 148.48 641.858 149.27 Q642.628 150.06 644.957 150.06 L648.785 150.06 L648.785 153.179 L644.957 153.179 Q640.643 153.179 639.002 151.579 Q637.362 149.959 637.362 145.705 L637.362 133.391 L634.627 133.391 L634.627 130.494 L637.362 130.494 L637.362 124.053 L641.109 124.053 Z" fill="#000000" fill-rule="evenodd" fill-opacity="1" /><path clip-path="url(#clip860)" d="M675.825 121.704 Q673.111 126.362 671.795 130.919 Q670.478 135.477 670.478 140.156 Q670.478 144.834 671.795 149.432 Q673.131 154.01 675.825 158.648 L672.584 158.648 Q669.546 153.888 668.027 149.29 Q666.528 144.693 666.528 140.156 Q666.528 135.639 668.027 131.061 Q669.526 126.484 672.584 121.704 L675.825 121.704 Z" fill="#000000" fill-rule="evenodd" fill-opacity="1" /><path clip-path="url(#clip860)" d="M701.346 123.932 L701.346 127.922 Q699.017 126.808 696.951 126.261 Q694.885 125.714 692.96 125.714 Q689.618 125.714 687.796 127.01 Q685.993 128.307 685.993 130.697 Q685.993 132.702 687.188 133.735 Q688.403 134.748 691.765 135.375 L694.237 135.882 Q698.814 136.753 700.981 138.961 Q703.169 141.148 703.169 144.834 Q703.169 149.23 700.212 151.498 Q697.275 153.767 691.583 153.767 Q689.436 153.767 687.006 153.28 Q684.595 152.794 682.003 151.842 L682.003 147.629 Q684.494 149.027 686.884 149.736 Q689.274 150.445 691.583 150.445 Q695.087 150.445 696.991 149.068 Q698.895 147.69 698.895 145.138 Q698.895 142.91 697.518 141.654 Q696.161 140.399 693.041 139.771 L690.55 139.285 Q685.973 138.373 683.927 136.429 Q681.881 134.484 681.881 131.021 Q681.881 127.01 684.697 124.701 Q687.532 122.392 692.495 122.392 Q694.621 122.392 696.829 122.777 Q699.037 123.162 701.346 123.932 Z" fill="#000000" fill-rule="evenodd" fill-opacity="1" /><path clip-path="url(#clip860)" d="M718.177 133.107 Q715.18 133.107 713.438 135.456 Q711.696 137.786 711.696 141.857 Q711.696 145.928 713.418 148.278 Q715.159 150.607 718.177 150.607 Q721.155 150.607 722.897 148.257 Q724.639 145.908 724.639 141.857 Q724.639 137.826 722.897 135.477 Q721.155 133.107 718.177 133.107 M718.177 129.947 Q723.038 129.947 725.813 133.107 Q728.588 136.267 728.588 141.857 Q728.588 147.427 725.813 150.607 Q723.038 153.767 718.177 153.767 Q713.296 153.767 710.521 150.607 Q707.767 147.427 707.767 141.857 Q707.767 136.267 710.521 133.107 Q713.296 129.947 718.177 129.947 Z" fill="#000000" fill-rule="evenodd" fill-opacity="1" /><path clip-path="url(#clip860)" d="M747.911 133.978 Q747.283 133.613 746.534 133.451 Q745.805 133.269 744.913 133.269 Q741.754 133.269 740.052 135.335 Q738.371 137.381 738.371 141.229 L738.371 153.179 L734.624 153.179 L734.624 130.494 L738.371 130.494 L738.371 134.018 Q739.546 131.952 741.43 130.96 Q743.313 129.947 746.007 129.947 Q746.392 129.947 746.858 130.008 Q747.324 130.049 747.891 130.15 L747.911 133.978 Z" fill="#000000" fill-rule="evenodd" fill-opacity="1" /><path clip-path="url(#clip860)" d="M755.506 124.053 L755.506 130.494 L763.183 130.494 L763.183 133.391 L755.506 133.391 L755.506 145.705 Q755.506 148.48 756.256 149.27 Q757.026 150.06 759.355 150.06 L763.183 150.06 L763.183 153.179 L759.355 153.179 Q755.041 153.179 753.4 151.579 Q751.759 149.959 751.759 145.705 L751.759 133.391 L749.025 133.391 L749.025 130.494 L751.759 130.494 L751.759 124.053 L755.506 124.053 Z" fill="#000000" fill-rule="evenodd" fill-opacity="1" /><path clip-path="url(#clip860)" d="M768.084 130.494 L771.811 130.494 L771.811 153.179 L768.084 153.179 L768.084 130.494 M768.084 121.663 L771.811 121.663 L771.811 126.382 L768.084 126.382 L768.084 121.663 Z" fill="#000000" fill-rule="evenodd" fill-opacity="1" /><path clip-path="url(#clip860)" d="M798.466 139.487 L798.466 153.179 L794.739 153.179 L794.739 139.609 Q794.739 136.388 793.484 134.788 Q792.228 133.188 789.716 133.188 Q786.698 133.188 784.957 135.112 Q783.215 137.036 783.215 140.358 L783.215 153.179 L779.468 153.179 L779.468 130.494 L783.215 130.494 L783.215 134.018 Q784.551 131.973 786.354 130.96 Q788.177 129.947 790.547 129.947 Q794.456 129.947 796.461 132.378 Q798.466 134.788 798.466 139.487 Z" fill="#000000" fill-rule="evenodd" fill-opacity="1" /><path clip-path="url(#clip860)" d="M820.827 141.573 Q820.827 137.522 819.146 135.294 Q817.485 133.066 814.467 133.066 Q811.47 133.066 809.789 135.294 Q808.128 137.522 808.128 141.573 Q808.128 145.604 809.789 147.832 Q811.47 150.06 814.467 150.06 Q817.485 150.06 819.146 147.832 Q820.827 145.604 820.827 141.573 M824.554 150.364 Q824.554 156.157 821.982 158.972 Q819.409 161.808 814.103 161.808 Q812.138 161.808 810.396 161.504 Q808.654 161.22 807.014 160.613 L807.014 156.987 Q808.654 157.878 810.254 158.304 Q811.855 158.729 813.515 158.729 Q817.181 158.729 819.004 156.805 Q820.827 154.901 820.827 151.032 L820.827 149.189 Q819.673 151.194 817.87 152.187 Q816.067 153.179 813.556 153.179 Q809.383 153.179 806.831 149.999 Q804.279 146.819 804.279 141.573 Q804.279 136.307 806.831 133.127 Q809.383 129.947 813.556 129.947 Q816.067 129.947 817.87 130.94 Q819.673 131.932 820.827 133.937 L820.827 130.494 L824.554 130.494 L824.554 150.364 Z" fill="#000000" fill-rule="evenodd" fill-opacity="1" /><path clip-path="url(#clip860)" d="M836.484 126.301 L836.484 149.817 L841.426 149.817 Q847.685 149.817 850.581 146.981 Q853.498 144.146 853.498 138.029 Q853.498 131.952 850.581 129.137 Q847.685 126.301 841.426 126.301 L836.484 126.301 M832.393 122.939 L840.798 122.939 Q849.589 122.939 853.7 126.605 Q857.812 130.251 857.812 138.029 Q857.812 145.847 853.68 149.513 Q849.548 153.179 840.798 153.179 L832.393 153.179 L832.393 122.939 Z" fill="#000000" fill-rule="evenodd" fill-opacity="1" /><path clip-path="url(#clip860)" d="M864.172 130.494 L867.899 130.494 L867.899 153.179 L864.172 153.179 L864.172 130.494 M864.172 121.663 L867.899 121.663 L867.899 126.382 L864.172 126.382 L864.172 121.663 Z" fill="#000000" fill-rule="evenodd" fill-opacity="1" /><path clip-path="url(#clip860)" d="M888.842 133.978 Q888.214 133.613 887.465 133.451 Q886.735 133.269 885.844 133.269 Q882.685 133.269 880.983 135.335 Q879.302 137.381 879.302 141.229 L879.302 153.179 L875.555 153.179 L875.555 130.494 L879.302 130.494 L879.302 134.018 Q880.477 131.952 882.361 130.96 Q884.244 129.947 886.938 129.947 Q887.323 129.947 887.789 130.008 Q888.255 130.049 888.822 130.15 L888.842 133.978 Z" fill="#000000" fill-rule="evenodd" fill-opacity="1" /><path clip-path="url(#clip860)" d="M911.243 140.905 L911.243 142.728 L894.108 142.728 Q894.351 146.576 896.417 148.602 Q898.503 150.607 902.21 150.607 Q904.357 150.607 906.362 150.08 Q908.388 149.554 910.373 148.5 L910.373 152.025 Q908.367 152.875 906.261 153.321 Q904.154 153.767 901.987 153.767 Q896.559 153.767 893.379 150.607 Q890.219 147.447 890.219 142.059 Q890.219 136.489 893.217 133.228 Q896.235 129.947 901.339 129.947 Q905.917 129.947 908.57 132.904 Q911.243 135.841 911.243 140.905 M907.517 139.811 Q907.476 136.753 905.795 134.93 Q904.134 133.107 901.379 133.107 Q898.26 133.107 896.377 134.869 Q894.513 136.631 894.23 139.831 L907.517 139.811 Z" fill="#000000" fill-rule="evenodd" fill-opacity="1" /><path clip-path="url(#clip860)" d="M933.685 131.365 L933.685 134.849 Q932.106 133.978 930.506 133.553 Q928.926 133.107 927.305 133.107 Q923.68 133.107 921.675 135.416 Q919.669 137.705 919.669 141.857 Q919.669 146.009 921.675 148.318 Q923.68 150.607 927.305 150.607 Q928.926 150.607 930.506 150.182 Q932.106 149.736 933.685 148.865 L933.685 152.308 Q932.126 153.037 930.445 153.402 Q928.784 153.767 926.9 153.767 Q921.776 153.767 918.758 150.546 Q915.74 147.326 915.74 141.857 Q915.74 136.307 918.778 133.127 Q921.837 129.947 927.143 129.947 Q928.865 129.947 930.506 130.312 Q932.146 130.656 933.685 131.365 Z" fill="#000000" fill-rule="evenodd" fill-opacity="1" /><path clip-path="url(#clip860)" d="M943.853 124.053 L943.853 130.494 L951.53 130.494 L951.53 133.391 L943.853 133.391 L943.853 145.705 Q943.853 148.48 944.603 149.27 Q945.372 150.06 947.702 150.06 L951.53 150.06 L951.53 153.179 L947.702 153.179 Q943.387 153.179 941.747 151.579 Q940.106 149.959 940.106 145.705 L940.106 133.391 L937.372 133.391 L937.372 130.494 L940.106 130.494 L940.106 124.053 L943.853 124.053 Z" fill="#000000" fill-rule="evenodd" fill-opacity="1" /><path clip-path="url(#clip860)" d="M955.844 121.704 L959.085 121.704 Q962.123 126.484 963.622 131.061 Q965.141 135.639 965.141 140.156 Q965.141 144.693 963.622 149.29 Q962.123 153.888 959.085 158.648 L955.844 158.648 Q958.538 154.01 959.854 149.432 Q961.191 144.834 961.191 140.156 Q961.191 135.477 959.854 130.919 Q958.538 126.362 955.844 121.704 Z" fill="#000000" fill-rule="evenodd" fill-opacity="1" /><path clip-path="url(#clip860)" d="M387.373 205.819 L383.946 191.707 L371.537 199.256 L379.085 186.846 L364.973 183.419 L379.085 179.992 L371.537 167.582 L383.946 175.131 L387.373 161.019 L390.801 175.131 L403.21 167.582 L395.661 179.992 L409.773 183.419 L395.661 186.846 L403.21 199.256 L390.801 191.707 L387.373 205.819 Z" fill="#66cdaa" fill-rule="evenodd" fill-opacity="0.6" stroke="#000000" stroke-opacity="0.6" stroke-width="2.98667"/>
<path clip-path="url(#clip860)" d="M506.477 170.628 L506.477 174.943 Q504.411 173.018 502.062 172.067 Q499.732 171.115 497.099 171.115 Q491.914 171.115 489.159 174.295 Q486.405 177.454 486.405 183.45 Q486.405 189.425 489.159 192.605 Q491.914 195.764 497.099 195.764 Q499.732 195.764 502.062 194.812 Q504.411 193.86 506.477 191.936 L506.477 196.21 Q504.33 197.668 501.92 198.397 Q499.53 199.127 496.856 199.127 Q489.99 199.127 486.04 194.934 Q482.091 190.721 482.091 183.45 Q482.091 176.158 486.04 171.965 Q489.99 167.752 496.856 167.752 Q499.57 167.752 501.96 168.481 Q504.371 169.19 506.477 170.628 Z" fill="#000000" fill-rule="evenodd" fill-opacity="1" /><path clip-path="url(#clip860)" d="M522.944 187.136 Q518.427 187.136 516.685 188.169 Q514.943 189.202 514.943 191.693 Q514.943 193.678 516.24 194.853 Q517.556 196.007 519.805 196.007 Q522.904 196.007 524.767 193.82 Q526.651 191.612 526.651 187.966 L526.651 187.136 L522.944 187.136 M530.377 185.597 L530.377 198.539 L526.651 198.539 L526.651 195.096 Q525.375 197.162 523.471 198.154 Q521.567 199.127 518.812 199.127 Q515.328 199.127 513.262 197.182 Q511.217 195.217 511.217 191.936 Q511.217 188.108 513.769 186.164 Q516.341 184.219 521.425 184.219 L526.651 184.219 L526.651 183.855 Q526.651 181.282 524.949 179.885 Q523.268 178.467 520.21 178.467 Q518.265 178.467 516.422 178.933 Q514.579 179.399 512.878 180.33 L512.878 176.887 Q514.923 176.097 516.847 175.712 Q518.772 175.307 520.595 175.307 Q525.516 175.307 527.947 177.859 Q530.377 180.411 530.377 185.597 Z" fill="#000000" fill-rule="evenodd" fill-opacity="1" /><path clip-path="url(#clip860)" d="M541.74 169.413 L541.74 175.854 L549.417 175.854 L549.417 178.751 L541.74 178.751 L541.74 191.065 Q541.74 193.84 542.49 194.63 Q543.259 195.42 545.589 195.42 L549.417 195.42 L549.417 198.539 L545.589 198.539 Q541.274 198.539 539.634 196.939 Q537.993 195.319 537.993 191.065 L537.993 178.751 L535.259 178.751 L535.259 175.854 L537.993 175.854 L537.993 169.413 L541.74 169.413 Z" fill="#000000" fill-rule="evenodd" fill-opacity="1" /><path clip-path="url(#clip860)" d="M564.628 187.136 Q560.111 187.136 558.369 188.169 Q556.627 189.202 556.627 191.693 Q556.627 193.678 557.924 194.853 Q559.24 196.007 561.488 196.007 Q564.587 196.007 566.451 193.82 Q568.334 191.612 568.334 187.966 L568.334 187.136 L564.628 187.136 M572.061 185.597 L572.061 198.539 L568.334 198.539 L568.334 195.096 Q567.058 197.162 565.154 198.154 Q563.251 199.127 560.496 199.127 Q557.012 199.127 554.946 197.182 Q552.9 195.217 552.9 191.936 Q552.9 188.108 555.453 186.164 Q558.025 184.219 563.109 184.219 L568.334 184.219 L568.334 183.855 Q568.334 181.282 566.633 179.885 Q564.952 178.467 561.893 178.467 Q559.949 178.467 558.106 178.933 Q556.263 179.399 554.561 180.33 L554.561 176.887 Q556.607 176.097 558.531 175.712 Q560.455 175.307 562.278 175.307 Q567.2 175.307 569.631 177.859 Q572.061 180.411 572.061 185.597 Z" fill="#000000" fill-rule="evenodd" fill-opacity="1" /><path clip-path="url(#clip860)" d="M579.738 167.023 L583.465 167.023 L583.465 198.539 L579.738 198.539 L579.738 167.023 Z" fill="#000000" fill-rule="evenodd" fill-opacity="1" /><path clip-path="url(#clip860)" d="M600.701 200.646 Q599.121 204.697 597.622 205.932 Q596.124 207.168 593.612 207.168 L590.635 207.168 L590.635 204.048 L592.822 204.048 Q594.361 204.048 595.212 203.319 Q596.063 202.59 597.096 199.876 L597.764 198.175 L588.589 175.854 L592.539 175.854 L599.628 193.597 L606.717 175.854 L610.666 175.854 L600.701 200.646 Z" fill="#000000" fill-rule="evenodd" fill-opacity="1" /><path clip-path="url(#clip860)" d="M630.273 176.523 L630.273 180.047 Q628.693 179.237 626.992 178.832 Q625.29 178.426 623.467 178.426 Q620.692 178.426 619.295 179.277 Q617.917 180.128 617.917 181.829 Q617.917 183.125 618.91 183.875 Q619.902 184.604 622.9 185.272 L624.176 185.556 Q628.146 186.407 629.807 187.966 Q631.488 189.506 631.488 192.281 Q631.488 195.44 628.976 197.283 Q626.485 199.127 622.11 199.127 Q620.287 199.127 618.302 198.762 Q616.338 198.418 614.15 197.709 L614.15 193.86 Q616.216 194.934 618.221 195.481 Q620.226 196.007 622.191 196.007 Q624.824 196.007 626.242 195.116 Q627.66 194.205 627.66 192.564 Q627.66 191.045 626.627 190.235 Q625.614 189.425 622.151 188.675 L620.854 188.371 Q617.391 187.642 615.852 186.143 Q614.312 184.624 614.312 181.991 Q614.312 178.791 616.581 177.049 Q618.849 175.307 623.022 175.307 Q625.088 175.307 626.91 175.611 Q628.733 175.915 630.273 176.523 Z" fill="#000000" fill-rule="evenodd" fill-opacity="1" /><path clip-path="url(#clip860)" d="M641.109 169.413 L641.109 175.854 L648.785 175.854 L648.785 178.751 L641.109 178.751 L641.109 191.065 Q641.109 193.84 641.858 194.63 Q642.628 195.42 644.957 195.42 L648.785 195.42 L648.785 198.539 L644.957 198.539 Q640.643 198.539 639.002 196.939 Q637.362 195.319 637.362 191.065 L637.362 178.751 L634.627 178.751 L634.627 175.854 L637.362 175.854 L637.362 169.413 L641.109 169.413 Z" fill="#000000" fill-rule="evenodd" fill-opacity="1" /><path clip-path="url(#clip860)" d="M675.825 167.064 Q673.111 171.722 671.795 176.279 Q670.478 180.837 670.478 185.516 Q670.478 190.194 671.795 194.792 Q673.131 199.37 675.825 204.008 L672.584 204.008 Q669.546 199.248 668.027 194.65 Q666.528 190.053 666.528 185.516 Q666.528 180.999 668.027 176.421 Q669.526 171.844 672.584 167.064 L675.825 167.064 Z" fill="#000000" fill-rule="evenodd" fill-opacity="1" /><path clip-path="url(#clip860)" d="M697.558 184.361 Q698.875 184.807 700.11 186.265 Q701.366 187.723 702.622 190.275 L706.774 198.539 L702.379 198.539 L698.51 190.782 Q697.011 187.744 695.594 186.751 Q694.196 185.759 691.765 185.759 L687.309 185.759 L687.309 198.539 L683.218 198.539 L683.218 168.299 L692.454 168.299 Q697.639 168.299 700.191 170.466 Q702.743 172.634 702.743 177.009 Q702.743 179.865 701.407 181.748 Q700.09 183.632 697.558 184.361 M687.309 171.661 L687.309 182.396 L692.454 182.396 Q695.411 182.396 696.91 181.039 Q698.429 179.662 698.429 177.009 Q698.429 174.355 696.91 173.018 Q695.411 171.661 692.454 171.661 L687.309 171.661 Z" fill="#000000" fill-rule="evenodd" fill-opacity="1" /><path clip-path="url(#clip860)" d="M730.168 169.292 L730.168 173.282 Q727.839 172.168 725.773 171.621 Q723.707 171.074 721.783 171.074 Q718.441 171.074 716.618 172.37 Q714.815 173.667 714.815 176.057 Q714.815 178.062 716.01 179.095 Q717.225 180.108 720.588 180.735 L723.059 181.242 Q727.636 182.113 729.803 184.321 Q731.991 186.508 731.991 190.194 Q731.991 194.59 729.034 196.858 Q726.097 199.127 720.405 199.127 Q718.258 199.127 715.828 198.64 Q713.418 198.154 710.825 197.202 L710.825 192.989 Q713.316 194.387 715.706 195.096 Q718.096 195.805 720.405 195.805 Q723.909 195.805 725.813 194.428 Q727.717 193.05 727.717 190.498 Q727.717 188.27 726.34 187.014 Q724.983 185.759 721.864 185.131 L719.372 184.645 Q714.795 183.733 712.749 181.789 Q710.703 179.844 710.703 176.381 Q710.703 172.37 713.519 170.061 Q716.354 167.752 721.317 167.752 Q723.444 167.752 725.651 168.137 Q727.859 168.522 730.168 169.292 Z" fill="#000000" fill-rule="evenodd" fill-opacity="1" /><path clip-path="url(#clip860)" d="M756.499 169.292 L756.499 173.282 Q754.17 172.168 752.104 171.621 Q750.038 171.074 748.114 171.074 Q744.772 171.074 742.949 172.37 Q741.146 173.667 741.146 176.057 Q741.146 178.062 742.341 179.095 Q743.556 180.108 746.919 180.735 L749.39 181.242 Q753.967 182.113 756.134 184.321 Q758.322 186.508 758.322 190.194 Q758.322 194.59 755.365 196.858 Q752.428 199.127 746.736 199.127 Q744.589 199.127 742.159 198.64 Q739.748 198.154 737.156 197.202 L737.156 192.989 Q739.647 194.387 742.037 195.096 Q744.427 195.805 746.736 195.805 Q750.24 195.805 752.144 194.428 Q754.048 193.05 754.048 190.498 Q754.048 188.27 752.671 187.014 Q751.314 185.759 748.195 185.131 L745.703 184.645 Q741.126 183.733 739.08 181.789 Q737.034 179.844 737.034 176.381 Q737.034 172.37 739.85 170.061 Q742.685 167.752 747.648 167.752 Q749.774 167.752 751.982 168.137 Q754.19 168.522 756.499 169.292 Z" fill="#000000" fill-rule="evenodd" fill-opacity="1" /><path clip-path="url(#clip860)" d="M775.579 172.33 L770.029 187.379 L781.149 187.379 L775.579 172.33 M773.27 168.299 L777.908 168.299 L789.433 198.539 L785.179 198.539 L782.425 190.782 L768.793 190.782 L766.039 198.539 L761.725 198.539 L773.27 168.299 Z" fill="#000000" fill-rule="evenodd" fill-opacity="1" /><path clip-path="url(#clip860)" d="M793.099 167.064 L796.34 167.064 Q799.378 171.844 800.877 176.421 Q802.396 180.999 802.396 185.516 Q802.396 190.053 800.877 194.65 Q799.378 199.248 796.34 204.008 L793.099 204.008 Q795.793 199.37 797.109 194.792 Q798.446 190.194 798.446 185.516 Q798.446 180.837 797.109 176.279 Q795.793 171.722 793.099 167.064 Z" fill="#000000" fill-rule="evenodd" fill-opacity="1" /><path clip-path="url(#clip860)" d="M387.373 206.379 L364.973 228.779 L387.373 251.179 L409.773 228.779 L387.373 206.379 Z" fill="#008080" fill-rule="evenodd" fill-opacity="0.6" stroke="#000000" stroke-opacity="0.6" stroke-width="2.98667"/>
<path clip-path="url(#clip860)" d="M506.477 215.988 L506.477 220.303 Q504.411 218.378 502.062 217.427 Q499.732 216.475 497.099 216.475 Q491.914 216.475 489.159 219.655 Q486.405 222.814 486.405 228.81 Q486.405 234.785 489.159 237.965 Q491.914 241.124 497.099 241.124 Q499.732 241.124 502.062 240.172 Q504.411 239.22 506.477 237.296 L506.477 241.57 Q504.33 243.028 501.92 243.757 Q499.53 244.487 496.856 244.487 Q489.99 244.487 486.04 240.294 Q482.091 236.081 482.091 228.81 Q482.091 221.518 486.04 217.325 Q489.99 213.112 496.856 213.112 Q499.57 213.112 501.96 213.841 Q504.371 214.55 506.477 215.988 Z" fill="#000000" fill-rule="evenodd" fill-opacity="1" /><path clip-path="url(#clip860)" d="M522.944 232.496 Q518.427 232.496 516.685 233.529 Q514.943 234.562 514.943 237.053 Q514.943 239.038 516.24 240.213 Q517.556 241.367 519.805 241.367 Q522.904 241.367 524.767 239.18 Q526.651 236.972 526.651 233.326 L526.651 232.496 L522.944 232.496 M530.377 230.957 L530.377 243.899 L526.651 243.899 L526.651 240.456 Q525.375 242.522 523.471 243.514 Q521.567 244.487 518.812 244.487 Q515.328 244.487 513.262 242.542 Q511.217 240.577 511.217 237.296 Q511.217 233.468 513.769 231.524 Q516.341 229.579 521.425 229.579 L526.651 229.579 L526.651 229.215 Q526.651 226.642 524.949 225.245 Q523.268 223.827 520.21 223.827 Q518.265 223.827 516.422 224.293 Q514.579 224.759 512.878 225.69 L512.878 222.247 Q514.923 221.457 516.847 221.072 Q518.772 220.667 520.595 220.667 Q525.516 220.667 527.947 223.219 Q530.377 225.771 530.377 230.957 Z" fill="#000000" fill-rule="evenodd" fill-opacity="1" /><path clip-path="url(#clip860)" d="M541.74 214.773 L541.74 221.214 L549.417 221.214 L549.417 224.111 L541.74 224.111 L541.74 236.425 Q541.74 239.2 542.49 239.99 Q543.259 240.78 545.589 240.78 L549.417 240.78 L549.417 243.899 L545.589 243.899 Q541.274 243.899 539.634 242.299 Q537.993 240.679 537.993 236.425 L537.993 224.111 L535.259 224.111 L535.259 221.214 L537.993 221.214 L537.993 214.773 L541.74 214.773 Z" fill="#000000" fill-rule="evenodd" fill-opacity="1" /><path clip-path="url(#clip860)" d="M564.628 232.496 Q560.111 232.496 558.369 233.529 Q556.627 234.562 556.627 237.053 Q556.627 239.038 557.924 240.213 Q559.24 241.367 561.488 241.367 Q564.587 241.367 566.451 239.18 Q568.334 236.972 568.334 233.326 L568.334 232.496 L564.628 232.496 M572.061 230.957 L572.061 243.899 L568.334 243.899 L568.334 240.456 Q567.058 242.522 565.154 243.514 Q563.251 244.487 560.496 244.487 Q557.012 244.487 554.946 242.542 Q552.9 240.577 552.9 237.296 Q552.9 233.468 555.453 231.524 Q558.025 229.579 563.109 229.579 L568.334 229.579 L568.334 229.215 Q568.334 226.642 566.633 225.245 Q564.952 223.827 561.893 223.827 Q559.949 223.827 558.106 224.293 Q556.263 224.759 554.561 225.69 L554.561 222.247 Q556.607 221.457 558.531 221.072 Q560.455 220.667 562.278 220.667 Q567.2 220.667 569.631 223.219 Q572.061 225.771 572.061 230.957 Z" fill="#000000" fill-rule="evenodd" fill-opacity="1" /><path clip-path="url(#clip860)" d="M579.738 212.383 L583.465 212.383 L583.465 243.899 L579.738 243.899 L579.738 212.383 Z" fill="#000000" fill-rule="evenodd" fill-opacity="1" /><path clip-path="url(#clip860)" d="M600.701 246.006 Q599.121 250.057 597.622 251.292 Q596.124 252.528 593.612 252.528 L590.635 252.528 L590.635 249.408 L592.822 249.408 Q594.361 249.408 595.212 248.679 Q596.063 247.95 597.096 245.236 L597.764 243.535 L588.589 221.214 L592.539 221.214 L599.628 238.957 L606.717 221.214 L610.666 221.214 L600.701 246.006 Z" fill="#000000" fill-rule="evenodd" fill-opacity="1" /><path clip-path="url(#clip860)" d="M630.273 221.883 L630.273 225.407 Q628.693 224.597 626.992 224.192 Q625.29 223.786 623.467 223.786 Q620.692 223.786 619.295 224.637 Q617.917 225.488 617.917 227.189 Q617.917 228.485 618.91 229.235 Q619.902 229.964 622.9 230.632 L624.176 230.916 Q628.146 231.767 629.807 233.326 Q631.488 234.866 631.488 237.641 Q631.488 240.8 628.976 242.643 Q626.485 244.487 622.11 244.487 Q620.287 244.487 618.302 244.122 Q616.338 243.778 614.15 243.069 L614.15 239.22 Q616.216 240.294 618.221 240.841 Q620.226 241.367 622.191 241.367 Q624.824 241.367 626.242 240.476 Q627.66 239.565 627.66 237.924 Q627.66 236.405 626.627 235.595 Q625.614 234.785 622.151 234.035 L620.854 233.731 Q617.391 233.002 615.852 231.503 Q614.312 229.984 614.312 227.351 Q614.312 224.151 616.581 222.409 Q618.849 220.667 623.022 220.667 Q625.088 220.667 626.91 220.971 Q628.733 221.275 630.273 221.883 Z" fill="#000000" fill-rule="evenodd" fill-opacity="1" /><path clip-path="url(#clip860)" d="M641.109 214.773 L641.109 221.214 L648.785 221.214 L648.785 224.111 L641.109 224.111 L641.109 236.425 Q641.109 239.2 641.858 239.99 Q642.628 240.78 644.957 240.78 L648.785 240.78 L648.785 243.899 L644.957 243.899 Q640.643 243.899 639.002 242.299 Q637.362 240.679 637.362 236.425 L637.362 224.111 L634.627 224.111 L634.627 221.214 L637.362 221.214 L637.362 214.773 L641.109 214.773 Z" fill="#000000" fill-rule="evenodd" fill-opacity="1" /><path clip-path="url(#clip860)" d="M675.825 212.424 Q673.111 217.082 671.795 221.639 Q670.478 226.197 670.478 230.876 Q670.478 235.554 671.795 240.152 Q673.131 244.73 675.825 249.368 L672.584 249.368 Q669.546 244.608 668.027 240.01 Q666.528 235.413 666.528 230.876 Q666.528 226.359 668.027 221.781 Q669.526 217.204 672.584 212.424 L675.825 212.424 Z" fill="#000000" fill-rule="evenodd" fill-opacity="1" /><path clip-path="url(#clip860)" d="M697.558 229.721 Q698.875 230.167 700.11 231.625 Q701.366 233.083 702.622 235.635 L706.774 243.899 L702.379 243.899 L698.51 236.142 Q697.011 233.104 695.594 232.111 Q694.196 231.119 691.765 231.119 L687.309 231.119 L687.309 243.899 L683.218 243.899 L683.218 213.659 L692.454 213.659 Q697.639 213.659 700.191 215.826 Q702.743 217.994 702.743 222.369 Q702.743 225.225 701.407 227.108 Q700.09 228.992 697.558 229.721 M687.309 217.021 L687.309 227.756 L692.454 227.756 Q695.411 227.756 696.91 226.399 Q698.429 225.022 698.429 222.369 Q698.429 219.715 696.91 218.378 Q695.411 217.021 692.454 217.021 L687.309 217.021 Z" fill="#000000" fill-rule="evenodd" fill-opacity="1" /><path clip-path="url(#clip860)" d="M730.168 214.652 L730.168 218.642 Q727.839 217.528 725.773 216.981 Q723.707 216.434 721.783 216.434 Q718.441 216.434 716.618 217.73 Q714.815 219.027 714.815 221.417 Q714.815 223.422 716.01 224.455 Q717.225 225.468 720.588 226.095 L723.059 226.602 Q727.636 227.473 729.803 229.681 Q731.991 231.868 731.991 235.554 Q731.991 239.95 729.034 242.218 Q726.097 244.487 720.405 244.487 Q718.258 244.487 715.828 244 Q713.418 243.514 710.825 242.562 L710.825 238.349 Q713.316 239.747 715.706 240.456 Q718.096 241.165 720.405 241.165 Q723.909 241.165 725.813 239.788 Q727.717 238.41 727.717 235.858 Q727.717 233.63 726.34 232.374 Q724.983 231.119 721.864 230.491 L719.372 230.005 Q714.795 229.093 712.749 227.149 Q710.703 225.204 710.703 221.741 Q710.703 217.73 713.519 215.421 Q716.354 213.112 721.317 213.112 Q723.444 213.112 725.651 213.497 Q727.859 213.882 730.168 214.652 Z" fill="#000000" fill-rule="evenodd" fill-opacity="1" /><path clip-path="url(#clip860)" d="M756.499 214.652 L756.499 218.642 Q754.17 217.528 752.104 216.981 Q750.038 216.434 748.114 216.434 Q744.772 216.434 742.949 217.73 Q741.146 219.027 741.146 221.417 Q741.146 223.422 742.341 224.455 Q743.556 225.468 746.919 226.095 L749.39 226.602 Q753.967 227.473 756.134 229.681 Q758.322 231.868 758.322 235.554 Q758.322 239.95 755.365 242.218 Q752.428 244.487 746.736 244.487 Q744.589 244.487 742.159 244 Q739.748 243.514 737.156 242.562 L737.156 238.349 Q739.647 239.747 742.037 240.456 Q744.427 241.165 746.736 241.165 Q750.24 241.165 752.144 239.788 Q754.048 238.41 754.048 235.858 Q754.048 233.63 752.671 232.374 Q751.314 231.119 748.195 230.491 L745.703 230.005 Q741.126 229.093 739.08 227.149 Q737.034 225.204 737.034 221.741 Q737.034 217.73 739.85 215.421 Q742.685 213.112 747.648 213.112 Q749.774 213.112 751.982 213.497 Q754.19 213.882 756.499 214.652 Z" fill="#000000" fill-rule="evenodd" fill-opacity="1" /><path clip-path="url(#clip860)" d="M775.579 217.69 L770.029 232.739 L781.149 232.739 L775.579 217.69 M773.27 213.659 L777.908 213.659 L789.433 243.899 L785.179 243.899 L782.425 236.142 L768.793 236.142 L766.039 243.899 L761.725 243.899 L773.27 213.659 Z" fill="#000000" fill-rule="evenodd" fill-opacity="1" /><path clip-path="url(#clip860)" d="M815.764 215.988 L815.764 220.303 Q813.698 218.378 811.348 217.427 Q809.019 216.475 806.386 216.475 Q801.201 216.475 798.446 219.655 Q795.691 222.814 795.691 228.81 Q795.691 234.785 798.446 237.965 Q801.201 241.124 806.386 241.124 Q809.019 241.124 811.348 240.172 Q813.698 239.22 815.764 237.296 L815.764 241.57 Q813.617 243.028 811.206 243.757 Q808.816 244.487 806.143 244.487 Q799.276 244.487 795.327 240.294 Q791.377 236.081 791.377 228.81 Q791.377 221.518 795.327 217.325 Q799.276 213.112 806.143 213.112 Q808.857 213.112 811.247 213.841 Q813.657 214.55 815.764 215.988 Z" fill="#000000" fill-rule="evenodd" fill-opacity="1" /><path clip-path="url(#clip860)" d="M836.423 229.721 Q837.74 230.167 838.975 231.625 Q840.231 233.083 841.487 235.635 L845.639 243.899 L841.244 243.899 L837.375 236.142 Q835.876 233.104 834.459 232.111 Q833.061 231.119 830.63 231.119 L826.174 231.119 L826.174 243.899 L822.083 243.899 L822.083 213.659 L831.319 213.659 Q836.504 213.659 839.056 215.826 Q841.608 217.994 841.608 222.369 Q841.608 225.225 840.272 227.108 Q838.955 228.992 836.423 229.721 M826.174 217.021 L826.174 227.756 L831.319 227.756 Q834.276 227.756 835.775 226.399 Q837.294 225.022 837.294 222.369 Q837.294 219.715 835.775 218.378 Q834.276 217.021 831.319 217.021 L826.174 217.021 Z" fill="#000000" fill-rule="evenodd" fill-opacity="1" /><path clip-path="url(#clip860)" d="M850.156 212.424 L853.397 212.424 Q856.435 217.204 857.934 221.781 Q859.453 226.359 859.453 230.876 Q859.453 235.413 857.934 240.01 Q856.435 244.608 853.397 249.368 L850.156 249.368 Q852.85 244.73 854.166 240.152 Q855.503 235.554 855.503 230.876 Q855.503 226.197 854.166 221.639 Q852.85 217.082 850.156 212.424 Z" fill="#000000" fill-rule="evenodd" fill-opacity="1" /><path clip-path="url(#clip860)" d="M387.373 251.739 L364.973 274.139 L387.373 296.539 L409.773 274.139 L387.373 251.739 Z" fill="#ffa500" fill-rule="evenodd" fill-opacity="0.6" stroke="#000000" stroke-opacity="0.6" stroke-width="2.98667"/>
<path clip-path="url(#clip860)" d="M486.182 274.818 L486.182 285.897 L492.745 285.897 Q496.046 285.897 497.626 284.54 Q499.226 283.163 499.226 280.347 Q499.226 277.512 497.626 276.175 Q496.046 274.818 492.745 274.818 L486.182 274.818 M486.182 262.381 L486.182 271.496 L492.238 271.496 Q495.236 271.496 496.694 270.382 Q498.173 269.248 498.173 266.939 Q498.173 264.65 496.694 263.516 Q495.236 262.381 492.238 262.381 L486.182 262.381 M482.091 259.019 L492.542 259.019 Q497.221 259.019 499.753 260.964 Q502.284 262.908 502.284 266.493 Q502.284 269.268 500.988 270.909 Q499.692 272.549 497.18 272.954 Q500.198 273.602 501.859 275.668 Q503.54 277.714 503.54 280.793 Q503.54 284.844 500.786 287.051 Q498.031 289.259 492.947 289.259 L482.091 289.259 L482.091 259.019 Z" fill="#000000" fill-rule="evenodd" fill-opacity="1" /><path clip-path="url(#clip860)" d="M510.386 266.574 L514.113 266.574 L514.113 289.259 L510.386 289.259 L510.386 266.574 M510.386 257.743 L514.113 257.743 L514.113 262.462 L510.386 262.462 L510.386 257.743 Z" fill="#000000" fill-rule="evenodd" fill-opacity="1" /><path clip-path="url(#clip860)" d="M530.702 269.187 Q527.704 269.187 525.962 271.536 Q524.22 273.866 524.22 277.937 Q524.22 282.008 525.942 284.358 Q527.684 286.687 530.702 286.687 Q533.679 286.687 535.421 284.337 Q537.163 281.988 537.163 277.937 Q537.163 273.906 535.421 271.557 Q533.679 269.187 530.702 269.187 M530.702 266.027 Q535.563 266.027 538.337 269.187 Q541.112 272.347 541.112 277.937 Q541.112 283.507 538.337 286.687 Q535.563 289.847 530.702 289.847 Q525.82 289.847 523.045 286.687 Q520.291 283.507 520.291 277.937 Q520.291 272.347 523.045 269.187 Q525.82 266.027 530.702 266.027 Z" fill="#000000" fill-rule="evenodd" fill-opacity="1" /><path clip-path="url(#clip860)" d="M566.147 275.567 L566.147 289.259 L562.42 289.259 L562.42 275.689 Q562.42 272.468 561.164 270.868 Q559.909 269.268 557.397 269.268 Q554.379 269.268 552.637 271.192 Q550.895 273.116 550.895 276.438 L550.895 289.259 L547.148 289.259 L547.148 266.574 L550.895 266.574 L550.895 270.098 Q552.232 268.053 554.035 267.04 Q555.858 266.027 558.227 266.027 Q562.137 266.027 564.142 268.458 Q566.147 270.868 566.147 275.567 Z" fill="#000000" fill-rule="evenodd" fill-opacity="1" /><path clip-path="url(#clip860)" d="M592.984 276.985 L592.984 278.808 L575.849 278.808 Q576.092 282.656 578.158 284.682 Q580.244 286.687 583.951 286.687 Q586.098 286.687 588.103 286.16 Q590.128 285.634 592.113 284.58 L592.113 288.105 Q590.108 288.955 588.002 289.401 Q585.895 289.847 583.728 289.847 Q578.3 289.847 575.12 286.687 Q571.96 283.527 571.96 278.139 Q571.96 272.569 574.958 269.308 Q577.976 266.027 583.08 266.027 Q587.657 266.027 590.311 268.984 Q592.984 271.921 592.984 276.985 M589.257 275.891 Q589.217 272.833 587.536 271.01 Q585.875 269.187 583.12 269.187 Q580.001 269.187 578.117 270.949 Q576.254 272.711 575.97 275.911 L589.257 275.891 Z" fill="#000000" fill-rule="evenodd" fill-opacity="1" /><path clip-path="url(#clip860)" d="M602.787 260.133 L602.787 266.574 L610.464 266.574 L610.464 269.471 L602.787 269.471 L602.787 281.785 Q602.787 284.56 603.537 285.35 Q604.306 286.14 606.636 286.14 L610.464 286.14 L610.464 289.259 L606.636 289.259 Q602.321 289.259 600.681 287.659 Q599.04 286.039 599.04 281.785 L599.04 269.471 L596.306 269.471 L596.306 266.574 L599.04 266.574 L599.04 260.133 L602.787 260.133 Z" fill="#000000" fill-rule="evenodd" fill-opacity="1" /><path clip-path="url(#clip860)" d="M630.293 277.653 Q630.293 273.602 628.612 271.374 Q626.951 269.146 623.933 269.146 Q620.935 269.146 619.254 271.374 Q617.593 273.602 617.593 277.653 Q617.593 281.684 619.254 283.912 Q620.935 286.14 623.933 286.14 Q626.951 286.14 628.612 283.912 Q630.293 281.684 630.293 277.653 M634.02 286.444 Q634.02 292.237 631.447 295.052 Q628.875 297.888 623.568 297.888 Q621.604 297.888 619.862 297.584 Q618.12 297.3 616.479 296.693 L616.479 293.067 Q618.12 293.958 619.72 294.384 Q621.32 294.809 622.981 294.809 Q626.647 294.809 628.47 292.885 Q630.293 290.981 630.293 287.112 L630.293 285.269 Q629.138 287.274 627.336 288.267 Q625.533 289.259 623.022 289.259 Q618.849 289.259 616.297 286.079 Q613.745 282.899 613.745 277.653 Q613.745 272.387 616.297 269.207 Q618.849 266.027 623.022 266.027 Q625.533 266.027 627.336 267.02 Q629.138 268.012 630.293 270.017 L630.293 266.574 L634.02 266.574 L634.02 286.444 Z" fill="#000000" fill-rule="evenodd" fill-opacity="1" /><path clip-path="url(#clip860)" d="M661.1 276.985 L661.1 278.808 L643.965 278.808 Q644.208 282.656 646.274 284.682 Q648.36 286.687 652.067 286.687 Q654.214 286.687 656.219 286.16 Q658.244 285.634 660.229 284.58 L660.229 288.105 Q658.224 288.955 656.118 289.401 Q654.011 289.847 651.844 289.847 Q646.416 289.847 643.236 286.687 Q640.076 283.527 640.076 278.139 Q640.076 272.569 643.074 269.308 Q646.092 266.027 651.196 266.027 Q655.773 266.027 658.427 268.984 Q661.1 271.921 661.1 276.985 M657.373 275.891 Q657.333 272.833 655.652 271.01 Q653.991 269.187 651.236 269.187 Q648.117 269.187 646.233 270.949 Q644.37 272.711 644.086 275.911 L657.373 275.891 Z" fill="#000000" fill-rule="evenodd" fill-opacity="1" /><path clip-path="url(#clip860)" d="M686.074 275.567 L686.074 289.259 L682.347 289.259 L682.347 275.689 Q682.347 272.468 681.091 270.868 Q679.836 269.268 677.324 269.268 Q674.306 269.268 672.564 271.192 Q670.822 273.116 670.822 276.438 L670.822 289.259 L667.075 289.259 L667.075 266.574 L670.822 266.574 L670.822 270.098 Q672.159 268.053 673.962 267.04 Q675.785 266.027 678.154 266.027 Q682.064 266.027 684.069 268.458 Q686.074 270.868 686.074 275.567 Z" fill="#000000" fill-rule="evenodd" fill-opacity="1" /><path clip-path="url(#clip860)" d="M715.646 257.784 Q712.931 262.442 711.615 266.999 Q710.298 271.557 710.298 276.236 Q710.298 280.914 711.615 285.512 Q712.952 290.09 715.646 294.728 L712.405 294.728 Q709.367 289.968 707.848 285.37 Q706.349 280.773 706.349 276.236 Q706.349 271.719 707.848 267.141 Q709.346 262.564 712.405 257.784 L715.646 257.784 Z" fill="#000000" fill-rule="evenodd" fill-opacity="1" /><path clip-path="url(#clip860)" d="M741.166 260.012 L741.166 264.002 Q738.837 262.888 736.771 262.341 Q734.705 261.794 732.781 261.794 Q729.439 261.794 727.616 263.09 Q725.813 264.387 725.813 266.777 Q725.813 268.782 727.008 269.815 Q728.224 270.828 731.586 271.455 L734.057 271.962 Q738.634 272.833 740.802 275.041 Q742.989 277.228 742.989 280.914 Q742.989 285.31 740.032 287.578 Q737.095 289.847 731.404 289.847 Q729.257 289.847 726.826 289.36 Q724.416 288.874 721.823 287.922 L721.823 283.709 Q724.314 285.107 726.705 285.816 Q729.095 286.525 731.404 286.525 Q734.908 286.525 736.812 285.148 Q738.715 283.77 738.715 281.218 Q738.715 278.99 737.338 277.734 Q735.981 276.479 732.862 275.851 L730.371 275.365 Q725.793 274.453 723.747 272.509 Q721.702 270.564 721.702 267.101 Q721.702 263.09 724.517 260.781 Q727.353 258.472 732.315 258.472 Q734.442 258.472 736.649 258.857 Q738.857 259.242 741.166 260.012 Z" fill="#000000" fill-rule="evenodd" fill-opacity="1" /><path clip-path="url(#clip860)" d="M757.998 269.187 Q755 269.187 753.258 271.536 Q751.516 273.866 751.516 277.937 Q751.516 282.008 753.238 284.358 Q754.98 286.687 757.998 286.687 Q760.975 286.687 762.717 284.337 Q764.459 281.988 764.459 277.937 Q764.459 273.906 762.717 271.557 Q760.975 269.187 757.998 269.187 M757.998 266.027 Q762.859 266.027 765.634 269.187 Q768.409 272.347 768.409 277.937 Q768.409 283.507 765.634 286.687 Q762.859 289.847 757.998 289.847 Q753.116 289.847 750.342 286.687 Q747.587 283.507 747.587 277.937 Q747.587 272.347 750.342 269.187 Q753.116 266.027 757.998 266.027 Z" fill="#000000" fill-rule="evenodd" fill-opacity="1" /><path clip-path="url(#clip860)" d="M787.731 270.058 Q787.103 269.693 786.354 269.531 Q785.625 269.349 784.734 269.349 Q781.574 269.349 779.873 271.415 Q778.192 273.461 778.192 277.309 L778.192 289.259 L774.444 289.259 L774.444 266.574 L778.192 266.574 L778.192 270.098 Q779.366 268.032 781.25 267.04 Q783.134 266.027 785.827 266.027 Q786.212 266.027 786.678 266.088 Q787.144 266.129 787.711 266.23 L787.731 270.058 Z" fill="#000000" fill-rule="evenodd" fill-opacity="1" /><path clip-path="url(#clip860)" d="M795.327 260.133 L795.327 266.574 L803.003 266.574 L803.003 269.471 L795.327 269.471 L795.327 281.785 Q795.327 284.56 796.076 285.35 Q796.846 286.14 799.175 286.14 L803.003 286.14 L803.003 289.259 L799.175 289.259 Q794.861 289.259 793.22 287.659 Q791.58 286.039 791.58 281.785 L791.58 269.471 L788.845 269.471 L788.845 266.574 L791.58 266.574 L791.58 260.133 L795.327 260.133 Z" fill="#000000" fill-rule="evenodd" fill-opacity="1" /><path clip-path="url(#clip860)" d="M807.905 266.574 L811.632 266.574 L811.632 289.259 L807.905 289.259 L807.905 266.574 M807.905 257.743 L811.632 257.743 L811.632 262.462 L807.905 262.462 L807.905 257.743 Z" fill="#000000" fill-rule="evenodd" fill-opacity="1" /><path clip-path="url(#clip860)" d="M838.287 275.567 L838.287 289.259 L834.56 289.259 L834.56 275.689 Q834.56 272.468 833.304 270.868 Q832.048 269.268 829.537 269.268 Q826.519 269.268 824.777 271.192 Q823.035 273.116 823.035 276.438 L823.035 289.259 L819.288 289.259 L819.288 266.574 L823.035 266.574 L823.035 270.098 Q824.372 268.053 826.174 267.04 Q827.997 266.027 830.367 266.027 Q834.276 266.027 836.281 268.458 Q838.287 270.868 838.287 275.567 Z" fill="#000000" fill-rule="evenodd" fill-opacity="1" /><path clip-path="url(#clip860)" d="M860.648 277.653 Q860.648 273.602 858.967 271.374 Q857.306 269.146 854.288 269.146 Q851.29 269.146 849.609 271.374 Q847.948 273.602 847.948 277.653 Q847.948 281.684 849.609 283.912 Q851.29 286.14 854.288 286.14 Q857.306 286.14 858.967 283.912 Q860.648 281.684 860.648 277.653 M864.374 286.444 Q864.374 292.237 861.802 295.052 Q859.23 297.888 853.923 297.888 Q851.958 297.888 850.217 297.584 Q848.475 297.3 846.834 296.693 L846.834 293.067 Q848.475 293.958 850.075 294.384 Q851.675 294.809 853.336 294.809 Q857.002 294.809 858.825 292.885 Q860.648 290.981 860.648 287.112 L860.648 285.269 Q859.493 287.274 857.69 288.267 Q855.888 289.259 853.376 289.259 Q849.204 289.259 846.652 286.079 Q844.1 282.899 844.1 277.653 Q844.1 272.387 846.652 269.207 Q849.204 266.027 853.376 266.027 Q855.888 266.027 857.69 267.02 Q859.493 268.012 860.648 270.017 L860.648 266.574 L864.374 266.574 L864.374 286.444 Z" fill="#000000" fill-rule="evenodd" fill-opacity="1" /><path clip-path="url(#clip860)" d="M876.304 262.381 L876.304 285.897 L881.247 285.897 Q887.505 285.897 890.402 283.061 Q893.318 280.226 893.318 274.109 Q893.318 268.032 890.402 265.217 Q887.505 262.381 881.247 262.381 L876.304 262.381 M872.213 259.019 L880.619 259.019 Q889.409 259.019 893.521 262.685 Q897.632 266.331 897.632 274.109 Q897.632 281.927 893.5 285.593 Q889.369 289.259 880.619 289.259 L872.213 289.259 L872.213 259.019 Z" fill="#000000" fill-rule="evenodd" fill-opacity="1" /><path clip-path="url(#clip860)" d="M903.992 266.574 L907.719 266.574 L907.719 289.259 L903.992 289.259 L903.992 266.574 M903.992 257.743 L907.719 257.743 L907.719 262.462 L903.992 262.462 L903.992 257.743 Z" fill="#000000" fill-rule="evenodd" fill-opacity="1" /><path clip-path="url(#clip860)" d="M928.662 270.058 Q928.034 269.693 927.285 269.531 Q926.556 269.349 925.665 269.349 Q922.505 269.349 920.804 271.415 Q919.122 273.461 919.122 277.309 L919.122 289.259 L915.375 289.259 L915.375 266.574 L919.122 266.574 L919.122 270.098 Q920.297 268.032 922.181 267.04 Q924.065 266.027 926.758 266.027 Q927.143 266.027 927.609 266.088 Q928.075 266.129 928.642 266.23 L928.662 270.058 Z" fill="#000000" fill-rule="evenodd" fill-opacity="1" /><path clip-path="url(#clip860)" d="M951.064 276.985 L951.064 278.808 L933.929 278.808 Q934.172 282.656 936.238 284.682 Q938.324 286.687 942.03 286.687 Q944.177 286.687 946.183 286.16 Q948.208 285.634 950.193 284.58 L950.193 288.105 Q948.188 288.955 946.081 289.401 Q943.975 289.847 941.808 289.847 Q936.379 289.847 933.199 286.687 Q930.04 283.527 930.04 278.139 Q930.04 272.569 933.037 269.308 Q936.055 266.027 941.159 266.027 Q945.737 266.027 948.39 268.984 Q951.064 271.921 951.064 276.985 M947.337 275.891 Q947.296 272.833 945.615 271.01 Q943.955 269.187 941.2 269.187 Q938.081 269.187 936.197 270.949 Q934.334 272.711 934.05 275.911 L947.337 275.891 Z" fill="#000000" fill-rule="evenodd" fill-opacity="1" /><path clip-path="url(#clip860)" d="M973.506 267.445 L973.506 270.929 Q971.926 270.058 970.326 269.633 Q968.746 269.187 967.126 269.187 Q963.5 269.187 961.495 271.496 Q959.49 273.785 959.49 277.937 Q959.49 282.089 961.495 284.398 Q963.5 286.687 967.126 286.687 Q968.746 286.687 970.326 286.262 Q971.926 285.816 973.506 284.945 L973.506 288.388 Q971.946 289.117 970.265 289.482 Q968.604 289.847 966.721 289.847 Q961.596 289.847 958.578 286.626 Q955.56 283.406 955.56 277.937 Q955.56 272.387 958.599 269.207 Q961.657 266.027 966.964 266.027 Q968.685 266.027 970.326 266.392 Q971.967 266.736 973.506 267.445 Z" fill="#000000" fill-rule="evenodd" fill-opacity="1" /><path clip-path="url(#clip860)" d="M983.674 260.133 L983.674 266.574 L991.35 266.574 L991.35 269.471 L983.674 269.471 L983.674 281.785 Q983.674 284.56 984.423 285.35 Q985.193 286.14 987.522 286.14 L991.35 286.14 L991.35 289.259 L987.522 289.259 Q983.208 289.259 981.567 287.659 Q979.927 286.039 979.927 281.785 L979.927 269.471 L977.192 269.471 L977.192 266.574 L979.927 266.574 L979.927 260.133 L983.674 260.133 Z" fill="#000000" fill-rule="evenodd" fill-opacity="1" /><path clip-path="url(#clip860)" d="M995.664 257.784 L998.905 257.784 Q1001.94 262.564 1003.44 267.141 Q1004.96 271.719 1004.96 276.236 Q1004.96 280.773 1003.44 285.37 Q1001.94 289.968 998.905 294.728 L995.664 294.728 Q998.358 290.09 999.675 285.512 Q1001.01 280.914 1001.01 276.236 Q1001.01 271.557 999.675 266.999 Q998.358 262.442 995.664 257.784 Z" fill="#000000" fill-rule="evenodd" fill-opacity="1" /></svg>
