<?xml version="1.0" encoding="utf-8"?>
<svg xmlns="http://www.w3.org/2000/svg" xmlns:xlink="http://www.w3.org/1999/xlink" width="600" height="400" viewBox="0 0 2400 1600">
<defs>
  <clipPath id="clip830">
    <rect x="0" y="0" width="2400" height="1600"/>
  </clipPath>
</defs>
<path clip-path="url(#clip830)" d="
M0 1600 L2400 1600 L2400 0 L0 0  Z
  " fill="#ffffff" fill-rule="evenodd" fill-opacity="1"/>
<defs>
  <clipPath id="clip831">
    <rect x="480" y="0" width="1681" height="1600"/>
  </clipPath>
</defs>
<path clip-path="url(#clip830)" d="
M158.35 1474.16 L2352.76 1474.16 L2352.76 47.2441 L158.35 47.2441  Z
  " fill="#ffffff" fill-rule="evenodd" fill-opacity="1"/>
<defs>
  <clipPath id="clip832">
    <rect x="158" y="47" width="2195" height="1428"/>
  </clipPath>
</defs>
<polyline clip-path="url(#clip832)" style="stroke:#000000; stroke-linecap:round; stroke-linejoin:round; stroke-width:10; stroke-opacity:0.3; fill:none" points="
  255.286,1474.16 255.286,47.2441 
  "/>
<polyline clip-path="url(#clip832)" style="stroke:#000000; stroke-linecap:round; stroke-linejoin:round; stroke-width:10; stroke-opacity:0.3; fill:none" points="
  1255.55,1474.16 1255.55,47.2441 
  "/>
<polyline clip-path="url(#clip832)" style="stroke:#000000; stroke-linecap:round; stroke-linejoin:round; stroke-width:10; stroke-opacity:0.3; fill:none" points="
  2255.82,1474.16 2255.82,47.2441 
  "/>
<polyline clip-path="url(#clip830)" style="stroke:#000000; stroke-linecap:round; stroke-linejoin:round; stroke-width:4; stroke-opacity:1; fill:none" points="
  158.35,1474.16 2352.76,1474.16 
  "/>
<polyline clip-path="url(#clip830)" style="stroke:#000000; stroke-linecap:round; stroke-linejoin:round; stroke-width:4; stroke-opacity:1; fill:none" points="
  158.35,47.2441 2352.76,47.2441 
  "/>
<polyline clip-path="url(#clip830)" style="stroke:#000000; stroke-linecap:round; stroke-linejoin:round; stroke-width:4; stroke-opacity:1; fill:none" points="
  255.286,1474.16 255.286,1455.27 
  "/>
<polyline clip-path="url(#clip830)" style="stroke:#000000; stroke-linecap:round; stroke-linejoin:round; stroke-width:4; stroke-opacity:1; fill:none" points="
  1255.55,1474.16 1255.55,1455.27 
  "/>
<polyline clip-path="url(#clip830)" style="stroke:#000000; stroke-linecap:round; stroke-linejoin:round; stroke-width:4; stroke-opacity:1; fill:none" points="
  2255.82,1474.16 2255.82,1455.27 
  "/>
<path clip-path="url(#clip830)" d="M220.73 1548.29 L228.369 1548.29 L228.369 1521.92 L220.058 1523.59 L220.058 1519.33 L228.322 1517.66 L232.998 1517.66 L232.998 1548.29 L240.637 1548.29 L240.637 1552.22 L220.73 1552.22 L220.73 1548.29 Z" fill="#000000" fill-rule="evenodd" fill-opacity="1" /><path clip-path="url(#clip830)" d="M260.081 1520.74 Q256.47 1520.74 254.642 1524.31 Q252.836 1527.85 252.836 1534.98 Q252.836 1542.09 254.642 1545.65 Q256.47 1549.19 260.081 1549.19 Q263.716 1549.19 265.521 1545.65 Q267.35 1542.09 267.35 1534.98 Q267.35 1527.85 265.521 1524.31 Q263.716 1520.74 260.081 1520.74 M260.081 1517.04 Q265.892 1517.04 268.947 1521.65 Q272.026 1526.23 272.026 1534.98 Q272.026 1543.71 268.947 1548.31 Q265.892 1552.9 260.081 1552.9 Q254.271 1552.9 251.193 1548.31 Q248.137 1543.71 248.137 1534.98 Q248.137 1526.23 251.193 1521.65 Q254.271 1517.04 260.081 1517.04 Z" fill="#000000" fill-rule="evenodd" fill-opacity="1" /><path clip-path="url(#clip830)" d="M284.721 1509.67 Q287.448 1510.26 288.972 1512.1 Q290.514 1513.94 290.514 1516.65 Q290.514 1520.81 287.655 1523.08 Q284.796 1525.36 279.53 1525.36 Q277.762 1525.36 275.881 1525 Q274.019 1524.66 272.026 1523.97 L272.026 1520.3 Q273.606 1521.22 275.486 1521.69 Q277.367 1522.16 279.417 1522.16 Q282.991 1522.16 284.853 1520.75 Q286.733 1519.34 286.733 1516.65 Q286.733 1514.17 284.984 1512.78 Q283.254 1511.37 280.151 1511.37 L276.878 1511.37 L276.878 1508.24 L280.301 1508.24 Q283.104 1508.24 284.589 1507.13 Q286.075 1506.01 286.075 1503.9 Q286.075 1501.74 284.533 1500.59 Q283.01 1499.42 280.151 1499.42 Q278.59 1499.42 276.803 1499.76 Q275.016 1500.1 272.872 1500.82 L272.872 1497.43 Q275.035 1496.83 276.916 1496.53 Q278.815 1496.23 280.489 1496.23 Q284.815 1496.23 287.335 1498.2 Q289.856 1500.16 289.856 1503.51 Q289.856 1505.84 288.52 1507.45 Q287.185 1509.05 284.721 1509.67 Z" fill="#000000" fill-rule="evenodd" fill-opacity="1" /><path clip-path="url(#clip830)" d="M1220.01 1548.29 L1227.65 1548.29 L1227.65 1521.92 L1219.34 1523.59 L1219.34 1519.33 L1227.6 1517.66 L1232.28 1517.66 L1232.28 1548.29 L1239.92 1548.29 L1239.92 1552.22 L1220.01 1552.22 L1220.01 1548.29 Z" fill="#000000" fill-rule="evenodd" fill-opacity="1" /><path clip-path="url(#clip830)" d="M1259.36 1520.74 Q1255.75 1520.74 1253.92 1524.31 Q1252.12 1527.85 1252.12 1534.98 Q1252.12 1542.09 1253.92 1545.65 Q1255.75 1549.19 1259.36 1549.19 Q1263 1549.19 1264.8 1545.65 Q1266.63 1542.09 1266.63 1534.98 Q1266.63 1527.85 1264.8 1524.31 Q1263 1520.74 1259.36 1520.74 M1259.36 1517.04 Q1265.17 1517.04 1268.23 1521.65 Q1271.31 1526.23 1271.31 1534.98 Q1271.31 1543.71 1268.23 1548.31 Q1265.17 1552.9 1259.36 1552.9 Q1253.55 1552.9 1250.47 1548.31 Q1247.42 1543.71 1247.42 1534.98 Q1247.42 1526.23 1250.47 1521.65 Q1253.55 1517.04 1259.36 1517.04 Z" fill="#000000" fill-rule="evenodd" fill-opacity="1" /><path clip-path="url(#clip830)" d="M1283.98 1500.04 L1274.39 1515.03 L1283.98 1515.03 L1283.98 1500.04 M1282.98 1496.73 L1287.76 1496.73 L1287.76 1515.03 L1291.77 1515.03 L1291.77 1518.19 L1287.76 1518.19 L1287.76 1524.81 L1283.98 1524.81 L1283.98 1518.19 L1271.31 1518.19 L1271.31 1514.53 L1282.98 1496.73 Z" fill="#000000" fill-rule="evenodd" fill-opacity="1" /><path clip-path="url(#clip830)" d="M2221.42 1548.29 L2229.06 1548.29 L2229.06 1521.92 L2220.75 1523.59 L2220.75 1519.33 L2229.02 1517.66 L2233.69 1517.66 L2233.69 1548.29 L2241.33 1548.29 L2241.33 1552.22 L2221.42 1552.22 L2221.42 1548.29 Z" fill="#000000" fill-rule="evenodd" fill-opacity="1" /><path clip-path="url(#clip830)" d="M2260.78 1520.74 Q2257.16 1520.74 2255.34 1524.31 Q2253.53 1527.85 2253.53 1534.98 Q2253.53 1542.09 2255.34 1545.65 Q2257.16 1549.19 2260.78 1549.19 Q2264.41 1549.19 2266.21 1545.65 Q2268.04 1542.09 2268.04 1534.98 Q2268.04 1527.85 2266.21 1524.31 Q2264.41 1520.74 2260.78 1520.74 M2260.78 1517.04 Q2266.59 1517.04 2269.64 1521.65 Q2272.72 1526.23 2272.72 1534.98 Q2272.72 1543.71 2269.64 1548.31 Q2266.59 1552.9 2260.78 1552.9 Q2254.96 1552.9 2251.89 1548.31 Q2248.83 1543.71 2248.83 1534.98 Q2248.83 1526.23 2251.89 1521.65 Q2254.96 1517.04 2260.78 1517.04 Z" fill="#000000" fill-rule="evenodd" fill-opacity="1" /><path clip-path="url(#clip830)" d="M2273.9 1496.73 L2288.82 1496.73 L2288.82 1499.93 L2277.38 1499.93 L2277.38 1506.82 Q2278.21 1506.53 2279.04 1506.4 Q2279.87 1506.25 2280.69 1506.25 Q2285.4 1506.25 2288.14 1508.83 Q2290.89 1511.4 2290.89 1515.81 Q2290.89 1520.34 2288.07 1522.86 Q2285.25 1525.36 2280.11 1525.36 Q2278.34 1525.36 2276.5 1525.06 Q2274.68 1524.76 2272.72 1524.16 L2272.72 1520.34 Q2274.41 1521.26 2276.22 1521.71 Q2278.02 1522.16 2280.04 1522.16 Q2283.29 1522.16 2285.19 1520.45 Q2287.09 1518.74 2287.09 1515.81 Q2287.09 1512.87 2285.19 1511.16 Q2283.29 1509.45 2280.04 1509.45 Q2278.51 1509.45 2276.99 1509.79 Q2275.48 1510.13 2273.9 1510.84 L2273.9 1496.73 Z" fill="#000000" fill-rule="evenodd" fill-opacity="1" /><polyline clip-path="url(#clip832)" style="stroke:#000000; stroke-linecap:round; stroke-linejoin:round; stroke-width:10; stroke-opacity:0.3; fill:none" points="
  158.35,1430.87 2352.76,1430.87 
  "/>
<polyline clip-path="url(#clip832)" style="stroke:#000000; stroke-linecap:round; stroke-linejoin:round; stroke-width:10; stroke-opacity:0.3; fill:none" points="
  158.35,984.092 2352.76,984.092 
  "/>
<polyline clip-path="url(#clip832)" style="stroke:#000000; stroke-linecap:round; stroke-linejoin:round; stroke-width:10; stroke-opacity:0.3; fill:none" points="
  158.35,537.317 2352.76,537.317 
  "/>
<polyline clip-path="url(#clip832)" style="stroke:#000000; stroke-linecap:round; stroke-linejoin:round; stroke-width:10; stroke-opacity:0.3; fill:none" points="
  158.35,90.5411 2352.76,90.5411 
  "/>
<polyline clip-path="url(#clip830)" style="stroke:#000000; stroke-linecap:round; stroke-linejoin:round; stroke-width:4; stroke-opacity:1; fill:none" points="
  158.35,1474.16 158.35,47.2441 
  "/>
<polyline clip-path="url(#clip830)" style="stroke:#000000; stroke-linecap:round; stroke-linejoin:round; stroke-width:4; stroke-opacity:1; fill:none" points="
  2352.76,1474.16 2352.76,47.2441 
  "/>
<polyline clip-path="url(#clip830)" style="stroke:#000000; stroke-linecap:round; stroke-linejoin:round; stroke-width:4; stroke-opacity:1; fill:none" points="
  158.35,1430.87 177.248,1430.87 
  "/>
<polyline clip-path="url(#clip830)" style="stroke:#000000; stroke-linecap:round; stroke-linejoin:round; stroke-width:4; stroke-opacity:1; fill:none" points="
  158.35,984.092 177.248,984.092 
  "/>
<polyline clip-path="url(#clip830)" style="stroke:#000000; stroke-linecap:round; stroke-linejoin:round; stroke-width:4; stroke-opacity:1; fill:none" points="
  158.35,537.317 177.248,537.317 
  "/>
<polyline clip-path="url(#clip830)" style="stroke:#000000; stroke-linecap:round; stroke-linejoin:round; stroke-width:4; stroke-opacity:1; fill:none" points="
  158.35,90.5411 177.248,90.5411 
  "/>
<path clip-path="url(#clip830)" d="M52.8859 1450.66 L60.5248 1450.66 L60.5248 1424.29 L52.2146 1425.96 L52.2146 1421.7 L60.4785 1420.04 L65.1544 1420.04 L65.1544 1450.66 L72.7932 1450.66 L72.7932 1454.6 L52.8859 1454.6 L52.8859 1450.66 Z" fill="#000000" fill-rule="evenodd" fill-opacity="1" /><path clip-path="url(#clip830)" d="M92.2376 1423.11 Q88.6265 1423.11 86.7978 1426.68 Q84.9922 1430.22 84.9922 1437.35 Q84.9922 1444.46 86.7978 1448.02 Q88.6265 1451.56 92.2376 1451.56 Q95.8718 1451.56 97.6774 1448.02 Q99.506 1444.46 99.506 1437.35 Q99.506 1430.22 97.6774 1426.68 Q95.8718 1423.11 92.2376 1423.11 M92.2376 1419.41 Q98.0477 1419.41 101.103 1424.02 Q104.182 1428.6 104.182 1437.35 Q104.182 1446.08 101.103 1450.68 Q98.0477 1455.27 92.2376 1455.27 Q86.4274 1455.27 83.3487 1450.68 Q80.2932 1446.08 80.2932 1437.35 Q80.2932 1428.6 83.3487 1424.02 Q86.4274 1419.41 92.2376 1419.41 Z" fill="#000000" fill-rule="evenodd" fill-opacity="1" /><path clip-path="url(#clip830)" d="M105.367 1399.1 L120.281 1399.1 L120.281 1402.3 L108.846 1402.3 L108.846 1409.19 Q109.674 1408.9 110.501 1408.77 Q111.329 1408.62 112.156 1408.62 Q116.858 1408.62 119.604 1411.2 Q122.35 1413.77 122.35 1418.18 Q122.35 1422.71 119.529 1425.23 Q116.708 1427.73 111.573 1427.73 Q109.805 1427.73 107.962 1427.43 Q106.138 1427.13 104.182 1426.53 L104.182 1422.71 Q105.875 1423.63 107.68 1424.08 Q109.486 1424.53 111.498 1424.53 Q114.752 1424.53 116.651 1422.82 Q118.551 1421.11 118.551 1418.18 Q118.551 1415.24 116.651 1413.53 Q114.752 1411.82 111.498 1411.82 Q109.975 1411.82 108.451 1412.16 Q106.947 1412.5 105.367 1413.21 L105.367 1399.1 Z" fill="#000000" fill-rule="evenodd" fill-opacity="1" /><path clip-path="url(#clip830)" d="M51.6634 1003.88 L59.3023 1003.88 L59.3023 977.519 L50.9921 979.186 L50.9921 974.926 L59.256 973.26 L63.9319 973.26 L63.9319 1003.88 L71.5707 1003.88 L71.5707 1007.82 L51.6634 1007.82 L51.6634 1003.88 Z" fill="#000000" fill-rule="evenodd" fill-opacity="1" /><path clip-path="url(#clip830)" d="M91.0151 976.338 Q87.404 976.338 85.5753 979.903 Q83.7697 983.445 83.7697 990.574 Q83.7697 997.681 85.5753 1001.25 Q87.404 1004.79 91.0151 1004.79 Q94.6493 1004.79 96.4548 1001.25 Q98.2835 997.681 98.2835 990.574 Q98.2835 983.445 96.4548 979.903 Q94.6493 976.338 91.0151 976.338 M91.0151 972.635 Q96.8252 972.635 99.8808 977.241 Q102.959 981.825 102.959 990.574 Q102.959 999.301 99.8808 1003.91 Q96.8252 1008.49 91.0151 1008.49 Q85.2049 1008.49 82.1262 1003.91 Q79.0707 999.301 79.0707 990.574 Q79.0707 981.825 82.1262 977.241 Q85.2049 972.635 91.0151 972.635 Z" fill="#000000" fill-rule="evenodd" fill-opacity="1" /><path clip-path="url(#clip830)" d="M112.984 964.855 Q110.426 964.855 108.922 966.604 Q107.436 968.354 107.436 971.4 Q107.436 974.428 108.922 976.196 Q110.426 977.946 112.984 977.946 Q115.542 977.946 117.028 976.196 Q118.532 974.428 118.532 971.4 Q118.532 968.354 117.028 966.604 Q115.542 964.855 112.984 964.855 M120.526 952.95 L120.526 956.411 Q119.097 955.734 117.63 955.376 Q116.181 955.019 114.752 955.019 Q110.99 955.019 108.997 957.558 Q107.022 960.097 106.74 965.231 Q107.849 963.595 109.523 962.73 Q111.197 961.846 113.21 961.846 Q117.441 961.846 119.886 964.423 Q122.35 966.981 122.35 971.4 Q122.35 975.726 119.792 978.34 Q117.235 980.955 112.984 980.955 Q108.113 980.955 105.536 977.231 Q102.959 973.488 102.959 966.398 Q102.959 959.74 106.119 955.79 Q109.279 951.822 114.601 951.822 Q116.031 951.822 117.479 952.104 Q118.946 952.386 120.526 952.95 Z" fill="#000000" fill-rule="evenodd" fill-opacity="1" /><path clip-path="url(#clip830)" d="M52.9988 557.109 L60.6376 557.109 L60.6376 530.743 L52.3275 532.41 L52.3275 528.151 L60.5913 526.484 L65.2672 526.484 L65.2672 557.109 L72.9061 557.109 L72.9061 561.044 L52.9988 561.044 L52.9988 557.109 Z" fill="#000000" fill-rule="evenodd" fill-opacity="1" /><path clip-path="url(#clip830)" d="M92.3504 529.563 Q88.7393 529.563 86.9106 533.128 Q85.1051 536.669 85.1051 543.799 Q85.1051 550.905 86.9106 554.47 Q88.7393 558.012 92.3504 558.012 Q95.9847 558.012 97.7902 554.47 Q99.6189 550.905 99.6189 543.799 Q99.6189 536.669 97.7902 533.128 Q95.9847 529.563 92.3504 529.563 M92.3504 525.859 Q98.1606 525.859 101.216 530.466 Q104.295 535.049 104.295 543.799 Q104.295 552.526 101.216 557.132 Q98.1606 561.716 92.3504 561.716 Q86.5403 561.716 83.4616 557.132 Q80.406 552.526 80.406 543.799 Q80.406 535.049 83.4616 530.466 Q86.5403 525.859 92.3504 525.859 Z" fill="#000000" fill-rule="evenodd" fill-opacity="1" /><path clip-path="url(#clip830)" d="M104.295 505.554 L122.35 505.554 L122.35 507.171 L112.156 533.634 L108.188 533.634 L117.78 508.751 L104.295 508.751 L104.295 505.554 Z" fill="#000000" fill-rule="evenodd" fill-opacity="1" /><path clip-path="url(#clip830)" d="M51.7951 110.334 L59.4339 110.334 L59.4339 83.968 L51.1238 85.6346 L51.1238 81.3754 L59.3876 79.7087 L64.0635 79.7087 L64.0635 110.334 L71.7024 110.334 L71.7024 114.269 L51.7951 114.269 L51.7951 110.334 Z" fill="#000000" fill-rule="evenodd" fill-opacity="1" /><path clip-path="url(#clip830)" d="M91.1467 82.7874 Q87.5356 82.7874 85.7069 86.3522 Q83.9014 89.8938 83.9014 97.0234 Q83.9014 104.13 85.7069 107.695 Q87.5356 111.236 91.1467 111.236 Q94.781 111.236 96.5865 107.695 Q98.4152 104.13 98.4152 97.0234 Q98.4152 89.8938 96.5865 86.3522 Q94.781 82.7874 91.1467 82.7874 M91.1467 79.0837 Q96.9569 79.0837 100.012 83.6902 Q103.091 88.2735 103.091 97.0234 Q103.091 105.75 100.012 110.357 Q96.9569 114.94 91.1467 114.94 Q85.3366 114.94 82.2579 110.357 Q79.2023 105.75 79.2023 97.0234 Q79.2023 88.2735 82.2579 83.6902 Q85.3366 79.0837 91.1467 79.0837 Z" fill="#000000" fill-rule="evenodd" fill-opacity="1" /><path clip-path="url(#clip830)" d="M112.721 73.5236 Q110.012 73.5236 108.451 74.9718 Q106.909 76.42 106.909 78.9591 Q106.909 81.4981 108.451 82.9463 Q110.012 84.3945 112.721 84.3945 Q115.429 84.3945 116.99 82.9463 Q118.551 81.4793 118.551 78.9591 Q118.551 76.42 116.99 74.9718 Q115.448 73.5236 112.721 73.5236 M108.922 71.9061 Q106.476 71.3043 105.104 69.6304 Q103.749 67.9565 103.749 65.5491 Q103.749 62.1825 106.138 60.2265 Q108.545 58.2705 112.721 58.2705 Q116.915 58.2705 119.303 60.2265 Q121.692 62.1825 121.692 65.5491 Q121.692 67.9565 120.319 69.6304 Q118.965 71.3043 116.539 71.9061 Q119.285 72.5456 120.808 74.4076 Q122.35 76.2695 122.35 78.9591 Q122.35 83.0403 119.849 85.222 Q117.366 87.4037 112.721 87.4037 Q108.075 87.4037 105.574 85.222 Q103.091 83.0403 103.091 78.9591 Q103.091 76.2695 104.633 74.4076 Q106.176 72.5456 108.922 71.9061 M107.53 65.9065 Q107.53 68.0882 108.884 69.3107 Q110.257 70.5332 112.721 70.5332 Q115.166 70.5332 116.539 69.3107 Q117.93 68.0882 117.93 65.9065 Q117.93 63.7248 116.539 62.5023 Q115.166 61.2797 112.721 61.2797 Q110.257 61.2797 108.884 62.5023 Q107.53 63.7248 107.53 65.9065 Z" fill="#000000" fill-rule="evenodd" fill-opacity="1" /><polyline clip-path="url(#clip832)" style="stroke:#00f5ff; stroke-linecap:round; stroke-linejoin:round; stroke-width:24; stroke-opacity:0.8; fill:none" points="
  653.392,791.976 1459.61,532.797 2265.82,169.657 
  "/>
<circle clip-path="url(#clip832)" cx="653.392" cy="791.976" r="21.6" fill="#00f5ff" fill-rule="evenodd" fill-opacity="0.6" stroke="#000000" stroke-opacity="0.6" stroke-width="3.2"/>
<circle clip-path="url(#clip832)" cx="1459.61" cy="532.797" r="21.6" fill="#00f5ff" fill-rule="evenodd" fill-opacity="0.6" stroke="#000000" stroke-opacity="0.6" stroke-width="3.2"/>
<circle clip-path="url(#clip832)" cx="2265.82" cy="169.657" r="21.6" fill="#00f5ff" fill-rule="evenodd" fill-opacity="0.6" stroke="#000000" stroke-opacity="0.6" stroke-width="3.2"/>
<polyline clip-path="url(#clip832)" style="stroke:#66cdaa; stroke-linecap:round; stroke-linejoin:round; stroke-width:24; stroke-opacity:0.8; fill:none" points="
  653.392,745.392 1459.61,623.034 2265.82,309.559 
  "/>
<path clip-path="url(#clip832)" d="M653.392 769.392 L649.72 754.272 L636.424 762.36 L644.512 749.064 L629.392 745.392 L644.512 741.72 L636.424 728.424 L649.72 736.512 L653.392 721.392 L657.064 736.512 L670.36 728.424 L662.272 741.72 L677.392 745.392 L662.272 749.064 L670.36 762.36 L657.064 754.272 L653.392 769.392 Z" fill="#66cdaa" fill-rule="evenodd" fill-opacity="0.6" stroke="#000000" stroke-opacity="0.6" stroke-width="3.2"/>
<path clip-path="url(#clip832)" d="M1459.61 647.034 L1455.94 631.914 L1442.64 640.002 L1450.73 626.706 L1435.61 623.034 L1450.73 619.362 L1442.64 606.066 L1455.94 614.154 L1459.61 599.034 L1463.28 614.154 L1476.58 606.066 L1468.49 619.362 L1483.61 623.034 L1468.49 626.706 L1476.58 640.002 L1463.28 631.914 L1459.61 647.034 Z" fill="#66cdaa" fill-rule="evenodd" fill-opacity="0.6" stroke="#000000" stroke-opacity="0.6" stroke-width="3.2"/>
<path clip-path="url(#clip832)" d="M2265.82 333.559 L2262.15 318.439 L2248.85 326.527 L2256.94 313.231 L2241.82 309.559 L2256.94 305.887 L2248.85 292.591 L2262.15 300.679 L2265.82 285.559 L2269.49 300.679 L2282.79 292.591 L2274.7 305.887 L2289.82 309.559 L2274.7 313.231 L2282.79 326.527 L2269.49 318.439 L2265.82 333.559 Z" fill="#66cdaa" fill-rule="evenodd" fill-opacity="0.6" stroke="#000000" stroke-opacity="0.6" stroke-width="3.2"/>
<polyline clip-path="url(#clip832)" style="stroke:#008080; stroke-linecap:round; stroke-linejoin:round; stroke-width:24; stroke-opacity:0.8; fill:none" points="
  653.392,1426.73 1459.61,1146.93 2265.82,782.103 
  "/>
<path clip-path="url(#clip832)" d="M653.392 1402.73 L629.392 1426.73 L653.392 1450.73 L677.392 1426.73 L653.392 1402.73 Z" fill="#008080" fill-rule="evenodd" fill-opacity="0.6" stroke="#000000" stroke-opacity="0.6" stroke-width="3.2"/>
<path clip-path="url(#clip832)" d="M1459.61 1122.93 L1435.61 1146.93 L1459.61 1170.93 L1483.61 1146.93 L1459.61 1122.93 Z" fill="#008080" fill-rule="evenodd" fill-opacity="0.6" stroke="#000000" stroke-opacity="0.6" stroke-width="3.2"/>
<path clip-path="url(#clip832)" d="M2265.82 758.103 L2241.82 782.103 L2265.82 806.103 L2289.82 782.103 L2265.82 758.103 Z" fill="#008080" fill-rule="evenodd" fill-opacity="0.6" stroke="#000000" stroke-opacity="0.6" stroke-width="3.2"/>
<polyline clip-path="url(#clip832)" style="stroke:#ffa500; stroke-linecap:round; stroke-linejoin:round; stroke-width:24; stroke-opacity:0.8; fill:none" stroke-dasharray="96, 60" points="
  653.392,526.948 1459.61,275.185 
  "/>
<path clip-path="url(#clip832)" d="M653.392 502.948 L629.392 526.948 L653.392 550.948 L677.392 526.948 L653.392 502.948 Z" fill="#ffa500" fill-rule="evenodd" fill-opacity="0.6" stroke="#000000" stroke-opacity="0.6" stroke-width="3.2"/>
<path clip-path="url(#clip832)" d="M1459.61 251.185 L1435.61 275.185 L1459.61 299.185 L1483.61 275.185 L1459.61 251.185 Z" fill="#ffa500" fill-rule="evenodd" fill-opacity="0.6" stroke="#000000" stroke-opacity="0.6" stroke-width="3.2"/>
<polyline clip-path="url(#clip832)" style="stroke:#f08080; stroke-linecap:round; stroke-linejoin:round; stroke-width:24; stroke-opacity:0.8; fill:none" points="
  653.392,255.692 1459.61,219.054 
  "/>
<path clip-path="url(#clip832)" d="M653.392 279.692 L636.424 272.66 L629.392 255.692 L636.424 238.724 L653.392 231.692 L670.36 238.724 L677.392 255.692 L670.36 272.66 Z" fill="#f08080" fill-rule="evenodd" fill-opacity="0.6" stroke="#000000" stroke-opacity="0.6" stroke-width="3.2"/>
<path clip-path="url(#clip832)" d="M1459.61 243.054 L1442.64 236.022 L1435.61 219.054 L1442.64 202.086 L1459.61 195.054 L1476.58 202.086 L1483.61 219.054 L1476.58 236.022 Z" fill="#f08080" fill-rule="evenodd" fill-opacity="0.6" stroke="#000000" stroke-opacity="0.6" stroke-width="3.2"/>
</svg>
