<?xml version="1.0" encoding="utf-8"?>
<svg xmlns="http://www.w3.org/2000/svg" xmlns:xlink="http://www.w3.org/1999/xlink" width="600" height="400" viewBox="0 0 2400 1600">
<defs>
  <clipPath id="clip560">
    <rect x="0" y="0" width="2400" height="1600"/>
  </clipPath>
</defs>
<path clip-path="url(#clip560)" d="
M0 1600 L2400 1600 L2400 0 L0 0  Z
  " fill="#ffffff" fill-rule="evenodd" fill-opacity="1"/>
<defs>
  <clipPath id="clip561">
    <rect x="480" y="0" width="1681" height="1600"/>
  </clipPath>
</defs>
<path clip-path="url(#clip560)" d="
M159.422 1474.16 L2352.76 1474.16 L2352.76 47.2441 L159.422 47.2441  Z
  " fill="#ffffff" fill-rule="evenodd" fill-opacity="1"/>
<defs>
  <clipPath id="clip562">
    <rect x="159" y="47" width="2194" height="1428"/>
  </clipPath>
</defs>
<polyline clip-path="url(#clip562)" style="stroke:#000000; stroke-linecap:round; stroke-linejoin:round; stroke-width:10; stroke-opacity:0.3; fill:none" points="
  256.311,1474.16 256.311,47.2441 
  "/>
<polyline clip-path="url(#clip562)" style="stroke:#000000; stroke-linecap:round; stroke-linejoin:round; stroke-width:10; stroke-opacity:0.3; fill:none" points="
  1256.09,1474.16 1256.09,47.2441 
  "/>
<polyline clip-path="url(#clip562)" style="stroke:#000000; stroke-linecap:round; stroke-linejoin:round; stroke-width:10; stroke-opacity:0.3; fill:none" points="
  2255.87,1474.16 2255.87,47.2441 
  "/>
<polyline clip-path="url(#clip560)" style="stroke:#000000; stroke-linecap:round; stroke-linejoin:round; stroke-width:4; stroke-opacity:1; fill:none" points="
  159.422,1474.16 2352.76,1474.16 
  "/>
<polyline clip-path="url(#clip560)" style="stroke:#000000; stroke-linecap:round; stroke-linejoin:round; stroke-width:4; stroke-opacity:1; fill:none" points="
  159.422,47.2441 2352.76,47.2441 
  "/>
<polyline clip-path="url(#clip560)" style="stroke:#000000; stroke-linecap:round; stroke-linejoin:round; stroke-width:4; stroke-opacity:1; fill:none" points="
  256.311,1474.16 256.311,1455.27 
  "/>
<polyline clip-path="url(#clip560)" style="stroke:#000000; stroke-linecap:round; stroke-linejoin:round; stroke-width:4; stroke-opacity:1; fill:none" points="
  1256.09,1474.16 1256.09,1455.27 
  "/>
<polyline clip-path="url(#clip560)" style="stroke:#000000; stroke-linecap:round; stroke-linejoin:round; stroke-width:4; stroke-opacity:1; fill:none" points="
  2255.87,1474.16 2255.87,1455.27 
  "/>
<path clip-path="url(#clip560)" d="M222.638 1548.29 L230.277 1548.29 L230.277 1521.92 L221.967 1523.59 L221.967 1519.33 L230.231 1517.66 L234.907 1517.66 L234.907 1548.29 L242.546 1548.29 L242.546 1552.22 L222.638 1552.22 L222.638 1548.29 Z" fill="#000000" fill-rule="evenodd" fill-opacity="1" /><path clip-path="url(#clip560)" d="M261.99 1520.74 Q258.379 1520.74 256.55 1524.31 Q254.745 1527.85 254.745 1534.98 Q254.745 1542.09 256.55 1545.65 Q258.379 1549.19 261.99 1549.19 Q265.624 1549.19 267.43 1545.65 Q269.259 1542.09 269.259 1534.98 Q269.259 1527.85 267.43 1524.31 Q265.624 1520.74 261.99 1520.74 M261.99 1517.04 Q267.8 1517.04 270.856 1521.65 Q273.934 1526.23 273.934 1534.98 Q273.934 1543.71 270.856 1548.31 Q267.8 1552.9 261.99 1552.9 Q256.18 1552.9 253.101 1548.31 Q250.046 1543.71 250.046 1534.98 Q250.046 1526.23 253.101 1521.65 Q256.18 1517.04 261.99 1517.04 Z" fill="#000000" fill-rule="evenodd" fill-opacity="1" /><path clip-path="url(#clip560)" d="M274.48 1521.62 L280.686 1521.62 L280.686 1500.19 L273.934 1501.55 L273.934 1498.09 L280.649 1496.73 L284.448 1496.73 L284.448 1521.62 L290.655 1521.62 L290.655 1524.81 L274.48 1524.81 L274.48 1521.62 Z" fill="#000000" fill-rule="evenodd" fill-opacity="1" /><path clip-path="url(#clip560)" d="M1221.86 1548.29 L1229.5 1548.29 L1229.5 1521.92 L1221.19 1523.59 L1221.19 1519.33 L1229.45 1517.66 L1234.13 1517.66 L1234.13 1548.29 L1241.77 1548.29 L1241.77 1552.22 L1221.86 1552.22 L1221.86 1548.29 Z" fill="#000000" fill-rule="evenodd" fill-opacity="1" /><path clip-path="url(#clip560)" d="M1261.21 1520.74 Q1257.6 1520.74 1255.77 1524.31 Q1253.97 1527.85 1253.97 1534.98 Q1253.97 1542.09 1255.77 1545.65 Q1257.6 1549.19 1261.21 1549.19 Q1264.85 1549.19 1266.65 1545.65 Q1268.48 1542.09 1268.48 1534.98 Q1268.48 1527.85 1266.65 1524.31 Q1264.85 1520.74 1261.21 1520.74 M1261.21 1517.04 Q1267.02 1517.04 1270.08 1521.65 Q1273.16 1526.23 1273.16 1534.98 Q1273.16 1543.71 1270.08 1548.31 Q1267.02 1552.9 1261.21 1552.9 Q1255.4 1552.9 1252.32 1548.31 Q1249.27 1543.71 1249.27 1534.98 Q1249.27 1526.23 1252.32 1521.65 Q1255.4 1517.04 1261.21 1517.04 Z" fill="#000000" fill-rule="evenodd" fill-opacity="1" /><path clip-path="url(#clip560)" d="M1277.73 1521.62 L1290.99 1521.62 L1290.99 1524.81 L1273.16 1524.81 L1273.16 1521.62 Q1275.32 1519.38 1279.04 1515.62 Q1282.79 1511.84 1283.75 1510.75 Q1285.57 1508.7 1286.29 1507.29 Q1287.02 1505.86 1287.02 1504.48 Q1287.02 1502.24 1285.44 1500.83 Q1283.88 1499.42 1281.36 1499.42 Q1279.57 1499.42 1277.58 1500.04 Q1275.6 1500.67 1273.35 1501.93 L1273.35 1498.09 Q1275.64 1497.17 1277.63 1496.7 Q1279.63 1496.23 1281.28 1496.23 Q1285.65 1496.23 1288.24 1498.41 Q1290.84 1500.59 1290.84 1504.24 Q1290.84 1505.97 1290.18 1507.53 Q1289.54 1509.07 1287.83 1511.18 Q1287.36 1511.72 1284.84 1514.34 Q1282.32 1516.93 1277.73 1521.62 Z" fill="#000000" fill-rule="evenodd" fill-opacity="1" /><path clip-path="url(#clip560)" d="M2221.31 1548.29 L2228.95 1548.29 L2228.95 1521.92 L2220.64 1523.59 L2220.64 1519.33 L2228.9 1517.66 L2233.58 1517.66 L2233.58 1548.29 L2241.22 1548.29 L2241.22 1552.22 L2221.31 1552.22 L2221.31 1548.29 Z" fill="#000000" fill-rule="evenodd" fill-opacity="1" /><path clip-path="url(#clip560)" d="M2260.66 1520.74 Q2257.05 1520.74 2255.22 1524.31 Q2253.42 1527.85 2253.42 1534.98 Q2253.42 1542.09 2255.22 1545.65 Q2257.05 1549.19 2260.66 1549.19 Q2264.3 1549.19 2266.1 1545.65 Q2267.93 1542.09 2267.93 1534.98 Q2267.93 1527.85 2266.1 1524.31 Q2264.3 1520.74 2260.66 1520.74 M2260.66 1517.04 Q2266.47 1517.04 2269.53 1521.65 Q2272.61 1526.23 2272.61 1534.98 Q2272.61 1543.71 2269.53 1548.31 Q2266.47 1552.9 2260.66 1552.9 Q2254.85 1552.9 2251.77 1548.31 Q2248.72 1543.71 2248.72 1534.98 Q2248.72 1526.23 2251.77 1521.65 Q2254.85 1517.04 2260.66 1517.04 Z" fill="#000000" fill-rule="evenodd" fill-opacity="1" /><path clip-path="url(#clip560)" d="M2285.3 1509.67 Q2288.03 1510.26 2289.55 1512.1 Q2291.1 1513.94 2291.1 1516.65 Q2291.1 1520.81 2288.24 1523.08 Q2285.38 1525.36 2280.11 1525.36 Q2278.34 1525.36 2276.46 1525 Q2274.6 1524.66 2272.61 1523.97 L2272.61 1520.3 Q2274.19 1521.22 2276.07 1521.69 Q2277.95 1522.16 2280 1522.16 Q2283.57 1522.16 2285.43 1520.75 Q2287.31 1519.34 2287.31 1516.65 Q2287.31 1514.17 2285.57 1512.78 Q2283.84 1511.37 2280.73 1511.37 L2277.46 1511.37 L2277.46 1508.24 L2280.88 1508.24 Q2283.68 1508.24 2285.17 1507.13 Q2286.66 1506.01 2286.66 1503.9 Q2286.66 1501.74 2285.11 1500.59 Q2283.59 1499.42 2280.73 1499.42 Q2279.17 1499.42 2277.38 1499.76 Q2275.6 1500.1 2273.45 1500.82 L2273.45 1497.43 Q2275.62 1496.83 2277.5 1496.53 Q2279.4 1496.23 2281.07 1496.23 Q2285.4 1496.23 2287.92 1498.2 Q2290.44 1500.16 2290.44 1503.51 Q2290.44 1505.84 2289.1 1507.45 Q2287.77 1509.05 2285.3 1509.67 Z" fill="#000000" fill-rule="evenodd" fill-opacity="1" /><polyline clip-path="url(#clip562)" style="stroke:#000000; stroke-linecap:round; stroke-linejoin:round; stroke-width:10; stroke-opacity:0.3; fill:none" points="
  159.422,1451.84 2352.76,1451.84 
  "/>
<polyline clip-path="url(#clip562)" style="stroke:#000000; stroke-linecap:round; stroke-linejoin:round; stroke-width:10; stroke-opacity:0.3; fill:none" points="
  159.422,1221.46 2352.76,1221.46 
  "/>
<polyline clip-path="url(#clip562)" style="stroke:#000000; stroke-linecap:round; stroke-linejoin:round; stroke-width:10; stroke-opacity:0.3; fill:none" points="
  159.422,991.082 2352.76,991.082 
  "/>
<polyline clip-path="url(#clip562)" style="stroke:#000000; stroke-linecap:round; stroke-linejoin:round; stroke-width:10; stroke-opacity:0.3; fill:none" points="
  159.422,760.704 2352.76,760.704 
  "/>
<polyline clip-path="url(#clip562)" style="stroke:#000000; stroke-linecap:round; stroke-linejoin:round; stroke-width:10; stroke-opacity:0.3; fill:none" points="
  159.422,530.326 2352.76,530.326 
  "/>
<polyline clip-path="url(#clip562)" style="stroke:#000000; stroke-linecap:round; stroke-linejoin:round; stroke-width:10; stroke-opacity:0.3; fill:none" points="
  159.422,299.948 2352.76,299.948 
  "/>
<polyline clip-path="url(#clip562)" style="stroke:#000000; stroke-linecap:round; stroke-linejoin:round; stroke-width:10; stroke-opacity:0.3; fill:none" points="
  159.422,69.57 2352.76,69.57 
  "/>
<polyline clip-path="url(#clip560)" style="stroke:#000000; stroke-linecap:round; stroke-linejoin:round; stroke-width:4; stroke-opacity:1; fill:none" points="
  159.422,1474.16 159.422,47.2441 
  "/>
<polyline clip-path="url(#clip560)" style="stroke:#000000; stroke-linecap:round; stroke-linejoin:round; stroke-width:4; stroke-opacity:1; fill:none" points="
  2352.76,1474.16 2352.76,47.2441 
  "/>
<polyline clip-path="url(#clip560)" style="stroke:#000000; stroke-linecap:round; stroke-linejoin:round; stroke-width:4; stroke-opacity:1; fill:none" points="
  159.422,1451.84 178.32,1451.84 
  "/>
<polyline clip-path="url(#clip560)" style="stroke:#000000; stroke-linecap:round; stroke-linejoin:round; stroke-width:4; stroke-opacity:1; fill:none" points="
  159.422,1221.46 178.32,1221.46 
  "/>
<polyline clip-path="url(#clip560)" style="stroke:#000000; stroke-linecap:round; stroke-linejoin:round; stroke-width:4; stroke-opacity:1; fill:none" points="
  159.422,991.082 178.32,991.082 
  "/>
<polyline clip-path="url(#clip560)" style="stroke:#000000; stroke-linecap:round; stroke-linejoin:round; stroke-width:4; stroke-opacity:1; fill:none" points="
  159.422,760.704 178.32,760.704 
  "/>
<polyline clip-path="url(#clip560)" style="stroke:#000000; stroke-linecap:round; stroke-linejoin:round; stroke-width:4; stroke-opacity:1; fill:none" points="
  159.422,530.326 178.32,530.326 
  "/>
<polyline clip-path="url(#clip560)" style="stroke:#000000; stroke-linecap:round; stroke-linejoin:round; stroke-width:4; stroke-opacity:1; fill:none" points="
  159.422,299.948 178.32,299.948 
  "/>
<polyline clip-path="url(#clip560)" style="stroke:#000000; stroke-linecap:round; stroke-linejoin:round; stroke-width:4; stroke-opacity:1; fill:none" points="
  159.422,69.57 178.32,69.57 
  "/>
<path clip-path="url(#clip560)" d="M55.4062 1471.63 L63.045 1471.63 L63.045 1445.27 L54.7349 1446.93 L54.7349 1442.67 L62.9987 1441.01 L67.6746 1441.01 L67.6746 1471.63 L75.3135 1471.63 L75.3135 1475.57 L55.4062 1475.57 L55.4062 1471.63 Z" fill="#000000" fill-rule="evenodd" fill-opacity="1" /><path clip-path="url(#clip560)" d="M94.7578 1444.09 Q91.1467 1444.09 89.318 1447.65 Q87.5125 1451.19 87.5125 1458.32 Q87.5125 1465.43 89.318 1468.99 Q91.1467 1472.53 94.7578 1472.53 Q98.392 1472.53 100.198 1468.99 Q102.026 1465.43 102.026 1458.32 Q102.026 1451.19 100.198 1447.65 Q98.392 1444.09 94.7578 1444.09 M94.7578 1440.38 Q100.568 1440.38 103.623 1444.99 Q106.702 1449.57 106.702 1458.32 Q106.702 1467.05 103.623 1471.65 Q100.568 1476.24 94.7578 1476.24 Q88.9477 1476.24 85.869 1471.65 Q82.8134 1467.05 82.8134 1458.32 Q82.8134 1449.57 85.869 1444.99 Q88.9477 1440.38 94.7578 1440.38 Z" fill="#000000" fill-rule="evenodd" fill-opacity="1" /><path clip-path="url(#clip560)" d="M107.248 1444.96 L113.454 1444.96 L113.454 1423.54 L106.702 1424.89 L106.702 1421.43 L113.417 1420.08 L117.216 1420.08 L117.216 1444.96 L123.422 1444.96 L123.422 1448.16 L107.248 1448.16 L107.248 1444.96 Z" fill="#000000" fill-rule="evenodd" fill-opacity="1" /><path clip-path="url(#clip560)" d="M54.2965 1241.25 L61.9354 1241.25 L61.9354 1214.89 L53.6252 1216.55 L53.6252 1212.29 L61.8891 1210.63 L66.565 1210.63 L66.565 1241.25 L74.2038 1241.25 L74.2038 1245.19 L54.2965 1245.19 L54.2965 1241.25 Z" fill="#000000" fill-rule="evenodd" fill-opacity="1" /><path clip-path="url(#clip560)" d="M93.6481 1213.71 Q90.0371 1213.71 88.2084 1217.27 Q86.4028 1220.81 86.4028 1227.94 Q86.4028 1235.05 88.2084 1238.61 Q90.0371 1242.16 93.6481 1242.16 Q97.2824 1242.16 99.0879 1238.61 Q100.917 1235.05 100.917 1227.94 Q100.917 1220.81 99.0879 1217.27 Q97.2824 1213.71 93.6481 1213.71 M93.6481 1210 Q99.4583 1210 102.514 1214.61 Q105.593 1219.19 105.593 1227.94 Q105.593 1236.67 102.514 1241.28 Q99.4583 1245.86 93.6481 1245.86 Q87.838 1245.86 84.7593 1241.28 Q81.7038 1236.67 81.7038 1227.94 Q81.7038 1219.19 84.7593 1214.61 Q87.838 1210 93.6481 1210 Z" fill="#000000" fill-rule="evenodd" fill-opacity="1" /><path clip-path="url(#clip560)" d="M110.163 1214.58 L123.422 1214.58 L123.422 1217.78 L105.593 1217.78 L105.593 1214.58 Q107.755 1212.34 111.479 1208.58 Q115.222 1204.8 116.181 1203.71 Q118.006 1201.66 118.72 1200.25 Q119.454 1198.82 119.454 1197.45 Q119.454 1195.21 117.874 1193.8 Q116.313 1192.39 113.793 1192.39 Q112.006 1192.39 110.012 1193.01 Q108.038 1193.63 105.781 1194.89 L105.781 1191.05 Q108.075 1190.13 110.069 1189.66 Q112.062 1189.19 113.717 1189.19 Q118.081 1189.19 120.676 1191.37 Q123.272 1193.55 123.272 1197.2 Q123.272 1198.93 122.614 1200.49 Q121.974 1202.04 120.263 1204.14 Q119.792 1204.69 117.272 1207.3 Q114.752 1209.9 110.163 1214.58 Z" fill="#000000" fill-rule="evenodd" fill-opacity="1" /><path clip-path="url(#clip560)" d="M53.6382 1010.87 L61.2771 1010.87 L61.2771 984.509 L52.9669 986.176 L52.9669 981.917 L61.2308 980.25 L65.9067 980.25 L65.9067 1010.87 L73.5455 1010.87 L73.5455 1014.81 L53.6382 1014.81 L53.6382 1010.87 Z" fill="#000000" fill-rule="evenodd" fill-opacity="1" /><path clip-path="url(#clip560)" d="M92.9899 983.329 Q89.3788 983.329 87.5501 986.894 Q85.7445 990.435 85.7445 997.565 Q85.7445 1004.67 87.5501 1008.24 Q89.3788 1011.78 92.9899 1011.78 Q96.6241 1011.78 98.4297 1008.24 Q100.258 1004.67 100.258 997.565 Q100.258 990.435 98.4297 986.894 Q96.6241 983.329 92.9899 983.329 M92.9899 979.625 Q98.8 979.625 101.856 984.232 Q104.934 988.815 104.934 997.565 Q104.934 1006.29 101.856 1010.9 Q98.8 1015.48 92.9899 1015.48 Q87.1797 1015.48 84.101 1010.9 Q81.0455 1006.29 81.0455 997.565 Q81.0455 988.815 84.101 984.232 Q87.1797 979.625 92.9899 979.625 Z" fill="#000000" fill-rule="evenodd" fill-opacity="1" /><path clip-path="url(#clip560)" d="M117.63 972.259 Q120.357 972.842 121.88 974.686 Q123.422 976.529 123.422 979.237 Q123.422 983.394 120.564 985.669 Q117.705 987.945 112.439 987.945 Q110.671 987.945 108.79 987.588 Q106.928 987.249 104.934 986.553 L104.934 982.886 Q106.514 983.807 108.395 984.278 Q110.276 984.748 112.326 984.748 Q115.899 984.748 117.761 983.337 Q119.642 981.927 119.642 979.237 Q119.642 976.755 117.893 975.363 Q116.162 973.952 113.059 973.952 L109.787 973.952 L109.787 970.83 L113.21 970.83 Q116.012 970.83 117.498 969.72 Q118.984 968.592 118.984 966.485 Q118.984 964.323 117.441 963.175 Q115.918 962.009 113.059 962.009 Q111.498 962.009 109.711 962.348 Q107.925 962.686 105.781 963.401 L105.781 960.016 Q107.943 959.414 109.824 959.113 Q111.724 958.812 113.398 958.812 Q117.724 958.812 120.244 960.787 Q122.764 962.743 122.764 966.09 Q122.764 968.423 121.429 970.04 Q120.093 971.639 117.63 972.259 Z" fill="#000000" fill-rule="evenodd" fill-opacity="1" /><path clip-path="url(#clip560)" d="M51.6634 780.497 L59.3023 780.497 L59.3023 754.131 L50.9921 755.798 L50.9921 751.539 L59.256 749.872 L63.9319 749.872 L63.9319 780.497 L71.5707 780.497 L71.5707 784.432 L51.6634 784.432 L51.6634 780.497 Z" fill="#000000" fill-rule="evenodd" fill-opacity="1" /><path clip-path="url(#clip560)" d="M91.0151 752.951 Q87.404 752.951 85.5753 756.515 Q83.7697 760.057 83.7697 767.187 Q83.7697 774.293 85.5753 777.858 Q87.404 781.4 91.0151 781.4 Q94.6493 781.4 96.4548 777.858 Q98.2835 774.293 98.2835 767.187 Q98.2835 760.057 96.4548 756.515 Q94.6493 752.951 91.0151 752.951 M91.0151 749.247 Q96.8252 749.247 99.8808 753.853 Q102.959 758.437 102.959 767.187 Q102.959 775.914 99.8808 780.52 Q96.8252 785.103 91.0151 785.103 Q85.2049 785.103 82.1262 780.52 Q79.0707 775.914 79.0707 767.187 Q79.0707 758.437 82.1262 753.853 Q85.2049 749.247 91.0151 749.247 Z" fill="#000000" fill-rule="evenodd" fill-opacity="1" /><path clip-path="url(#clip560)" d="M115.636 732.252 L106.044 747.242 L115.636 747.242 L115.636 732.252 M114.639 728.942 L119.416 728.942 L119.416 747.242 L123.422 747.242 L123.422 750.401 L119.416 750.401 L119.416 757.022 L115.636 757.022 L115.636 750.401 L102.959 750.401 L102.959 746.734 L114.639 728.942 Z" fill="#000000" fill-rule="evenodd" fill-opacity="1" /><path clip-path="url(#clip560)" d="M53.958 550.119 L61.5968 550.119 L61.5968 523.753 L53.2867 525.42 L53.2867 521.161 L61.5505 519.494 L66.2264 519.494 L66.2264 550.119 L73.8653 550.119 L73.8653 554.054 L53.958 554.054 L53.958 550.119 Z" fill="#000000" fill-rule="evenodd" fill-opacity="1" /><path clip-path="url(#clip560)" d="M93.3096 522.573 Q89.6985 522.573 87.8698 526.137 Q86.0643 529.679 86.0643 536.809 Q86.0643 543.915 87.8698 547.48 Q89.6985 551.021 93.3096 551.021 Q96.9438 551.021 98.7494 547.48 Q100.578 543.915 100.578 536.809 Q100.578 529.679 98.7494 526.137 Q96.9438 522.573 93.3096 522.573 M93.3096 518.869 Q99.1198 518.869 102.175 523.475 Q105.254 528.059 105.254 536.809 Q105.254 545.535 102.175 550.142 Q99.1198 554.725 93.3096 554.725 Q87.4995 554.725 84.4208 550.142 Q81.3652 545.535 81.3652 536.809 Q81.3652 528.059 84.4208 523.475 Q87.4995 518.869 93.3096 518.869 Z" fill="#000000" fill-rule="evenodd" fill-opacity="1" /><path clip-path="url(#clip560)" d="M106.439 498.563 L121.353 498.563 L121.353 501.761 L109.918 501.761 L109.918 508.644 Q110.746 508.362 111.573 508.231 Q112.401 508.08 113.228 508.08 Q117.93 508.08 120.676 510.657 Q123.422 513.234 123.422 517.635 Q123.422 522.167 120.601 524.687 Q117.78 527.189 112.645 527.189 Q110.878 527.189 109.034 526.888 Q107.21 526.587 105.254 525.985 L105.254 522.167 Q106.947 523.089 108.752 523.54 Q110.558 523.992 112.57 523.992 Q115.824 523.992 117.724 522.28 Q119.623 520.569 119.623 517.635 Q119.623 514.701 117.724 512.989 Q115.824 511.278 112.57 511.278 Q111.047 511.278 109.523 511.616 Q108.019 511.955 106.439 512.669 L106.439 498.563 Z" fill="#000000" fill-rule="evenodd" fill-opacity="1" /><path clip-path="url(#clip560)" d="M52.7355 319.741 L60.3743 319.741 L60.3743 293.375 L52.0642 295.042 L52.0642 290.782 L60.328 289.116 L65.0039 289.116 L65.0039 319.741 L72.6428 319.741 L72.6428 323.676 L52.7355 323.676 L52.7355 319.741 Z" fill="#000000" fill-rule="evenodd" fill-opacity="1" /><path clip-path="url(#clip560)" d="M92.0871 292.194 Q88.476 292.194 86.6473 295.759 Q84.8418 299.301 84.8418 306.43 Q84.8418 313.537 86.6473 317.102 Q88.476 320.643 92.0871 320.643 Q95.7213 320.643 97.5269 317.102 Q99.3556 313.537 99.3556 306.43 Q99.3556 299.301 97.5269 295.759 Q95.7213 292.194 92.0871 292.194 M92.0871 288.491 Q97.8973 288.491 100.953 293.097 Q104.031 297.681 104.031 306.43 Q104.031 315.157 100.953 319.764 Q97.8973 324.347 92.0871 324.347 Q86.2769 324.347 83.1983 319.764 Q80.1427 315.157 80.1427 306.43 Q80.1427 297.681 83.1983 293.097 Q86.2769 288.491 92.0871 288.491 Z" fill="#000000" fill-rule="evenodd" fill-opacity="1" /><path clip-path="url(#clip560)" d="M114.056 280.711 Q111.498 280.711 109.994 282.46 Q108.508 284.21 108.508 287.256 Q108.508 290.284 109.994 292.052 Q111.498 293.802 114.056 293.802 Q116.614 293.802 118.1 292.052 Q119.604 290.284 119.604 287.256 Q119.604 284.21 118.1 282.46 Q116.614 280.711 114.056 280.711 M121.598 268.806 L121.598 272.267 Q120.169 271.59 118.702 271.232 Q117.253 270.875 115.824 270.875 Q112.062 270.875 110.069 273.414 Q108.094 275.953 107.812 281.087 Q108.922 279.451 110.595 278.586 Q112.269 277.702 114.282 277.702 Q118.513 277.702 120.958 280.279 Q123.422 282.837 123.422 287.256 Q123.422 291.582 120.864 294.197 Q118.307 296.811 114.056 296.811 Q109.185 296.811 106.608 293.087 Q104.031 289.344 104.031 282.254 Q104.031 275.596 107.191 271.646 Q110.351 267.678 115.673 267.678 Q117.103 267.678 118.551 267.96 Q120.018 268.242 121.598 268.806 Z" fill="#000000" fill-rule="evenodd" fill-opacity="1" /><path clip-path="url(#clip560)" d="M54.0708 89.3625 L61.7097 89.3625 L61.7097 62.9969 L53.3995 64.6635 L53.3995 60.4043 L61.6634 58.7376 L66.3393 58.7376 L66.3393 89.3625 L73.9781 89.3625 L73.9781 93.2976 L54.0708 93.2976 L54.0708 89.3625 Z" fill="#000000" fill-rule="evenodd" fill-opacity="1" /><path clip-path="url(#clip560)" d="M93.4225 61.8163 Q89.8114 61.8163 87.9827 65.3811 Q86.1771 68.9228 86.1771 76.0524 Q86.1771 83.1588 87.9827 86.7236 Q89.8114 90.2652 93.4225 90.2652 Q97.0567 90.2652 98.8622 86.7236 Q100.691 83.1588 100.691 76.0524 Q100.691 68.9228 98.8622 65.3811 Q97.0567 61.8163 93.4225 61.8163 M93.4225 58.1126 Q99.2326 58.1126 102.288 62.7191 Q105.367 67.3024 105.367 76.0524 Q105.367 84.7792 102.288 89.3856 Q99.2326 93.9689 93.4225 93.9689 Q87.6123 93.9689 84.5336 89.3856 Q81.4781 84.7792 81.4781 76.0524 Q81.4781 67.3024 84.5336 62.7191 Q87.6123 58.1126 93.4225 58.1126 Z" fill="#000000" fill-rule="evenodd" fill-opacity="1" /><path clip-path="url(#clip560)" d="M105.367 37.8072 L123.422 37.8072 L123.422 39.4247 L113.228 65.8872 L109.26 65.8872 L118.852 41.0046 L105.367 41.0046 L105.367 37.8072 Z" fill="#000000" fill-rule="evenodd" fill-opacity="1" /><polyline clip-path="url(#clip562)" style="stroke:#c1ffc1; stroke-linecap:round; stroke-linejoin:round; stroke-width:24; stroke-opacity:0.8; fill:none" points="
  256.311,808.104 589.57,681.838 922.83,566.282 1256.09,462.775 
  "/>
<path clip-path="url(#clip562)" d="M256.311 832.104 L249.519 814.896 L232.311 808.104 L249.519 801.312 L256.311 784.104 L263.103 801.312 L280.311 808.104 L263.103 814.896 L256.311 832.104 Z" fill="#c1ffc1" fill-rule="evenodd" fill-opacity="0.6" stroke="#000000" stroke-opacity="0.6" stroke-width="3.2"/>
<path clip-path="url(#clip562)" d="M589.57 705.838 L582.778 688.63 L565.57 681.838 L582.778 675.046 L589.57 657.838 L596.362 675.046 L613.57 681.838 L596.362 688.63 L589.57 705.838 Z" fill="#c1ffc1" fill-rule="evenodd" fill-opacity="0.6" stroke="#000000" stroke-opacity="0.6" stroke-width="3.2"/>
<path clip-path="url(#clip562)" d="M922.83 590.282 L916.038 573.074 L898.83 566.282 L916.038 559.49 L922.83 542.282 L929.622 559.49 L946.83 566.282 L929.622 573.074 L922.83 590.282 Z" fill="#c1ffc1" fill-rule="evenodd" fill-opacity="0.6" stroke="#000000" stroke-opacity="0.6" stroke-width="3.2"/>
<path clip-path="url(#clip562)" d="M1256.09 486.775 L1249.3 469.567 L1232.09 462.775 L1249.3 455.983 L1256.09 438.775 L1262.88 455.983 L1280.09 462.775 L1262.88 469.567 L1256.09 486.775 Z" fill="#c1ffc1" fill-rule="evenodd" fill-opacity="0.6" stroke="#000000" stroke-opacity="0.6" stroke-width="3.2"/>
<polyline clip-path="url(#clip562)" style="stroke:#00f5ff; stroke-linecap:round; stroke-linejoin:round; stroke-width:24; stroke-opacity:0.8; fill:none" points="
  256.311,1063.86 589.57,933.029 922.83,826.883 1256.09,754.498 1589.35,691.392 1922.61,643.038 2255.87,598.803 
  "/>
<circle clip-path="url(#clip562)" cx="256.311" cy="1063.86" r="21.6" fill="#00f5ff" fill-rule="evenodd" fill-opacity="0.6" stroke="#000000" stroke-opacity="0.6" stroke-width="3.2"/>
<circle clip-path="url(#clip562)" cx="589.57" cy="933.029" r="21.6" fill="#00f5ff" fill-rule="evenodd" fill-opacity="0.6" stroke="#000000" stroke-opacity="0.6" stroke-width="3.2"/>
<circle clip-path="url(#clip562)" cx="922.83" cy="826.883" r="21.6" fill="#00f5ff" fill-rule="evenodd" fill-opacity="0.6" stroke="#000000" stroke-opacity="0.6" stroke-width="3.2"/>
<circle clip-path="url(#clip562)" cx="1256.09" cy="754.498" r="21.6" fill="#00f5ff" fill-rule="evenodd" fill-opacity="0.6" stroke="#000000" stroke-opacity="0.6" stroke-width="3.2"/>
<circle clip-path="url(#clip562)" cx="1589.35" cy="691.392" r="21.6" fill="#00f5ff" fill-rule="evenodd" fill-opacity="0.6" stroke="#000000" stroke-opacity="0.6" stroke-width="3.2"/>
<circle clip-path="url(#clip562)" cx="1922.61" cy="643.038" r="21.6" fill="#00f5ff" fill-rule="evenodd" fill-opacity="0.6" stroke="#000000" stroke-opacity="0.6" stroke-width="3.2"/>
<circle clip-path="url(#clip562)" cx="2255.87" cy="598.803" r="21.6" fill="#00f5ff" fill-rule="evenodd" fill-opacity="0.6" stroke="#000000" stroke-opacity="0.6" stroke-width="3.2"/>
<polyline clip-path="url(#clip562)" style="stroke:#66cdaa; stroke-linecap:round; stroke-linejoin:round; stroke-width:24; stroke-opacity:0.8; fill:none" points="
  256.311,971.531 589.57,819.307 922.83,679.974 1256.09,580.068 1589.35,497.907 1922.61,416.659 2255.87,337.118 
  "/>
<path clip-path="url(#clip562)" d="M256.311 995.531 L252.639 980.411 L239.343 988.499 L247.431 975.203 L232.311 971.531 L247.431 967.859 L239.343 954.563 L252.639 962.651 L256.311 947.531 L259.983 962.651 L273.279 954.563 L265.191 967.859 L280.311 971.531 L265.191 975.203 L273.279 988.499 L259.983 980.411 L256.311 995.531 Z" fill="#66cdaa" fill-rule="evenodd" fill-opacity="0.6" stroke="#000000" stroke-opacity="0.6" stroke-width="3.2"/>
<path clip-path="url(#clip562)" d="M589.57 843.307 L585.898 828.187 L572.602 836.275 L580.69 822.979 L565.57 819.307 L580.69 815.635 L572.602 802.339 L585.898 810.427 L589.57 795.307 L593.242 810.427 L606.538 802.339 L598.45 815.635 L613.57 819.307 L598.45 822.979 L606.538 836.275 L593.242 828.187 L589.57 843.307 Z" fill="#66cdaa" fill-rule="evenodd" fill-opacity="0.6" stroke="#000000" stroke-opacity="0.6" stroke-width="3.2"/>
<path clip-path="url(#clip562)" d="M922.83 703.974 L919.158 688.854 L905.862 696.942 L913.95 683.646 L898.83 679.974 L913.95 676.302 L905.862 663.006 L919.158 671.094 L922.83 655.974 L926.502 671.094 L939.798 663.006 L931.71 676.302 L946.83 679.974 L931.71 683.646 L939.798 696.942 L926.502 688.854 L922.83 703.974 Z" fill="#66cdaa" fill-rule="evenodd" fill-opacity="0.6" stroke="#000000" stroke-opacity="0.6" stroke-width="3.2"/>
<path clip-path="url(#clip562)" d="M1256.09 604.068 L1252.42 588.948 L1239.12 597.036 L1247.21 583.74 L1232.09 580.068 L1247.21 576.396 L1239.12 563.1 L1252.42 571.188 L1256.09 556.068 L1259.76 571.188 L1273.06 563.1 L1264.97 576.396 L1280.09 580.068 L1264.97 583.74 L1273.06 597.036 L1259.76 588.948 L1256.09 604.068 Z" fill="#66cdaa" fill-rule="evenodd" fill-opacity="0.6" stroke="#000000" stroke-opacity="0.6" stroke-width="3.2"/>
<path clip-path="url(#clip562)" d="M1589.35 521.907 L1585.68 506.787 L1572.38 514.875 L1580.47 501.579 L1565.35 497.907 L1580.47 494.235 L1572.38 480.939 L1585.68 489.027 L1589.35 473.907 L1593.02 489.027 L1606.32 480.939 L1598.23 494.235 L1613.35 497.907 L1598.23 501.579 L1606.32 514.875 L1593.02 506.787 L1589.35 521.907 Z" fill="#66cdaa" fill-rule="evenodd" fill-opacity="0.6" stroke="#000000" stroke-opacity="0.6" stroke-width="3.2"/>
<path clip-path="url(#clip562)" d="M1922.61 440.659 L1918.94 425.539 L1905.64 433.627 L1913.73 420.331 L1898.61 416.659 L1913.73 412.987 L1905.64 399.691 L1918.94 407.779 L1922.61 392.659 L1926.28 407.779 L1939.58 399.691 L1931.49 412.987 L1946.61 416.659 L1931.49 420.331 L1939.58 433.627 L1926.28 425.539 L1922.61 440.659 Z" fill="#66cdaa" fill-rule="evenodd" fill-opacity="0.6" stroke="#000000" stroke-opacity="0.6" stroke-width="3.2"/>
<path clip-path="url(#clip562)" d="M2255.87 361.118 L2252.2 345.998 L2238.9 354.086 L2246.99 340.79 L2231.87 337.118 L2246.99 333.446 L2238.9 320.15 L2252.2 328.238 L2255.87 313.118 L2259.54 328.238 L2272.84 320.15 L2264.75 333.446 L2279.87 337.118 L2264.75 340.79 L2272.84 354.086 L2259.54 345.998 L2255.87 361.118 Z" fill="#66cdaa" fill-rule="evenodd" fill-opacity="0.6" stroke="#000000" stroke-opacity="0.6" stroke-width="3.2"/>
<polyline clip-path="url(#clip562)" style="stroke:#008080; stroke-linecap:round; stroke-linejoin:round; stroke-width:24; stroke-opacity:0.8; fill:none" points="
  256.311,1380.4 589.57,1271.71 922.83,1167.81 1256.09,1077.11 1589.35,993.165 1922.61,912.996 2255.87,827.72 
  "/>
<path clip-path="url(#clip562)" d="M256.311 1356.4 L232.311 1380.4 L256.311 1404.4 L280.311 1380.4 L256.311 1356.4 Z" fill="#008080" fill-rule="evenodd" fill-opacity="0.6" stroke="#000000" stroke-opacity="0.6" stroke-width="3.2"/>
<path clip-path="url(#clip562)" d="M589.57 1247.71 L565.57 1271.71 L589.57 1295.71 L613.57 1271.71 L589.57 1247.71 Z" fill="#008080" fill-rule="evenodd" fill-opacity="0.6" stroke="#000000" stroke-opacity="0.6" stroke-width="3.2"/>
<path clip-path="url(#clip562)" d="M922.83 1143.81 L898.83 1167.81 L922.83 1191.81 L946.83 1167.81 L922.83 1143.81 Z" fill="#008080" fill-rule="evenodd" fill-opacity="0.6" stroke="#000000" stroke-opacity="0.6" stroke-width="3.2"/>
<path clip-path="url(#clip562)" d="M1256.09 1053.11 L1232.09 1077.11 L1256.09 1101.11 L1280.09 1077.11 L1256.09 1053.11 Z" fill="#008080" fill-rule="evenodd" fill-opacity="0.6" stroke="#000000" stroke-opacity="0.6" stroke-width="3.2"/>
<path clip-path="url(#clip562)" d="M1589.35 969.165 L1565.35 993.165 L1589.35 1017.17 L1613.35 993.165 L1589.35 969.165 Z" fill="#008080" fill-rule="evenodd" fill-opacity="0.6" stroke="#000000" stroke-opacity="0.6" stroke-width="3.2"/>
<path clip-path="url(#clip562)" d="M1922.61 888.996 L1898.61 912.996 L1922.61 936.996 L1946.61 912.996 L1922.61 888.996 Z" fill="#008080" fill-rule="evenodd" fill-opacity="0.6" stroke="#000000" stroke-opacity="0.6" stroke-width="3.2"/>
<path clip-path="url(#clip562)" d="M2255.87 803.72 L2231.87 827.72 L2255.87 851.72 L2279.87 827.72 L2255.87 803.72 Z" fill="#008080" fill-rule="evenodd" fill-opacity="0.6" stroke="#000000" stroke-opacity="0.6" stroke-width="3.2"/>
<polyline clip-path="url(#clip562)" style="stroke:#ffa500; stroke-linecap:round; stroke-linejoin:round; stroke-width:24; stroke-opacity:0.8; fill:none" stroke-dasharray="96, 60" points="
  256.311,529.529 589.57,520.682 922.83,505.121 1256.09,474.058 1589.35,440.565 1922.61,407.051 2255.87,361.322 
  "/>
<path clip-path="url(#clip562)" d="M256.311 505.529 L232.311 529.529 L256.311 553.529 L280.311 529.529 L256.311 505.529 Z" fill="#ffa500" fill-rule="evenodd" fill-opacity="0.6" stroke="#000000" stroke-opacity="0.6" stroke-width="3.2"/>
<path clip-path="url(#clip562)" d="M589.57 496.682 L565.57 520.682 L589.57 544.682 L613.57 520.682 L589.57 496.682 Z" fill="#ffa500" fill-rule="evenodd" fill-opacity="0.6" stroke="#000000" stroke-opacity="0.6" stroke-width="3.2"/>
<path clip-path="url(#clip562)" d="M922.83 481.121 L898.83 505.121 L922.83 529.121 L946.83 505.121 L922.83 481.121 Z" fill="#ffa500" fill-rule="evenodd" fill-opacity="0.6" stroke="#000000" stroke-opacity="0.6" stroke-width="3.2"/>
<path clip-path="url(#clip562)" d="M1256.09 450.058 L1232.09 474.058 L1256.09 498.058 L1280.09 474.058 L1256.09 450.058 Z" fill="#ffa500" fill-rule="evenodd" fill-opacity="0.6" stroke="#000000" stroke-opacity="0.6" stroke-width="3.2"/>
<path clip-path="url(#clip562)" d="M1589.35 416.565 L1565.35 440.565 L1589.35 464.565 L1613.35 440.565 L1589.35 416.565 Z" fill="#ffa500" fill-rule="evenodd" fill-opacity="0.6" stroke="#000000" stroke-opacity="0.6" stroke-width="3.2"/>
<path clip-path="url(#clip562)" d="M1922.61 383.051 L1898.61 407.051 L1922.61 431.051 L1946.61 407.051 L1922.61 383.051 Z" fill="#ffa500" fill-rule="evenodd" fill-opacity="0.6" stroke="#000000" stroke-opacity="0.6" stroke-width="3.2"/>
<path clip-path="url(#clip562)" d="M2255.87 337.322 L2231.87 361.322 L2255.87 385.322 L2279.87 361.322 L2255.87 337.322 Z" fill="#ffa500" fill-rule="evenodd" fill-opacity="0.6" stroke="#000000" stroke-opacity="0.6" stroke-width="3.2"/>
<polyline clip-path="url(#clip562)" style="stroke:#f08080; stroke-linecap:round; stroke-linejoin:round; stroke-width:24; stroke-opacity:0.8; fill:none" points="
  256.311,134.41 589.57,134.237 922.83,131.496 1256.09,132.362 
  "/>
<path clip-path="url(#clip562)" d="M256.311 158.41 L239.343 151.378 L232.311 134.41 L239.343 117.442 L256.311 110.41 L273.279 117.442 L280.311 134.41 L273.279 151.378 Z" fill="#f08080" fill-rule="evenodd" fill-opacity="0.6" stroke="#000000" stroke-opacity="0.6" stroke-width="3.2"/>
<path clip-path="url(#clip562)" d="M589.57 158.237 L572.602 151.205 L565.57 134.237 L572.602 117.269 L589.57 110.237 L606.538 117.269 L613.57 134.237 L606.538 151.205 Z" fill="#f08080" fill-rule="evenodd" fill-opacity="0.6" stroke="#000000" stroke-opacity="0.6" stroke-width="3.2"/>
<path clip-path="url(#clip562)" d="M922.83 155.496 L905.862 148.464 L898.83 131.496 L905.862 114.528 L922.83 107.496 L939.798 114.528 L946.83 131.496 L939.798 148.464 Z" fill="#f08080" fill-rule="evenodd" fill-opacity="0.6" stroke="#000000" stroke-opacity="0.6" stroke-width="3.2"/>
<path clip-path="url(#clip562)" d="M1256.09 156.362 L1239.12 149.33 L1232.09 132.362 L1239.12 115.394 L1256.09 108.362 L1273.06 115.394 L1280.09 132.362 L1273.06 149.33 Z" fill="#f08080" fill-rule="evenodd" fill-opacity="0.6" stroke="#000000" stroke-opacity="0.6" stroke-width="3.2"/>
</svg>
