<?xml version="1.0" encoding="utf-8"?>
<svg xmlns="http://www.w3.org/2000/svg" xmlns:xlink="http://www.w3.org/1999/xlink" width="600" height="400" viewBox="0 0 2400 1600">
<defs>
  <clipPath id="clip350">
    <rect x="0" y="0" width="2400" height="1600"/>
  </clipPath>
</defs>
<path clip-path="url(#clip350)" d="M0 1600 L2400 1600 L2400 0 L0 0  Z" fill="#ffffff" fill-rule="evenodd" fill-opacity="1"/>
<defs>
  <clipPath id="clip351">
    <rect x="480" y="0" width="1681" height="1600"/>
  </clipPath>
</defs>
<path clip-path="url(#clip350)" d="M47.2441 1552.76 L2352.76 1552.76 L2352.76 47.2441 L47.2441 47.2441  Z" fill="#ffffff" fill-rule="evenodd" fill-opacity="1"/>
<defs>
  <clipPath id="clip352">
    <rect x="47" y="47" width="2307" height="1507"/>
  </clipPath>
</defs>
<polyline clip-path="url(#clip350)" style="stroke:#000000; stroke-linecap:round; stroke-linejoin:round; stroke-width:4; stroke-opacity:1; fill:none" points="47.2441,1552.76 2352.76,1552.76 "/>
<polyline clip-path="url(#clip350)" style="stroke:#000000; stroke-linecap:round; stroke-linejoin:round; stroke-width:4; stroke-opacity:1; fill:none" points="47.2441,47.2441 2352.76,47.2441 "/>
<polyline clip-path="url(#clip350)" style="stroke:#000000; stroke-linecap:round; stroke-linejoin:round; stroke-width:4; stroke-opacity:1; fill:none" points="47.2441,1552.76 47.2441,47.2441 "/>
<polyline clip-path="url(#clip350)" style="stroke:#000000; stroke-linecap:round; stroke-linejoin:round; stroke-width:4; stroke-opacity:1; fill:none" points="2352.76,1552.76 2352.76,47.2441 "/>
<polyline clip-path="url(#clip352)" style="stroke:#0000ff; stroke-linecap:round; stroke-linejoin:round; stroke-width:24; stroke-opacity:0.9; fill:none" points="112.494,1510.15 112.701,1510.15 113.002,1510.15 113.443,1510.14 114.086,1510.14 115.026,1510.14 116.398,1510.13 118.402,1510.13 121.328,1510.11 125.488,1510.08 131.394,1510.02 139.747,1509.88 149.801,1509.63 159.555,1509.27 168.862,1508.81 177.613,1508.24 178.439,1508.18 "/>
<polyline clip-path="url(#clip352)" style="stroke:#ff0000; stroke-linecap:round; stroke-linejoin:round; stroke-width:24; stroke-opacity:0.9; fill:none" stroke-dasharray="96, 60" points="178.439,1508.18 186.494,1507.53 193.98,1506.81 200.905,1506.03 207.324,1505.21 213.295,1504.36 218.87,1503.48 224.099,1502.58 229.021,1501.67 233.673,1500.74 238.085,1499.8 242.283,1498.84 246.289,1497.88 250.122,1496.92 253.798,1495.94 257.332,1494.96 260.737,1493.98 264.022,1492.99 267.198,1492 270.273,1491.01 273.254,1490.01 276.149,1489.01 278.963,1488.01 281.701,1487 284.369,1486 286.971,1484.99 289.51,1483.98 291.991,1482.97 294.417,1481.96 296.79,1480.94 299.114,1479.93 301.391,1478.91 303.623,1477.9 305.813,1476.88 307.963,1475.86 310.074,1474.84 312.149,1473.82 314.188,1472.8 316.194,1471.78 318.167,1470.76 320.11,1469.73 322.023,1468.71 323.907,1467.69 325.765,1466.66 327.596,1465.64 329.401,1464.61 331.182,1463.58 332.94,1462.56 334.674,1461.53 336.387,1460.5 338.079,1459.48 339.75,1458.45 341.401,1457.42 343.032,1456.39 344.646,1455.36 346.241,1454.34 347.818,1453.31 349.379,1452.28 350.923,1451.25 352.451,1450.22 353.963,1449.19 355.46,1448.16 356.943,1447.12 358.411,1446.09 359.865,1445.06 361.306,1444.03 362.733,1443 364.147,1441.97 365.549,1440.94 366.939,1439.9 368.316,1438.87 369.682,1437.84 371.036,1436.81 372.38,1435.77 373.712,1434.74 375.034,1433.71 376.345,1432.68 377.647,1431.64 378.938,1430.61 380.22,1429.58 381.492,1428.54 382.754,1427.51 384.008,1426.48 385.253,1425.44 386.489,1424.41 387.716,1423.37 388.936,1422.34 390.146,1421.3 391.349,1420.27 392.544,1419.24 393.731,1418.2 394.911,1417.17 396.083,1416.13 397.248,1415.1 398.406,1414.06 399.556,1413.03 400.7,1411.99 401.837,1410.96 402.967,1409.92 404.091,1408.89 405.208,1407.85 406.319,1406.82 407.424,1405.78 408.523,1404.74 409.615,1403.71 410.702,1402.67 411.783,1401.64 412.858,1400.6 413.928,1399.57 414.992,1398.53 416.051,1397.49 417.104,1396.46 418.152,1395.42 419.195,1394.38 420.233,1393.35 421.266,1392.31 422.293,1391.28 423.316,1390.24 424.335,1389.2 425.348,1388.17 426.357,1387.13 427.361,1386.09 428.361,1385.06 429.356,1384.02 430.347,1382.98 431.334,1381.95 432.316,1380.91 433.294,1379.87 434.268,1378.84 435.238,1377.8 436.204,1376.76 437.166,1375.73 438.124,1374.69 439.078,1373.65 440.028,1372.61 440.975,1371.58 441.918,1370.54 442.857,1369.5 443.793,1368.47 444.725,1367.43 445.653,1366.39 446.578,1365.35 447.5,1364.32 448.418,1363.28 449.333,1362.24 450.245,1361.2 451.154,1360.17 452.059,1359.13 452.961,1358.09 453.86,1357.05 454.756,1356.02 455.648,1354.98 456.538,1353.94 457.425,1352.9 458.309,1351.87 459.19,1350.83 460.068,1349.79 460.943,1348.75 461.816,1347.72 462.685,1346.68 463.552,1345.64 464.416,1344.6 465.278,1343.56 466.137,1342.53 466.993,1341.49 467.847,1340.45 468.698,1339.41 469.547,1338.37 470.393,1337.34 471.236,1336.3 472.078,1335.26 472.916,1334.22 473.753,1333.18 474.587,1332.15 475.419,1331.11 476.248,1330.07 477.075,1329.03 477.9,1327.99 478.723,1326.96 479.543,1325.92 480.362,1324.88 481.178,1323.84 481.992,1322.8 482.803,1321.76 483.613,1320.73 484.421,1319.69 485.227,1318.65 486.03,1317.61 486.832,1316.57 487.631,1315.53 488.429,1314.5 489.225,1313.46 490.019,1312.42 490.811,1311.38 491.601,1310.34 492.389,1309.3 493.175,1308.26 493.96,1307.23 494.742,1306.19 495.523,1305.15 496.302,1304.11 497.08,1303.07 497.855,1302.03 498.629,1301 499.401,1299.96 500.172,1298.92 500.941,1297.88 501.708,1296.84 502.473,1295.8 503.237,1294.76 504,1293.72 504.76,1292.69 505.519,1291.65 506.277,1290.61 507.033,1289.57 507.788,1288.53 508.541,1287.49 509.292,1286.45 510.042,1285.42 510.791,1284.38 511.538,1283.34 512.284,1282.3 513.028,1281.26 513.771,1280.22 514.512,1279.18 515.252,1278.14 515.991,1277.1 516.728,1276.07 517.464,1275.03 518.199,1273.99 518.932,1272.95 519.664,1271.91 520.395,1270.87 521.124,1269.83 521.852,1268.79 522.579,1267.75 523.305,1266.72 524.029,1265.68 524.752,1264.64 525.474,1263.6 526.195,1262.56 526.914,1261.52 527.633,1260.48 528.35,1259.44 529.066,1258.4 529.781,1257.37 530.495,1256.33 531.207,1255.29 531.919,1254.25 532.629,1253.21 533.338,1252.17 534.046,1251.13 534.753,1250.09 535.46,1249.05 536.164,1248.01 536.868,1246.97 537.571,1245.94 538.273,1244.9 538.974,1243.86 539.674,1242.82 540.373,1241.78 541.07,1240.74 541.767,1239.7 542.463,1238.66 543.158,1237.62 543.852,1236.58 544.545,1235.54 545.237,1234.51 545.928,1233.47 546.618,1232.43 547.307,1231.39 547.996,1230.35 548.683,1229.31 549.37,1228.27 550.055,1227.23 550.74,1226.19 551.424,1225.15 552.107,1224.11 552.789,1223.07 553.471,1222.03 554.151,1221 554.831,1219.96 555.51,1218.92 556.188,1217.88 556.865,1216.84 557.541,1215.8 558.217,1214.76 558.892,1213.72 559.566,1212.68 560.239,1211.64 560.912,1210.6 561.584,1209.56 562.255,1208.52 562.925,1207.48 563.595,1206.45 564.263,1205.41 564.931,1204.37 565.599,1203.33 566.266,1202.29 566.932,1201.25 567.597,1200.21 568.261,1199.17 568.925,1198.13 569.589,1197.09 570.251,1196.05 570.913,1195.01 571.574,1193.97 572.235,1192.93 572.895,1191.89 573.554,1190.86 574.213,1189.82 574.871,1188.78 575.528,1187.74 576.185,1186.7 576.841,1185.66 577.497,1184.62 578.152,1183.58 578.806,1182.54 579.46,1181.5 580.113,1180.46 580.765,1179.42 581.417,1178.38 582.069,1177.34 582.72,1176.3 583.37,1175.26 584.02,1174.22 584.669,1173.19 585.318,1172.15 585.966,1171.11 586.614,1170.07 587.261,1169.03 587.907,1167.99 588.554,1166.95 589.199,1165.91 589.844,1164.87 590.489,1163.83 591.133,1162.79 591.776,1161.75 592.42,1160.71 593.062,1159.67 593.704,1158.63 594.346,1157.59 594.987,1156.55 595.628,1155.51 596.268,1154.47 596.908,1153.44 597.548,1152.4 598.186,1151.36 598.825,1150.32 599.463,1149.28 600.101,1148.24 600.738,1147.2 601.375,1146.16 602.011,1145.12 602.647,1144.08 603.283,1143.04 603.918,1142 604.553,1140.96 605.187,1139.92 605.821,1138.88 606.455,1137.84 607.088,1136.8 607.721,1135.76 608.353,1134.72 608.985,1133.68 609.617,1132.64 610.249,1131.61 610.88,1130.57 611.51,1129.53 612.141,1128.49 612.771,1127.45 613.4,1126.41 614.03,1125.37 614.659,1124.33 615.287,1123.29 615.916,1122.25 616.544,1121.21 617.172,1120.17 617.799,1119.13 618.426,1118.09 619.053,1117.05 619.679,1116.01 620.306,1114.97 620.931,1113.93 621.557,1112.89 622.182,1111.85 622.808,1110.81 623.432,1109.77 624.057,1108.73 624.681,1107.69 625.305,1106.66 625.929,1105.62 626.552,1104.58 627.175,1103.54 627.798,1102.5 628.421,1101.46 629.044,1100.42 629.666,1099.38 630.288,1098.34 630.91,1097.3 631.531,1096.26 632.152,1095.22 632.773,1094.18 633.394,1093.14 634.015,1092.1 634.635,1091.06 635.256,1090.02 635.876,1088.98 636.495,1087.94 637.115,1086.9 637.734,1085.86 638.354,1084.82 638.973,1083.78 639.591,1082.74 640.21,1081.7 640.829,1080.66 641.447,1079.63 642.065,1078.59 642.683,1077.55 643.301,1076.51 643.918,1075.47 644.536,1074.43 645.153,1073.39 645.77,1072.35 646.387,1071.31 647.004,1070.27 647.621,1069.23 648.238,1068.19 648.854,1067.15 649.47,1066.11 650.087,1065.07 650.703,1064.03 651.319,1062.99 651.934,1061.95 652.55,1060.91 653.166,1059.87 653.781,1058.83 654.396,1057.79 655.012,1056.75 655.627,1055.71 656.242,1054.67 656.857,1053.63 657.472,1052.59 658.086,1051.55 658.701,1050.52 659.316,1049.48 659.93,1048.44 660.545,1047.4 661.159,1046.36 661.773,1045.32 662.387,1044.28 663.002,1043.24 663.616,1042.2 664.23,1041.16 664.844,1040.12 665.457,1039.08 666.071,1038.04 666.685,1037 667.299,1035.96 667.912,1034.92 668.526,1033.88 669.14,1032.84 669.753,1031.8 670.367,1030.76 670.98,1029.72 671.594,1028.68 672.207,1027.64 672.821,1026.6 673.434,1025.56 674.048,1024.52 674.661,1023.48 675.274,1022.44 675.888,1021.4 676.501,1020.36 677.114,1019.33 677.728,1018.29 678.341,1017.25 678.954,1016.21 679.568,1015.17 680.181,1014.13 680.795,1013.09 681.408,1012.05 682.021,1011.01 682.635,1009.97 683.248,1008.93 683.862,1007.89 684.475,1006.85 685.089,1005.81 685.703,1004.77 686.316,1003.73 686.93,1002.69 687.544,1001.65 688.157,1000.61 688.771,999.572 689.385,998.532 689.999,997.492 690.613,996.453 691.227,995.413 691.841,994.373 692.455,993.334 693.069,992.294 693.684,991.254 694.298,990.215 694.912,989.175 695.527,988.135 696.142,987.096 696.756,986.056 697.371,985.017 697.986,983.977 698.601,982.937 699.216,981.898 699.831,980.858 700.446,979.818 701.061,978.779 701.677,977.739 702.292,976.699 702.908,975.66 703.524,974.62 704.14,973.58 704.756,972.541 705.372,971.501 705.988,970.461 706.604,969.422 707.221,968.382 707.837,967.342 708.454,966.303 709.071,965.263 709.688,964.224 710.305,963.184 710.922,962.144 711.54,961.105 712.157,960.065 712.775,959.025 713.393,957.986 714.011,956.946 714.629,955.906 715.247,954.867 715.866,953.827 716.485,952.788 717.103,951.748 717.722,950.708 718.342,949.669 718.961,948.629 719.581,947.589 720.2,946.55 720.82,945.51 721.44,944.471 722.06,943.431 722.681,942.391 723.302,941.352 723.922,940.312 724.543,939.272 725.165,938.233 725.786,937.193 726.408,936.154 727.03,935.114 727.652,934.074 728.274,933.035 728.896,931.995 729.519,930.956 730.142,929.916 730.765,928.876 731.389,927.837 732.012,926.797 732.636,925.757 733.26,924.718 733.884,923.678 734.509,922.639 735.134,921.599 735.759,920.56 736.384,919.52 737.009,918.48 737.635,917.441 738.261,916.401 738.887,915.362 739.514,914.322 740.141,913.282 740.768,912.243 741.395,911.203 742.023,910.164 742.65,909.124 743.279,908.085 743.907,907.045 744.536,906.005 745.165,904.966 745.794,903.926 746.423,902.887 747.053,901.847 747.683,900.808 748.314,899.768 748.944,898.728 749.575,897.689 750.207,896.649 750.838,895.61 751.47,894.57 752.102,893.531 752.735,892.491 753.368,891.452 754.001,890.412 754.634,889.372 755.268,888.333 755.902,887.293 756.537,886.254 757.172,885.214 757.807,884.175 758.442,883.135 759.078,882.096 759.714,881.056 760.351,880.017 760.987,878.977 761.625,877.938 762.262,876.898 762.9,875.859 763.538,874.819 764.177,873.78 764.816,872.74 765.455,871.701 766.095,870.661 766.735,869.622 767.375,868.582 768.016,867.543 768.657,866.503 769.299,865.464 769.941,864.424 770.583,863.385 771.226,862.345 771.869,861.306 772.512,860.266 773.156,859.227 773.8,858.187 774.445,857.148 775.09,856.108 775.736,855.069 776.382,854.029 777.028,852.99 777.675,851.95 778.322,850.911 778.969,849.872 779.617,848.832 780.266,847.793 780.915,846.753 781.564,845.714 782.214,844.674 782.864,843.635 783.514,842.595 784.165,841.556 784.817,840.517 785.469,839.477 786.121,838.438 786.774,837.398 787.427,836.359 788.081,835.32 788.735,834.28 789.39,833.241 790.045,832.201 790.701,831.162 791.357,830.122 792.013,829.083 792.67,828.044 793.328,827.004 793.986,825.965 794.645,824.926 795.304,823.886 795.963,822.847 796.623,821.807 797.283,820.768 797.944,819.729 798.606,818.689 799.268,817.65 799.93,816.611 800.593,815.571 801.257,814.532 801.921,813.493 802.586,812.453 803.251,811.414 803.916,810.375 804.583,809.335 805.249,808.296 805.917,807.257 806.584,806.217 807.253,805.178 807.922,804.139 808.591,803.099 809.261,802.06 809.931,801.021 810.603,799.981 811.274,798.942 811.946,797.903 812.619,796.863 813.293,795.824 813.967,794.785 814.641,793.746 815.316,792.706 815.992,791.667 816.668,790.628 817.345,789.589 818.022,788.549 818.7,787.51 819.379,786.471 820.058,785.432 820.738,784.392 821.419,783.353 822.1,782.314 822.782,781.275 823.464,780.235 824.147,779.196 824.83,778.157 825.515,777.118 826.199,776.078 826.885,775.039 827.571,774 828.258,772.961 828.945,771.922 829.633,770.883 830.322,769.843 831.011,768.804 831.701,767.765 832.392,766.726 833.083,765.687 833.775,764.647 834.468,763.608 835.161,762.569 835.855,761.53 836.55,760.491 837.245,759.452 837.941,758.413 838.638,757.373 839.336,756.334 840.034,755.295 840.733,754.256 841.432,753.217 842.133,752.178 842.834,751.139 843.535,750.1 844.238,749.061 844.941,748.022 845.645,746.982 846.349,745.943 847.055,744.904 847.761,743.865 848.468,742.826 849.175,741.787 849.884,740.748 850.593,739.709 851.303,738.67 852.013,737.631 852.725,736.592 853.437,735.553 854.15,734.514 854.863,733.475 855.578,732.436 856.293,731.397 857.009,730.358 857.726,729.319 858.444,728.28 859.162,727.241 859.881,726.202 860.602,725.163 861.322,724.124 862.044,723.085 862.767,722.046 863.49,721.007 864.214,719.968 864.939,718.929 865.665,717.89 866.392,716.851 867.119,715.813 867.847,714.774 868.577,713.735 869.307,712.696 870.038,711.657 870.769,710.618 871.502,709.579 872.235,708.54 872.97,707.501 873.705,706.463 874.441,705.424 875.178,704.385 875.916,703.346 876.655,702.307 877.395,701.268 878.135,700.23 878.877,699.191 879.619,698.152 880.363,697.113 881.107,696.074 881.852,695.036 882.599,693.997 883.346,692.958 884.094,691.919 884.843,690.88 885.593,689.842 886.343,688.803 887.095,687.764 887.848,686.726 888.602,685.687 889.357,684.648 890.112,683.609 890.869,682.571 891.627,681.532 892.386,680.493 893.145,679.455 893.906,678.416 894.668,677.377 895.43,676.339 896.194,675.3 896.959,674.261 897.724,673.223 898.491,672.184 899.259,671.145 900.028,670.107 900.798,669.068 901.569,668.03 902.341,666.991 903.114,665.952 903.888,664.914 904.663,663.875 905.439,662.837 906.217,661.798 906.995,660.76 907.775,659.721 908.555,658.683 909.337,657.644 910.12,656.606 910.904,655.567 911.689,654.529 912.475,653.49 913.262,652.452 914.051,651.413 914.84,650.375 915.631,649.336 916.423,648.298 917.216,647.259 918.01,646.221 918.805,645.183 919.602,644.144 920.399,643.106 921.198,642.067 921.998,641.029 922.799,639.991 923.602,638.952 924.405,637.914 925.21,636.876 926.016,635.837 926.823,634.799 927.632,633.761 928.442,632.722 929.253,631.684 930.065,630.646 930.878,629.608 931.693,628.569 931.846,628.375 "/>
<polyline clip-path="url(#clip352)" style="stroke:#0000ff; stroke-linecap:round; stroke-linejoin:round; stroke-width:24; stroke-opacity:0.9; fill:none" points="931.846,628.375 932.662,627.336 933.479,626.298 934.298,625.26 935.118,624.222 935.939,623.184 936.762,622.145 937.586,621.107 938.411,620.069 939.238,619.031 940.065,617.993 940.895,616.955 941.725,615.916 942.557,614.878 943.39,613.84 944.225,612.802 945.06,611.764 945.898,610.726 946.736,609.688 947.576,608.65 948.417,607.612 949.26,606.574 950.104,605.536 950.95,604.498 951.797,603.46 952.645,602.422 953.495,601.384 954.346,600.346 955.199,599.308 956.053,598.27 956.908,597.232 957.765,596.194 958.624,595.156 959.484,594.118 960.345,593.081 961.208,592.043 962.072,591.005 962.938,589.967 963.806,588.929 964.675,587.891 965.545,586.854 966.417,585.816 967.29,584.778 968.165,583.74 969.042,582.703 969.92,581.665 970.8,580.627 971.681,579.589 972.564,578.552 973.449,577.514 974.335,576.476 975.222,575.439 976.112,574.401 977.002,573.363 977.895,572.326 978.789,571.288 979.685,570.251 980.582,569.213 981.482,568.176 982.382,567.138 983.285,566.101 984.189,565.063 985.095,564.026 986.003,562.988 986.912,561.951 987.823,560.913 988.736,559.876 989.65,558.838 990.566,557.801 991.484,556.764 992.404,555.726 993.326,554.689 994.249,553.652 995.174,552.614 996.101,551.577 997.03,550.54 997.96,549.502 998.893,548.465 999.827,547.428 1000.76,546.391 1001.7,545.354 1002.64,544.316 1003.58,543.279 1004.53,542.242 1005.47,541.205 1006.42,540.168 1007.37,539.131 1008.32,538.094 1009.27,537.057 1010.23,536.02 1011.18,534.983 1012.14,533.946 1013.1,532.909 1014.07,531.872 1015.03,530.835 1016,529.798 1016.97,528.761 1017.94,527.724 1018.91,526.687 1019.89,525.65 1020.86,524.613 1021.84,523.577 1022.82,522.54 1023.81,521.503 1024.79,520.466 1025.78,519.43 1026.77,518.393 1027.76,517.356 1028.76,516.319 1029.75,515.283 1030.75,514.246 1031.75,513.21 1032.75,512.173 1033.76,511.136 1034.77,510.1 1035.78,509.063 1036.79,508.027 1037.8,506.99 1038.82,505.954 1039.84,504.918 1040.86,503.881 1041.88,502.845 1042.9,501.808 1043.93,500.772 1044.96,499.736 1045.99,498.7 1047.03,497.663 1048.07,496.627 1049.11,495.591 1050.15,494.555 1051.19,493.519 1052.24,492.482 1053.29,491.446 1054.34,490.41 1055.39,489.374 1056.45,488.338 1057.51,487.302 1058.57,486.266 1059.63,485.23 1060.7,484.194 1061.77,483.158 1062.84,482.122 1063.92,481.087 1064.99,480.051 1066.07,479.015 1067.15,477.979 1068.24,476.943 1069.33,475.908 1070.42,474.872 1071.51,473.836 1072.61,472.801 1073.7,471.765 1074.8,470.73 1075.91,469.694 1077.02,468.659 1078.12,467.623 1079.24,466.588 1080.35,465.552 1081.47,464.517 1082.59,463.482 1083.71,462.446 1084.84,461.411 1085.97,460.376 1087.1,459.34 1088.24,458.305 1089.37,457.27 1090.51,456.235 1091.66,455.2 1092.8,454.165 1093.95,453.13 1095.11,452.095 1096.26,451.06 1097.42,450.025 1098.58,448.99 1099.75,447.955 1100.92,446.92 1102.09,445.886 1103.26,444.851 1104.44,443.816 1105.62,442.782 1106.81,441.747 1108,440.712 1109.19,439.678 1110.38,438.643 1111.58,437.609 1112.78,436.574 1113.98,435.54 1115.19,434.506 1116.4,433.471 1117.61,432.437 1118.83,431.403 1120.05,430.369 1121.28,429.334 1122.5,428.3 1123.74,427.266 1124.97,426.232 1126.21,425.198 1127.45,424.164 1128.7,423.13 1129.95,422.097 1131.2,421.063 1132.46,420.029 1133.72,418.995 1134.98,417.962 1136.25,416.928 1137.52,415.894 1138.79,414.861 1140.07,413.827 1141.35,412.794 1142.64,411.761 1143.93,410.727 1145.23,409.694 1146.52,408.661 1147.83,407.628 1149.13,406.594 1150.44,405.561 1151.76,404.528 1153.08,403.495 1154.4,402.462 1155.72,401.43 1157.05,400.397 1158.39,399.364 1159.73,398.331 1161.07,397.299 1162.42,396.266 1163.77,395.234 1165.13,394.201 1166.49,393.169 1167.85,392.136 1169.22,391.104 1170.59,390.072 1171.97,389.04 1173.35,388.007 1174.74,386.975 1176.13,385.943 1177.53,384.911 1178.93,383.88 1180.33,382.848 1181.74,381.816 1183.16,380.784 1184.58,379.753 1186,378.721 1187.43,377.69 1188.86,376.658 1190.3,375.627 1191.74,374.596 1193.19,373.564 1194.65,372.533 1196.1,371.502 1197.57,370.471 1199.04,369.44 1200.51,368.41 1201.99,367.379 1203.47,366.348 1204.96,365.317 1206.45,364.287 1207.95,363.256 1209.46,362.226 1210.97,361.196 1212.48,360.166 1214,359.135 1215.53,358.105 1217.06,357.075 1218.6,356.045 1220.14,355.016 1221.69,353.986 1223.24,352.956 1224.8,351.927 1226.37,350.897 1227.94,349.868 1229.52,348.839 1231.1,347.81 1232.69,346.78 1234.29,345.751 1235.89,344.723 1237.5,343.694 1239.11,342.665 1240.73,341.636 1242.35,340.608 1243.99,339.58 1245.62,338.551 1247.27,337.523 1248.92,336.495 1250.58,335.467 1252.24,334.439 1253.91,333.411 1255.59,332.384 1257.27,331.356 1258.96,330.329 1260.66,329.301 1262.36,328.274 1264.07,327.247 1265.79,326.22 1267.52,325.193 1269.25,324.166 1270.99,323.14 1272.73,322.113 1274.49,321.087 1276.25,320.061 1278.01,319.035 1279.79,318.009 1281.57,316.983 1283.36,315.957 1285.16,314.931 1286.96,313.906 1288.78,312.881 1290.6,311.855 1292.42,310.83 1294.26,309.805 1296.1,308.781 1297.96,307.756 1299.82,306.732 1301.68,305.707 1303.56,304.683 1305.44,303.659 1307.34,302.635 1309.24,301.612 1311.15,300.588 1313.07,299.565 1314.99,298.542 1316.93,297.519 1318.87,296.496 1320.83,295.473 1322.79,294.45 1324.76,293.428 1326.74,292.406 1328.73,291.384 1330.73,290.362 1332.73,289.341 1334.75,288.319 1336.78,287.298 1338.81,286.277 1340.86,285.256 1342.91,284.235 1344.98,283.215 1347.05,282.195 1349.14,281.175 1351.23,280.155 1353.34,279.135 1355.46,278.116 1357.58,277.097 1359.72,276.078 1361.86,275.059 1364.02,274.04 1366.19,273.022 1368.37,272.004 1370.56,270.986 1372.76,269.969 1374.97,268.951 1377.2,267.934 1379.43,266.918 1381.68,265.901 1383.93,264.885 1386.2,263.869 1388.48,262.853 1390.78,261.838 1393.08,260.822 1395.4,259.807 1397.73,258.793 1400.07,257.778 1402.42,256.764 1404.79,255.751 1407.17,254.737 1409.56,253.724 1411.97,252.711 1414.38,251.699 1416.82,250.686 1419.26,249.675 1421.72,248.663 1424.19,247.652 1426.67,246.641 1429.17,245.63 1431.69,244.62 1434.21,243.61 1436.76,242.601 1439.31,241.592 1441.88,240.583 1444.47,239.575 1447.07,238.567 1449.68,237.559 1452.31,236.552 1454.96,235.546 1457.62,234.539 1460.3,233.533 1462.99,232.528 1465.7,231.523 1468.42,230.518 1471.16,229.514 1473.92,228.511 1476.69,227.507 1479.48,226.505 1482.29,225.502 1485.12,224.501 1487.96,223.499 1490.82,222.499 1493.7,221.499 1496.59,220.499 1499.5,219.5 1502.43,218.501 1505.38,217.503 1508.35,216.505 1511.34,215.509 1514.35,214.512 1517.37,213.516 1520.42,212.521 1523.48,211.527 1526.57,210.533 1529.67,209.54 1532.8,208.547 1535.94,207.555 1539.11,206.564 1542.3,205.573 1545.51,204.583 1548.74,203.594 1551.99,202.605 1555.26,201.618 1558.56,200.631 1561.87,199.645 1565.22,198.659 1568.58,197.674 1571.97,196.691 1575.38,195.708 1578.81,194.725 1582.27,193.744 1585.75,192.764 1589.26,191.784 1592.79,190.805 1596.34,189.828 1599.93,188.851 1603.53,187.875 1607.17,186.9 1610.83,185.926 1614.51,184.953 1618.22,183.982 1621.96,183.011 1625.73,182.041 1629.52,181.073 1633.35,180.105 1637.2,179.139 1641.08,178.174 1644.98,177.21 1648.92,176.247 1652.89,175.285 1656.88,174.325 1660.91,173.366 1664.97,172.408 1669.05,171.452 1673.17,170.497 1677.32,169.543 1681.51,168.591 1685.72,167.64 1689.97,166.691 1694.25,165.743 1698.56,164.797 1702.91,163.853 1707.29,162.91 1711.7,161.968 1716.15,161.028 1720.64,160.09 1725.16,159.154 1729.71,158.219 1734.31,157.287 1738.93,156.356 1743.6,155.427 1748.3,154.499 1753.04,153.574 1757.82,152.651 1762.64,151.73 1767.49,150.811 1772.39,149.894 1777.32,148.979 1782.3,148.066 1787.31,147.156 1792.36,146.248 1797.46,145.342 1802.6,144.439 1807.78,143.538 1813,142.639 1818.26,141.743 1823.57,140.85 1828.92,139.959 1834.31,139.071 1839.75,138.186 1845.23,137.303 1850.75,136.424 1856.32,135.547 1861.94,134.673 1867.6,133.802 1873.31,132.934 1879.06,132.07 1884.86,131.208 1890.71,130.35 1896.6,129.495 1902.54,128.643 1908.53,127.795 1914.57,126.95 1920.65,126.108 1926.78,125.271 1932.97,124.437 1939.2,123.606 1945.48,122.78 1951.81,121.957 1958.18,121.138 1964.61,120.323 1971.09,119.512 1977.62,118.705 1984.19,117.903 1990.82,117.104 1997.5,116.31 2004.23,115.52 2011.01,114.735 2017.84,113.954 2024.72,113.177 2031.65,112.405 2038.63,111.638 2045.66,110.876 2052.74,110.118 2059.87,109.365 2067.05,108.617 2074.28,107.874 2081.57,107.135 2088.9,106.402 2096.28,105.674 2103.71,104.951 2111.19,104.234 2118.72,103.521 2126.3,102.814 2133.93,102.112 2141.6,101.416 2149.33,100.725 2157.1,100.04 2164.92,99.3597 2172.78,98.6853 2180.7,98.0165 2188.66,97.3533 2196.66,96.6958 2204.71,96.044 2212.81,95.3979 2220.95,94.7576 2229.14,94.123 2237.36,93.4943 2245.64,92.8713 2253.95,92.2542 2262.31,91.6429 2270.71,91.0375 2279.15,90.4379 2287.51,89.8529 "/>
<polyline clip-path="url(#clip352)" style="stroke:#0000ff; stroke-linecap:round; stroke-linejoin:round; stroke-width:24; stroke-opacity:0.9; fill:none" points="931.846,628.375 932.662,627.336 933.479,626.298 934.298,625.26 935.118,624.222 935.939,623.184 936.762,622.145 937.586,621.107 938.411,620.069 939.238,619.031 940.065,617.993 940.895,616.955 941.725,615.916 942.557,614.878 943.39,613.84 944.225,612.802 945.06,611.764 945.898,610.726 946.736,609.688 947.576,608.65 948.417,607.612 949.26,606.574 950.104,605.536 950.95,604.498 951.797,603.46 952.645,602.422 953.495,601.384 954.346,600.346 955.199,599.308 956.053,598.27 956.908,597.232 957.765,596.194 958.624,595.156 959.484,594.118 960.345,593.081 961.208,592.043 962.072,591.005 962.938,589.967 963.806,588.929 964.675,587.891 965.545,586.854 966.417,585.816 967.29,584.778 968.165,583.74 969.042,582.703 969.92,581.665 970.8,580.627 971.681,579.589 972.564,578.552 973.449,577.514 974.335,576.476 975.222,575.439 976.112,574.401 977.002,573.363 977.895,572.326 978.789,571.288 979.685,570.251 980.582,569.213 981.482,568.176 982.382,567.138 983.285,566.101 984.189,565.063 985.095,564.026 986.003,562.988 986.912,561.951 987.823,560.913 988.736,559.876 989.65,558.838 990.566,557.801 991.484,556.764 992.404,555.726 993.326,554.689 994.249,553.652 995.174,552.614 996.101,551.577 997.03,550.54 997.96,549.502 998.893,548.465 999.827,547.428 1000.76,546.391 1001.7,545.354 1002.64,544.316 1003.58,543.279 1004.53,542.242 1005.47,541.205 1006.42,540.168 1007.37,539.131 1008.32,538.094 1009.27,537.057 1010.23,536.02 1011.18,534.983 1012.14,533.946 1013.1,532.909 1014.07,531.872 1015.03,530.835 1016,529.798 1016.97,528.761 1017.94,527.724 1018.91,526.687 1019.89,525.65 1020.86,524.613 1021.84,523.577 1022.82,522.54 1023.81,521.503 1024.79,520.466 1025.78,519.43 1026.77,518.393 1027.76,517.356 1028.76,516.319 1029.75,515.283 1030.75,514.246 1031.75,513.21 1032.75,512.173 1033.76,511.136 1034.77,510.1 1035.78,509.063 1036.79,508.027 1037.8,506.99 1038.82,505.954 1039.84,504.918 1040.86,503.881 1041.88,502.845 1042.9,501.808 1043.93,500.772 1044.96,499.736 1045.99,498.7 1047.03,497.663 1048.07,496.627 1049.11,495.591 1050.15,494.555 1051.19,493.519 1052.24,492.482 1053.29,491.446 1054.34,490.41 1055.39,489.374 1056.45,488.338 1057.51,487.302 1058.57,486.266 1059.63,485.23 1060.7,484.194 1061.77,483.158 1062.84,482.122 1063.92,481.087 1064.99,480.051 1066.07,479.015 1067.15,477.979 1068.24,476.943 1069.33,475.908 1070.42,474.872 1071.51,473.836 1072.61,472.801 1073.7,471.765 1074.8,470.73 1075.91,469.694 1077.02,468.659 1078.12,467.623 1079.24,466.588 1080.35,465.552 1081.47,464.517 1082.59,463.482 1083.71,462.446 1084.84,461.411 1085.97,460.376 1087.1,459.34 1088.24,458.305 1089.37,457.27 1090.51,456.235 1091.66,455.2 1092.8,454.165 1093.95,453.13 1095.11,452.095 1096.26,451.06 1097.42,450.025 1098.58,448.99 1099.75,447.955 1100.92,446.92 1102.09,445.886 1103.26,444.851 1104.44,443.816 1105.62,442.782 1106.81,441.747 1108,440.712 1109.19,439.678 1110.38,438.643 1111.58,437.609 1112.78,436.574 1113.98,435.54 1115.19,434.506 1116.4,433.471 1117.61,432.437 1118.83,431.403 1120.05,430.369 1121.28,429.334 1122.5,428.3 1123.74,427.266 1124.97,426.232 1126.21,425.198 1127.45,424.164 1128.7,423.13 1129.95,422.097 1131.2,421.063 1132.46,420.029 1133.72,418.995 1134.98,417.962 1136.25,416.928 1137.52,415.894 1138.79,414.861 1140.07,413.827 1141.35,412.794 1142.64,411.761 1143.93,410.727 1145.23,409.694 1146.52,408.661 1147.83,407.628 1149.13,406.594 1150.44,405.561 1151.76,404.528 1153.08,403.495 1154.4,402.462 1155.72,401.43 1157.05,400.397 1158.39,399.364 1159.73,398.331 1161.07,397.299 1162.42,396.266 1163.77,395.234 1165.13,394.201 1166.49,393.169 1167.85,392.136 1169.22,391.104 1170.59,390.072 1171.97,389.04 1173.35,388.007 1174.74,386.975 1176.13,385.943 1177.53,384.911 1178.93,383.88 1180.33,382.848 1181.74,381.816 1183.16,380.784 1184.58,379.753 1186,378.721 1187.43,377.69 1188.86,376.658 1190.3,375.627 1191.74,374.596 1193.19,373.564 1194.65,372.533 1196.1,371.502 1197.57,370.471 1199.04,369.44 1200.51,368.41 1201.99,367.379 1203.47,366.348 1204.96,365.317 1206.45,364.287 1207.95,363.256 1209.46,362.226 1210.97,361.196 1212.48,360.166 1214,359.135 1215.53,358.105 1217.06,357.075 1218.6,356.045 1220.14,355.016 1221.69,353.986 1223.24,352.956 1224.8,351.927 1226.37,350.897 1227.94,349.868 1229.52,348.839 1231.1,347.81 1232.69,346.78 1234.29,345.751 1235.89,344.723 1237.5,343.694 1239.11,342.665 1240.73,341.636 1242.35,340.608 1243.99,339.58 1245.62,338.551 1247.27,337.523 1248.92,336.495 1250.58,335.467 1252.24,334.439 1253.91,333.411 1255.59,332.384 1257.27,331.356 1258.96,330.329 1260.66,329.301 1262.36,328.274 1264.07,327.247 1265.79,326.22 1267.52,325.193 1269.25,324.166 1270.99,323.14 1272.73,322.113 1274.49,321.087 1276.25,320.061 1278.01,319.035 1279.79,318.009 1281.57,316.983 1283.36,315.957 1285.16,314.931 1286.96,313.906 1288.78,312.881 1290.6,311.855 1292.42,310.83 1294.26,309.805 1296.1,308.781 1297.96,307.756 1299.82,306.732 1301.68,305.707 1303.56,304.683 1305.44,303.659 1307.34,302.635 1309.24,301.612 1311.15,300.588 1313.07,299.565 1314.99,298.542 1316.93,297.519 1318.87,296.496 1320.83,295.473 1322.79,294.45 1324.76,293.428 1326.74,292.406 1328.73,291.384 1330.73,290.362 1332.73,289.341 1334.75,288.319 1336.78,287.298 1338.81,286.277 1340.86,285.256 1342.91,284.235 1344.98,283.215 1347.05,282.195 1349.14,281.175 1351.23,280.155 1353.34,279.135 1355.46,278.116 1357.58,277.097 1359.72,276.078 1361.86,275.059 1364.02,274.04 1366.19,273.022 1368.37,272.004 1370.56,270.986 1372.76,269.969 1374.97,268.951 1377.2,267.934 1379.43,266.918 1381.68,265.901 1383.93,264.885 1386.2,263.869 1388.48,262.853 1390.78,261.838 1393.08,260.822 1395.4,259.807 1397.73,258.793 1400.07,257.778 1402.42,256.764 1404.79,255.751 1407.17,254.737 1409.56,253.724 1411.97,252.711 1414.38,251.699 1416.82,250.686 1419.26,249.675 1421.72,248.663 1424.19,247.652 1426.67,246.641 1429.17,245.63 1431.69,244.62 1434.21,243.61 1436.76,242.601 1439.31,241.592 1441.88,240.583 1444.47,239.575 1447.07,238.567 1449.68,237.559 1452.31,236.552 1454.96,235.546 1457.62,234.539 1460.3,233.533 1462.99,232.528 1465.7,231.523 1468.42,230.518 1471.16,229.514 1473.92,228.511 1476.69,227.507 1479.48,226.505 1482.29,225.502 1485.12,224.501 1487.96,223.499 1490.82,222.499 1493.7,221.499 1496.59,220.499 1499.5,219.5 1502.43,218.501 1505.38,217.503 1508.35,216.505 1511.34,215.509 1514.35,214.512 1517.37,213.516 1520.42,212.521 1523.48,211.527 1526.57,210.533 1529.67,209.54 1532.8,208.547 1535.94,207.555 1539.11,206.564 1542.3,205.573 1545.51,204.583 1548.74,203.594 1551.99,202.605 1555.26,201.618 1558.56,200.631 1561.87,199.645 1565.22,198.659 1568.58,197.674 1571.97,196.691 1575.38,195.708 1578.81,194.725 1582.27,193.744 1585.75,192.764 1589.26,191.784 1592.79,190.805 1596.34,189.828 1599.93,188.851 1603.53,187.875 1607.17,186.9 1610.83,185.926 1614.51,184.953 1618.22,183.982 1621.96,183.011 1625.73,182.041 1629.52,181.073 1633.35,180.105 1637.2,179.139 1641.08,178.174 1644.98,177.21 1648.92,176.247 1652.89,175.285 1656.88,174.325 1660.91,173.366 1664.97,172.408 1669.05,171.452 1673.17,170.497 1677.32,169.543 1681.51,168.591 1685.72,167.64 1689.97,166.691 1694.25,165.743 1698.56,164.797 1702.91,163.853 1707.29,162.91 1711.7,161.968 1716.15,161.028 1720.64,160.09 1725.16,159.154 1729.71,158.219 1734.31,157.287 1738.93,156.356 1743.6,155.427 1748.3,154.499 1753.04,153.574 1757.82,152.651 1762.64,151.73 1767.49,150.811 1772.39,149.894 1777.32,148.979 1782.3,148.066 1787.31,147.156 1792.36,146.248 1797.46,145.342 1802.6,144.439 1807.78,143.538 1813,142.639 1818.26,141.743 1823.57,140.85 1828.92,139.959 1834.31,139.071 1839.75,138.186 1845.23,137.303 1850.75,136.424 1856.32,135.547 1861.94,134.673 1867.6,133.802 1873.31,132.934 1879.06,132.07 1884.86,131.208 1890.71,130.35 1896.6,129.495 1902.54,128.643 1908.53,127.795 1914.57,126.95 1920.65,126.108 1926.78,125.271 1932.97,124.437 1939.2,123.606 1945.48,122.78 1951.81,121.957 1958.18,121.138 1964.61,120.323 1971.09,119.512 1977.62,118.705 1984.19,117.903 1990.82,117.104 1997.5,116.31 2004.23,115.52 2011.01,114.735 2017.84,113.954 2024.72,113.177 2031.65,112.405 2038.63,111.638 2045.66,110.876 2052.74,110.118 2059.87,109.365 2067.05,108.617 2074.28,107.874 2081.57,107.135 2088.9,106.402 2096.28,105.674 2103.71,104.951 2111.19,104.234 2118.72,103.521 2126.3,102.814 2133.93,102.112 2141.6,101.416 2149.33,100.725 2157.1,100.04 2164.92,99.3597 2172.78,98.6853 2180.7,98.0165 2188.66,97.3533 2196.66,96.6958 2204.71,96.044 2212.81,95.3979 2220.95,94.7576 2229.14,94.123 2237.36,93.4943 2245.64,92.8713 2253.95,92.2542 2262.31,91.6429 2270.71,91.0375 2279.15,90.4379 2287.51,89.8529 "/>
</svg>
