<?xml version="1.0" encoding="utf-8"?>
<svg xmlns="http://www.w3.org/2000/svg" xmlns:xlink="http://www.w3.org/1999/xlink" width="900" height="300" viewBox="0 0 3600 1200">
<defs>
  <clipPath id="clip510">
    <rect x="0" y="0" width="3600" height="1200"/>
  </clipPath>
</defs>
<path clip-path="url(#clip510)" d="M0 1200 L3600 1200 L3600 0 L0 0  Z" fill="#ffffff" fill-rule="evenodd" fill-opacity="1"/>
<defs>
  <clipPath id="clip511">
    <rect x="720" y="0" width="2521" height="1200"/>
  </clipPath>
</defs>
<path clip-path="url(#clip510)" d="M47.2441 1152.76 L3552.76 1152.76 L3552.76 47.2441 L47.2441 47.2441  Z" fill="#ffffff" fill-rule="evenodd" fill-opacity="1"/>
<defs>
  <clipPath id="clip512">
    <rect x="47" y="47" width="3507" height="1107"/>
  </clipPath>
</defs>
<polyline clip-path="url(#clip510)" style="stroke:#000000; stroke-linecap:round; stroke-linejoin:round; stroke-width:4; stroke-opacity:1; fill:none" points="47.2441,1152.76 3552.76,1152.76 "/>
<polyline clip-path="url(#clip510)" style="stroke:#000000; stroke-linecap:round; stroke-linejoin:round; stroke-width:4; stroke-opacity:1; fill:none" points="47.2441,47.2441 3552.76,47.2441 "/>
<polyline clip-path="url(#clip510)" style="stroke:#000000; stroke-linecap:round; stroke-linejoin:round; stroke-width:4; stroke-opacity:1; fill:none" points="47.2441,1152.76 47.2441,47.2441 "/>
<polyline clip-path="url(#clip510)" style="stroke:#000000; stroke-linecap:round; stroke-linejoin:round; stroke-width:4; stroke-opacity:1; fill:none" points="3552.76,1152.76 3552.76,47.2441 "/>
<polyline clip-path="url(#clip512)" style="stroke:#009af9; stroke-linecap:round; stroke-linejoin:round; stroke-width:36; stroke-opacity:1; fill:none" points="47.2441,1080.75 50.6508,1030.2 54.0575,981.928 57.4642,935.933 60.871,892.108 64.2777,850.363 67.6844,810.601 71.0911,772.708 74.4978,736.633 77.9045,702.248 81.3113,669.522 84.718,638.32 88.1247,608.617 91.5314,580.333 94.9381,553.366 98.3448,527.722 101.752,503.282 105.158,479.979 108.565,457.819 111.972,436.741 115.378,416.625 118.785,397.47 122.192,379.287 125.599,361.971 129.005,345.446 132.412,329.713 135.819,314.773 139.225,300.612 142.632,287.088 146.039,274.199 149.446,261.946 152.852,250.329 156.259,239.344 159.666,228.858 163.072,218.867 166.479,209.373 169.886,200.374 173.293,191.877 176.699,183.856 180.106,176.211 183.513,168.942 186.919,162.049 190.326,155.532 193.733,149.392 197.14,143.641 200.546,138.217 203.953,133.072 207.36,128.206 210.767,123.619 214.173,119.31 217.58,115.28 220.987,111.529 224.393,108.069 227.8,104.83 231.207,101.795 234.614,98.9643 238.02,96.3375 241.427,93.9146 244.834,91.6958 248.24,89.681 251.647,87.8701 255.054,86.2697 258.461,84.8216 261.867,83.5233 265.274,82.3749 268.681,81.3763 272.087,80.5276 275.494,79.8288 278.901,79.2798 282.308,78.8806 285.714,78.6329 289.121,78.5322 292.528,78.5438 295.934,78.668 299.341,78.9046 302.748,79.2536 306.155,79.7151 309.561,80.2891 312.968,80.9755 316.375,81.7743 319.781,82.6856 323.188,83.7117 326.595,84.8384 330.002,86.0521 333.408,87.3528 336.815,88.7406 340.222,90.2154 343.628,91.7772 347.035,93.4261 350.442,95.162 353.849,96.9849 357.255,98.8949 360.662,100.892 364.069,102.975 367.475,105.129 370.882,107.352 374.289,109.645 377.696,112.007 381.102,114.438 384.509,116.938 387.916,119.507 391.323,122.146 394.729,124.853 398.136,127.63 401.543,130.476 404.949,133.391 408.356,136.363 411.763,139.391 415.17,142.475 418.576,145.614 421.983,148.81 425.39,152.061 428.796,155.368 432.203,158.731 435.61,162.15 439.017,165.625 442.423,169.155 445.83,172.742 449.237,176.38 452.643,180.063 456.05,183.791 459.457,187.564 462.864,191.382 466.27,195.245 469.677,199.153 473.084,203.106 476.49,207.104 479.897,211.147 483.304,215.235 486.711,219.369 490.117,223.547 493.524,227.766 496.931,232.02 500.337,236.311 503.744,240.637 507.151,244.998 510.558,249.396 513.964,253.829 517.371,258.297 520.778,262.801 524.184,267.341 527.591,271.917 530.998,276.528 534.405,281.174 537.811,285.855 541.218,290.564 544.625,295.299 548.031,300.062 551.438,304.852 554.845,309.669 558.252,314.513 561.658,319.385 565.065,324.283 568.472,329.209 571.879,334.162 575.285,339.142 578.692,344.149 582.099,349.183 585.505,354.24 588.912,359.316 592.319,364.411 595.726,369.525 599.132,374.658 602.539,379.811 605.946,384.982 609.352,390.172 612.759,395.381 616.166,400.609 619.573,405.856 622.979,411.123 626.386,416.408 629.793,421.712 633.199,427.029 636.606,432.357 640.013,437.696 643.42,443.045 646.826,448.405 650.233,453.775 653.64,459.155 657.046,464.547 660.453,469.949 663.86,475.361 667.267,480.784 670.673,486.218 674.08,491.662 677.487,497.118 680.893,502.577 684.3,508.037 687.707,513.497 691.114,518.959 694.52,524.421 697.927,529.884 701.334,535.347 704.74,540.811 708.147,546.276 711.554,551.742 714.961,557.208 718.367,562.675 721.774,568.143 725.181,573.615 728.587,579.08 731.994,584.533 735.401,589.975 738.808,595.404 742.214,600.821 745.621,606.226 749.028,611.62 752.435,617.001 755.841,622.37 759.248,627.728 762.655,633.073 766.061,638.407 769.468,643.729 772.875,649.043 776.282,654.344 779.688,659.617 783.095,664.861 786.502,670.077 789.908,675.265 793.315,680.424 796.722,685.555 800.129,690.658 803.535,695.733 806.942,700.779 810.349,705.797 813.755,710.787 817.162,715.748 820.569,720.681 823.976,725.594 827.382,730.473 830.789,735.306 834.196,740.092 837.602,744.832 841.009,749.525 844.416,754.172 847.823,758.773 851.229,763.327 854.636,767.834 858.043,772.295 861.449,776.71 864.856,781.078 868.263,785.399 871.67,789.674 875.076,793.903 878.483,798.093 881.89,802.227 885.296,806.3 888.703,810.313 892.11,814.267 895.517,818.16 898.923,821.994 902.33,825.768 905.737,829.481 909.143,833.135 912.55,836.729 915.957,840.263 919.364,843.737 922.77,847.151 926.177,850.505 929.584,853.8 932.991,857.034 936.397,860.207 939.804,863.318 943.211,866.367 946.617,869.355 950.024,872.28 953.431,875.144 956.838,877.946 960.244,880.687 963.651,883.365 967.058,885.982 970.464,888.537 973.871,891.03 977.278,893.461 980.685,895.831 984.091,898.139 987.498,900.385 990.905,902.569 994.311,904.691 997.718,906.744 1001.12,908.736 1004.53,910.673 1007.94,912.556 1011.35,914.385 1014.75,916.16 1018.16,917.881 1021.57,919.548 1024.97,921.16 1028.38,922.719 1031.79,924.223 1035.19,925.674 1038.6,927.07 1042.01,928.412 1045.41,929.7 1048.82,930.934 1052.23,932.114 1055.63,933.239 1059.04,934.311 1062.45,935.328 1065.85,936.292 1069.26,937.201 1072.67,938.058 1076.07,938.862 1079.48,939.611 1082.89,940.307 1086.29,940.949 1089.7,941.537 1093.11,942.071 1096.51,942.551 1099.92,942.977 1103.33,943.35 1106.73,943.668 1110.14,943.933 1113.55,944.143 1116.95,944.3 1120.36,944.403 1123.77,944.457 1127.17,944.452 1130.58,944.375 1133.99,944.225 1137.39,944.002 1140.8,943.707 1144.21,943.339 1147.61,942.899 1151.02,942.386 1154.43,941.801 1157.83,941.143 1161.24,940.412 1164.65,939.609 1168.05,938.758 1171.46,937.781 1174.87,936.677 1178.27,935.447 1181.68,934.09 1185.09,932.607 1188.49,930.997 1191.9,929.261 1195.31,927.398 1198.71,925.408 1202.12,923.352 1205.53,921.167 1208.93,918.706 1212.34,915.97 1215.75,912.957 1219.15,909.668 1222.56,906.104 1225.97,902.264 1229.37,898.147 1232.78,893.755 1236.19,889.087 1239.6,884.068 1243,878.521 1246.41,872.438 1249.82,865.82 1253.22,858.666 1256.63,850.977 1260.04,842.731 1263.44,833.766 1266.85,824.068 1270.26,813.639 1273.66,802.478 1277.07,790.547 1280.48,777.901 1283.88,764.54 1287.29,750.464 1290.7,735.651 1294.1,720.218 1297.51,704.418 1300.92,688.253 1304.32,671.722 1307.73,654.784 1311.14,637.698 1314.54,620.679 1317.95,603.726 1321.36,586.838 1324.76,569.942 1328.17,553.24 1331.58,536.903 1334.98,520.93 1338.39,505.32 1341.8,490.075 1345.2,475.147 1348.61,460.594 1352.02,446.503 1355.42,432.872 1358.83,419.702 1362.24,406.994 1365.64,394.747 1369.05,382.957 1372.46,371.591 1375.86,360.646 1379.27,350.124 1382.68,340.023 1386.08,330.344 1389.49,321.087 1392.9,312.252 1396.3,303.838 1399.71,295.852 1403.12,288.204 1406.52,280.893 1409.93,273.919 1413.34,267.28 1416.74,260.978 1420.15,255.013 1423.56,249.384 1426.96,244.091 1430.37,239.158 1433.78,234.478 1437.18,230.047 1440.59,225.868 1444,221.938 1447.4,218.259 1450.81,214.831 1454.22,211.653 1457.62,208.725 1461.03,206.047 1464.44,203.645 1467.85,201.427 1471.25,199.389 1474.66,197.53 1478.07,195.851 1481.47,194.352 1484.88,193.033 1488.29,191.893 1491.69,190.934 1495.1,190.154 1498.51,189.554 1501.91,189.154 1505.32,188.883 1508.73,188.74 1512.13,188.724 1515.54,188.836 1518.95,189.075 1522.35,189.443 1525.76,189.937 1529.17,190.56 1532.57,191.31 1535.98,192.188 1539.39,193.195 1542.79,194.341 1546.2,195.578 1549.61,196.906 1553.01,198.326 1556.42,199.837 1559.83,201.439 1563.23,203.133 1566.64,204.918 1570.05,206.794 1573.45,208.761 1576.86,210.819 1580.27,212.969 1583.67,215.217 1587.08,217.547 1590.49,219.944 1593.89,222.407 1597.3,224.936 1600.71,227.531 1604.11,230.192 1607.52,232.92 1610.93,235.713 1614.33,238.573 1617.74,241.498 1621.15,244.49 1624.55,247.548 1627.96,250.674 1631.37,253.866 1634.77,257.107 1638.18,260.396 1641.59,263.734 1644.99,267.119 1648.4,270.553 1651.81,274.035 1655.21,277.565 1658.62,281.144 1662.03,284.771 1665.43,288.446 1668.84,292.169 1672.25,295.941 1675.65,299.763 1679.06,303.626 1682.47,307.524 1685.87,311.456 1689.28,315.423 1692.69,319.425 1696.1,323.462 1699.5,327.534 1702.91,331.64 1706.32,335.781 1709.72,339.957 1713.13,344.168 1716.54,348.413 1719.94,352.694 1723.35,357.01 1726.76,361.354 1730.16,365.722 1733.57,370.114 1736.98,374.529 1740.38,378.968 1743.79,383.431 1747.2,387.918 1750.6,392.429 1754.01,396.963 1757.42,401.522 1760.82,406.104 1764.23,410.71 1767.64,415.339 1771.04,419.994 1774.45,424.666 1777.86,429.353 1781.26,434.053 1784.67,438.768 1788.08,443.496 1791.48,448.238 1794.89,452.995 1798.3,457.765 1801.7,462.549 1805.11,467.348 1808.52,472.16 1811.92,476.986 1815.33,481.826 1818.74,486.681 1822.14,491.548 1825.55,496.419 1828.96,501.295 1832.36,506.174 1835.77,511.058 1839.18,515.945 1842.58,520.837 1845.99,525.733 1849.4,530.633 1852.8,535.537 1856.21,540.445 1859.62,545.357 1863.02,550.274 1866.43,555.194 1869.84,560.122 1873.24,565.045 1876.65,569.961 1880.06,574.87 1883.46,579.773 1886.87,584.668 1890.28,589.556 1893.68,594.438 1897.09,599.312 1900.5,604.18 1903.9,609.04 1907.31,613.894 1910.72,618.74 1914.13,623.58 1917.53,628.414 1920.94,633.244 1924.35,638.055 1927.75,642.845 1931.16,647.616 1934.57,652.366 1937.97,657.096 1941.38,661.807 1944.79,666.497 1948.19,671.167 1951.6,675.817 1955.01,680.447 1958.41,685.057 1961.82,689.647 1965.23,694.217 1968.63,698.768 1972.04,703.305 1975.45,707.808 1978.85,712.275 1982.26,716.708 1985.67,721.107 1989.07,725.471 1992.48,729.8 1995.89,734.095 1999.29,738.355 2002.7,742.58 2006.11,746.771 2009.51,750.928 2012.92,755.049 2016.33,759.136 2019.73,763.189 2023.14,767.212 2026.55,771.196 2029.95,775.132 2033.36,779.02 2036.77,782.861 2040.17,786.655 2043.58,790.401 2046.99,794.1 2050.39,797.751 2053.8,801.354 2057.21,804.91 2060.61,808.419 2064.02,811.88 2067.43,815.293 2070.83,818.659 2074.24,821.977 2077.65,825.25 2081.05,828.474 2084.46,831.643 2087.87,834.757 2091.27,837.818 2094.68,840.824 2098.09,843.776 2101.49,846.673 2104.9,849.516 2108.31,852.305 2111.71,855.039 2115.12,857.719 2118.53,860.345 2121.93,862.916 2125.34,865.433 2128.75,867.895 2132.15,870.304 2135.56,872.657 2138.97,874.954 2142.38,877.196 2145.78,879.384 2149.19,881.517 2152.6,883.595 2156,885.619 2159.41,887.589 2162.82,889.504 2166.22,891.364 2169.63,893.17 2173.04,894.921 2176.44,896.618 2179.85,898.259 2183.26,899.847 2186.66,901.38 2190.07,902.858 2193.48,904.282 2196.88,905.652 2200.29,906.975 2203.7,908.241 2207.1,909.45 2210.51,910.603 2213.92,911.699 2217.32,912.739 2220.73,913.722 2224.14,914.648 2227.54,915.518 2230.95,916.331 2234.36,917.088 2237.76,917.789 2241.17,918.432 2244.58,919.02 2247.98,919.55 2251.39,920.024 2254.8,920.442 2258.2,920.803 2261.61,921.107 2265.02,921.355 2268.42,921.546 2271.83,921.683 2275.24,921.747 2278.64,921.727 2282.05,921.623 2285.46,921.436 2288.86,921.164 2292.27,920.808 2295.68,920.368 2299.08,919.845 2302.49,919.237 2305.9,918.546 2309.3,917.77 2312.71,916.911 2316.12,915.967 2319.52,914.985 2322.93,913.851 2326.34,912.558 2329.74,911.108 2333.15,909.499 2336.56,907.731 2339.96,905.806 2343.37,903.722 2346.78,901.48 2350.18,899.08 2353.59,896.522 2357,893.873 2360.4,891.124 2363.81,888.007 2367.22,884.522 2370.63,880.669 2374.03,876.447 2377.44,871.858 2380.85,866.9 2384.25,861.575 2387.66,855.881 2391.07,849.819 2394.47,843.388 2397.88,836.499 2401.29,828.998 2404.69,820.901 2408.1,812.21 2411.51,802.924 2414.91,793.015 2418.32,782.464 2421.73,771.274 2425.13,759.445 2428.54,746.977 2431.95,733.876 2435.35,720.282 2438.76,706.255 2442.17,691.794 2445.57,676.878 2448.98,661.517 2452.39,646.072 2455.79,630.542 2459.2,614.929 2462.61,599.231 2466.01,583.429 2469.42,567.823 2472.83,552.438 2476.23,537.274 2479.64,522.331 2483.05,507.533 2486.45,493.041 2489.86,478.942 2493.27,465.235 2496.67,451.921 2500.08,438.999 2503.49,426.469 2506.89,414.31 2510.3,402.519 2513.71,391.135 2517.11,380.156 2520.52,369.583 2523.93,359.416 2527.33,349.655 2530.74,340.3 2534.15,331.357 2537.55,322.78 2540.96,314.547 2544.37,306.657 2547.77,299.111 2551.18,291.909 2554.59,285.05 2557.99,278.534 2561.4,272.363 2564.81,266.55 2568.21,261.051 2571.62,255.816 2575.03,250.844 2578.43,246.136 2581.84,241.692 2585.25,237.512 2588.65,233.595 2592.06,229.942 2595.47,226.552 2598.88,223.45 2602.28,220.573 2605.69,217.889 2609.1,215.397 2612.5,213.097 2615.91,210.989 2619.32,209.074 2622.72,207.35 2626.13,205.819 2629.54,204.48 2632.94,203.333 2636.35,202.398 2639.76,201.627 2643.16,200.993 2646.57,200.497 2649.98,200.137 2653.38,199.915 2656.79,199.83 2660.2,199.881 2663.6,200.07 2667.01,200.396 2670.42,200.859 2673.82,201.459 2677.23,202.212 2680.64,203.074 2684.04,204.033 2687.45,205.089 2690.86,206.244 2694.26,207.496 2697.67,208.846 2701.08,210.293 2704.48,211.838 2707.89,213.481 2711.3,215.222 2714.7,217.06 2718.11,218.997 2721.52,221.041 2724.92,223.155 2728.33,225.339 2731.74,227.594 2735.14,229.919 2738.55,232.315 2741.96,234.781 2745.36,237.317 2748.77,239.924 2752.18,242.601 2755.58,245.348 2758.99,248.166 2762.4,251.054 2765.8,254.018 2769.21,257.037 2772.62,260.108 2776.02,263.229 2779.43,266.401 2782.84,269.625 2786.24,272.899 2789.65,276.225 2793.06,279.601 2796.46,283.029 2799.87,286.507 2803.28,290.037 2806.68,293.618 2810.09,297.25 2813.5,300.935 2816.91,304.656 2820.31,308.415 2823.72,312.209 2827.13,316.041 2830.53,319.909 2833.94,323.814 2837.35,327.755 2840.75,331.733 2844.16,335.748 2847.57,339.799 2850.97,343.887 2854.38,348.012 2857.79,352.174 2861.19,356.372 2864.6,360.595 2868.01,364.843 2871.41,369.116 2874.82,373.415 2878.23,377.738 2881.63,382.087 2885.04,386.46 2888.45,390.859 2891.85,395.283 2895.26,399.733 2898.67,404.207 2902.07,408.706 2905.48,413.231 2908.89,417.782 2912.29,422.348 2915.7,426.93 2919.11,431.526 2922.51,436.138 2925.92,440.765 2929.33,445.406 2932.73,450.063 2936.14,454.735 2939.55,459.421 2942.95,464.123 2946.36,468.84 2949.77,473.572 2953.17,478.319 2956.58,483.082 2959.99,487.855 2963.39,492.632 2966.8,497.415 2970.21,502.203 2973.61,506.996 2977.02,511.794 2980.43,516.597 2983.83,521.406 2987.24,526.219 2990.65,531.038 2994.05,535.862 2997.46,540.691 3000.87,545.525 3004.27,550.365 3007.68,555.212 3011.09,560.053 3014.49,564.889 3017.9,569.718 3021.31,574.543 3024.71,579.361 3028.12,584.174 3031.53,588.981 3034.93,593.783 3038.34,598.579 3041.75,603.369 3045.16,608.153 3048.56,612.932 3051.97,617.705 3055.38,622.476 3058.78,627.239 3062.19,631.984 3065.6,636.711 3069,641.419 3072.41,646.109 3075.82,650.781 3079.22,655.434 3082.63,660.069 3086.04,664.686 3089.44,669.285 3092.85,673.865 3096.26,678.427 3099.66,682.971 3103.07,687.497 3106.48,692.007 3109.88,696.5 3113.29,700.961 3116.7,705.389 3120.1,709.785 3123.51,714.148 3126.92,718.479 3130.32,722.778 3133.73,727.044 3137.14,731.278 3140.54,735.48 3143.95,739.649 3147.36,743.786 3150.76,747.891 3154.17,751.963 3157.58,756.003 3160.98,760.017 3164.39,763.99 3167.8,767.917 3171.2,771.799 3174.61,775.636 3178.02,779.428 3181.42,783.175 3184.83,786.876 3188.24,790.532 3191.64,794.143 3195.05,797.709 3198.46,801.229 3201.86,804.704 3205.27,808.134 3208.68,811.519 3212.08,814.859 3215.49,818.156 3218.9,821.403 3222.3,824.598 3225.71,827.739 3229.12,830.828 3232.52,833.864 3235.93,836.847 3239.34,839.777 3242.74,842.654 3246.15,845.479 3249.56,848.251 3252.96,850.969 3256.37,853.635 3259.78,856.249 3263.18,858.809 3266.59,861.316 3270,863.771 3273.41,866.172 3276.81,868.518 3280.22,870.81 3283.63,873.047 3287.03,875.231 3290.44,877.36 3293.85,879.435 3297.25,881.456 3300.66,883.423 3304.07,885.335 3307.47,887.193 3310.88,888.997 3314.29,890.746 3317.69,892.442 3321.1,894.083 3324.51,895.67 3327.91,897.202 3331.32,898.681 3334.73,900.111 3338.13,901.484 3341.54,902.801 3344.95,904.062 3348.35,905.267 3351.76,906.415 3355.17,907.507 3358.57,908.543 3361.98,909.522 3365.39,910.445 3368.79,911.312 3372.2,912.122 3375.61,912.876 3379.01,913.573 3382.42,914.215 3385.83,914.8 3389.23,915.328 3392.64,915.8 3396.05,916.216 3399.45,916.576 3402.86,916.882 3406.27,917.121 3409.67,917.281 3413.08,917.364 3416.49,917.369 3419.89,917.295 3423.3,917.144 3426.71,916.914 3430.11,916.607 3433.52,916.221 3436.93,915.758 3440.33,915.216 3443.74,914.597 3447.15,913.909 3450.55,913.2 3453.96,912.347 3457.37,911.35 3460.77,910.21 3464.18,908.927 3467.59,907.501 3470.99,905.931 3474.4,904.217 3477.81,902.361 3481.21,900.361 3484.62,898.217 3488.03,895.93 3491.43,893.5 3494.84,890.991 3498.25,888.196 3501.66,885.079 3505.06,881.639 3508.47,877.876 3511.88,873.789 3515.28,869.379 3518.69,864.646 3522.1,859.591 3525.5,854.211 3528.91,848.506 3532.32,842.321 3535.72,835.583 3539.13,828.292 3542.54,820.446 3545.94,812.046 3549.35,803.093 3552.76,793.599 "/>
<polyline clip-path="url(#clip512)" style="stroke:#e26f46; stroke-linecap:round; stroke-linejoin:round; stroke-width:36; stroke-opacity:1; fill:none" points="47.2441,1121.47 50.6508,1120.83 54.0575,1119.72 57.4642,1118.16 60.871,1116.19 64.2777,1113.82 67.6844,1111.07 71.0911,1107.99 74.4978,1104.57 77.9045,1100.85 81.3113,1096.83 84.718,1092.56 88.1247,1088.02 91.5314,1083.25 94.9381,1078.26 98.3448,1073.06 101.752,1067.67 105.158,1062.11 108.565,1056.38 111.972,1050.48 115.378,1044.46 118.785,1038.31 122.192,1032.02 125.599,1025.62 129.005,1019.14 132.412,1012.56 135.819,1005.89 139.225,999.129 142.632,992.315 146.039,985.445 149.446,978.52 152.852,971.539 156.259,964.504 159.666,957.444 163.072,950.361 166.479,943.255 169.886,936.125 173.293,928.971 176.699,921.797 180.106,914.627 183.513,907.461 186.919,900.299 190.326,893.14 193.733,885.985 197.14,878.83 200.546,871.69 203.953,864.576 207.36,857.487 210.767,850.423 214.173,843.386 217.58,836.373 220.987,829.387 224.393,822.422 227.8,815.496 231.207,808.612 234.614,801.769 238.02,794.969 241.427,788.211 244.834,781.495 248.24,774.821 251.647,768.189 255.054,761.596 258.461,755.057 261.867,748.571 265.274,742.139 268.681,735.76 272.087,729.435 275.494,723.163 278.901,716.945 282.308,710.781 285.714,704.669 289.121,698.611 292.528,692.613 295.934,686.677 299.341,680.801 302.748,674.985 306.155,669.231 309.561,663.537 312.968,657.904 316.375,652.332 319.781,646.821 323.188,641.37 326.595,635.981 330.002,630.656 333.408,625.396 336.815,620.201 340.222,615.07 343.628,610.004 347.035,605.003 350.442,600.066 353.849,595.194 357.255,590.386 360.662,585.643 364.069,580.965 367.475,576.353 370.882,571.806 374.289,567.325 377.696,562.911 381.102,558.562 384.509,554.279 387.916,550.063 391.323,545.912 394.729,541.827 398.136,537.808 401.543,533.855 404.949,529.969 408.356,526.148 411.763,522.393 415.17,518.704 418.576,515.079 421.983,511.521 425.39,508.027 428.796,504.6 432.203,501.237 435.61,497.94 439.017,494.708 442.423,491.542 445.83,488.441 449.237,485.408 452.643,482.438 456.05,479.531 459.457,476.688 462.864,473.909 466.27,471.193 469.677,468.541 473.084,465.952 476.49,463.427 479.897,460.965 483.304,458.567 486.711,456.232 490.117,453.961 493.524,451.756 496.931,449.611 500.337,447.528 503.744,445.505 507.151,443.542 510.558,441.641 513.964,439.799 517.371,438.019 520.778,436.299 524.184,434.64 527.591,433.041 530.998,431.503 534.405,430.025 537.811,428.61 541.218,427.255 544.625,425.956 548.031,424.715 551.438,423.53 554.845,422.402 558.252,421.331 561.658,420.318 565.065,419.361 568.472,418.461 571.879,417.618 575.285,416.832 578.692,416.102 582.099,415.43 585.505,414.818 588.912,414.258 592.319,413.751 595.726,413.297 599.132,412.895 602.539,412.546 605.946,412.25 609.352,412.006 612.759,411.815 616.166,411.677 619.573,411.591 622.979,411.558 626.386,411.577 629.793,411.651 633.199,411.778 636.606,411.952 640.013,412.174 643.42,412.444 646.826,412.762 650.233,413.128 653.64,413.542 657.046,414.003 660.453,414.512 663.86,415.069 667.267,415.674 670.673,416.327 674.08,417.027 677.487,417.779 680.893,418.576 684.3,419.416 687.707,420.298 691.114,421.222 694.52,422.189 697.927,423.198 701.334,424.25 704.74,425.344 708.147,426.481 711.554,427.66 714.961,428.881 718.367,430.145 721.774,431.451 725.181,432.804 728.587,434.196 731.994,435.625 735.401,437.09 738.808,438.591 742.214,440.128 745.621,441.701 749.028,443.311 752.435,444.956 755.841,446.638 759.248,448.356 762.655,450.11 766.061,451.901 769.468,453.727 772.875,455.593 776.282,457.496 779.688,459.428 783.095,461.389 786.502,463.378 789.908,465.396 793.315,467.443 796.722,469.518 800.129,471.622 803.535,473.754 806.942,475.916 810.349,478.105 813.755,480.324 817.162,482.571 820.569,484.847 823.976,487.157 827.382,489.495 830.789,491.852 834.196,494.228 837.602,496.624 841.009,499.04 844.416,501.474 847.823,503.929 851.229,506.402 854.636,508.896 858.043,511.408 861.449,513.941 864.856,516.492 868.263,519.063 871.67,521.654 875.076,524.264 878.483,526.903 881.89,529.554 885.296,532.213 888.703,534.882 892.11,537.558 895.517,540.244 898.923,542.939 902.33,545.642 905.737,548.353 909.143,551.074 912.55,553.803 915.957,556.541 919.364,559.288 922.77,562.043 926.177,564.808 929.584,567.58 932.991,570.362 936.397,573.164 939.804,575.963 943.211,578.76 946.617,581.554 950.024,584.347 953.431,587.136 956.838,589.924 960.244,592.709 963.651,595.492 967.058,598.273 970.464,601.051 973.871,603.827 977.278,606.6 980.685,609.371 984.091,612.14 987.498,614.906 990.905,617.671 994.311,620.432 997.718,623.2 1001.12,625.963 1004.53,628.713 1007.94,631.452 1011.35,634.178 1014.75,636.892 1018.16,639.594 1021.57,642.284 1024.97,644.961 1028.38,647.626 1031.79,650.279 1035.19,652.919 1038.6,655.548 1042.01,658.164 1045.41,660.768 1048.82,663.36 1052.23,665.939 1055.63,668.506 1059.04,671.061 1062.45,673.604 1065.85,676.134 1069.26,678.653 1072.67,681.162 1076.07,683.653 1079.48,686.126 1082.89,688.579 1086.29,691.014 1089.7,693.429 1093.11,695.826 1096.51,698.203 1099.92,700.562 1103.33,702.901 1106.73,705.221 1110.14,707.523 1113.55,709.805 1116.95,712.068 1120.36,714.313 1123.77,716.54 1127.17,718.748 1130.58,720.931 1133.99,723.089 1137.39,725.223 1140.8,727.333 1144.21,729.418 1147.61,731.479 1151.02,733.515 1154.43,735.527 1157.83,737.514 1161.24,739.477 1164.65,741.415 1168.05,743.334 1171.46,745.221 1174.87,747.075 1178.27,748.898 1181.68,750.688 1185.09,752.446 1188.49,754.172 1191.9,755.866 1195.31,757.527 1198.71,759.157 1202.12,760.761 1205.53,762.333 1208.93,763.857 1212.34,765.333 1215.75,766.76 1219.15,768.139 1222.56,769.47 1225.97,770.752 1229.37,771.986 1232.78,773.172 1236.19,774.309 1239.6,775.401 1243,776.423 1246.41,777.371 1249.82,778.246 1253.22,779.047 1256.63,779.774 1260.04,780.427 1263.44,780.982 1266.85,781.435 1270.26,781.786 1273.66,782.036 1277.07,782.18 1280.48,782.195 1283.88,782.078 1287.29,781.831 1290.7,781.454 1294.1,780.938 1297.51,780.271 1300.92,779.456 1304.32,778.491 1307.73,777.374 1311.14,776.106 1314.54,774.688 1317.95,773.121 1321.36,771.404 1324.76,769.533 1328.17,767.52 1331.58,765.377 1334.98,763.104 1338.39,760.7 1341.8,758.166 1345.2,755.494 1348.61,752.706 1352.02,749.822 1355.42,746.842 1358.83,743.765 1362.24,740.592 1365.64,737.322 1369.05,733.952 1372.46,730.489 1375.86,726.969 1379.27,723.391 1382.68,719.756 1386.08,716.063 1389.49,712.313 1392.9,708.505 1396.3,704.639 1399.71,700.709 1403.12,696.755 1406.52,692.778 1409.93,688.779 1413.34,684.757 1416.74,680.713 1420.15,676.646 1423.56,672.556 1426.96,668.444 1430.37,664.302 1433.78,660.165 1437.18,656.033 1440.59,651.906 1444,647.785 1447.4,643.669 1450.81,639.558 1454.22,635.452 1457.62,631.351 1461.03,627.256 1464.44,623.16 1467.85,619.089 1471.25,615.043 1474.66,611.023 1478.07,607.028 1481.47,603.059 1484.88,599.115 1488.29,595.196 1491.69,591.303 1495.1,587.436 1498.51,583.594 1501.91,579.773 1505.32,575.992 1508.73,572.249 1512.13,568.545 1515.54,564.88 1518.95,561.254 1522.35,557.666 1525.76,554.118 1529.17,550.608 1532.57,547.138 1535.98,543.706 1539.39,540.312 1542.79,536.957 1546.2,533.648 1549.61,530.385 1553.01,527.17 1556.42,524.001 1559.83,520.878 1563.23,517.803 1566.64,514.774 1570.05,511.792 1573.45,508.857 1576.86,505.968 1580.27,503.126 1583.67,500.331 1587.08,497.583 1590.49,494.886 1593.89,492.24 1597.3,489.643 1600.71,487.097 1604.11,484.602 1607.52,482.157 1610.93,479.762 1614.33,477.418 1617.74,475.124 1621.15,472.881 1624.55,470.688 1627.96,468.545 1631.37,466.454 1634.77,464.414 1638.18,462.425 1641.59,460.487 1644.99,458.6 1648.4,456.764 1651.81,454.98 1655.21,453.247 1658.62,451.565 1662.03,449.933 1665.43,448.354 1668.84,446.825 1672.25,445.347 1675.65,443.922 1679.06,442.548 1682.47,441.223 1685.87,439.949 1689.28,438.724 1692.69,437.549 1696.1,436.424 1699.5,435.349 1702.91,434.324 1706.32,433.349 1709.72,432.423 1713.13,431.547 1716.54,430.722 1719.94,429.946 1723.35,429.221 1726.76,428.546 1730.16,427.918 1733.57,427.337 1736.98,426.803 1740.38,426.316 1743.79,425.876 1747.2,425.484 1750.6,425.139 1754.01,424.84 1757.42,424.589 1760.82,424.385 1764.23,424.229 1767.64,424.119 1771.04,424.059 1774.45,424.045 1777.86,424.074 1781.26,424.147 1784.67,424.264 1788.08,424.424 1791.48,424.627 1794.89,424.874 1798.3,425.164 1801.7,425.497 1805.11,425.874 1808.52,426.295 1811.92,426.758 1815.33,427.266 1818.74,427.817 1822.14,428.414 1825.55,429.05 1828.96,429.725 1832.36,430.438 1835.77,431.191 1839.18,431.982 1842.58,432.813 1845.99,433.682 1849.4,434.59 1852.8,435.537 1856.21,436.522 1859.62,437.547 1863.02,438.61 1866.43,439.713 1869.84,440.858 1873.24,442.038 1876.65,443.253 1880.06,444.5 1883.46,445.781 1886.87,447.096 1890.28,448.444 1893.68,449.825 1897.09,451.24 1900.5,452.689 1903.9,454.171 1907.31,455.686 1910.72,457.235 1914.13,458.817 1917.53,460.434 1920.94,462.089 1924.35,463.77 1927.75,465.479 1931.16,467.215 1934.57,468.978 1937.97,470.768 1941.38,472.585 1944.79,474.429 1948.19,476.301 1951.6,478.199 1955.01,480.125 1958.41,482.077 1961.82,484.057 1965.23,486.064 1968.63,488.099 1972.04,490.166 1975.45,492.253 1978.85,494.36 1982.26,496.486 1985.67,498.632 1989.07,500.797 1992.48,502.982 1995.89,505.186 1999.29,507.41 2002.7,509.653 2006.11,511.916 2009.51,514.198 2012.92,516.5 2016.33,518.821 2019.73,521.162 2023.14,523.528 2026.55,525.911 2029.95,528.305 2033.36,530.71 2036.77,533.126 2040.17,535.553 2043.58,537.99 2046.99,540.438 2050.39,542.897 2053.8,545.367 2057.21,547.847 2060.61,550.338 2064.02,552.84 2067.43,555.353 2070.83,557.876 2074.24,560.41 2077.65,562.96 2081.05,565.521 2084.46,568.084 2087.87,570.648 2091.27,573.214 2094.68,575.781 2098.09,578.35 2101.49,580.92 2104.9,583.492 2108.31,586.065 2111.71,588.64 2115.12,591.216 2118.53,593.794 2121.93,596.373 2125.34,598.954 2128.75,601.537 2132.15,604.12 2135.56,606.71 2138.97,609.302 2142.38,611.887 2145.78,614.464 2149.19,617.034 2152.6,619.597 2156,622.152 2159.41,624.7 2162.82,627.24 2166.22,629.774 2169.63,632.299 2173.04,634.818 2176.44,637.329 2179.85,639.833 2183.26,642.329 2186.66,644.818 2190.07,647.3 2193.48,649.774 2196.88,652.244 2200.29,654.714 2203.7,657.168 2207.1,659.606 2210.51,662.028 2213.92,664.434 2217.32,666.824 2220.73,669.199 2224.14,671.557 2227.54,673.9 2230.95,676.226 2234.36,678.537 2237.76,680.832 2241.17,683.111 2244.58,685.374 2247.98,687.621 2251.39,689.852 2254.8,692.067 2258.2,694.266 2261.61,696.449 2265.02,698.617 2268.42,700.768 2271.83,702.907 2275.24,705.028 2278.64,707.126 2282.05,709.199 2285.46,711.248 2288.86,713.273 2292.27,715.274 2295.68,717.251 2299.08,719.204 2302.49,721.133 2305.9,723.037 2309.3,724.918 2312.71,726.775 2316.12,728.607 2319.52,730.424 2322.93,732.207 2326.34,733.956 2329.74,735.669 2333.15,737.348 2336.56,738.991 2339.96,740.6 2343.37,742.174 2346.78,743.714 2350.18,745.218 2353.59,746.687 2357,748.131 2360.4,749.547 2363.81,750.906 2367.22,752.205 2370.63,753.445 2374.03,754.627 2377.44,755.75 2380.85,756.815 2384.25,757.82 2387.66,758.767 2391.07,759.655 2394.47,760.484 2397.88,761.256 2401.29,761.945 2404.69,762.547 2408.1,763.06 2411.51,763.485 2414.91,763.824 2418.32,764.053 2421.73,764.167 2425.13,764.166 2428.54,764.051 2431.95,763.822 2435.35,763.466 2438.76,762.977 2442.17,762.355 2445.57,761.599 2448.98,760.705 2452.39,759.671 2455.79,758.499 2459.2,757.187 2462.61,755.736 2466.01,754.142 2469.42,752.418 2472.83,750.565 2476.23,748.583 2479.64,746.472 2483.05,744.224 2486.45,741.862 2489.86,739.398 2493.27,736.83 2496.67,734.16 2500.08,731.387 2503.49,728.511 2506.89,725.525 2510.3,722.45 2513.71,719.307 2517.11,716.098 2520.52,712.82 2523.93,709.476 2527.33,706.064 2530.74,702.584 2534.15,699.029 2537.55,695.422 2540.96,691.783 2544.37,688.112 2547.77,684.408 2551.18,680.672 2554.59,676.904 2557.99,673.103 2561.4,669.27 2564.81,665.399 2568.21,661.505 2571.62,657.609 2575.03,653.709 2578.43,649.807 2581.84,645.901 2585.25,641.993 2588.65,638.081 2592.06,634.167 2595.47,630.249 2598.88,626.323 2602.28,622.405 2605.69,618.507 2609.1,614.628 2612.5,610.769 2615.91,606.928 2619.32,603.107 2622.72,599.305 2626.13,595.522 2629.54,591.758 2632.94,588.013 2636.35,584.283 2639.76,580.581 2643.16,576.913 2646.57,573.279 2649.98,569.68 2653.38,566.115 2656.79,562.584 2660.2,559.088 2663.6,555.626 2667.01,552.198 2670.42,548.805 2673.82,545.446 2677.23,542.119 2680.64,538.833 2684.04,535.59 2687.45,532.391 2690.86,529.236 2694.26,526.124 2697.67,523.056 2701.08,520.032 2704.48,517.051 2707.89,514.113 2711.3,511.219 2714.7,508.369 2718.11,505.562 2721.52,502.798 2724.92,500.082 2728.33,497.415 2731.74,494.796 2735.14,492.225 2738.55,489.703 2741.96,487.228 2745.36,484.802 2748.77,482.425 2752.18,480.095 2755.58,477.814 2758.99,475.581 2762.4,473.396 2765.8,471.26 2769.21,469.174 2772.62,467.137 2776.02,465.15 2779.43,463.213 2782.84,461.325 2786.24,459.487 2789.65,457.699 2793.06,455.96 2796.46,454.271 2799.87,452.632 2803.28,451.043 2806.68,449.503 2810.09,448.013 2813.5,446.574 2816.91,445.185 2820.31,443.844 2823.72,442.551 2827.13,441.308 2830.53,440.114 2833.94,438.968 2837.35,437.872 2840.75,436.824 2844.16,435.825 2847.57,434.875 2850.97,433.974 2854.38,433.122 2857.79,432.319 2861.19,431.567 2864.6,430.862 2868.01,430.202 2871.41,429.59 2874.82,429.024 2878.23,428.504 2881.63,428.031 2885.04,427.604 2888.45,427.224 2891.85,426.89 2895.26,426.603 2898.67,426.362 2902.07,426.168 2905.48,426.02 2908.89,425.922 2912.29,425.867 2915.7,425.856 2919.11,425.887 2922.51,425.961 2925.92,426.078 2929.33,426.239 2932.73,426.442 2936.14,426.688 2939.55,426.978 2942.95,427.31 2946.36,427.685 2949.77,428.104 2953.17,428.565 2956.58,429.072 2959.99,429.62 2963.39,430.208 2966.8,430.833 2970.21,431.498 2973.61,432.201 2977.02,432.943 2980.43,433.723 2983.83,434.542 2987.24,435.4 2990.65,436.296 2994.05,437.231 2997.46,438.204 3000.87,439.216 3004.27,440.267 3007.68,441.361 3011.09,442.488 3014.49,443.648 3017.9,444.842 3021.31,446.069 3024.71,447.33 3028.12,448.624 3031.53,449.951 3034.93,451.312 3038.34,452.706 3041.75,454.134 3045.16,455.595 3048.56,457.09 3051.97,458.617 3055.38,460.181 3058.78,461.779 3062.19,463.405 3065.6,465.057 3069,466.737 3072.41,468.444 3075.82,470.179 3079.22,471.94 3082.63,473.729 3086.04,475.545 3089.44,477.388 3092.85,479.258 3096.26,481.156 3099.66,483.081 3103.07,485.033 3106.48,487.015 3109.88,489.026 3113.29,491.057 3116.7,493.108 3120.1,495.18 3123.51,497.27 3126.92,499.381 3130.32,501.512 3133.73,503.663 3137.14,505.833 3140.54,508.024 3143.95,510.234 3147.36,512.464 3150.76,514.714 3154.17,516.984 3157.58,519.274 3160.98,521.59 3164.39,523.922 3167.8,526.264 3171.2,528.619 3174.61,530.984 3178.02,533.361 3181.42,535.75 3184.83,538.15 3188.24,540.561 3191.64,542.984 3195.05,545.418 3198.46,547.864 3201.86,550.321 3205.27,552.79 3208.68,555.27 3212.08,557.761 3215.49,560.271 3218.9,562.788 3222.3,565.308 3225.71,567.829 3229.12,570.354 3232.52,572.881 3235.93,575.41 3239.34,577.942 3242.74,580.476 3246.15,583.012 3249.56,585.551 3252.96,588.092 3256.37,590.636 3259.78,593.182 3263.18,595.731 3266.59,598.282 3270,600.835 3273.41,603.399 3276.81,605.958 3280.22,608.511 3283.63,611.058 3287.03,613.598 3290.44,616.132 3293.85,618.66 3297.25,621.181 3300.66,623.697 3304.07,626.205 3307.47,628.708 3310.88,631.204 3314.29,633.694 3317.69,636.177 3321.1,638.655 3324.51,641.125 3327.91,643.59 3331.32,646.048 3334.73,648.511 3338.13,650.959 3341.54,653.392 3344.95,655.81 3348.35,658.214 3351.76,660.603 3355.17,662.977 3358.57,665.336 3361.98,667.681 3365.39,670.011 3368.79,672.326 3372.2,674.627 3375.61,676.913 3379.01,679.184 3382.42,681.441 3385.83,683.683 3389.23,685.91 3392.64,688.122 3396.05,690.32 3399.45,692.503 3402.86,694.674 3406.27,696.829 3409.67,698.961 3413.08,701.071 3416.49,703.159 3419.89,705.225 3423.3,707.268 3426.71,709.288 3430.11,711.287 3433.52,713.263 3436.93,715.216 3440.33,717.148 3443.74,719.057 3447.15,720.945 3450.55,722.819 3453.96,724.661 3457.37,726.47 3460.77,728.245 3464.18,729.988 3467.59,731.698 3470.99,733.376 3474.4,735.02 3477.81,736.632 3481.21,738.21 3484.62,739.756 3488.03,741.269 3491.43,742.749 3494.84,744.21 3498.25,745.622 3501.66,746.981 3505.06,748.287 3508.47,749.539 3511.88,750.737 3515.28,751.881 3518.69,752.972 3522.1,754.009 3525.5,754.992 3528.91,755.925 3532.32,756.795 3535.72,757.583 3539.13,758.289 3542.54,758.913 3545.94,759.454 3549.35,759.913 3552.76,760.285 "/>
</svg>
