<?xml version="1.0" encoding="utf-8"?>
<svg xmlns="http://www.w3.org/2000/svg" xmlns:xlink="http://www.w3.org/1999/xlink" width="600" height="400" viewBox="0 0 2400 1600">
<defs>
  <clipPath id="clip120">
    <rect x="0" y="0" width="2400" height="1600"/>
  </clipPath>
</defs>
<path clip-path="url(#clip120)" d="M0 1600 L2400 1600 L2400 0 L0 0  Z" fill="#ffffff" fill-rule="evenodd" fill-opacity="1"/>
<defs>
  <clipPath id="clip121">
    <rect x="480" y="0" width="1681" height="1600"/>
  </clipPath>
</defs>
<path clip-path="url(#clip120)" d="M47.2441 1552.76 L2352.76 1552.76 L2352.76 47.2441 L47.2441 47.2441  Z" fill="#ffffff" fill-rule="evenodd" fill-opacity="1"/>
<defs>
  <clipPath id="clip122">
    <rect x="47" y="47" width="2307" height="1507"/>
  </clipPath>
</defs>
<polyline clip-path="url(#clip120)" style="stroke:#000000; stroke-linecap:round; stroke-linejoin:round; stroke-width:4; stroke-opacity:1; fill:none" points="47.2441,1552.76 2352.76,1552.76 "/>
<polyline clip-path="url(#clip120)" style="stroke:#000000; stroke-linecap:round; stroke-linejoin:round; stroke-width:4; stroke-opacity:1; fill:none" points="47.2441,47.2441 2352.76,47.2441 "/>
<polyline clip-path="url(#clip120)" style="stroke:#000000; stroke-linecap:round; stroke-linejoin:round; stroke-width:4; stroke-opacity:1; fill:none" points="47.2441,1552.76 47.2441,47.2441 "/>
<polyline clip-path="url(#clip120)" style="stroke:#000000; stroke-linecap:round; stroke-linejoin:round; stroke-width:4; stroke-opacity:1; fill:none" points="2352.76,1552.76 2352.76,47.2441 "/>
<polyline clip-path="url(#clip122)" style="stroke:#009af9; stroke-linecap:round; stroke-linejoin:round; stroke-width:52; stroke-opacity:0.8; fill:none" points="47.2441,1552.76 48.0027,1551.34 48.7614,1550.06 49.52,1548.9 50.2787,1547.84 51.0373,1546.89 51.7959,1546.03 52.5546,1545.24 53.3132,1544.53 54.0719,1543.89 54.8305,1543.31 55.5892,1542.78 56.3478,1542.3 57.1064,1541.87 57.8651,1541.47 58.6237,1541.11 59.3824,1540.79 60.141,1540.5 60.8996,1540.23 61.6583,1539.99 62.4169,1539.77 63.1756,1539.57 63.9342,1539.39 64.6929,1539.22 65.4515,1539.07 66.2101,1538.94 66.9688,1538.82 67.7274,1538.7 68.4861,1538.6 69.2447,1538.51 70.0033,1538.43 70.762,1538.35 71.5206,1538.28 72.2793,1538.21 73.0379,1538.15 73.7966,1538.1 74.5552,1538.05 75.3138,1538.01 76.0725,1537.97 76.8311,1537.93 77.5898,1537.89 78.3484,1537.86 79.107,1537.83 79.8657,1537.81 80.6243,1537.78 81.383,1537.76 82.1416,1537.74 82.9002,1537.72 83.6589,1537.7 84.4175,1537.68 85.1762,1537.66 85.9348,1537.65 86.6935,1537.64 87.4521,1537.62 88.2107,1537.61 88.9694,1537.6 89.728,1537.59 90.4867,1537.58 91.2453,1537.57 92.0039,1537.56 92.7626,1537.55 93.5212,1537.54 94.2799,1537.53 95.0385,1537.52 95.7972,1537.52 96.5558,1537.51 97.3144,1537.5 98.0731,1537.49 98.8317,1537.49 99.5904,1537.48 100.349,1537.47 101.108,1537.47 101.866,1537.46 102.625,1537.45 103.384,1537.45 104.142,1537.44 104.901,1537.44 105.659,1537.43 106.418,1537.43 107.177,1537.42 107.935,1537.41 108.694,1537.41 109.453,1537.4 110.211,1537.4 110.97,1537.39 111.729,1537.39 112.487,1537.38 113.246,1537.38 114.005,1537.37 114.763,1537.36 115.522,1537.36 116.28,1537.35 117.039,1537.35 117.798,1537.34 118.556,1537.34 119.315,1537.33 120.074,1537.33 120.832,1537.32 121.591,1537.32 122.35,1537.31 123.108,1537.31 123.867,1537.3 124.626,1537.3 125.384,1537.29 126.143,1537.29 126.901,1537.28 127.66,1537.28 128.419,1537.27 129.177,1537.27 129.936,1537.26 130.695,1537.25 131.453,1537.25 132.212,1537.24 132.971,1537.24 133.729,1537.23 134.488,1537.23 135.247,1537.22 136.005,1537.22 136.764,1537.21 137.522,1537.21 138.281,1537.2 139.04,1537.2 139.798,1537.19 140.557,1537.19 141.316,1537.18 142.074,1537.18 142.833,1537.17 143.592,1537.16 144.35,1537.16 145.109,1537.15 145.868,1537.15 146.626,1537.14 147.385,1537.14 148.143,1537.13 148.902,1537.13 149.661,1537.12 150.419,1537.12 151.178,1537.11 151.937,1537.11 152.695,1537.1 153.454,1537.09 154.213,1537.09 154.971,1537.08 155.73,1537.08 156.488,1537.07 157.247,1537.07 158.006,1537.06 158.764,1537.06 159.523,1537.05 160.282,1537.05 161.04,1537.04 161.799,1537.03 162.558,1537.03 163.316,1537.02 164.075,1537.02 164.834,1537.01 165.592,1537.01 166.351,1537 167.109,1537 167.868,1536.99 168.627,1536.98 169.385,1536.98 170.144,1536.97 170.903,1536.97 171.661,1536.96 172.42,1536.96 173.179,1536.95 173.937,1536.94 174.696,1536.94 175.455,1536.93 176.213,1536.93 176.972,1536.92 177.73,1536.92 178.489,1536.91 179.248,1536.9 180.006,1536.9 180.765,1536.89 181.524,1536.89 182.282,1536.88 183.041,1536.88 183.8,1536.87 184.558,1536.86 185.317,1536.86 186.076,1536.85 186.834,1536.85 187.593,1536.84 188.351,1536.84 189.11,1536.83 189.869,1536.82 190.627,1536.82 191.386,1536.81 192.145,1536.81 192.903,1536.8 193.662,1536.8 194.421,1536.79 195.179,1536.78 195.938,1536.78 196.696,1536.77 197.455,1536.77 198.214,1536.76 198.972,1536.75 199.731,1536.75 200.49,1536.74 201.248,1536.74 202.007,1536.73 202.766,1536.72 203.524,1536.72 204.283,1536.71 205.042,1536.71 205.8,1536.7 206.559,1536.69 207.317,1536.69 208.076,1536.68 208.835,1536.68 209.593,1536.67 210.352,1536.66 211.111,1536.66 211.869,1536.65 212.628,1536.65 213.387,1536.64 214.145,1536.63 214.904,1536.63 215.663,1536.62 216.421,1536.62 217.18,1536.61 217.938,1536.6 218.697,1536.6 219.456,1536.59 220.214,1536.58 220.973,1536.58 221.732,1536.57 222.49,1536.57 223.249,1536.56 224.008,1536.55 224.766,1536.55 225.525,1536.54 226.284,1536.54 227.042,1536.53 227.801,1536.52 228.559,1536.52 229.318,1536.51 230.077,1536.5 230.835,1536.5 231.594,1536.49 232.353,1536.49 233.111,1536.48 233.87,1536.47 234.629,1536.47 235.387,1536.46 236.146,1536.45 236.904,1536.45 237.663,1536.44 238.422,1536.43 239.18,1536.43 239.939,1536.42 240.698,1536.42 241.456,1536.41 242.215,1536.4 242.974,1536.4 243.732,1536.39 244.491,1536.38 245.25,1536.38 246.008,1536.37 246.767,1536.36 247.525,1536.36 248.284,1536.35 249.043,1536.34 249.801,1536.34 250.56,1536.33 251.319,1536.32 252.077,1536.32 252.836,1536.31 253.595,1536.3 254.353,1536.3 255.112,1536.29 255.871,1536.29 256.629,1536.28 257.388,1536.27 258.146,1536.27 258.905,1536.26 259.664,1536.25 260.422,1536.25 261.181,1536.24 261.94,1536.23 262.698,1536.23 263.457,1536.22 264.216,1536.21 264.974,1536.21 265.733,1536.2 266.492,1536.19 267.25,1536.19 268.009,1536.18 268.767,1536.17 269.526,1536.16 270.285,1536.16 271.043,1536.15 271.802,1536.14 272.561,1536.14 273.319,1536.13 274.078,1536.12 274.837,1536.12 275.595,1536.11 276.354,1536.1 277.112,1536.1 277.871,1536.09 278.63,1536.08 279.388,1536.08 280.147,1536.07 280.906,1536.06 281.664,1536.05 282.423,1536.05 283.182,1536.04 283.94,1536.03 284.699,1536.03 285.458,1536.02 286.216,1536.01 286.975,1536.01 287.733,1536 288.492,1535.99 289.251,1535.98 290.009,1535.98 290.768,1535.97 291.527,1535.96 292.285,1535.96 293.044,1535.95 293.803,1535.94 294.561,1535.93 295.32,1535.93 296.079,1535.92 296.837,1535.91 297.596,1535.91 298.354,1535.9 299.113,1535.89 299.872,1535.88 300.63,1535.88 301.389,1535.87 302.148,1535.86 302.906,1535.86 303.665,1535.85 304.424,1535.84 305.182,1535.83 305.941,1535.83 306.7,1535.82 307.458,1535.81 308.217,1535.8 308.975,1535.8 309.734,1535.79 310.493,1535.78 311.251,1535.77 312.01,1535.77 312.769,1535.76 313.527,1535.75 314.286,1535.74 315.045,1535.74 315.803,1535.73 316.562,1535.72 317.321,1535.71 318.079,1535.71 318.838,1535.7 319.596,1535.69 320.355,1535.68 321.114,1535.68 321.872,1535.67 322.631,1535.66 323.39,1535.65 324.148,1535.65 324.907,1535.64 325.666,1535.63 326.424,1535.62 327.183,1535.61 327.941,1535.61 328.7,1535.6 329.459,1535.59 330.217,1535.58 330.976,1535.58 331.735,1535.57 332.493,1535.56 333.252,1535.55 334.011,1535.54 334.769,1535.54 335.528,1535.53 336.287,1535.52 337.045,1535.51 337.804,1535.51 338.562,1535.5 339.321,1535.49 340.08,1535.48 340.838,1535.47 341.597,1535.47 342.356,1535.46 343.114,1535.45 343.873,1535.44 344.632,1535.43 345.39,1535.43 346.149,1535.42 346.908,1535.41 347.666,1535.4 348.425,1535.39 349.183,1535.39 349.942,1535.38 350.701,1535.37 351.459,1535.36 352.218,1535.35 352.977,1535.34 353.735,1535.34 354.494,1535.33 355.253,1535.32 356.011,1535.31 356.77,1535.3 357.529,1535.3 358.287,1535.29 359.046,1535.28 359.804,1535.27 360.563,1535.26 361.322,1535.25 362.08,1535.25 362.839,1535.24 363.598,1535.23 364.356,1535.22 365.115,1535.21 365.874,1535.2 366.632,1535.19 367.391,1535.19 368.149,1535.18 368.908,1535.17 369.667,1535.16 370.425,1535.15 371.184,1535.14 371.943,1535.13 372.701,1535.13 373.46,1535.12 374.219,1535.11 374.977,1535.1 375.736,1535.09 376.495,1535.08 377.253,1535.07 378.012,1535.07 378.77,1535.06 379.529,1535.05 380.288,1535.04 381.046,1535.03 381.805,1535.02 382.564,1535.01 383.322,1535 384.081,1534.99 384.84,1534.99 385.598,1534.98 386.357,1534.97 387.116,1534.96 387.874,1534.95 388.633,1534.94 389.391,1534.93 390.15,1534.92 390.909,1534.91 391.667,1534.9 392.426,1534.9 393.185,1534.89 393.943,1534.88 394.702,1534.87 395.461,1534.86 396.219,1534.85 396.978,1534.84 397.737,1534.83 398.495,1534.82 399.254,1534.81 400.012,1534.8 400.771,1534.79 401.53,1534.79 402.288,1534.78 403.047,1534.77 403.806,1534.76 404.564,1534.75 405.323,1534.74 406.082,1534.73 406.84,1534.72 407.599,1534.71 408.357,1534.7 409.116,1534.69 409.875,1534.68 410.633,1534.67 411.392,1534.66 412.151,1534.65 412.909,1534.64 413.668,1534.63 414.427,1534.62 415.185,1534.61 415.944,1534.61 416.703,1534.6 417.461,1534.59 418.22,1534.58 418.978,1534.57 419.737,1534.56 420.496,1534.55 421.254,1534.54 422.013,1534.53 422.772,1534.52 423.53,1534.51 424.289,1534.5 425.048,1534.49 425.806,1534.48 426.565,1534.47 427.324,1534.46 428.082,1534.45 428.841,1534.44 429.599,1534.43 430.358,1534.42 431.117,1534.41 431.875,1534.4 432.634,1534.39 433.393,1534.38 434.151,1534.37 434.91,1534.36 435.669,1534.35 436.427,1534.34 437.186,1534.33 437.945,1534.31 438.703,1534.3 439.462,1534.29 440.22,1534.28 440.979,1534.27 441.738,1534.26 442.496,1534.25 443.255,1534.24 444.014,1534.23 444.772,1534.22 445.531,1534.21 446.29,1534.2 447.048,1534.19 447.807,1534.18 448.565,1534.17 449.324,1534.16 450.083,1534.15 450.841,1534.14 451.6,1534.13 452.359,1534.11 453.117,1534.1 453.876,1534.09 454.635,1534.08 455.393,1534.07 456.152,1534.06 456.911,1534.05 457.669,1534.04 458.428,1534.03 459.186,1534.02 459.945,1534 460.704,1533.99 461.462,1533.98 462.221,1533.97 462.98,1533.96 463.738,1533.95 464.497,1533.94 465.256,1533.93 466.014,1533.92 466.773,1533.9 467.532,1533.89 468.29,1533.88 469.049,1533.87 469.807,1533.86 470.566,1533.85 471.325,1533.84 472.083,1533.82 472.842,1533.81 473.601,1533.8 474.359,1533.79 475.118,1533.78 475.877,1533.77 476.635,1533.75 477.394,1533.74 478.153,1533.73 478.911,1533.72 479.67,1533.71 480.428,1533.7 481.187,1533.68 481.946,1533.67 482.704,1533.66 483.463,1533.65 484.222,1533.64 484.98,1533.62 485.739,1533.61 486.498,1533.6 487.256,1533.59 488.015,1533.58 488.774,1533.56 489.532,1533.55 490.291,1533.54 491.049,1533.53 491.808,1533.52 492.567,1533.5 493.325,1533.49 494.084,1533.48 494.843,1533.47 495.601,1533.45 496.36,1533.44 497.119,1533.43 497.877,1533.42 498.636,1533.4 499.394,1533.39 500.153,1533.38 500.912,1533.36 501.67,1533.35 502.429,1533.34 503.188,1533.33 503.946,1533.31 504.705,1533.3 505.464,1533.29 506.222,1533.27 506.981,1533.26 507.74,1533.25 508.498,1533.24 509.257,1533.22 510.015,1533.21 510.774,1533.2 511.533,1533.18 512.291,1533.17 513.05,1533.16 513.809,1533.14 514.567,1533.13 515.326,1533.12 516.085,1533.1 516.843,1533.09 517.602,1533.08 518.361,1533.06 519.119,1533.05 519.878,1533.03 520.636,1533.02 521.395,1533.01 522.154,1532.99 522.912,1532.98 523.671,1532.97 524.43,1532.95 525.188,1532.94 525.947,1532.92 526.706,1532.91 527.464,1532.9 528.223,1532.88 528.982,1532.87 529.74,1532.85 530.499,1532.84 531.257,1532.83 532.016,1532.81 532.775,1532.8 533.533,1532.78 534.292,1532.77 535.051,1532.75 535.809,1532.74 536.568,1532.72 537.327,1532.71 538.085,1532.7 538.844,1532.68 539.602,1532.67 540.361,1532.65 541.12,1532.64 541.878,1532.62 542.637,1532.61 543.396,1532.59 544.154,1532.58 544.913,1532.56 545.672,1532.55 546.43,1532.53 547.189,1532.52 547.948,1532.5 548.706,1532.48 549.465,1532.47 550.223,1532.45 550.982,1532.44 551.741,1532.42 552.499,1532.41 553.258,1532.39 554.017,1532.38 554.775,1532.36 555.534,1532.34 556.293,1532.33 557.051,1532.31 557.81,1532.3 558.569,1532.28 559.327,1532.26 560.086,1532.25 560.844,1532.23 561.603,1532.21 562.362,1532.2 563.12,1532.18 563.879,1532.17 564.638,1532.15 565.396,1532.13 566.155,1532.12 566.914,1532.1 567.672,1532.08 568.431,1532.07 569.19,1532.05 569.948,1532.03 570.707,1532.02 571.465,1532 572.224,1531.98 572.983,1531.96 573.741,1531.95 574.5,1531.93 575.259,1531.91 576.017,1531.89 576.776,1531.88 577.535,1531.86 578.293,1531.84 579.052,1531.82 579.81,1531.81 580.569,1531.79 581.328,1531.77 582.086,1531.75 582.845,1531.73 583.604,1531.71 584.362,1531.7 585.121,1531.68 585.88,1531.66 586.638,1531.64 587.397,1531.62 588.156,1531.6 588.914,1531.58 589.673,1531.57 590.431,1531.55 591.19,1531.53 591.949,1531.51 592.707,1531.49 593.466,1531.47 594.225,1531.45 594.983,1531.43 595.742,1531.41 596.501,1531.39 597.259,1531.37 598.018,1531.35 598.777,1531.33 599.535,1531.31 600.294,1531.29 601.052,1531.27 601.811,1531.25 602.57,1531.23 603.328,1531.21 604.087,1531.19 604.846,1531.17 605.604,1531.15 606.363,1531.13 607.122,1531.11 607.88,1531.09 608.639,1531.07 609.398,1531.05 610.156,1531.03 610.915,1531.01 611.673,1530.99 612.432,1530.97 613.191,1530.94 613.949,1530.92 614.708,1530.9 615.467,1530.88 616.225,1530.86 616.984,1530.84 617.743,1530.81 618.501,1530.79 619.26,1530.77 620.018,1530.75 620.777,1530.73 621.536,1530.7 622.294,1530.68 623.053,1530.66 623.812,1530.63 624.57,1530.61 625.329,1530.59 626.088,1530.57 626.846,1530.54 627.605,1530.52 628.364,1530.49 629.122,1530.47 629.881,1530.45 630.639,1530.42 631.398,1530.4 632.157,1530.38 632.915,1530.35 633.674,1530.33 634.433,1530.3 635.191,1530.28 635.95,1530.25 636.709,1530.23 637.467,1530.2 638.226,1530.18 638.985,1530.15 639.743,1530.13 640.502,1530.1 641.26,1530.08 642.019,1530.05 642.778,1530.03 643.536,1530 644.295,1529.97 645.054,1529.95 645.812,1529.92 646.571,1529.9 647.33,1529.87 648.088,1529.84 648.847,1529.82 649.606,1529.79 650.364,1529.76 651.123,1529.73 651.881,1529.71 652.64,1529.68 653.399,1529.65 654.157,1529.62 654.916,1529.59 655.675,1529.56 656.433,1529.54 657.192,1529.51 657.951,1529.48 658.709,1529.45 659.468,1529.42 660.227,1529.39 660.985,1529.36 661.744,1529.33 662.502,1529.3 663.261,1529.27 664.02,1529.24 664.778,1529.21 665.537,1529.18 666.296,1529.15 667.054,1529.12 667.813,1529.08 668.572,1529.05 669.33,1529.02 670.089,1528.99 670.847,1528.96 671.606,1528.93 672.365,1528.89 673.123,1528.86 673.882,1528.83 674.641,1528.79 675.399,1528.76 676.158,1528.73 676.917,1528.69 677.675,1528.66 678.434,1528.63 679.193,1528.59 679.951,1528.56 680.71,1528.52 681.468,1528.48 682.227,1528.45 682.986,1528.41 683.744,1528.38 684.503,1528.34 685.262,1528.3 686.02,1528.27 686.779,1528.23 687.538,1528.19 688.296,1528.15 689.055,1528.11 689.814,1528.07 690.572,1528.04 691.331,1528 692.089,1527.96 692.848,1527.92 693.607,1527.88 694.365,1527.84 695.124,1527.8 695.883,1527.76 696.641,1527.71 697.4,1527.67 698.159,1527.63 698.917,1527.59 699.676,1527.55 700.435,1527.5 701.193,1527.46 701.952,1527.42 702.71,1527.37 703.469,1527.33 704.228,1527.28 704.986,1527.24 705.745,1527.19 706.504,1527.15 707.262,1527.1 708.021,1527.05 708.78,1527 709.538,1526.96 710.297,1526.91 711.055,1526.86 711.814,1526.81 712.573,1526.76 713.331,1526.71 714.09,1526.65 714.849,1526.6 715.607,1526.55 716.366,1526.5 717.125,1526.44 717.883,1526.39 718.642,1526.34 719.401,1526.28 720.159,1526.23 720.918,1526.17 721.676,1526.12 722.435,1526.06 723.194,1526 723.952,1525.94 724.711,1525.89 725.47,1525.83 726.228,1525.77 726.987,1525.7 727.746,1525.64 728.504,1525.58 729.263,1525.52 730.022,1525.45 730.78,1525.38 731.539,1525.32 732.297,1525.25 733.056,1525.18 733.815,1525.11 734.573,1525.04 735.332,1524.97 736.091,1524.9 736.849,1524.83 737.608,1524.76 738.367,1524.68 739.125,1524.61 739.884,1524.53 740.643,1524.45 741.401,1524.38 742.16,1524.3 742.918,1524.22 743.677,1524.14 744.436,1524.06 745.194,1523.97 745.953,1523.89 746.712,1523.8 747.47,1523.71 748.229,1523.62 748.988,1523.53 749.746,1523.43 750.505,1523.34 751.263,1523.24 752.022,1523.14 752.781,1523.04 753.539,1522.94 754.298,1522.83 755.057,1522.73 755.815,1522.62 756.574,1522.51 757.333,1522.4 758.091,1522.28 758.85,1522.17 759.609,1522.06 760.367,1521.94 761.126,1521.82 761.884,1521.7 762.643,1521.57 763.402,1521.44 764.16,1521.3 764.919,1521.16 765.678,1521.02 766.436,1520.88 767.195,1520.73 767.954,1520.57 768.712,1520.42 769.471,1520.26 770.23,1520.1 770.988,1519.93 771.747,1519.76 772.505,1519.58 773.264,1519.41 774.023,1519.23 774.781,1519.05 775.54,1518.86 776.299,1518.66 777.057,1518.46 777.816,1518.24 778.575,1518.02 779.333,1517.79 780.092,1517.55 780.851,1517.3 781.609,1517.05 782.368,1516.78 783.126,1516.51 783.885,1516.23 784.644,1515.94 785.402,1515.64 786.161,1515.33 786.92,1515.03 787.678,1514.71 788.437,1514.37 789.196,1514.01 789.954,1513.62 790.713,1513.21 791.472,1512.78 792.23,1512.33 792.989,1511.85 793.747,1511.34 794.506,1510.82 795.265,1510.27 796.023,1509.7 796.782,1509.1 797.541,1508.5 798.299,1507.85 799.058,1507.12 799.817,1506.33 800.575,1505.47 801.334,1504.55 802.092,1503.55 802.851,1502.48 803.61,1501.35 804.368,1500.14 805.127,1498.81 805.886,1497.32 806.644,1495.67 807.403,1493.89 808.162,1491.91 808.92,1489.62 809.679,1487.02 810.438,1484.13 811.196,1480.95 811.955,1477.02 812.713,1472.32 813.472,1466.88 814.231,1460.53 814.989,1452.31 815.748,1442.14 816.507,1429.02 817.265,1411.41 818.024,1386.65 818.783,1350.41 819.541,1293.36 820.3,1197.22 821.059,1030.29 821.817,795.736 822.576,631.743 823.334,589.842 824.093,594.731 824.852,610.059 825.61,627.289 826.369,644.676 827.128,661.842 827.886,678.713 828.645,695.277 829.404,711.537 830.162,727.495 830.921,743.162 831.68,758.538 832.438,773.635 833.197,788.452 833.955,803.002 834.714,817.286 835.473,831.31 836.231,845.083 836.99,858.603 837.749,871.883 838.507,884.923 839.266,897.73 840.025,910.312 840.783,922.665 841.542,934.803 842.3,946.728 843.059,958.44 843.818,969.951 844.576,981.261 845.335,992.373 846.094,1003.3 846.852,1014.03 847.611,1024.58 848.37,1034.95 849.128,1045.15 849.887,1055.18 850.646,1065.04 851.404,1074.73 852.163,1084.26 852.921,1093.64 853.68,1102.87 854.439,1111.95 855.197,1120.88 855.956,1129.68 856.715,1138.33 857.473,1146.84 858.232,1155.23 858.991,1163.49 859.749,1171.62 860.508,1179.63 861.267,1187.52 862.025,1195.29 862.784,1202.95 863.542,1210.5 864.301,1217.94 865.06,1225.28 865.818,1232.51 866.577,1239.65 867.336,1246.69 868.094,1253.63 868.853,1260.47 869.612,1267.24 870.37,1273.91 871.129,1280.5 871.888,1287 872.646,1293.42 873.405,1299.77 874.163,1306.04 874.922,1312.22 875.681,1318.33 876.439,1324.38 877.198,1330.35 877.957,1336.24 878.715,1342.07 879.474,1347.83 880.233,1353.51 880.991,1359.13 881.75,1364.69 882.508,1370.17 883.267,1375.58 884.026,1380.92 884.784,1386.19 885.543,1391.4 886.302,1396.53 887.06,1401.59 887.819,1406.56 888.578,1411.46 889.336,1416.28 890.095,1421.02 890.854,1425.69 891.612,1430.28 892.371,1434.77 893.129,1439.15 893.888,1443.44 894.647,1447.63 895.405,1451.72 896.164,1455.7 896.923,1459.59 897.681,1463.37 898.44,1467.04 899.199,1470.58 899.957,1474.01 900.716,1477.32 901.475,1480.51 902.233,1483.58 902.992,1486.54 903.75,1489.37 904.509,1492.09 905.268,1494.69 906.026,1497.18 906.785,1499.54 907.544,1501.79 908.302,1503.92 909.061,1505.95 909.82,1507.87 910.578,1509.7 911.337,1511.42 912.096,1513.03 912.854,1514.56 913.613,1516 914.371,1517.36 915.13,1518.63 915.889,1519.83 916.647,1520.94 917.406,1521.98 918.165,1522.96 918.923,1523.88 919.682,1524.74 920.441,1525.54 921.199,1526.28 921.958,1526.97 922.716,1527.61 923.475,1528.22 924.234,1528.78 924.992,1529.3 925.751,1529.78 926.51,1530.22 927.268,1530.64 928.027,1531.03 928.786,1531.39 929.544,1531.72 930.303,1532.02 931.062,1532.31 931.82,1532.57 932.579,1532.81 933.337,1533.04 934.096,1533.25 934.855,1533.44 935.613,1533.62 936.372,1533.78 937.131,1533.93 937.889,1534.07 938.648,1534.2 939.407,1534.32 940.165,1534.43 940.924,1534.53 941.683,1534.62 942.441,1534.71 943.2,1534.79 943.958,1534.86 944.717,1534.93 945.476,1534.99 946.234,1535.04 946.993,1535.09 947.752,1535.14 948.51,1535.18 949.269,1535.22 950.028,1535.26 950.786,1535.29 951.545,1535.32 952.304,1535.35 953.062,1535.37 953.821,1535.39 954.579,1535.41 955.338,1535.43 956.097,1535.45 956.855,1535.46 957.614,1535.47 958.373,1535.48 959.131,1535.49 959.89,1535.5 960.649,1535.51 961.407,1535.51 962.166,1535.52 962.925,1535.52 963.683,1535.52 964.442,1535.53 965.2,1535.53 965.959,1535.53 966.718,1535.53 967.476,1535.53 968.235,1535.53 968.994,1535.53 969.752,1535.53 970.511,1535.52 971.27,1535.52 972.028,1535.52 972.787,1535.51 973.545,1535.51 974.304,1535.51 975.063,1535.5 975.821,1535.5 976.58,1535.49 977.339,1535.49 978.097,1535.48 978.856,1535.48 979.615,1535.47 980.373,1535.46 981.132,1535.46 981.891,1535.45 982.649,1535.45 983.408,1535.44 984.166,1535.43 984.925,1535.42 985.684,1535.42 986.442,1535.41 987.201,1535.4 987.96,1535.4 988.718,1535.39 989.477,1535.38 990.236,1535.38 990.994,1535.37 991.753,1535.36 992.512,1535.35 993.27,1535.35 994.029,1535.34 994.787,1535.33 995.546,1535.32 996.305,1535.31 997.063,1535.31 997.822,1535.3 998.581,1535.29 999.339,1535.28 1000.1,1535.27 1000.86,1535.27 1001.62,1535.26 1002.37,1535.25 1003.13,1535.24 1003.89,1535.23 1004.65,1535.22 1005.41,1535.22 1006.17,1535.21 1006.93,1535.2 1007.68,1535.19 1008.44,1535.18 1009.2,1535.17 1009.96,1535.17 1010.72,1535.16 1011.48,1535.15 1012.24,1535.14 1012.99,1535.13 1013.75,1535.12 1014.51,1535.12 1015.27,1535.11 1016.03,1535.1 1016.79,1535.09 1017.55,1535.08 1018.31,1535.07 1019.06,1535.06 1019.82,1535.05 1020.58,1535.05 1021.34,1535.04 1022.1,1535.03 1022.86,1535.02 1023.62,1535.01 1024.37,1535 1025.13,1534.99 1025.89,1534.98 1026.65,1534.98 1027.41,1534.97 1028.17,1534.96 1028.93,1534.95 1029.68,1534.94 1030.44,1534.93 1031.2,1534.92 1031.96,1534.91 1032.72,1534.9 1033.48,1534.9 1034.24,1534.89 1035,1534.88 1035.75,1534.87 1036.51,1534.86 1037.27,1534.85 1038.03,1534.84 1038.79,1534.83 1039.55,1534.82 1040.31,1534.81 1041.06,1534.8 1041.82,1534.79 1042.58,1534.78 1043.34,1534.78 1044.1,1534.77 1044.86,1534.76 1045.62,1534.75 1046.38,1534.74 1047.13,1534.73 1047.89,1534.72 1048.65,1534.71 1049.41,1534.7 1050.17,1534.69 1050.93,1534.68 1051.69,1534.67 1052.44,1534.66 1053.2,1534.65 1053.96,1534.64 1054.72,1534.63 1055.48,1534.62 1056.24,1534.61 1057,1534.6 1057.75,1534.59 1058.51,1534.59 1059.27,1534.58 1060.03,1534.57 1060.79,1534.56 1061.55,1534.55 1062.31,1534.54 1063.07,1534.53 1063.82,1534.52 1064.58,1534.51 1065.34,1534.5 1066.1,1534.49 1066.86,1534.48 1067.62,1534.47 1068.38,1534.46 1069.13,1534.45 1069.89,1534.44 1070.65,1534.43 1071.41,1534.42 1072.17,1534.41 1072.93,1534.4 1073.69,1534.39 1074.44,1534.38 1075.2,1534.37 1075.96,1534.36 1076.72,1534.35 1077.48,1534.33 1078.24,1534.32 1079,1534.31 1079.76,1534.3 1080.51,1534.29 1081.27,1534.28 1082.03,1534.27 1082.79,1534.26 1083.55,1534.25 1084.31,1534.24 1085.07,1534.23 1085.82,1534.22 1086.58,1534.21 1087.34,1534.2 1088.1,1534.19 1088.86,1534.18 1089.62,1534.17 1090.38,1534.16 1091.13,1534.15 1091.89,1534.14 1092.65,1534.12 1093.41,1534.11 1094.17,1534.1 1094.93,1534.09 1095.69,1534.08 1096.45,1534.07 1097.2,1534.06 1097.96,1534.05 1098.72,1534.04 1099.48,1534.03 1100.24,1534.02 1101,1534 1101.76,1533.99 1102.51,1533.98 1103.27,1533.97 1104.03,1533.96 1104.79,1533.95 1105.55,1533.94 1106.31,1533.93 1107.07,1533.92 1107.83,1533.9 1108.58,1533.89 1109.34,1533.88 1110.1,1533.87 1110.86,1533.86 1111.62,1533.85 1112.38,1533.84 1113.14,1533.82 1113.89,1533.81 1114.65,1533.8 1115.41,1533.79 1116.17,1533.78 1116.93,1533.77 1117.69,1533.75 1118.45,1533.74 1119.2,1533.73 1119.96,1533.72 1120.72,1533.71 1121.48,1533.7 1122.24,1533.68 1123,1533.67 1123.76,1533.66 1124.52,1533.65 1125.27,1533.64 1126.03,1533.62 1126.79,1533.61 1127.55,1533.6 1128.31,1533.59 1129.07,1533.58 1129.83,1533.56 1130.58,1533.55 1131.34,1533.54 1132.1,1533.53 1132.86,1533.51 1133.62,1533.5 1134.38,1533.49 1135.14,1533.48 1135.89,1533.46 1136.65,1533.45 1137.41,1533.44 1138.17,1533.43 1138.93,1533.41 1139.69,1533.4 1140.45,1533.39 1141.21,1533.38 1141.96,1533.36 1142.72,1533.35 1143.48,1533.34 1144.24,1533.33 1145,1533.31 1145.76,1533.3 1146.52,1533.29 1147.27,1533.27 1148.03,1533.26 1148.79,1533.25 1149.55,1533.23 1150.31,1533.22 1151.07,1533.21 1151.83,1533.2 1152.58,1533.18 1153.34,1533.17 1154.1,1533.16 1154.86,1533.14 1155.62,1533.13 1156.38,1533.12 1157.14,1533.1 1157.9,1533.09 1158.65,1533.08 1159.41,1533.06 1160.17,1533.05 1160.93,1533.03 1161.69,1533.02 1162.45,1533.01 1163.21,1532.99 1163.96,1532.98 1164.72,1532.97 1165.48,1532.95 1166.24,1532.94 1167,1532.92 1167.76,1532.91 1168.52,1532.9 1169.28,1532.88 1170.03,1532.87 1170.79,1532.85 1171.55,1532.84 1172.31,1532.82 1173.07,1532.81 1173.83,1532.8 1174.59,1532.78 1175.34,1532.77 1176.1,1532.75 1176.86,1532.74 1177.62,1532.72 1178.38,1532.71 1179.14,1532.69 1179.9,1532.68 1180.65,1532.66 1181.41,1532.65 1182.17,1532.63 1182.93,1532.62 1183.69,1532.6 1184.45,1532.59 1185.21,1532.57 1185.97,1532.56 1186.72,1532.54 1187.48,1532.53 1188.24,1532.51 1189,1532.5 1189.76,1532.48 1190.52,1532.47 1191.28,1532.45 1192.03,1532.44 1192.79,1532.42 1193.55,1532.41 1194.31,1532.39 1195.07,1532.37 1195.83,1532.36 1196.59,1532.34 1197.34,1532.33 1198.1,1532.31 1198.86,1532.29 1199.62,1532.28 1200.38,1532.26 1201.14,1532.25 1201.9,1532.23 1202.66,1532.21 1203.41,1532.2 1204.17,1532.18 1204.93,1532.16 1205.69,1532.15 1206.45,1532.13 1207.21,1532.11 1207.97,1532.1 1208.72,1532.08 1209.48,1532.06 1210.24,1532.05 1211,1532.03 1211.76,1532.01 1212.52,1532 1213.28,1531.98 1214.03,1531.96 1214.79,1531.94 1215.55,1531.93 1216.31,1531.91 1217.07,1531.89 1217.83,1531.88 1218.59,1531.86 1219.35,1531.84 1220.1,1531.82 1220.86,1531.8 1221.62,1531.79 1222.38,1531.77 1223.14,1531.75 1223.9,1531.73 1224.66,1531.72 1225.41,1531.7 1226.17,1531.68 1226.93,1531.66 1227.69,1531.64 1228.45,1531.62 1229.21,1531.61 1229.97,1531.59 1230.72,1531.57 1231.48,1531.55 1232.24,1531.53 1233,1531.51 1233.76,1531.49 1234.52,1531.47 1235.28,1531.45 1236.04,1531.44 1236.79,1531.42 1237.55,1531.4 1238.31,1531.38 1239.07,1531.36 1239.83,1531.34 1240.59,1531.32 1241.35,1531.3 1242.1,1531.28 1242.86,1531.26 1243.62,1531.24 1244.38,1531.22 1245.14,1531.2 1245.9,1531.18 1246.66,1531.16 1247.42,1531.14 1248.17,1531.12 1248.93,1531.1 1249.69,1531.07 1250.45,1531.05 1251.21,1531.03 1251.97,1531.01 1252.73,1530.99 1253.48,1530.97 1254.24,1530.95 1255,1530.93 1255.76,1530.91 1256.52,1530.89 1257.28,1530.86 1258.04,1530.84 1258.79,1530.82 1259.55,1530.8 1260.31,1530.78 1261.07,1530.75 1261.83,1530.73 1262.59,1530.71 1263.35,1530.69 1264.11,1530.67 1264.86,1530.64 1265.62,1530.62 1266.38,1530.6 1267.14,1530.57 1267.9,1530.55 1268.66,1530.53 1269.42,1530.5 1270.17,1530.48 1270.93,1530.46 1271.69,1530.43 1272.45,1530.41 1273.21,1530.39 1273.97,1530.36 1274.73,1530.34 1275.48,1530.31 1276.24,1530.29 1277,1530.26 1277.76,1530.24 1278.52,1530.21 1279.28,1530.19 1280.04,1530.16 1280.8,1530.14 1281.55,1530.11 1282.31,1530.09 1283.07,1530.06 1283.83,1530.04 1284.59,1530.01 1285.35,1529.99 1286.11,1529.96 1286.86,1529.93 1287.62,1529.91 1288.38,1529.88 1289.14,1529.85 1289.9,1529.83 1290.66,1529.8 1291.42,1529.77 1292.17,1529.75 1292.93,1529.72 1293.69,1529.69 1294.45,1529.66 1295.21,1529.63 1295.97,1529.61 1296.73,1529.58 1297.49,1529.55 1298.24,1529.52 1299,1529.49 1299.76,1529.46 1300.52,1529.43 1301.28,1529.4 1302.04,1529.37 1302.8,1529.34 1303.55,1529.31 1304.31,1529.28 1305.07,1529.25 1305.83,1529.22 1306.59,1529.19 1307.35,1529.16 1308.11,1529.13 1308.87,1529.1 1309.62,1529.07 1310.38,1529.03 1311.14,1529 1311.9,1528.97 1312.66,1528.94 1313.42,1528.9 1314.18,1528.87 1314.93,1528.84 1315.69,1528.81 1316.45,1528.77 1317.21,1528.74 1317.97,1528.71 1318.73,1528.67 1319.49,1528.64 1320.24,1528.6 1321,1528.57 1321.76,1528.53 1322.52,1528.5 1323.28,1528.46 1324.04,1528.43 1324.8,1528.39 1325.56,1528.35 1326.31,1528.32 1327.07,1528.28 1327.83,1528.24 1328.59,1528.21 1329.35,1528.17 1330.11,1528.13 1330.87,1528.09 1331.62,1528.05 1332.38,1528.01 1333.14,1527.97 1333.9,1527.93 1334.66,1527.89 1335.42,1527.85 1336.18,1527.81 1336.93,1527.77 1337.69,1527.73 1338.45,1527.69 1339.21,1527.65 1339.97,1527.6 1340.73,1527.56 1341.49,1527.52 1342.25,1527.48 1343,1527.43 1343.76,1527.39 1344.52,1527.34 1345.28,1527.3 1346.04,1527.25 1346.8,1527.21 1347.56,1527.16 1348.31,1527.12 1349.07,1527.07 1349.83,1527.02 1350.59,1526.97 1351.35,1526.93 1352.11,1526.88 1352.87,1526.83 1353.62,1526.78 1354.38,1526.73 1355.14,1526.67 1355.9,1526.62 1356.66,1526.57 1357.42,1526.52 1358.18,1526.46 1358.94,1526.41 1359.69,1526.36 1360.45,1526.3 1361.21,1526.25 1361.97,1526.19 1362.73,1526.13 1363.49,1526.08 1364.25,1526.02 1365,1525.96 1365.76,1525.9 1366.52,1525.85 1367.28,1525.79 1368.04,1525.73 1368.8,1525.66 1369.56,1525.6 1370.32,1525.54 1371.07,1525.48 1371.83,1525.41 1372.59,1525.34 1373.35,1525.28 1374.11,1525.21 1374.87,1525.14 1375.63,1525.07 1376.38,1525 1377.14,1524.93 1377.9,1524.86 1378.66,1524.78 1379.42,1524.71 1380.18,1524.63 1380.94,1524.56 1381.69,1524.48 1382.45,1524.4 1383.21,1524.32 1383.97,1524.24 1384.73,1524.16 1385.49,1524.08 1386.25,1524 1387.01,1523.91 1387.76,1523.83 1388.52,1523.74 1389.28,1523.65 1390.04,1523.56 1390.8,1523.47 1391.56,1523.37 1392.32,1523.28 1393.07,1523.18 1393.83,1523.08 1394.59,1522.98 1395.35,1522.87 1396.11,1522.77 1396.87,1522.66 1397.63,1522.55 1398.38,1522.44 1399.14,1522.32 1399.9,1522.21 1400.66,1522.09 1401.42,1521.97 1402.18,1521.85 1402.94,1521.73 1403.7,1521.61 1404.45,1521.48 1405.21,1521.35 1405.97,1521.22 1406.73,1521.08 1407.49,1520.93 1408.25,1520.79 1409.01,1520.64 1409.76,1520.48 1410.52,1520.32 1411.28,1520.16 1412.04,1519.99 1412.8,1519.82 1413.56,1519.65 1414.32,1519.47 1415.07,1519.29 1415.83,1519.1 1416.59,1518.91 1417.35,1518.72 1418.11,1518.52 1418.87,1518.32 1419.63,1518.1 1420.39,1517.88 1421.14,1517.65 1421.9,1517.41 1422.66,1517.15 1423.42,1516.89 1424.18,1516.62 1424.94,1516.34 1425.7,1516.05 1426.45,1515.75 1427.21,1515.44 1427.97,1515.12 1428.73,1514.79 1429.49,1514.45 1430.25,1514.12 1431.01,1513.76 1431.77,1513.37 1432.52,1512.96 1433.28,1512.52 1434.04,1512.05 1434.8,1511.56 1435.56,1511.04 1436.32,1510.49 1437.08,1509.91 1437.83,1509.31 1438.59,1508.68 1439.35,1508.02 1440.11,1507.34 1440.87,1506.61 1441.63,1505.8 1442.39,1504.91 1443.14,1503.95 1443.9,1502.9 1444.66,1501.77 1445.42,1500.57 1446.18,1499.28 1446.94,1497.89 1447.7,1496.31 1448.46,1494.54 1449.21,1492.59 1449.97,1490.46 1450.73,1488.1 1451.49,1485.29 1452.25,1482.03 1453.01,1478.31 1453.77,1474.17 1454.52,1469.09 1455.28,1462.84 1456.04,1455.41 1456.8,1446.16 1457.56,1434.01 1458.32,1418.36 1459.08,1396.58 1459.83,1365.08 1460.59,1316.96 1461.35,1237.81 1462.11,1099.81 1462.87,880.897 1463.63,673.419 1464.39,595.914 1465.15,590.881 1465.9,604.193 1466.66,621.098 1467.42,638.502 1468.18,655.761 1468.94,672.739 1469.7,689.413 1470.46,705.78 1471.21,721.847 1471.97,737.615 1472.73,753.095 1473.49,768.289 1474.25,783.208 1475.01,797.85 1475.77,812.229 1476.52,826.345 1477.28,840.205 1478.04,853.817 1478.8,867.18 1479.56,880.307 1480.32,893.195 1481.08,905.855 1481.84,918.292 1482.59,930.504 1483.35,942.505 1484.11,954.294 1484.87,965.874 1485.63,977.256 1486.39,988.439 1487.15,999.426 1487.9,1010.23 1488.66,1020.85 1489.42,1031.28 1490.18,1041.54 1490.94,1051.63 1491.7,1061.54 1492.46,1071.3 1493.21,1080.89 1493.97,1090.32 1494.73,1099.6 1495.49,1108.74 1496.25,1117.72 1497.01,1126.56 1497.77,1135.26 1498.53,1143.83 1499.28,1152.26 1500.04,1160.56 1500.8,1168.74 1501.56,1176.79 1502.32,1184.72 1503.08,1192.53 1503.84,1200.24 1504.59,1207.82 1505.35,1215.3 1506.11,1222.68 1506.87,1229.95 1507.63,1237.11 1508.39,1244.19 1509.15,1251.17 1509.91,1258.05 1510.66,1264.84 1511.42,1271.54 1512.18,1278.16 1512.94,1284.7 1513.7,1291.15 1514.46,1297.52 1515.22,1303.81 1515.97,1310.03 1516.73,1316.17 1517.49,1322.23 1518.25,1328.23 1519.01,1334.15 1519.77,1340 1520.53,1345.78 1521.28,1351.5 1522.04,1357.14 1522.8,1362.71 1523.56,1368.22 1524.32,1373.66 1525.08,1379.03 1525.84,1384.33 1526.6,1389.55 1527.35,1394.71 1528.11,1399.79 1528.87,1404.8 1529.63,1409.73 1530.39,1414.58 1531.15,1419.35 1531.91,1424.03 1532.66,1428.63 1533.42,1433.15 1534.18,1437.59 1534.94,1441.93 1535.7,1446.16 1536.46,1450.29 1537.22,1454.31 1537.97,1458.23 1538.73,1462.04 1539.49,1465.74 1540.25,1469.33 1541.01,1472.8 1541.77,1476.15 1542.53,1479.38 1543.29,1482.49 1544.04,1485.49 1544.8,1488.36 1545.56,1491.12 1546.32,1493.76 1547.08,1496.29 1547.84,1498.7 1548.6,1500.98 1549.35,1503.16 1550.11,1505.22 1550.87,1507.18 1551.63,1509.04 1552.39,1510.79 1553.15,1512.44 1553.91,1514 1554.66,1515.48 1555.42,1516.87 1556.18,1518.17 1556.94,1519.39 1557.7,1520.53 1558.46,1521.6 1559.22,1522.61 1559.98,1523.55 1560.73,1524.43 1561.49,1525.24 1562.25,1526 1563.01,1526.71 1563.77,1527.38 1564.53,1528 1565.29,1528.57 1566.04,1529.1 1566.8,1529.6 1567.56,1530.06 1568.32,1530.49 1569.08,1530.89 1569.84,1531.25 1570.6,1531.59 1571.36,1531.91 1572.11,1532.2 1572.87,1532.47 1573.63,1532.72 1574.39,1532.96 1575.15,1533.17 1575.91,1533.36 1576.67,1533.55 1577.42,1533.72 1578.18,1533.88 1578.94,1534.02 1579.7,1534.15 1580.46,1534.27 1581.22,1534.39 1581.98,1534.49 1582.73,1534.59 1583.49,1534.68 1584.25,1534.76 1585.01,1534.83 1585.77,1534.9 1586.53,1534.96 1587.29,1535.02 1588.05,1535.08 1588.8,1535.12 1589.56,1535.17 1590.32,1535.21 1591.08,1535.24 1591.84,1535.28 1592.6,1535.31 1593.36,1535.34 1594.11,1535.36 1594.87,1535.38 1595.63,1535.41 1596.39,1535.42 1597.15,1535.44 1597.91,1535.45 1598.67,1535.47 1599.42,1535.48 1600.18,1535.49 1600.94,1535.5 1601.7,1535.5 1602.46,1535.51 1603.22,1535.52 1603.98,1535.52 1604.74,1535.52 1605.49,1535.53 1606.25,1535.53 1607.01,1535.53 1607.77,1535.53 1608.53,1535.53 1609.29,1535.53 1610.05,1535.53 1610.8,1535.53 1611.56,1535.52 1612.32,1535.52 1613.08,1535.52 1613.84,1535.52 1614.6,1535.51 1615.36,1535.51 1616.11,1535.5 1616.87,1535.5 1617.63,1535.49 1618.39,1535.49 1619.15,1535.48 1619.91,1535.48 1620.67,1535.47 1621.43,1535.47 1622.18,1535.46 1622.94,1535.45 1623.7,1535.45 1624.46,1535.44 1625.22,1535.43 1625.98,1535.43 1626.74,1535.42 1627.49,1535.41 1628.25,1535.41 1629.01,1535.4 1629.77,1535.39 1630.53,1535.39 1631.29,1535.38 1632.05,1535.37 1632.81,1535.36 1633.56,1535.36 1634.32,1535.35 1635.08,1535.34 1635.84,1535.33 1636.6,1535.32 1637.36,1535.32 1638.12,1535.31 1638.87,1535.3 1639.63,1535.29 1640.39,1535.28 1641.15,1535.28 1641.91,1535.27 1642.67,1535.26 1643.43,1535.25 1644.18,1535.24 1644.94,1535.24 1645.7,1535.23 1646.46,1535.22 1647.22,1535.21 1647.98,1535.2 1648.74,1535.19 1649.5,1535.19 1650.25,1535.18 1651.01,1535.17 1651.77,1535.16 1652.53,1535.15 1653.29,1535.14 1654.05,1535.14 1654.81,1535.13 1655.56,1535.12 1656.32,1535.11 1657.08,1535.1 1657.84,1535.09 1658.6,1535.08 1659.36,1535.08 1660.12,1535.07 1660.87,1535.06 1661.63,1535.05 1662.39,1535.04 1663.15,1535.03 1663.91,1535.02 1664.67,1535.01 1665.43,1535.01 1666.19,1535 1666.94,1534.99 1667.7,1534.98 1668.46,1534.97 1669.22,1534.96 1669.98,1534.95 1670.74,1534.94 1671.5,1534.93 1672.25,1534.93 1673.01,1534.92 1673.77,1534.91 1674.53,1534.9 1675.29,1534.89 1676.05,1534.88 1676.81,1534.87 1677.56,1534.86 1678.32,1534.85 1679.08,1534.84 1679.84,1534.83 1680.6,1534.83 1681.36,1534.82 1682.12,1534.81 1682.88,1534.8 1683.63,1534.79 1684.39,1534.78 1685.15,1534.77 1685.91,1534.76 1686.67,1534.75 1687.43,1534.74 1688.19,1534.73 1688.94,1534.72 1689.7,1534.71 1690.46,1534.7 1691.22,1534.69 1691.98,1534.68 1692.74,1534.68 1693.5,1534.67 1694.25,1534.66 1695.01,1534.65 1695.77,1534.64 1696.53,1534.63 1697.29,1534.62 1698.05,1534.61 1698.81,1534.6 1699.57,1534.59 1700.32,1534.58 1701.08,1534.57 1701.84,1534.56 1702.6,1534.55 1703.36,1534.54 1704.12,1534.53 1704.88,1534.52 1705.63,1534.51 1706.39,1534.5 1707.15,1534.49 1707.91,1534.48 1708.67,1534.47 1709.43,1534.46 1710.19,1534.45 1710.95,1534.44 1711.7,1534.43 1712.46,1534.42 1713.22,1534.41 1713.98,1534.4 1714.74,1534.39 1715.5,1534.38 1716.26,1534.37 1717.01,1534.36 1717.77,1534.35 1718.53,1534.34 1719.29,1534.33 1720.05,1534.32 1720.81,1534.31 1721.57,1534.3 1722.32,1534.29 1723.08,1534.28 1723.84,1534.27 1724.6,1534.26 1725.36,1534.25 1726.12,1534.23 1726.88,1534.22 1727.64,1534.21 1728.39,1534.2 1729.15,1534.19 1729.91,1534.18 1730.67,1534.17 1731.43,1534.16 1732.19,1534.15 1732.95,1534.14 1733.7,1534.13 1734.46,1534.12 1735.22,1534.11 1735.98,1534.1 1736.74,1534.09 1737.5,1534.07 1738.26,1534.06 1739.01,1534.05 1739.77,1534.04 1740.53,1534.03 1741.29,1534.02 1742.05,1534.01 1742.81,1534 1743.57,1533.99 1744.33,1533.98 1745.08,1533.96 1745.84,1533.95 1746.6,1533.94 1747.36,1533.93 1748.12,1533.92 1748.88,1533.91 1749.64,1533.9 1750.39,1533.89 1751.15,1533.87 1751.91,1533.86 1752.67,1533.85 1753.43,1533.84 1754.19,1533.83 1754.95,1533.82 1755.7,1533.81 1756.46,1533.79 1757.22,1533.78 1757.98,1533.77 1758.74,1533.76 1759.5,1533.75 1760.26,1533.74 1761.02,1533.72 1761.77,1533.71 1762.53,1533.7 1763.29,1533.69 1764.05,1533.68 1764.81,1533.66 1765.57,1533.65 1766.33,1533.64 1767.08,1533.63 1767.84,1533.62 1768.6,1533.6 1769.36,1533.59 1770.12,1533.58 1770.88,1533.57 1771.64,1533.56 1772.4,1533.54 1773.15,1533.53 1773.91,1533.52 1774.67,1533.51 1775.43,1533.49 1776.19,1533.48 1776.95,1533.47 1777.71,1533.46 1778.46,1533.44 1779.22,1533.43 1779.98,1533.42 1780.74,1533.41 1781.5,1533.39 1782.26,1533.38 1783.02,1533.37 1783.77,1533.36 1784.53,1533.34 1785.29,1533.33 1786.05,1533.32 1786.81,1533.3 1787.57,1533.29 1788.33,1533.28 1789.09,1533.27 1789.84,1533.25 1790.6,1533.24 1791.36,1533.23 1792.12,1533.21 1792.88,1533.2 1793.64,1533.19 1794.4,1533.17 1795.15,1533.16 1795.91,1533.15 1796.67,1533.13 1797.43,1533.12 1798.19,1533.11 1798.95,1533.09 1799.71,1533.08 1800.46,1533.07 1801.22,1533.05 1801.98,1533.04 1802.74,1533.03 1803.5,1533.01 1804.26,1533 1805.02,1532.98 1805.78,1532.97 1806.53,1532.96 1807.29,1532.94 1808.05,1532.93 1808.81,1532.91 1809.57,1532.9 1810.33,1532.89 1811.09,1532.87 1811.84,1532.86 1812.6,1532.84 1813.36,1532.83 1814.12,1532.82 1814.88,1532.8 1815.64,1532.79 1816.4,1532.77 1817.15,1532.76 1817.91,1532.74 1818.67,1532.73 1819.43,1532.71 1820.19,1532.7 1820.95,1532.68 1821.71,1532.67 1822.47,1532.65 1823.22,1532.64 1823.98,1532.62 1824.74,1532.61 1825.5,1532.59 1826.26,1532.58 1827.02,1532.56 1827.78,1532.55 1828.53,1532.53 1829.29,1532.52 1830.05,1532.5 1830.81,1532.49 1831.57,1532.47 1832.33,1532.46 1833.09,1532.44 1833.85,1532.43 1834.6,1532.41 1835.36,1532.39 1836.12,1532.38 1836.88,1532.36 1837.64,1532.35 1838.4,1532.33 1839.16,1532.32 1839.91,1532.3 1840.67,1532.28 1841.43,1532.27 1842.19,1532.25 1842.95,1532.24 1843.71,1532.22 1844.47,1532.2 1845.22,1532.19 1845.98,1532.17 1846.74,1532.15 1847.5,1532.14 1848.26,1532.12 1849.02,1532.1 1849.78,1532.09 1850.54,1532.07 1851.29,1532.05 1852.05,1532.04 1852.81,1532.02 1853.57,1532 1854.33,1531.99 1855.09,1531.97 1855.85,1531.95 1856.6,1531.93 1857.36,1531.92 1858.12,1531.9 1858.88,1531.88 1859.64,1531.86 1860.4,1531.85 1861.16,1531.83 1861.91,1531.81 1862.67,1531.79 1863.43,1531.78 1864.19,1531.76 1864.95,1531.74 1865.71,1531.72 1866.47,1531.7 1867.23,1531.68 1867.98,1531.67 1868.74,1531.65 1869.5,1531.63 1870.26,1531.61 1871.02,1531.59 1871.78,1531.57 1872.54,1531.56 1873.29,1531.54 1874.05,1531.52 1874.81,1531.5 1875.57,1531.48 1876.33,1531.46 1877.09,1531.44 1877.85,1531.42 1878.6,1531.4 1879.36,1531.38 1880.12,1531.36 1880.88,1531.34 1881.64,1531.33 1882.4,1531.31 1883.16,1531.29 1883.92,1531.27 1884.67,1531.25 1885.43,1531.23 1886.19,1531.21 1886.95,1531.19 1887.71,1531.17 1888.47,1531.15 1889.23,1531.12 1889.98,1531.1 1890.74,1531.08 1891.5,1531.06 1892.26,1531.04 1893.02,1531.02 1893.78,1531 1894.54,1530.98 1895.3,1530.96 1896.05,1530.94 1896.81,1530.91 1897.57,1530.89 1898.33,1530.87 1899.09,1530.85 1899.85,1530.83 1900.61,1530.81 1901.36,1530.78 1902.12,1530.76 1902.88,1530.74 1903.64,1530.72 1904.4,1530.69 1905.16,1530.67 1905.92,1530.65 1906.67,1530.63 1907.43,1530.6 1908.19,1530.58 1908.95,1530.56 1909.71,1530.53 1910.47,1530.51 1911.23,1530.49 1911.99,1530.46 1912.74,1530.44 1913.5,1530.42 1914.26,1530.39 1915.02,1530.37 1915.78,1530.35 1916.54,1530.32 1917.3,1530.3 1918.05,1530.27 1918.81,1530.25 1919.57,1530.22 1920.33,1530.2 1921.09,1530.17 1921.85,1530.15 1922.61,1530.12 1923.36,1530.1 1924.12,1530.07 1924.88,1530.05 1925.64,1530.02 1926.4,1529.99 1927.16,1529.97 1927.92,1529.94 1928.68,1529.91 1929.43,1529.89 1930.19,1529.86 1930.95,1529.83 1931.71,1529.81 1932.47,1529.78 1933.23,1529.75 1933.99,1529.72 1934.74,1529.7 1935.5,1529.67 1936.26,1529.64 1937.02,1529.61 1937.78,1529.58 1938.54,1529.56 1939.3,1529.53 1940.05,1529.5 1940.81,1529.47 1941.57,1529.44 1942.33,1529.41 1943.09,1529.38 1943.85,1529.35 1944.61,1529.32 1945.37,1529.29 1946.12,1529.26 1946.88,1529.23 1947.64,1529.2 1948.4,1529.17 1949.16,1529.14 1949.92,1529.11 1950.68,1529.08 1951.43,1529.05 1952.19,1529.01 1952.95,1528.98 1953.71,1528.95 1954.47,1528.92 1955.23,1528.88 1955.99,1528.85 1956.74,1528.82 1957.5,1528.78 1958.26,1528.75 1959.02,1528.72 1959.78,1528.68 1960.54,1528.65 1961.3,1528.61 1962.06,1528.58 1962.81,1528.54 1963.57,1528.51 1964.33,1528.47 1965.09,1528.44 1965.85,1528.4 1966.61,1528.36 1967.37,1528.33 1968.12,1528.29 1968.88,1528.25 1969.64,1528.22 1970.4,1528.18 1971.16,1528.14 1971.92,1528.1 1972.68,1528.06 1973.44,1528.03 1974.19,1527.99 1974.95,1527.95 1975.71,1527.91 1976.47,1527.87 1977.23,1527.83 1977.99,1527.79 1978.75,1527.75 1979.5,1527.71 1980.26,1527.66 1981.02,1527.62 1981.78,1527.58 1982.54,1527.54 1983.3,1527.49 1984.06,1527.45 1984.81,1527.4 1985.57,1527.36 1986.33,1527.31 1987.09,1527.27 1987.85,1527.22 1988.61,1527.18 1989.37,1527.13 1990.13,1527.08 1990.88,1527.03 1991.64,1526.99 1992.4,1526.94 1993.16,1526.89 1993.92,1526.84 1994.68,1526.79 1995.44,1526.74 1996.19,1526.69 1996.95,1526.64 1997.71,1526.59 1998.47,1526.54 1999.23,1526.49 1999.99,1526.43 2000.75,1526.38 2001.5,1526.33 2002.26,1526.27 2003.02,1526.22 2003.78,1526.16 2004.54,1526.1 2005.3,1526.04 2006.06,1525.99 2006.82,1525.93 2007.57,1525.87 2008.33,1525.81 2009.09,1525.74 2009.85,1525.68 2010.61,1525.62 2011.37,1525.56 2012.13,1525.49 2012.88,1525.43 2013.64,1525.36 2014.4,1525.3 2015.16,1525.23 2015.92,1525.16 2016.68,1525.09 2017.44,1525.02 2018.19,1524.95 2018.95,1524.88 2019.71,1524.81 2020.47,1524.74 2021.23,1524.67 2021.99,1524.59 2022.75,1524.51 2023.51,1524.44 2024.26,1524.36 2025.02,1524.28 2025.78,1524.19 2026.54,1524.11 2027.3,1524.03 2028.06,1523.94 2028.82,1523.85 2029.57,1523.77 2030.33,1523.68 2031.09,1523.58 2031.85,1523.49 2032.61,1523.4 2033.37,1523.3 2034.13,1523.21 2034.89,1523.11 2035.64,1523.01 2036.4,1522.91 2037.16,1522.81 2037.92,1522.7 2038.68,1522.6 2039.44,1522.49 2040.2,1522.38 2040.95,1522.26 2041.71,1522.15 2042.47,1522.03 2043.23,1521.9 2043.99,1521.78 2044.75,1521.65 2045.51,1521.52 2046.26,1521.39 2047.02,1521.25 2047.78,1521.11 2048.54,1520.97 2049.3,1520.82 2050.06,1520.68 2050.82,1520.53 2051.58,1520.37 2052.33,1520.22 2053.09,1520.07 2053.85,1519.9 2054.61,1519.73 2055.37,1519.56 2056.13,1519.38 2056.89,1519.19 2057.64,1518.99 2058.4,1518.79 2059.16,1518.59 2059.92,1518.37 2060.68,1518.16 2061.44,1517.93 2062.2,1517.7 2062.95,1517.46 2063.71,1517.22 2064.47,1516.97 2065.23,1516.71 2065.99,1516.46 2066.75,1516.19 2067.51,1515.9 2068.27,1515.6 2069.02,1515.28 2069.78,1514.95 2070.54,1514.6 2071.3,1514.23 2072.06,1513.85 2072.82,1513.45 2073.58,1513.04 2074.33,1512.6 2075.09,1512.16 2075.85,1511.69 2076.61,1511.22 2077.37,1510.74 2078.13,1510.21 2078.89,1509.63 2079.64,1509.01 2080.4,1508.33 2081.16,1507.61 2081.92,1506.83 2082.68,1506.01 2083.44,1505.14 2084.2,1504.22 2084.96,1503.26 2085.71,1502.21 2086.47,1501.05 2087.23,1499.77 2087.99,1498.38 2088.75,1496.92 2089.51,1495.3 2090.27,1493.42 2091.02,1491.27 2091.78,1488.87 2092.54,1486.19 2093.3,1483.3 2094.06,1479.91 2094.82,1475.76 2095.58,1470.84 2096.34,1465.16 2097.09,1458.37 2097.85,1449.6 2098.61,1438.83 2099.37,1424.43 2100.13,1405.28 2100.89,1377.82 2101.65,1336.79 2102.4,1271.12 2103.16,1158.01 2103.92,966.451 2104.68,734.497 2105.44,610.645 2106.2,588.989 2106.96,598.695 2107.71,614.945 2108.47,632.306 2109.23,649.644 2109.99,666.727 2110.75,683.51 2111.51,699.986 2112.27,716.159 2113.03,732.032 2113.78,747.616 2114.54,762.91 2115.3,777.927 2116.06,792.666 2116.82,807.139 2117.58,821.347 2118.34,835.299 2119.09,848.997 2119.85,862.448 2120.61,875.66 2121.37,888.631 2122.13,901.373 2122.89,913.889 2123.65,926.179 2124.4,938.256 2125.16,950.119 2125.92,961.773 2126.68,973.226 2127.44,984.477 2128.2,995.535 2128.96,1006.4 2129.72,1017.08 2130.47,1027.58 2131.23,1037.91 2131.99,1048.05 2132.75,1058.03 2133.51,1067.84 2134.27,1077.49 2135.03,1086.98 2135.78,1096.32 2136.54,1105.5 2137.3,1114.53 2138.06,1123.43 2138.82,1132.18 2139.58,1140.79 2140.34,1149.27 2141.09,1157.62 2141.85,1165.84 2142.61,1173.93 2143.37,1181.91 2144.13,1189.77 2144.89,1197.5 2145.65,1205.13 2146.41,1212.65 2147.16,1220.06 2147.92,1227.37 2148.68,1234.57 2149.44,1241.68 2150.2,1248.69 2150.96,1255.61 2151.72,1262.43 2152.47,1269.17 2153.23,1275.82 2153.99,1282.38 2154.75,1288.86 2155.51,1295.26 2156.27,1301.58 2157.03,1307.82 2157.79,1313.99 2158.54,1320.08 2159.3,1326.1 2160.06,1332.05 2160.82,1337.93 2161.58,1343.73 2162.34,1349.47 2163.1,1355.14 2163.85,1360.74 2164.61,1366.27 2165.37,1371.73 2166.13,1377.12 2166.89,1382.45 2167.65,1387.7 2168.41,1392.88 2169.16,1397.99 2169.92,1403.03 2170.68,1407.98 2171.44,1412.86 2172.2,1417.65 2172.96,1422.37 2173.72,1427.02 2174.48,1431.58 2175.23,1436.04 2175.99,1440.4 2176.75,1444.66 2177.51,1448.82 2178.27,1452.88 2179.03,1456.83 2179.79,1460.69 2180.54,1464.44 2181.3,1468.07 2182.06,1471.58 2182.82,1474.98 2183.58,1478.25 2184.34,1481.41 2185.1,1484.44 2185.85,1487.36 2186.61,1490.17 2187.37,1492.85 2188.13,1495.42 2188.89,1497.87 2189.65,1500.2 2190.41,1502.41 2191.17,1504.51 2191.92,1506.51 2192.68,1508.41 2193.44,1510.2 2194.2,1511.89 2194.96,1513.48 2195.72,1514.98 2196.48,1516.4 2197.23,1517.73 2197.99,1518.99 2198.75,1520.16 2199.51,1521.25 2200.27,1522.27 2201.03,1523.23 2201.79,1524.14 2202.54,1524.98 2203.3,1525.76 2204.06,1526.48 2204.82,1527.16 2205.58,1527.79 2206.34,1528.39 2207.1,1528.94 2207.86,1529.44 2208.61,1529.91 2209.37,1530.35 2210.13,1530.75 2210.89,1531.14 2211.65,1531.49 2212.41,1531.81 2213.17,1532.11 2213.92,1532.38 2214.68,1532.64 2215.44,1532.88 2216.2,1533.1 2216.96,1533.31 2217.72,1533.49 2218.48,1533.66 2219.23,1533.83 2219.99,1533.97 2220.75,1534.11 2221.51,1534.24 2222.27,1534.36 2223.03,1534.46 2223.79,1534.56 2224.55,1534.65 2225.3,1534.73 2226.06,1534.81 2226.82,1534.88 2227.58,1534.95 2228.34,1535.01 2229.1,1535.06 2229.86,1535.11 2230.61,1535.15 2231.37,1535.2 2232.13,1535.23 2232.89,1535.27 2233.65,1535.3 2234.41,1535.33 2235.17,1535.35 2235.93,1535.38 2236.68,1535.4 2237.44,1535.42 2238.2,1535.43 2238.96,1535.45 2239.72,1535.46 2240.48,1535.48 2241.24,1535.49 2241.99,1535.5 2242.75,1535.5 2243.51,1535.51 2244.27,1535.51 2245.03,1535.52 2245.79,1535.52 2246.55,1535.53 2247.3,1535.53 2248.06,1535.53 2248.82,1535.53 2249.58,1535.53 2250.34,1535.53 2251.1,1535.53 2251.86,1535.53 2252.62,1535.52 2253.37,1535.52 2254.13,1535.52 2254.89,1535.52 2255.65,1535.51 2256.41,1535.51 2257.17,1535.5 2257.93,1535.5 2258.68,1535.5 2259.44,1535.49 2260.2,1535.49 2260.96,1535.48 2261.72,1535.47 2262.48,1535.47 2263.24,1535.46 2263.99,1535.46 2264.75,1535.45 2265.51,1535.44 2266.27,1535.44 2267.03,1535.43 2267.79,1535.42 2268.55,1535.42 2269.31,1535.41 2270.06,1535.4 2270.82,1535.39 2271.58,1535.39 2272.34,1535.38 2273.1,1535.37 2273.86,1535.37 2274.62,1535.36 2275.37,1535.35 2276.13,1535.34 2276.89,1535.34 2277.65,1535.33 2278.41,1535.32 2279.17,1535.31 2279.93,1535.3 2280.68,1535.3 2281.44,1535.29 2282.2,1535.28 2282.96,1535.27 2283.72,1535.26 2284.48,1535.26 2285.24,1535.25 2286,1535.24 2286.75,1535.23 2287.51,1535.22 2288.27,1535.21 2289.03,1535.21 2289.79,1535.2 2290.55,1535.19 2291.31,1535.18 2292.06,1535.17 2292.82,1535.16 2293.58,1535.16 2294.34,1535.15 2295.1,1535.14 2295.86,1535.13 2296.62,1535.12 2297.38,1535.11 2298.13,1535.1 2298.89,1535.1 2299.65,1535.09 2300.41,1535.08 2301.17,1535.07 2301.93,1535.06 2302.69,1535.05 2303.44,1535.04 2304.2,1535.03 2304.96,1535.03 2305.72,1535.02 2306.48,1535.01 2307.24,1535 2308,1534.99 2308.75,1534.98 2309.51,1534.97 2310.27,1534.96 2311.03,1534.96 2311.79,1534.95 2312.55,1534.94 2313.31,1534.93 2314.07,1534.92 2314.82,1534.91 2315.58,1534.9 2316.34,1534.89 2317.1,1534.88 2317.86,1534.87 2318.62,1534.87 2319.38,1534.86 2320.13,1534.85 2320.89,1534.84 2321.65,1534.83 2322.41,1534.82 2323.17,1534.81 2323.93,1534.8 2324.69,1534.79 2325.44,1534.78 2326.2,1534.77 2326.96,1534.76 2327.72,1534.75 2328.48,1534.74 2329.24,1534.74 2330,1534.73 2330.76,1534.72 2331.51,1534.71 2332.27,1534.7 2333.03,1534.69 2333.79,1534.68 2334.55,1534.67 2335.31,1534.66 2336.07,1534.65 2336.82,1534.64 2337.58,1534.63 2338.34,1534.62 2339.1,1534.61 2339.86,1534.6 2340.62,1534.59 2341.38,1534.58 2342.13,1534.57 2342.89,1534.56 2343.65,1534.55 2344.41,1534.54 2345.17,1534.53 2345.93,1534.52 2346.69,1534.51 2347.45,1534.5 2348.2,1534.49 2348.96,1534.48 2349.72,1534.47 2350.48,1534.46 2351.24,1534.45 2352,1534.44 2352.76,1534.43 "/>
<polyline clip-path="url(#clip122)" style="stroke:#e26f46; stroke-linecap:round; stroke-linejoin:round; stroke-width:52; stroke-opacity:0.8; fill:none" points="47.2441,1552.76 48.0027,1552.7 48.7614,1552.54 49.52,1552.28 50.2787,1551.93 51.0373,1551.5 51.7959,1551.01 52.5546,1550.44 53.3132,1549.82 54.0719,1549.15 54.8305,1548.43 55.5892,1547.66 56.3478,1546.85 57.1064,1546.01 57.8651,1545.14 58.6237,1544.24 59.3824,1543.31 60.141,1542.35 60.8996,1541.38 61.6583,1540.38 62.4169,1539.37 63.1756,1538.34 63.9342,1537.3 64.6929,1536.24 65.4515,1535.17 66.2101,1534.09 66.9688,1533 67.7274,1531.91 68.4861,1530.8 69.2447,1529.69 70.0033,1528.57 70.762,1527.44 71.5206,1526.31 72.2793,1525.18 73.0379,1524.04 73.7966,1522.89 74.5552,1521.75 75.3138,1520.6 76.0725,1519.44 76.8311,1518.29 77.5898,1517.13 78.3484,1515.97 79.107,1514.8 79.8657,1513.64 80.6243,1512.47 81.383,1511.31 82.1416,1510.14 82.9002,1508.97 83.6589,1507.8 84.4175,1506.63 85.1762,1505.45 85.9348,1504.28 86.6935,1503.11 87.4521,1501.93 88.2107,1500.76 88.9694,1499.58 89.728,1498.41 90.4867,1497.23 91.2453,1496.05 92.0039,1494.88 92.7626,1493.7 93.5212,1492.52 94.2799,1491.34 95.0385,1490.17 95.7972,1488.99 96.5558,1487.81 97.3144,1486.63 98.0731,1485.46 98.8317,1484.28 99.5904,1483.1 100.349,1481.92 101.108,1480.74 101.866,1479.57 102.625,1478.39 103.384,1477.21 104.142,1476.03 104.901,1474.85 105.659,1473.68 106.418,1472.5 107.177,1471.32 107.935,1470.14 108.694,1468.97 109.453,1467.79 110.211,1466.61 110.97,1465.43 111.729,1464.26 112.487,1463.08 113.246,1461.9 114.005,1460.72 114.763,1459.55 115.522,1458.37 116.28,1457.19 117.039,1456.02 117.798,1454.84 118.556,1453.66 119.315,1452.49 120.074,1451.31 120.832,1450.13 121.591,1448.96 122.35,1447.78 123.108,1446.6 123.867,1445.43 124.626,1444.25 125.384,1443.08 126.143,1441.9 126.901,1440.73 127.66,1439.55 128.419,1438.38 129.177,1437.2 129.936,1436.03 130.695,1434.85 131.453,1433.68 132.212,1432.5 132.971,1431.33 133.729,1430.15 134.488,1428.98 135.247,1427.8 136.005,1426.63 136.764,1425.46 137.522,1424.28 138.281,1423.11 139.04,1421.93 139.798,1420.76 140.557,1419.59 141.316,1418.41 142.074,1417.24 142.833,1416.07 143.592,1414.89 144.35,1413.72 145.109,1412.55 145.868,1411.38 146.626,1410.2 147.385,1409.03 148.143,1407.86 148.902,1406.69 149.661,1405.51 150.419,1404.34 151.178,1403.17 151.937,1402 152.695,1400.83 153.454,1399.65 154.213,1398.48 154.971,1397.31 155.73,1396.14 156.488,1394.97 157.247,1393.8 158.006,1392.63 158.764,1391.46 159.523,1390.29 160.282,1389.12 161.04,1387.94 161.799,1386.77 162.558,1385.6 163.316,1384.43 164.075,1383.26 164.834,1382.09 165.592,1380.92 166.351,1379.76 167.109,1378.59 167.868,1377.42 168.627,1376.25 169.385,1375.08 170.144,1373.91 170.903,1372.74 171.661,1371.57 172.42,1370.4 173.179,1369.23 173.937,1368.07 174.696,1366.9 175.455,1365.73 176.213,1364.56 176.972,1363.39 177.73,1362.23 178.489,1361.06 179.248,1359.89 180.006,1358.72 180.765,1357.56 181.524,1356.39 182.282,1355.22 183.041,1354.05 183.8,1352.89 184.558,1351.72 185.317,1350.55 186.076,1349.39 186.834,1348.22 187.593,1347.05 188.351,1345.89 189.11,1344.72 189.869,1343.56 190.627,1342.39 191.386,1341.22 192.145,1340.06 192.903,1338.89 193.662,1337.73 194.421,1336.56 195.179,1335.4 195.938,1334.23 196.696,1333.07 197.455,1331.9 198.214,1330.74 198.972,1329.58 199.731,1328.41 200.49,1327.25 201.248,1326.08 202.007,1324.92 202.766,1323.76 203.524,1322.59 204.283,1321.43 205.042,1320.27 205.8,1319.1 206.559,1317.94 207.317,1316.78 208.076,1315.61 208.835,1314.45 209.593,1313.29 210.352,1312.13 211.111,1310.96 211.869,1309.8 212.628,1308.64 213.387,1307.48 214.145,1306.31 214.904,1305.15 215.663,1303.99 216.421,1302.83 217.18,1301.67 217.938,1300.51 218.697,1299.35 219.456,1298.18 220.214,1297.02 220.973,1295.86 221.732,1294.7 222.49,1293.54 223.249,1292.38 224.008,1291.22 224.766,1290.06 225.525,1288.9 226.284,1287.74 227.042,1286.58 227.801,1285.42 228.559,1284.26 229.318,1283.1 230.077,1281.95 230.835,1280.79 231.594,1279.63 232.353,1278.47 233.111,1277.31 233.87,1276.15 234.629,1274.99 235.387,1273.84 236.146,1272.68 236.904,1271.52 237.663,1270.36 238.422,1269.2 239.18,1268.05 239.939,1266.89 240.698,1265.73 241.456,1264.58 242.215,1263.42 242.974,1262.26 243.732,1261.11 244.491,1259.95 245.25,1258.79 246.008,1257.64 246.767,1256.48 247.525,1255.32 248.284,1254.17 249.043,1253.01 249.801,1251.86 250.56,1250.7 251.319,1249.55 252.077,1248.39 252.836,1247.24 253.595,1246.08 254.353,1244.93 255.112,1243.77 255.871,1242.62 256.629,1241.46 257.388,1240.31 258.146,1239.15 258.905,1238 259.664,1236.85 260.422,1235.69 261.181,1234.54 261.94,1233.39 262.698,1232.23 263.457,1231.08 264.216,1229.93 264.974,1228.77 265.733,1227.62 266.492,1226.47 267.25,1225.32 268.009,1224.16 268.767,1223.01 269.526,1221.86 270.285,1220.71 271.043,1219.56 271.802,1218.41 272.561,1217.25 273.319,1216.1 274.078,1214.95 274.837,1213.8 275.595,1212.65 276.354,1211.5 277.112,1210.35 277.871,1209.2 278.63,1208.05 279.388,1206.9 280.147,1205.75 280.906,1204.6 281.664,1203.45 282.423,1202.3 283.182,1201.15 283.94,1200 284.699,1198.85 285.458,1197.71 286.216,1196.56 286.975,1195.41 287.733,1194.26 288.492,1193.11 289.251,1191.96 290.009,1190.82 290.768,1189.67 291.527,1188.52 292.285,1187.37 293.044,1186.23 293.803,1185.08 294.561,1183.93 295.32,1182.79 296.079,1181.64 296.837,1180.49 297.596,1179.35 298.354,1178.2 299.113,1177.05 299.872,1175.91 300.63,1174.76 301.389,1173.62 302.148,1172.47 302.906,1171.33 303.665,1170.18 304.424,1169.04 305.182,1167.89 305.941,1166.75 306.7,1165.6 307.458,1164.46 308.217,1163.31 308.975,1162.17 309.734,1161.02 310.493,1159.88 311.251,1158.74 312.01,1157.59 312.769,1156.45 313.527,1155.31 314.286,1154.17 315.045,1153.02 315.803,1151.88 316.562,1150.74 317.321,1149.6 318.079,1148.45 318.838,1147.31 319.596,1146.17 320.355,1145.03 321.114,1143.89 321.872,1142.75 322.631,1141.6 323.39,1140.46 324.148,1139.32 324.907,1138.18 325.666,1137.04 326.424,1135.9 327.183,1134.76 327.941,1133.62 328.7,1132.48 329.459,1131.34 330.217,1130.2 330.976,1129.06 331.735,1127.92 332.493,1126.79 333.252,1125.65 334.011,1124.51 334.769,1123.37 335.528,1122.23 336.287,1121.09 337.045,1119.96 337.804,1118.82 338.562,1117.68 339.321,1116.54 340.08,1115.41 340.838,1114.27 341.597,1113.13 342.356,1112 343.114,1110.86 343.873,1109.72 344.632,1108.59 345.39,1107.45 346.149,1106.31 346.908,1105.18 347.666,1104.04 348.425,1102.91 349.183,1101.77 349.942,1100.64 350.701,1099.5 351.459,1098.37 352.218,1097.23 352.977,1096.1 353.735,1094.96 354.494,1093.83 355.253,1092.7 356.011,1091.56 356.77,1090.43 357.529,1089.3 358.287,1088.16 359.046,1087.03 359.804,1085.9 360.563,1084.77 361.322,1083.63 362.08,1082.5 362.839,1081.37 363.598,1080.24 364.356,1079.11 365.115,1077.97 365.874,1076.84 366.632,1075.71 367.391,1074.58 368.149,1073.45 368.908,1072.32 369.667,1071.19 370.425,1070.06 371.184,1068.93 371.943,1067.8 372.701,1066.67 373.46,1065.54 374.219,1064.41 374.977,1063.28 375.736,1062.16 376.495,1061.03 377.253,1059.9 378.012,1058.77 378.77,1057.64 379.529,1056.51 380.288,1055.39 381.046,1054.26 381.805,1053.13 382.564,1052.01 383.322,1050.88 384.081,1049.75 384.84,1048.63 385.598,1047.5 386.357,1046.37 387.116,1045.25 387.874,1044.12 388.633,1043 389.391,1041.87 390.15,1040.74 390.909,1039.62 391.667,1038.49 392.426,1037.37 393.185,1036.25 393.943,1035.12 394.702,1034 395.461,1032.87 396.219,1031.75 396.978,1030.63 397.737,1029.5 398.495,1028.38 399.254,1027.26 400.012,1026.13 400.771,1025.01 401.53,1023.89 402.288,1022.77 403.047,1021.65 403.806,1020.53 404.564,1019.4 405.323,1018.28 406.082,1017.16 406.84,1016.04 407.599,1014.92 408.357,1013.8 409.116,1012.68 409.875,1011.56 410.633,1010.44 411.392,1009.32 412.151,1008.2 412.909,1007.08 413.668,1005.96 414.427,1004.85 415.185,1003.73 415.944,1002.61 416.703,1001.49 417.461,1000.37 418.22,999.257 418.978,998.14 419.737,997.023 420.496,995.906 421.254,994.789 422.013,993.673 422.772,992.557 423.53,991.441 424.289,990.325 425.048,989.209 425.806,988.094 426.565,986.979 427.324,985.864 428.082,984.749 428.841,983.635 429.599,982.52 430.358,981.406 431.117,980.293 431.875,979.179 432.634,978.066 433.393,976.952 434.151,975.839 434.91,974.726 435.669,973.614 436.427,972.501 437.186,971.389 437.945,970.277 438.703,969.165 439.462,968.054 440.22,966.942 440.979,965.831 441.738,964.72 442.496,963.61 443.255,962.5 444.014,961.39 444.772,960.28 445.531,959.17 446.29,958.061 447.048,956.952 447.807,955.843 448.565,954.734 449.324,953.626 450.083,952.518 450.841,951.41 451.6,950.303 452.359,949.195 453.117,948.088 453.876,946.981 454.635,945.875 455.393,944.769 456.152,943.662 456.911,942.557 457.669,941.451 458.428,940.346 459.186,939.241 459.945,938.136 460.704,937.031 461.462,935.927 462.221,934.823 462.98,933.719 463.738,932.615 464.497,931.512 465.256,930.409 466.014,929.306 466.773,928.203 467.532,927.101 468.29,925.999 469.049,924.897 469.807,923.795 470.566,922.694 471.325,921.593 472.083,920.492 472.842,919.391 473.601,918.291 474.359,917.191 475.118,916.091 475.877,914.991 476.635,913.892 477.394,912.792 478.153,911.694 478.911,910.595 479.67,909.496 480.428,908.398 481.187,907.3 481.946,906.202 482.704,905.104 483.463,904.007 484.222,902.91 484.98,901.813 485.739,900.717 486.498,899.621 487.256,898.525 488.015,897.43 488.774,896.334 489.532,895.239 490.291,894.145 491.049,893.05 491.808,891.956 492.567,890.862 493.325,889.769 494.084,888.676 494.843,887.583 495.601,886.49 496.36,885.398 497.119,884.306 497.877,883.214 498.636,882.123 499.394,881.032 500.153,879.941 500.912,878.85 501.67,877.76 502.429,876.67 503.188,875.58 503.946,874.491 504.705,873.402 505.464,872.313 506.222,871.225 506.981,870.137 507.74,869.049 508.498,867.961 509.257,866.874 510.015,865.787 510.774,864.7 511.533,863.614 512.291,862.528 513.05,861.442 513.809,860.356 514.567,859.271 515.326,858.186 516.085,857.101 516.843,856.017 517.602,854.933 518.361,853.849 519.119,852.766 519.878,851.683 520.636,850.6 521.395,849.517 522.154,848.435 522.912,847.353 523.671,846.271 524.43,845.19 525.188,844.109 525.947,843.028 526.706,841.947 527.464,840.866 528.223,839.786 528.982,838.706 529.74,837.627 530.499,836.548 531.257,835.469 532.016,834.391 532.775,833.313 533.533,832.235 534.292,831.158 535.051,830.081 535.809,829.004 536.568,827.928 537.327,826.852 538.085,825.777 538.844,824.701 539.602,823.627 540.361,822.552 541.12,821.478 541.878,820.405 542.637,819.331 543.396,818.258 544.154,817.186 544.913,816.114 545.672,815.042 546.43,813.97 547.189,812.899 547.948,811.828 548.706,810.758 549.465,809.688 550.223,808.618 550.982,807.549 551.741,806.48 552.499,805.411 553.258,804.343 554.017,803.275 554.775,802.208 555.534,801.14 556.293,800.074 557.051,799.007 557.81,797.941 558.569,796.875 559.327,795.81 560.086,794.745 560.844,793.68 561.603,792.616 562.362,791.552 563.12,790.489 563.879,789.426 564.638,788.363 565.396,787.3 566.155,786.238 566.914,785.177 567.672,784.115 568.431,783.054 569.19,781.994 569.948,780.933 570.707,779.873 571.465,778.814 572.224,777.755 572.983,776.696 573.741,775.637 574.5,774.579 575.259,773.522 576.017,772.465 576.776,771.408 577.535,770.352 578.293,769.297 579.052,768.241 579.81,767.187 580.569,766.132 581.328,765.078 582.086,764.025 582.845,762.972 583.604,761.92 584.362,760.868 585.121,759.816 585.88,758.765 586.638,757.714 587.397,756.664 588.156,755.614 588.914,754.565 589.673,753.516 590.431,752.468 591.19,751.42 591.949,750.372 592.707,749.325 593.466,748.278 594.225,747.232 594.983,746.187 595.742,745.141 596.501,744.096 597.259,743.052 598.018,742.008 598.777,740.965 599.535,739.922 600.294,738.879 601.052,737.837 601.811,736.796 602.57,735.754 603.328,734.714 604.087,733.673 604.846,732.634 605.604,731.594 606.363,730.555 607.122,729.517 607.88,728.479 608.639,727.441 609.398,726.404 610.156,725.367 610.915,724.331 611.673,723.295 612.432,722.26 613.191,721.225 613.949,720.191 614.708,719.158 615.467,718.125 616.225,717.093 616.984,716.061 617.743,715.03 618.501,714 619.26,712.97 620.018,711.94 620.777,710.911 621.536,709.883 622.294,708.856 623.053,707.829 623.812,706.802 624.57,705.776 625.329,704.751 626.088,703.726 626.846,702.702 627.605,701.678 628.364,700.655 629.122,699.633 629.881,698.611 630.639,697.59 631.398,696.569 632.157,695.549 632.915,694.529 633.674,693.51 634.433,692.492 635.191,691.474 635.95,690.457 636.709,689.44 637.467,688.424 638.226,687.409 638.985,686.394 639.743,685.379 640.502,684.366 641.26,683.352 642.019,682.34 642.778,681.327 643.536,680.316 644.295,679.305 645.054,678.294 645.812,677.285 646.571,676.276 647.33,675.268 648.088,674.261 648.847,673.254 649.606,672.249 650.364,671.244 651.123,670.24 651.881,669.236 652.64,668.233 653.399,667.232 654.157,666.23 654.916,665.23 655.675,664.23 656.433,663.231 657.192,662.233 657.951,661.236 658.709,660.239 659.468,659.243 660.227,658.248 660.985,657.254 661.744,656.26 662.502,655.267 663.261,654.275 664.02,653.284 664.778,652.293 665.537,651.303 666.296,650.314 667.054,649.326 667.813,648.338 668.572,647.352 669.33,646.366 670.089,645.38 670.847,644.396 671.606,643.412 672.365,642.429 673.123,641.446 673.882,640.464 674.641,639.484 675.399,638.504 676.158,637.525 676.917,636.548 677.675,635.571 678.434,634.596 679.193,633.621 679.951,632.648 680.71,631.675 681.468,630.704 682.227,629.734 682.986,628.764 683.744,627.796 684.503,626.829 685.262,625.862 686.02,624.897 686.779,623.933 687.538,622.97 688.296,622.008 689.055,621.047 689.814,620.086 690.572,619.127 691.331,618.169 692.089,617.212 692.848,616.256 693.607,615.301 694.365,614.347 695.124,613.395 695.883,612.443 696.641,611.492 697.4,610.542 698.159,609.593 698.917,608.645 699.676,607.697 700.435,606.752 701.193,605.807 701.952,604.865 702.71,603.923 703.469,602.983 704.228,602.045 704.986,601.108 705.745,600.173 706.504,599.239 707.262,598.306 708.021,597.375 708.78,596.445 709.538,595.517 710.297,594.59 711.055,593.665 711.814,592.741 712.573,591.819 713.331,590.898 714.09,589.979 714.849,589.061 715.607,588.144 716.366,587.23 717.125,586.316 717.883,585.404 718.642,584.493 719.401,583.584 720.159,582.677 720.918,581.77 721.676,580.865 722.435,579.961 723.194,579.059 723.952,578.159 724.711,577.261 725.47,576.366 726.228,575.473 726.987,574.582 727.746,573.693 728.504,572.806 729.263,571.922 730.022,571.04 730.78,570.16 731.539,569.282 732.297,568.407 733.056,567.534 733.815,566.663 734.573,565.794 735.332,564.928 736.091,564.063 736.849,563.201 737.608,562.341 738.367,561.483 739.125,560.628 739.884,559.775 740.643,558.924 741.401,558.075 742.16,557.226 742.918,556.381 743.677,555.539 744.436,554.701 745.194,553.867 745.953,553.036 746.712,552.209 747.47,551.385 748.229,550.565 748.988,549.749 749.746,548.936 750.505,548.127 751.263,547.322 752.022,546.52 752.781,545.722 753.539,544.927 754.298,544.137 755.057,543.349 755.815,542.566 756.574,541.786 757.333,541.009 758.091,540.237 758.85,539.468 759.609,538.699 760.367,537.935 761.126,537.179 761.884,536.429 762.643,535.685 763.402,534.948 764.16,534.218 764.919,533.494 765.678,532.777 766.436,532.066 767.195,531.362 767.954,530.665 768.712,529.974 769.471,529.29 770.23,528.612 770.988,527.941 771.747,527.276 772.505,526.618 773.264,525.966 774.023,525.319 774.781,524.674 775.54,524.042 776.299,523.424 777.057,522.819 777.816,522.228 778.575,521.65 779.333,521.086 780.092,520.536 780.851,519.998 781.609,519.475 782.368,518.964 783.126,518.468 783.885,517.985 784.644,517.515 785.402,517.059 786.161,516.616 786.92,516.175 787.678,515.749 788.437,515.355 789.196,514.995 789.954,514.667 790.713,514.372 791.472,514.11 792.23,513.88 792.989,513.684 793.747,513.52 794.506,513.388 795.265,513.29 796.023,513.224 796.782,513.191 797.541,513.173 798.299,513.217 799.058,513.348 799.817,513.568 800.575,513.875 801.334,514.27 802.092,514.753 802.851,515.324 803.61,515.983 804.368,516.73 805.127,517.631 805.886,518.716 806.644,519.987 807.403,521.423 808.162,523.107 808.92,525.143 809.679,527.529 810.438,530.263 811.196,533.336 811.955,537.257 812.713,542.025 813.472,547.642 814.231,554.261 814.989,562.907 815.748,573.692 816.507,587.632 817.265,606.379 818.024,632.698 818.783,671.073 819.541,731.164 820.3,831.818 821.059,1005.81 821.817,1251.47 822.576,1430.77 823.334,1489.91 824.093,1502.53 824.852,1504.49 825.61,1504.21 826.369,1503.44 827.128,1502.55 827.886,1501.61 828.645,1500.65 829.404,1499.68 830.162,1498.68 830.921,1497.67 831.68,1496.64 832.438,1495.59 833.197,1494.52 833.955,1493.43 834.714,1492.33 835.473,1491.2 836.231,1490.05 836.99,1488.88 837.749,1487.69 838.507,1486.48 839.266,1485.24 840.025,1483.99 840.783,1482.71 841.542,1481.41 842.3,1480.08 843.059,1478.73 843.818,1477.35 844.576,1475.95 845.335,1474.53 846.094,1473.08 846.852,1471.6 847.611,1470.1 848.37,1468.56 849.128,1467 849.887,1465.42 850.646,1463.8 851.404,1462.15 852.163,1460.48 852.921,1458.77 853.68,1457.03 854.439,1455.26 855.197,1453.46 855.956,1451.62 856.715,1449.75 857.473,1447.85 858.232,1445.91 858.991,1443.93 859.749,1441.92 860.508,1439.87 861.267,1437.78 862.025,1435.66 862.784,1433.5 863.542,1431.3 864.301,1429.05 865.06,1426.77 865.818,1424.44 866.577,1422.08 867.336,1419.66 868.094,1417.21 868.853,1414.72 869.612,1412.17 870.37,1409.58 871.129,1406.95 871.888,1404.28 872.646,1401.55 873.405,1398.78 874.163,1395.96 874.922,1393.1 875.681,1390.19 876.439,1387.23 877.198,1384.23 877.957,1381.18 878.715,1378.08 879.474,1374.94 880.233,1371.76 880.991,1368.54 881.75,1365.26 882.508,1361.96 883.267,1358.61 884.026,1355.23 884.784,1351.82 885.543,1348.37 886.302,1344.88 887.06,1341.37 887.819,1337.85 888.578,1334.31 889.336,1330.75 890.095,1327.17 890.854,1323.57 891.612,1319.95 892.371,1316.35 893.129,1312.77 893.888,1309.21 894.647,1305.67 895.405,1302.14 896.164,1298.64 896.923,1295.15 897.681,1291.68 898.44,1288.25 899.199,1284.88 899.957,1281.57 900.716,1278.3 901.475,1275.09 902.233,1271.93 902.992,1268.82 903.75,1265.78 904.509,1262.81 905.268,1259.9 906.026,1257.06 906.785,1254.29 907.544,1251.59 908.302,1248.95 909.061,1246.38 909.82,1243.88 910.578,1241.44 911.337,1239.08 912.096,1236.77 912.854,1234.53 913.613,1232.35 914.371,1230.22 915.13,1228.15 915.889,1226.13 916.647,1224.17 917.406,1222.26 918.165,1220.39 918.923,1218.57 919.682,1216.79 920.441,1215.05 921.199,1213.36 921.958,1211.7 922.716,1210.07 923.475,1208.47 924.234,1206.9 924.992,1205.37 925.751,1203.86 926.51,1202.38 927.268,1200.92 928.027,1199.48 928.786,1198.06 929.544,1196.66 930.303,1195.28 931.062,1193.92 931.82,1192.57 932.579,1191.24 933.337,1189.92 934.096,1188.61 934.855,1187.32 935.613,1186.04 936.372,1184.76 937.131,1183.5 937.889,1182.24 938.648,1180.99 939.407,1179.75 940.165,1178.52 940.924,1177.3 941.683,1176.08 942.441,1174.86 943.2,1173.65 943.958,1172.45 944.717,1171.25 945.476,1170.05 946.234,1168.86 946.993,1167.68 947.752,1166.49 948.51,1165.31 949.269,1164.13 950.028,1162.95 950.786,1161.78 951.545,1160.61 952.304,1159.44 953.062,1158.28 953.821,1157.11 954.579,1155.95 955.338,1154.79 956.097,1153.63 956.855,1152.47 957.614,1151.31 958.373,1150.15 959.131,1149 959.89,1147.85 960.649,1146.69 961.407,1145.54 962.166,1144.39 962.925,1143.24 963.683,1142.09 964.442,1140.95 965.2,1139.8 965.959,1138.65 966.718,1137.5 967.476,1136.36 968.235,1135.21 968.994,1134.07 969.752,1132.93 970.511,1131.78 971.27,1130.64 972.028,1129.5 972.787,1128.35 973.545,1127.21 974.304,1126.07 975.063,1124.93 975.821,1123.79 976.58,1122.65 977.339,1121.51 978.097,1120.37 978.856,1119.23 979.615,1118.09 980.373,1116.95 981.132,1115.81 981.891,1114.67 982.649,1113.54 983.408,1112.4 984.166,1111.26 984.925,1110.12 985.684,1108.99 986.442,1107.85 987.201,1106.71 987.96,1105.58 988.718,1104.44 989.477,1103.3 990.236,1102.17 990.994,1101.03 991.753,1099.9 992.512,1098.76 993.27,1097.63 994.029,1096.49 994.787,1095.36 995.546,1094.22 996.305,1093.09 997.063,1091.96 997.822,1090.82 998.581,1089.69 999.339,1088.56 1000.1,1087.42 1000.86,1086.29 1001.62,1085.16 1002.37,1084.03 1003.13,1082.89 1003.89,1081.76 1004.65,1080.63 1005.41,1079.5 1006.17,1078.37 1006.93,1077.24 1007.68,1076.1 1008.44,1074.97 1009.2,1073.84 1009.96,1072.71 1010.72,1071.58 1011.48,1070.45 1012.24,1069.32 1012.99,1068.19 1013.75,1067.06 1014.51,1065.93 1015.27,1064.8 1016.03,1063.67 1016.79,1062.55 1017.55,1061.42 1018.31,1060.29 1019.06,1059.16 1019.82,1058.03 1020.58,1056.9 1021.34,1055.78 1022.1,1054.65 1022.86,1053.52 1023.62,1052.39 1024.37,1051.27 1025.13,1050.14 1025.89,1049.01 1026.65,1047.89 1027.41,1046.76 1028.17,1045.64 1028.93,1044.51 1029.68,1043.38 1030.44,1042.26 1031.2,1041.13 1031.96,1040.01 1032.72,1038.88 1033.48,1037.76 1034.24,1036.63 1035,1035.51 1035.75,1034.39 1036.51,1033.26 1037.27,1032.14 1038.03,1031.02 1038.79,1029.89 1039.55,1028.77 1040.31,1027.65 1041.06,1026.52 1041.82,1025.4 1042.58,1024.28 1043.34,1023.16 1044.1,1022.04 1044.86,1020.92 1045.62,1019.79 1046.38,1018.67 1047.13,1017.55 1047.89,1016.43 1048.65,1015.31 1049.41,1014.19 1050.17,1013.07 1050.93,1011.95 1051.69,1010.83 1052.44,1009.71 1053.2,1008.59 1053.96,1007.47 1054.72,1006.35 1055.48,1005.23 1056.24,1004.12 1057,1003 1057.75,1001.88 1058.51,1000.76 1059.27,999.645 1060.03,998.527 1060.79,997.41 1061.55,996.293 1062.31,995.177 1063.07,994.06 1063.82,992.944 1064.58,991.828 1065.34,990.712 1066.1,989.596 1066.86,988.481 1067.62,987.366 1068.38,986.251 1069.13,985.136 1069.89,984.022 1070.65,982.908 1071.41,981.793 1072.17,980.68 1072.93,979.566 1073.69,978.453 1074.44,977.339 1075.2,976.227 1075.96,975.114 1076.72,974.001 1077.48,972.889 1078.24,971.777 1079,970.665 1079.76,969.554 1080.51,968.442 1081.27,967.331 1082.03,966.22 1082.79,965.109 1083.55,963.998 1084.31,962.888 1085.07,961.778 1085.82,960.668 1086.58,959.558 1087.34,958.449 1088.1,957.34 1088.86,956.231 1089.62,955.122 1090.38,954.014 1091.13,952.906 1091.89,951.798 1092.65,950.69 1093.41,949.583 1094.17,948.476 1094.93,947.369 1095.69,946.262 1096.45,945.156 1097.2,944.05 1097.96,942.944 1098.72,941.838 1099.48,940.733 1100.24,939.628 1101,938.523 1101.76,937.418 1102.51,936.314 1103.27,935.209 1104.03,934.105 1104.79,933.002 1105.55,931.898 1106.31,930.795 1107.07,929.692 1107.83,928.589 1108.58,927.487 1109.34,926.385 1110.1,925.283 1110.86,924.181 1111.62,923.08 1112.38,921.978 1113.14,920.877 1113.89,919.777 1114.65,918.676 1115.41,917.576 1116.17,916.475 1116.93,915.376 1117.69,914.276 1118.45,913.177 1119.2,912.078 1119.96,910.979 1120.72,909.881 1121.48,908.782 1122.24,907.685 1123,906.587 1123.76,905.49 1124.52,904.393 1125.27,903.296 1126.03,902.199 1126.79,901.103 1127.55,900.007 1128.31,898.911 1129.07,897.816 1129.83,896.721 1130.58,895.626 1131.34,894.532 1132.1,893.437 1132.86,892.343 1133.62,891.25 1134.38,890.156 1135.14,889.063 1135.89,887.97 1136.65,886.878 1137.41,885.785 1138.17,884.693 1138.93,883.602 1139.69,882.51 1140.45,881.419 1141.21,880.328 1141.96,879.237 1142.72,878.147 1143.48,877.057 1144.24,875.967 1145,874.878 1145.76,873.788 1146.52,872.7 1147.27,871.611 1148.03,870.522 1148.79,869.434 1149.55,868.346 1150.31,867.259 1151.07,866.171 1151.83,865.084 1152.58,863.997 1153.34,862.911 1154.1,861.825 1154.86,860.739 1155.62,859.654 1156.38,858.568 1157.14,857.484 1157.9,856.399 1158.65,855.315 1159.41,854.231 1160.17,853.148 1160.93,852.064 1161.69,850.982 1162.45,849.899 1163.21,848.817 1163.96,847.735 1164.72,846.653 1165.48,845.572 1166.24,844.491 1167,843.411 1167.76,842.33 1168.52,841.25 1169.28,840.171 1170.03,839.091 1170.79,838.012 1171.55,836.934 1172.31,835.855 1173.07,834.777 1173.83,833.7 1174.59,832.622 1175.34,831.545 1176.1,830.468 1176.86,829.392 1177.62,828.316 1178.38,827.24 1179.14,826.165 1179.9,825.09 1180.65,824.015 1181.41,822.94 1182.17,821.866 1182.93,820.792 1183.69,819.719 1184.45,818.645 1185.21,817.572 1185.97,816.5 1186.72,815.427 1187.48,814.355 1188.24,813.284 1189,812.213 1189.76,811.142 1190.52,810.072 1191.28,809.002 1192.03,807.932 1192.79,806.863 1193.55,805.794 1194.31,804.726 1195.07,803.657 1195.83,802.59 1196.59,801.522 1197.34,800.455 1198.1,799.389 1198.86,798.323 1199.62,797.257 1200.38,796.192 1201.14,795.127 1201.9,794.062 1202.66,792.998 1203.41,791.934 1204.17,790.87 1204.93,789.807 1205.69,788.745 1206.45,787.682 1207.21,786.62 1207.97,785.559 1208.72,784.497 1209.48,783.437 1210.24,782.376 1211,781.316 1211.76,780.256 1212.52,779.197 1213.28,778.138 1214.03,777.08 1214.79,776.022 1215.55,774.964 1216.31,773.907 1217.07,772.85 1217.83,771.793 1218.59,770.737 1219.35,769.68 1220.1,768.625 1220.86,767.569 1221.62,766.515 1222.38,765.46 1223.14,764.406 1223.9,763.353 1224.66,762.3 1225.41,761.248 1226.17,760.196 1226.93,759.144 1227.69,758.093 1228.45,757.043 1229.21,755.992 1229.97,754.943 1230.72,753.894 1231.48,752.845 1232.24,751.797 1233,750.749 1233.76,749.702 1234.52,748.655 1235.28,747.608 1236.04,746.562 1236.79,745.517 1237.55,744.472 1238.31,743.427 1239.07,742.383 1239.83,741.34 1240.59,740.297 1241.35,739.254 1242.1,738.212 1242.86,737.17 1243.62,736.129 1244.38,735.088 1245.14,734.048 1245.9,733.008 1246.66,731.969 1247.42,730.93 1248.17,729.891 1248.93,728.853 1249.69,727.816 1250.45,726.779 1251.21,725.742 1251.97,724.706 1252.73,723.67 1253.48,722.635 1254.24,721.6 1255,720.565 1255.76,719.531 1256.52,718.498 1257.28,717.465 1258.04,716.433 1258.79,715.401 1259.55,714.37 1260.31,713.339 1261.07,712.31 1261.83,711.28 1262.59,710.252 1263.35,709.224 1264.11,708.196 1264.86,707.169 1265.62,706.143 1266.38,705.117 1267.14,704.092 1267.9,703.068 1268.66,702.044 1269.42,701.02 1270.17,699.998 1270.93,698.976 1271.69,697.954 1272.45,696.933 1273.21,695.913 1273.97,694.893 1274.73,693.874 1275.48,692.855 1276.24,691.837 1277,690.82 1277.76,689.803 1278.52,688.787 1279.28,687.772 1280.04,686.757 1280.8,685.742 1281.55,684.728 1282.31,683.715 1283.07,682.703 1283.83,681.691 1284.59,680.679 1285.35,679.668 1286.11,678.658 1286.86,677.649 1287.62,676.64 1288.38,675.631 1289.14,674.623 1289.9,673.616 1290.66,672.609 1291.42,671.604 1292.17,670.599 1292.93,669.595 1293.69,668.591 1294.45,667.589 1295.21,666.587 1295.97,665.586 1296.73,664.586 1297.49,663.586 1298.24,662.588 1299,661.59 1299.76,660.593 1300.52,659.597 1301.28,658.601 1302.04,657.607 1302.8,656.613 1303.55,655.62 1304.31,654.627 1305.07,653.636 1305.83,652.645 1306.59,651.655 1307.35,650.666 1308.11,649.678 1308.87,648.69 1309.62,647.703 1310.38,646.718 1311.14,645.732 1311.9,644.748 1312.66,643.764 1313.42,642.781 1314.18,641.799 1314.93,640.818 1315.69,639.838 1316.45,638.858 1317.21,637.879 1317.97,636.901 1318.73,635.923 1319.49,634.946 1320.24,633.971 1321,632.996 1321.76,632.023 1322.52,631.051 1323.28,630.08 1324.04,629.109 1324.8,628.14 1325.56,627.172 1326.31,626.205 1327.07,625.24 1327.83,624.275 1328.59,623.311 1329.35,622.349 1330.11,621.387 1330.87,620.427 1331.62,619.467 1332.38,618.509 1333.14,617.552 1333.9,616.596 1334.66,615.641 1335.42,614.687 1336.18,613.734 1336.93,612.782 1337.69,611.832 1338.45,610.882 1339.21,609.933 1339.97,608.986 1340.73,608.04 1341.49,607.094 1342.25,606.15 1343,605.207 1343.76,604.264 1344.52,603.323 1345.28,602.383 1346.04,601.444 1346.8,600.507 1347.56,599.572 1348.31,598.638 1349.07,597.706 1349.83,596.775 1350.59,595.846 1351.35,594.918 1352.11,593.992 1352.87,593.068 1353.62,592.145 1354.38,591.224 1355.14,590.304 1355.9,589.386 1356.66,588.469 1357.42,587.554 1358.18,586.64 1358.94,585.728 1359.69,584.817 1360.45,583.908 1361.21,583.001 1361.97,582.095 1362.73,581.191 1363.49,580.288 1364.25,579.387 1365,578.487 1365.76,577.589 1366.52,576.691 1367.28,575.796 1368.04,574.902 1368.8,574.011 1369.56,573.123 1370.32,572.236 1371.07,571.353 1371.83,570.471 1372.59,569.592 1373.35,568.715 1374.11,567.841 1374.87,566.969 1375.63,566.099 1376.38,565.232 1377.14,564.367 1377.9,563.505 1378.66,562.645 1379.42,561.787 1380.18,560.932 1380.94,560.079 1381.69,559.228 1382.45,558.38 1383.21,557.534 1383.97,556.691 1384.73,555.85 1385.49,555.011 1386.25,554.172 1387.01,553.337 1387.76,552.506 1388.52,551.679 1389.28,550.856 1390.04,550.037 1390.8,549.221 1391.56,548.41 1392.32,547.603 1393.07,546.799 1393.83,546 1394.59,545.204 1395.35,544.412 1396.11,543.625 1396.87,542.841 1397.63,542.061 1398.38,541.285 1399.14,540.513 1399.9,539.745 1400.66,538.981 1401.42,538.221 1402.18,537.465 1402.94,536.71 1403.7,535.959 1404.45,535.215 1405.21,534.478 1405.97,533.748 1406.73,533.026 1407.49,532.311 1408.25,531.603 1409.01,530.902 1409.76,530.209 1410.52,529.522 1411.28,528.843 1412.04,528.172 1412.8,527.507 1413.56,526.85 1414.32,526.2 1415.07,525.557 1415.83,524.922 1416.59,524.294 1417.35,523.67 1418.11,523.049 1418.87,522.442 1419.63,521.851 1420.39,521.275 1421.14,520.715 1421.9,520.169 1422.66,519.639 1423.42,519.124 1424.18,518.625 1424.94,518.14 1425.7,517.671 1426.45,517.217 1427.21,516.778 1427.97,516.354 1428.73,515.946 1429.49,515.552 1430.25,515.153 1431.01,514.788 1431.77,514.461 1432.52,514.172 1433.28,513.921 1434.04,513.707 1434.8,513.532 1435.56,513.394 1436.32,513.295 1437.08,513.233 1437.83,513.209 1438.59,513.223 1439.35,513.275 1440.11,513.355 1440.87,513.498 1441.63,513.741 1442.39,514.085 1443.14,514.529 1443.9,515.073 1444.66,515.717 1445.42,516.461 1446.18,517.305 1446.94,518.278 1447.7,519.473 1448.46,520.894 1449.21,522.541 1449.97,524.386 1450.73,526.509 1451.49,529.15 1452.25,532.309 1453.01,535.984 1453.77,540.146 1454.52,545.343 1455.28,551.849 1456.04,559.649 1456.8,569.423 1457.56,582.334 1458.32,598.987 1459.08,622.16 1459.83,655.565 1460.59,706.353 1461.35,789.398 1462.11,933.385 1462.87,1161.82 1463.63,1383.29 1464.39,1477.62 1465.15,1500.16 1465.9,1504.23 1466.66,1504.4 1467.42,1503.73 1468.18,1502.87 1468.94,1501.95 1469.7,1501 1470.46,1500.03 1471.21,1499.04 1471.97,1498.03 1472.73,1497.01 1473.49,1495.97 1474.25,1494.9 1475.01,1493.82 1475.77,1492.72 1476.52,1491.6 1477.28,1490.46 1478.04,1489.3 1478.8,1488.12 1479.56,1486.91 1480.32,1485.69 1481.08,1484.44 1481.84,1483.17 1482.59,1481.87 1483.35,1480.55 1484.11,1479.21 1484.87,1477.85 1485.63,1476.46 1486.39,1475.04 1487.15,1473.6 1487.9,1472.13 1488.66,1470.63 1489.42,1469.11 1490.18,1467.56 1490.94,1465.98 1491.7,1464.38 1492.46,1462.74 1493.21,1461.08 1493.97,1459.38 1494.73,1457.65 1495.49,1455.89 1496.25,1454.1 1497.01,1452.28 1497.77,1450.42 1498.53,1448.53 1499.28,1446.6 1500.04,1444.64 1500.8,1442.64 1501.56,1440.6 1502.32,1438.53 1503.08,1436.42 1503.84,1434.27 1504.59,1432.08 1505.35,1429.86 1506.11,1427.59 1506.87,1425.27 1507.63,1422.92 1508.39,1420.53 1509.15,1418.09 1509.91,1415.61 1510.66,1413.08 1511.42,1410.51 1512.18,1407.9 1512.94,1405.23 1513.7,1402.53 1514.46,1399.77 1515.22,1396.97 1515.97,1394.12 1516.73,1391.23 1517.49,1388.29 1518.25,1385.3 1519.01,1382.27 1519.77,1379.19 1520.53,1376.07 1521.28,1372.9 1522.04,1369.69 1522.8,1366.44 1523.56,1363.14 1524.32,1359.81 1525.08,1356.43 1525.84,1353.03 1526.6,1349.6 1527.35,1346.13 1528.11,1342.63 1528.87,1339.1 1529.63,1335.56 1530.39,1332 1531.15,1328.44 1531.91,1324.86 1532.66,1321.28 1533.42,1317.67 1534.18,1314.06 1534.94,1310.46 1535.7,1306.9 1536.46,1303.36 1537.22,1299.85 1537.97,1296.37 1538.73,1292.91 1539.49,1289.49 1540.25,1286.09 1541.01,1282.74 1541.77,1279.46 1542.53,1276.23 1543.29,1273.05 1544.04,1269.93 1544.8,1266.87 1545.56,1263.87 1546.32,1260.94 1547.08,1258.07 1547.84,1255.28 1548.6,1252.55 1549.35,1249.89 1550.11,1247.3 1550.87,1244.78 1551.63,1242.32 1552.39,1239.93 1553.15,1237.6 1553.91,1235.34 1554.66,1233.13 1555.42,1230.98 1556.18,1228.89 1556.94,1226.86 1557.7,1224.88 1558.46,1222.95 1559.22,1221.06 1559.98,1219.22 1560.73,1217.43 1561.49,1215.68 1562.25,1213.97 1563.01,1212.29 1563.77,1210.65 1564.53,1209.04 1565.29,1207.47 1566.04,1205.92 1566.8,1204.41 1567.56,1202.91 1568.32,1201.44 1569.08,1199.99 1569.84,1198.57 1570.6,1197.17 1571.36,1195.78 1572.11,1194.41 1572.87,1193.05 1573.63,1191.72 1574.39,1190.39 1575.15,1189.08 1575.91,1187.78 1576.67,1186.49 1577.42,1185.22 1578.18,1183.95 1578.94,1182.69 1579.7,1181.44 1580.46,1180.2 1581.22,1178.96 1581.98,1177.73 1582.73,1176.51 1583.49,1175.29 1584.25,1174.08 1585.01,1172.88 1585.77,1171.68 1586.53,1170.48 1587.29,1169.29 1588.05,1168.1 1588.8,1166.91 1589.56,1165.73 1590.32,1164.55 1591.08,1163.37 1591.84,1162.2 1592.6,1161.03 1593.36,1159.86 1594.11,1158.69 1594.87,1157.52 1595.63,1156.36 1596.39,1155.2 1597.15,1154.04 1597.91,1152.88 1598.67,1151.72 1599.42,1150.57 1600.18,1149.41 1600.94,1148.26 1601.7,1147.1 1602.46,1145.95 1603.22,1144.8 1603.98,1143.65 1604.74,1142.5 1605.49,1141.35 1606.25,1140.21 1607.01,1139.06 1607.77,1137.91 1608.53,1136.77 1609.29,1135.62 1610.05,1134.48 1610.8,1133.33 1611.56,1132.19 1612.32,1131.04 1613.08,1129.9 1613.84,1128.76 1614.6,1127.62 1615.36,1126.48 1616.11,1125.33 1616.87,1124.19 1617.63,1123.05 1618.39,1121.91 1619.15,1120.77 1619.91,1119.63 1620.67,1118.5 1621.43,1117.36 1622.18,1116.22 1622.94,1115.08 1623.7,1113.94 1624.46,1112.8 1625.22,1111.66 1625.98,1110.53 1626.74,1109.39 1627.49,1108.25 1628.25,1107.12 1629.01,1105.98 1629.77,1104.84 1630.53,1103.71 1631.29,1102.57 1632.05,1101.44 1632.81,1100.3 1633.56,1099.17 1634.32,1098.03 1635.08,1096.9 1635.84,1095.76 1636.6,1094.63 1637.36,1093.49 1638.12,1092.36 1638.87,1091.23 1639.63,1090.09 1640.39,1088.96 1641.15,1087.83 1641.91,1086.69 1642.67,1085.56 1643.43,1084.43 1644.18,1083.3 1644.94,1082.16 1645.7,1081.03 1646.46,1079.9 1647.22,1078.77 1647.98,1077.64 1648.74,1076.51 1649.5,1075.37 1650.25,1074.24 1651.01,1073.11 1651.77,1071.98 1652.53,1070.85 1653.29,1069.72 1654.05,1068.59 1654.81,1067.46 1655.56,1066.33 1656.32,1065.2 1657.08,1064.07 1657.84,1062.95 1658.6,1061.82 1659.36,1060.69 1660.12,1059.56 1660.87,1058.43 1661.63,1057.3 1662.39,1056.18 1663.15,1055.05 1663.91,1053.92 1664.67,1052.79 1665.43,1051.67 1666.19,1050.54 1666.94,1049.41 1667.7,1048.29 1668.46,1047.16 1669.22,1046.04 1669.98,1044.91 1670.74,1043.78 1671.5,1042.66 1672.25,1041.53 1673.01,1040.41 1673.77,1039.28 1674.53,1038.16 1675.29,1037.03 1676.05,1035.91 1676.81,1034.79 1677.56,1033.66 1678.32,1032.54 1679.08,1031.42 1679.84,1030.29 1680.6,1029.17 1681.36,1028.05 1682.12,1026.92 1682.88,1025.8 1683.63,1024.68 1684.39,1023.56 1685.15,1022.43 1685.91,1021.31 1686.67,1020.19 1687.43,1019.07 1688.19,1017.95 1688.94,1016.83 1689.7,1015.71 1690.46,1014.59 1691.22,1013.47 1691.98,1012.35 1692.74,1011.23 1693.5,1010.11 1694.25,1008.99 1695.01,1007.87 1695.77,1006.75 1696.53,1005.63 1697.29,1004.51 1698.05,1003.4 1698.81,1002.28 1699.57,1001.16 1700.32,1000.04 1701.08,998.925 1701.84,997.808 1702.6,996.691 1703.36,995.574 1704.12,994.457 1704.88,993.341 1705.63,992.225 1706.39,991.109 1707.15,989.993 1707.91,988.878 1708.67,987.762 1709.43,986.647 1710.19,985.532 1710.95,984.417 1711.7,983.303 1712.46,982.189 1713.22,981.075 1713.98,979.961 1714.74,978.847 1715.5,977.734 1716.26,976.621 1717.01,975.508 1717.77,974.396 1718.53,973.283 1719.29,972.171 1720.05,971.059 1720.81,969.947 1721.57,968.836 1722.32,967.725 1723.08,966.614 1723.84,965.503 1724.6,964.393 1725.36,963.282 1726.12,962.172 1726.88,961.062 1727.64,959.953 1728.39,958.844 1729.15,957.734 1729.91,956.626 1730.67,955.517 1731.43,954.409 1732.19,953.3 1732.95,952.192 1733.7,951.085 1734.46,949.977 1735.22,948.87 1735.98,947.763 1736.74,946.656 1737.5,945.55 1738.26,944.444 1739.01,943.337 1739.77,942.232 1740.53,941.126 1741.29,940.021 1742.05,938.915 1742.81,937.81 1743.57,936.706 1744.33,935.601 1745.08,934.497 1745.84,933.393 1746.6,932.289 1747.36,931.186 1748.12,930.083 1748.88,928.98 1749.64,927.877 1750.39,926.775 1751.15,925.673 1751.91,924.571 1752.67,923.47 1753.43,922.368 1754.19,921.267 1754.95,920.166 1755.7,919.066 1756.46,917.966 1757.22,916.866 1757.98,915.766 1758.74,914.667 1759.5,913.567 1760.26,912.468 1761.02,911.37 1761.77,910.271 1762.53,909.173 1763.29,908.075 1764.05,906.978 1764.81,905.88 1765.57,904.783 1766.33,903.687 1767.08,902.59 1767.84,901.494 1768.6,900.398 1769.36,899.302 1770.12,898.206 1770.88,897.111 1771.64,896.016 1772.4,894.922 1773.15,893.827 1773.91,892.733 1774.67,891.639 1775.43,890.545 1776.19,889.452 1776.95,888.358 1777.71,887.265 1778.46,886.173 1779.22,885.08 1779.98,883.988 1780.74,882.897 1781.5,881.805 1782.26,880.714 1783.02,879.623 1783.77,878.533 1784.53,877.443 1785.29,876.353 1786.05,875.263 1786.81,874.174 1787.57,873.085 1788.33,871.996 1789.09,870.908 1789.84,869.819 1790.6,868.732 1791.36,867.644 1792.12,866.557 1792.88,865.47 1793.64,864.383 1794.4,863.297 1795.15,862.211 1795.91,861.125 1796.67,860.04 1797.43,858.955 1798.19,857.87 1798.95,856.786 1799.71,855.702 1800.46,854.618 1801.22,853.534 1801.98,852.451 1802.74,851.368 1803.5,850.285 1804.26,849.203 1805.02,848.121 1805.78,847.039 1806.53,845.958 1807.29,844.876 1808.05,843.796 1808.81,842.715 1809.57,841.635 1810.33,840.555 1811.09,839.475 1811.84,838.395 1812.6,837.316 1813.36,836.237 1814.12,835.159 1814.88,834.081 1815.64,833.003 1816.4,831.926 1817.15,830.849 1817.91,829.772 1818.67,828.696 1819.43,827.62 1820.19,826.544 1820.95,825.469 1821.71,824.394 1822.47,823.32 1823.22,822.246 1823.98,821.172 1824.74,820.098 1825.5,819.025 1826.26,817.953 1827.02,816.88 1827.78,815.808 1828.53,814.736 1829.29,813.665 1830.05,812.594 1830.81,811.524 1831.57,810.453 1832.33,809.383 1833.09,808.314 1833.85,807.245 1834.6,806.176 1835.36,805.107 1836.12,804.039 1836.88,802.971 1837.64,801.904 1838.4,800.837 1839.16,799.77 1839.91,798.704 1840.67,797.638 1841.43,796.572 1842.19,795.507 1842.95,794.442 1843.71,793.377 1844.47,792.313 1845.22,791.249 1845.98,790.185 1846.74,789.121 1847.5,788.059 1848.26,786.996 1849.02,785.934 1849.78,784.872 1850.54,783.811 1851.29,782.75 1852.05,781.69 1852.81,780.63 1853.57,779.57 1854.33,778.511 1855.09,777.453 1855.85,776.394 1856.6,775.337 1857.36,774.279 1858.12,773.222 1858.88,772.166 1859.64,771.11 1860.4,770.054 1861.16,768.999 1861.91,767.944 1862.67,766.889 1863.43,765.835 1864.19,764.782 1864.95,763.729 1865.71,762.676 1866.47,761.624 1867.23,760.572 1867.98,759.52 1868.74,758.469 1869.5,757.419 1870.26,756.369 1871.02,755.319 1871.78,754.27 1872.54,753.221 1873.29,752.172 1874.05,751.124 1874.81,750.077 1875.57,749.03 1876.33,747.983 1877.09,746.936 1877.85,745.891 1878.6,744.845 1879.36,743.8 1880.12,742.755 1880.88,741.71 1881.64,740.666 1882.4,739.623 1883.16,738.58 1883.92,737.538 1884.67,736.496 1885.43,735.454 1886.19,734.414 1886.95,733.373 1887.71,732.333 1888.47,731.294 1889.23,730.256 1889.98,729.217 1890.74,728.18 1891.5,727.143 1892.26,726.106 1893.02,725.07 1893.78,724.035 1894.54,723 1895.3,721.965 1896.05,720.931 1896.81,719.898 1897.57,718.865 1898.33,717.833 1899.09,716.801 1899.85,715.77 1900.61,714.739 1901.36,713.709 1902.12,712.679 1902.88,711.65 1903.64,710.622 1904.4,709.594 1905.16,708.566 1905.92,707.539 1906.67,706.513 1907.43,705.487 1908.19,704.461 1908.95,703.436 1909.71,702.412 1910.47,701.388 1911.23,700.365 1911.99,699.342 1912.74,698.32 1913.5,697.299 1914.26,696.277 1915.02,695.256 1915.78,694.236 1916.54,693.217 1917.3,692.198 1918.05,691.18 1918.81,690.162 1919.57,689.145 1920.33,688.129 1921.09,687.114 1921.85,686.099 1922.61,685.085 1923.36,684.072 1924.12,683.059 1924.88,682.047 1925.64,681.036 1926.4,680.025 1927.16,679.015 1927.92,678.006 1928.68,676.997 1929.43,675.989 1930.19,674.982 1930.95,673.976 1931.71,672.97 1932.47,671.965 1933.23,670.96 1933.99,669.957 1934.74,668.954 1935.5,667.951 1936.26,666.95 1937.02,665.949 1937.78,664.948 1938.54,663.949 1939.3,662.95 1940.05,661.952 1940.81,660.954 1941.57,659.957 1942.33,658.961 1943.09,657.966 1943.85,656.971 1944.61,655.977 1945.37,654.983 1946.12,653.99 1946.88,652.998 1947.64,652.007 1948.4,651.016 1949.16,650.027 1949.92,649.038 1950.68,648.051 1951.43,647.064 1952.19,646.078 1952.95,645.093 1953.71,644.109 1954.47,643.126 1955.23,642.144 1955.99,641.163 1956.74,640.183 1957.5,639.204 1958.26,638.225 1959.02,637.248 1959.78,636.271 1960.54,635.296 1961.3,634.321 1962.06,633.347 1962.81,632.375 1963.57,631.403 1964.33,630.432 1965.09,629.462 1965.85,628.493 1966.61,627.524 1967.37,626.557 1968.12,625.591 1968.88,624.625 1969.64,623.661 1970.4,622.697 1971.16,621.735 1971.92,620.773 1972.68,619.812 1973.44,618.851 1974.19,617.892 1974.95,616.934 1975.71,615.977 1976.47,615.022 1977.23,614.068 1977.99,613.115 1978.75,612.164 1979.5,611.213 1980.26,610.264 1981.02,609.317 1981.78,608.371 1982.54,607.425 1983.3,606.482 1984.06,605.539 1984.81,604.598 1985.57,603.658 1986.33,602.72 1987.09,601.782 1987.85,600.846 1988.61,599.912 1989.37,598.978 1990.13,598.046 1990.88,597.116 1991.64,596.186 1992.4,595.258 1993.16,594.331 1993.92,593.405 1994.68,592.481 1995.44,591.558 1996.19,590.636 1996.95,589.715 1997.71,588.795 1998.47,587.877 1999.23,586.961 1999.99,586.047 2000.75,585.134 2001.5,584.224 2002.26,583.315 2003.02,582.409 2003.78,581.504 2004.54,580.601 2005.3,579.7 2006.06,578.801 2006.82,577.904 2007.57,577.009 2008.33,576.116 2009.09,575.225 2009.85,574.335 2010.61,573.448 2011.37,572.562 2012.13,571.679 2012.88,570.797 2013.64,569.917 2014.4,569.039 2015.16,568.163 2015.92,567.289 2016.68,566.417 2017.44,565.547 2018.19,564.678 2018.95,563.81 2019.71,562.946 2020.47,562.084 2021.23,561.226 2021.99,560.37 2022.75,559.518 2023.51,558.669 2024.26,557.823 2025.02,556.98 2025.78,556.139 2026.54,555.302 2027.3,554.468 2028.06,553.638 2028.82,552.81 2029.57,551.985 2030.33,551.163 2031.09,550.344 2031.85,549.529 2032.61,548.716 2033.37,547.907 2034.13,547.1 2034.89,546.297 2035.64,545.496 2036.4,544.697 2037.16,543.901 2037.92,543.109 2038.68,542.324 2039.44,541.543 2040.2,540.768 2040.95,539.998 2041.71,539.233 2042.47,538.474 2043.23,537.72 2043.99,536.972 2044.75,536.228 2045.51,535.49 2046.26,534.758 2047.02,534.031 2047.78,533.309 2048.54,532.592 2049.3,531.881 2050.06,531.175 2050.82,530.474 2051.58,529.779 2052.33,529.083 2053.09,528.396 2053.85,527.719 2054.61,527.053 2055.37,526.396 2056.13,525.751 2056.89,525.116 2057.64,524.491 2058.4,523.877 2059.16,523.273 2059.92,522.679 2060.68,522.096 2061.44,521.524 2062.2,520.962 2062.95,520.41 2063.71,519.869 2064.47,519.338 2065.23,518.816 2065.99,518.293 2066.75,517.793 2067.51,517.316 2068.27,516.864 2069.02,516.436 2069.78,516.031 2070.54,515.651 2071.3,515.294 2072.06,514.961 2072.82,514.652 2073.58,514.366 2074.33,514.105 2075.09,513.867 2075.85,513.654 2076.61,513.457 2077.37,513.269 2078.13,513.145 2078.89,513.085 2079.64,513.089 2080.4,513.157 2081.16,513.288 2081.92,513.484 2082.68,513.744 2083.44,514.068 2084.2,514.456 2084.96,514.908 2085.71,515.453 2086.47,516.14 2087.23,516.968 2087.99,517.937 2088.75,518.996 2089.51,520.244 2090.27,521.801 2091.02,523.668 2091.78,525.843 2092.54,528.327 2093.3,531.077 2094.06,534.384 2094.82,538.548 2095.58,543.57 2096.34,549.45 2097.09,556.545 2097.85,565.799 2098.61,577.222 2099.37,592.539 2100.13,612.925 2100.89,642.085 2101.65,685.478 2102.4,754.527 2103.16,872.756 2103.92,1072.38 2104.68,1316.76 2105.44,1456.74 2106.2,1495.81 2106.96,1503.57 2107.71,1504.51 2108.47,1504.01 2109.23,1503.19 2109.99,1502.28 2110.75,1501.34 2111.51,1500.38 2112.27,1499.39 2113.03,1498.39 2113.78,1497.38 2114.54,1496.34 2115.3,1495.28 2116.06,1494.21 2116.82,1493.12 2117.58,1492 2118.34,1490.87 2119.09,1489.71 2119.85,1488.54 2120.61,1487.34 2121.37,1486.12 2122.13,1484.88 2122.89,1483.62 2123.65,1482.34 2124.4,1481.03 2125.16,1479.69 2125.92,1478.34 2126.68,1476.95 2127.44,1475.55 2128.2,1474.12 2128.96,1472.66 2129.72,1471.17 2130.47,1469.66 2131.23,1468.12 2131.99,1466.55 2132.75,1464.96 2133.51,1463.33 2134.27,1461.67 2135.03,1459.99 2135.78,1458.27 2136.54,1456.52 2137.3,1454.74 2138.06,1452.93 2138.82,1451.08 2139.58,1449.2 2140.34,1447.29 2141.09,1445.34 2141.85,1443.35 2142.61,1441.33 2143.37,1439.28 2144.13,1437.18 2144.89,1435.04 2145.65,1432.87 2146.41,1430.65 2147.16,1428.4 2147.92,1426.1 2148.68,1423.77 2149.44,1421.39 2150.2,1418.96 2150.96,1416.5 2151.72,1413.99 2152.47,1411.43 2153.23,1408.83 2153.99,1406.19 2154.75,1403.5 2155.51,1400.76 2156.27,1397.97 2157.03,1395.14 2157.79,1392.27 2158.54,1389.34 2159.3,1386.37 2160.06,1383.35 2160.82,1380.29 2161.58,1377.18 2162.34,1374.03 2163.1,1370.84 2163.85,1367.6 2164.61,1364.32 2165.37,1361 2166.13,1357.64 2166.89,1354.25 2167.65,1350.83 2168.41,1347.37 2169.16,1343.87 2169.92,1340.36 2170.68,1336.83 2171.44,1333.28 2172.2,1329.72 2172.96,1326.14 2173.72,1322.53 2174.48,1318.91 2175.23,1315.32 2175.99,1311.74 2176.75,1308.19 2177.51,1304.65 2178.27,1301.13 2179.03,1297.63 2179.79,1294.15 2180.54,1290.69 2181.3,1287.28 2182.06,1283.92 2182.82,1280.62 2183.58,1277.37 2184.34,1274.18 2185.1,1271.03 2185.85,1267.94 2186.61,1264.92 2187.37,1261.96 2188.13,1259.08 2188.89,1256.26 2189.65,1253.51 2190.41,1250.82 2191.17,1248.21 2191.92,1245.66 2192.68,1243.17 2193.44,1240.76 2194.2,1238.41 2194.96,1236.12 2195.72,1233.9 2196.48,1231.73 2197.23,1229.62 2197.99,1227.56 2198.75,1225.56 2199.51,1223.62 2200.27,1221.72 2201.03,1219.87 2201.79,1218.05 2202.54,1216.28 2203.3,1214.56 2204.06,1212.88 2204.82,1211.23 2205.58,1209.61 2206.34,1208.02 2207.1,1206.46 2207.86,1204.93 2208.61,1203.43 2209.37,1201.96 2210.13,1200.5 2210.89,1199.07 2211.65,1197.65 2212.41,1196.26 2213.17,1194.89 2213.92,1193.53 2214.68,1192.19 2215.44,1190.86 2216.2,1189.54 2216.96,1188.24 2217.72,1186.95 2218.48,1185.67 2219.23,1184.4 2219.99,1183.14 2220.75,1181.88 2221.51,1180.64 2222.27,1179.4 2223.03,1178.17 2223.79,1176.95 2224.55,1175.73 2225.3,1174.51 2226.06,1173.31 2226.82,1172.1 2227.58,1170.9 2228.34,1169.71 2229.1,1168.52 2229.86,1167.33 2230.61,1166.15 2231.37,1164.97 2232.13,1163.79 2232.89,1162.62 2233.65,1161.44 2234.41,1160.27 2235.17,1159.11 2235.93,1157.94 2236.68,1156.78 2237.44,1155.61 2238.2,1154.45 2238.96,1153.29 2239.72,1152.13 2240.48,1150.98 2241.24,1149.82 2241.99,1148.67 2242.75,1147.52 2243.51,1146.36 2244.27,1145.21 2245.03,1144.06 2245.79,1142.91 2246.55,1141.76 2247.3,1140.62 2248.06,1139.47 2248.82,1138.32 2249.58,1137.17 2250.34,1136.03 2251.1,1134.88 2251.86,1133.74 2252.62,1132.6 2253.37,1131.45 2254.13,1130.31 2254.89,1129.17 2255.65,1128.03 2256.41,1126.88 2257.17,1125.74 2257.93,1124.6 2258.68,1123.46 2259.44,1122.32 2260.2,1121.18 2260.96,1120.04 2261.72,1118.9 2262.48,1117.76 2263.24,1116.62 2263.99,1115.48 2264.75,1114.35 2265.51,1113.21 2266.27,1112.07 2267.03,1110.93 2267.79,1109.8 2268.55,1108.66 2269.31,1107.52 2270.06,1106.39 2270.82,1105.25 2271.58,1104.11 2272.34,1102.98 2273.1,1101.84 2273.86,1100.71 2274.62,1099.57 2275.37,1098.44 2276.13,1097.3 2276.89,1096.17 2277.65,1095.03 2278.41,1093.9 2279.17,1092.76 2279.93,1091.63 2280.68,1090.5 2281.44,1089.36 2282.2,1088.23 2282.96,1087.1 2283.72,1085.97 2284.48,1084.83 2285.24,1083.7 2286,1082.57 2286.75,1081.44 2287.51,1080.3 2288.27,1079.17 2289.03,1078.04 2289.79,1076.91 2290.55,1075.78 2291.31,1074.65 2292.06,1073.52 2292.82,1072.39 2293.58,1071.26 2294.34,1070.13 2295.1,1069 2295.86,1067.87 2296.62,1066.74 2297.38,1065.61 2298.13,1064.48 2298.89,1063.35 2299.65,1062.22 2300.41,1061.09 2301.17,1059.96 2301.93,1058.84 2302.69,1057.71 2303.44,1056.58 2304.2,1055.45 2304.96,1054.32 2305.72,1053.2 2306.48,1052.07 2307.24,1050.94 2308,1049.82 2308.75,1048.69 2309.51,1047.56 2310.27,1046.44 2311.03,1045.31 2311.79,1044.19 2312.55,1043.06 2313.31,1041.94 2314.07,1040.81 2314.82,1039.69 2315.58,1038.56 2316.34,1037.44 2317.1,1036.31 2317.86,1035.19 2318.62,1034.06 2319.38,1032.94 2320.13,1031.82 2320.89,1030.69 2321.65,1029.57 2322.41,1028.45 2323.17,1027.32 2323.93,1026.2 2324.69,1025.08 2325.44,1023.96 2326.2,1022.84 2326.96,1021.71 2327.72,1020.59 2328.48,1019.47 2329.24,1018.35 2330,1017.23 2330.76,1016.11 2331.51,1014.99 2332.27,1013.87 2333.03,1012.75 2333.79,1011.63 2334.55,1010.51 2335.31,1009.39 2336.07,1008.27 2336.82,1007.15 2337.58,1006.03 2338.34,1004.91 2339.1,1003.8 2339.86,1002.68 2340.62,1001.56 2341.38,1000.44 2342.13,999.325 2342.89,998.208 2343.65,997.091 2344.41,995.974 2345.17,994.857 2345.93,993.741 2346.69,992.625 2347.45,991.509 2348.2,990.393 2348.96,989.277 2349.72,988.162 2350.48,987.047 2351.24,985.932 2352,984.818 2352.76,983.703 "/>
</svg>
