<?xml version="1.0" encoding="utf-8"?>
<svg xmlns="http://www.w3.org/2000/svg" xmlns:xlink="http://www.w3.org/1999/xlink" width="600" height="400" viewBox="0 0 2400 1600">
<defs>
  <clipPath id="clip790">
    <rect x="0" y="0" width="2400" height="1600"/>
  </clipPath>
</defs>
<path clip-path="url(#clip790)" d="
M0 1600 L2400 1600 L2400 0 L0 0  Z
  " fill="#ffffff" fill-rule="evenodd" fill-opacity="1"/>
<defs>
  <clipPath id="clip791">
    <rect x="480" y="0" width="1681" height="1600"/>
  </clipPath>
</defs>
<path clip-path="url(#clip790)" d="
M188.104 1552.76 L2352.76 1552.76 L2352.76 47.2441 L188.104 47.2441  Z
  " fill="#ffffff" fill-rule="evenodd" fill-opacity="1"/>
<defs>
  <clipPath id="clip792">
    <rect x="188" y="47" width="2166" height="1507"/>
  </clipPath>
</defs>
<polyline clip-path="url(#clip790)" style="stroke:#000000; stroke-linecap:round; stroke-linejoin:round; stroke-width:4; stroke-opacity:1; fill:none" points="
  188.104,1552.76 2352.76,1552.76 
  "/>
<polyline clip-path="url(#clip790)" style="stroke:#000000; stroke-linecap:round; stroke-linejoin:round; stroke-width:4; stroke-opacity:1; fill:none" points="
  188.104,47.2441 2352.76,47.2441 
  "/>
<polyline clip-path="url(#clip792)" style="stroke:#000000; stroke-linecap:round; stroke-linejoin:round; stroke-width:10; stroke-opacity:0.3; fill:none" points="
  188.104,1517.97 2352.76,1517.97 
  "/>
<polyline clip-path="url(#clip792)" style="stroke:#000000; stroke-linecap:round; stroke-linejoin:round; stroke-width:10; stroke-opacity:0.3; fill:none" points="
  188.104,1158.98 2352.76,1158.98 
  "/>
<polyline clip-path="url(#clip792)" style="stroke:#000000; stroke-linecap:round; stroke-linejoin:round; stroke-width:10; stroke-opacity:0.3; fill:none" points="
  188.104,800 2352.76,800 
  "/>
<polyline clip-path="url(#clip792)" style="stroke:#000000; stroke-linecap:round; stroke-linejoin:round; stroke-width:10; stroke-opacity:0.3; fill:none" points="
  188.104,441.017 2352.76,441.017 
  "/>
<polyline clip-path="url(#clip792)" style="stroke:#000000; stroke-linecap:round; stroke-linejoin:round; stroke-width:10; stroke-opacity:0.3; fill:none" points="
  188.104,82.0332 2352.76,82.0332 
  "/>
<polyline clip-path="url(#clip790)" style="stroke:#000000; stroke-linecap:round; stroke-linejoin:round; stroke-width:4; stroke-opacity:1; fill:none" points="
  188.104,1552.76 188.104,47.2441 
  "/>
<polyline clip-path="url(#clip790)" style="stroke:#000000; stroke-linecap:round; stroke-linejoin:round; stroke-width:4; stroke-opacity:1; fill:none" points="
  2352.76,1552.76 2352.76,47.2441 
  "/>
<polyline clip-path="url(#clip790)" style="stroke:#000000; stroke-linecap:round; stroke-linejoin:round; stroke-width:4; stroke-opacity:1; fill:none" points="
  188.104,1517.97 207.002,1517.97 
  "/>
<polyline clip-path="url(#clip790)" style="stroke:#000000; stroke-linecap:round; stroke-linejoin:round; stroke-width:4; stroke-opacity:1; fill:none" points="
  188.104,1158.98 207.002,1158.98 
  "/>
<polyline clip-path="url(#clip790)" style="stroke:#000000; stroke-linecap:round; stroke-linejoin:round; stroke-width:4; stroke-opacity:1; fill:none" points="
  188.104,800 207.002,800 
  "/>
<polyline clip-path="url(#clip790)" style="stroke:#000000; stroke-linecap:round; stroke-linejoin:round; stroke-width:4; stroke-opacity:1; fill:none" points="
  188.104,441.017 207.002,441.017 
  "/>
<polyline clip-path="url(#clip790)" style="stroke:#000000; stroke-linecap:round; stroke-linejoin:round; stroke-width:4; stroke-opacity:1; fill:none" points="
  188.104,82.0332 207.002,82.0332 
  "/>
<path clip-path="url(#clip790)" d="M51.6634 1537.76 L59.3023 1537.76 L59.3023 1511.39 L50.9921 1513.06 L50.9921 1508.8 L59.256 1507.13 L63.9319 1507.13 L63.9319 1537.76 L71.5707 1537.76 L71.5707 1541.69 L51.6634 1541.69 L51.6634 1537.76 Z" fill="#000000" fill-rule="evenodd" fill-opacity="1" /><path clip-path="url(#clip790)" d="M91.0151 1510.21 Q87.404 1510.21 85.5753 1513.78 Q83.7697 1517.32 83.7697 1524.45 Q83.7697 1531.56 85.5753 1535.12 Q87.404 1538.66 91.0151 1538.66 Q94.6493 1538.66 96.4548 1535.12 Q98.2835 1531.56 98.2835 1524.45 Q98.2835 1517.32 96.4548 1513.78 Q94.6493 1510.21 91.0151 1510.21 M91.0151 1506.51 Q96.8252 1506.51 99.8808 1511.12 Q102.959 1515.7 102.959 1524.45 Q102.959 1533.18 99.8808 1537.78 Q96.8252 1542.37 91.0151 1542.37 Q85.2049 1542.37 82.1262 1537.78 Q79.0707 1533.18 79.0707 1524.45 Q79.0707 1515.7 82.1262 1511.12 Q85.2049 1506.51 91.0151 1506.51 Z" fill="#000000" fill-rule="evenodd" fill-opacity="1" /><path clip-path="url(#clip790)" d="M102.959 1500.61 L127.071 1500.61 L127.071 1503.81 L102.959 1503.81 L102.959 1500.61 Z" fill="#000000" fill-rule="evenodd" fill-opacity="1" /><path clip-path="url(#clip790)" d="M135.929 1511.09 L142.136 1511.09 L142.136 1489.66 L135.384 1491.02 L135.384 1487.56 L142.098 1486.2 L145.898 1486.2 L145.898 1511.09 L152.104 1511.09 L152.104 1514.28 L135.929 1514.28 L135.929 1511.09 Z" fill="#000000" fill-rule="evenodd" fill-opacity="1" /><path clip-path="url(#clip790)" d="M81.3985 1178.78 L89.0374 1178.78 L89.0374 1152.41 L80.7272 1154.08 L80.7272 1149.82 L88.9911 1148.15 L93.667 1148.15 L93.667 1178.78 L101.306 1178.78 L101.306 1182.71 L81.3985 1182.71 L81.3985 1178.78 Z" fill="#000000" fill-rule="evenodd" fill-opacity="1" /><path clip-path="url(#clip790)" d="M120.75 1151.23 Q117.139 1151.23 115.31 1154.79 Q113.505 1158.34 113.505 1165.47 Q113.505 1172.57 115.31 1176.14 Q117.139 1179.68 120.75 1179.68 Q124.384 1179.68 126.19 1176.14 Q128.019 1172.57 128.019 1165.47 Q128.019 1158.34 126.19 1154.79 Q124.384 1151.23 120.75 1151.23 M120.75 1147.53 Q126.56 1147.53 129.616 1152.13 Q132.695 1156.72 132.695 1165.47 Q132.695 1174.19 129.616 1178.8 Q126.56 1183.38 120.75 1183.38 Q114.94 1183.38 111.861 1178.8 Q108.806 1174.19 108.806 1165.47 Q108.806 1156.72 111.861 1152.13 Q114.94 1147.53 120.75 1147.53 Z" fill="#000000" fill-rule="evenodd" fill-opacity="1" /><path clip-path="url(#clip790)" d="M142.399 1129.72 Q139.465 1129.72 137.98 1132.62 Q136.513 1135.5 136.513 1141.29 Q136.513 1147.06 137.98 1149.96 Q139.465 1152.84 142.399 1152.84 Q145.352 1152.84 146.819 1149.96 Q148.305 1147.06 148.305 1141.29 Q148.305 1135.5 146.819 1132.62 Q145.352 1129.72 142.399 1129.72 M142.399 1126.71 Q147.12 1126.71 149.603 1130.46 Q152.104 1134.18 152.104 1141.29 Q152.104 1148.38 149.603 1152.12 Q147.12 1155.85 142.399 1155.85 Q137.679 1155.85 135.177 1152.12 Q132.695 1148.38 132.695 1141.29 Q132.695 1134.18 135.177 1130.46 Q137.679 1126.71 142.399 1126.71 Z" fill="#000000" fill-rule="evenodd" fill-opacity="1" /><path clip-path="url(#clip790)" d="M84.088 819.792 L91.7269 819.792 L91.7269 793.427 L83.4167 795.093 L83.4167 790.834 L91.6806 789.168 L96.3565 789.168 L96.3565 819.792 L103.995 819.792 L103.995 823.728 L84.088 823.728 L84.088 819.792 Z" fill="#000000" fill-rule="evenodd" fill-opacity="1" /><path clip-path="url(#clip790)" d="M123.44 792.246 Q119.829 792.246 118 795.811 Q116.194 799.353 116.194 806.482 Q116.194 813.589 118 817.154 Q119.829 820.695 123.44 820.695 Q127.074 820.695 128.879 817.154 Q130.708 813.589 130.708 806.482 Q130.708 799.353 128.879 795.811 Q127.074 792.246 123.44 792.246 M123.44 788.543 Q129.25 788.543 132.305 793.149 Q135.384 797.732 135.384 806.482 Q135.384 815.209 132.305 819.816 Q129.25 824.399 123.44 824.399 Q117.63 824.399 114.551 819.816 Q111.495 815.209 111.495 806.482 Q111.495 797.732 114.551 793.149 Q117.63 788.543 123.44 788.543 Z" fill="#000000" fill-rule="evenodd" fill-opacity="1" /><path clip-path="url(#clip790)" d="M135.929 793.12 L142.136 793.12 L142.136 771.698 L135.384 773.052 L135.384 769.591 L142.098 768.237 L145.898 768.237 L145.898 793.12 L152.104 793.12 L152.104 796.317 L135.929 796.317 L135.929 793.12 Z" fill="#000000" fill-rule="evenodd" fill-opacity="1" /><path clip-path="url(#clip790)" d="M82.9784 460.809 L90.6172 460.809 L90.6172 434.443 L82.3071 436.11 L82.3071 431.851 L90.5709 430.184 L95.2468 430.184 L95.2468 460.809 L102.886 460.809 L102.886 464.744 L82.9784 464.744 L82.9784 460.809 Z" fill="#000000" fill-rule="evenodd" fill-opacity="1" /><path clip-path="url(#clip790)" d="M122.33 433.263 Q118.719 433.263 116.89 436.828 Q115.085 440.369 115.085 447.499 Q115.085 454.605 116.89 458.17 Q118.719 461.712 122.33 461.712 Q125.964 461.712 127.77 458.17 Q129.598 454.605 129.598 447.499 Q129.598 440.369 127.77 436.828 Q125.964 433.263 122.33 433.263 M122.33 429.559 Q128.14 429.559 131.196 434.166 Q134.274 438.749 134.274 447.499 Q134.274 456.226 131.196 460.832 Q128.14 465.415 122.33 465.415 Q116.52 465.415 113.441 460.832 Q110.386 456.226 110.386 447.499 Q110.386 438.749 113.441 434.166 Q116.52 429.559 122.33 429.559 Z" fill="#000000" fill-rule="evenodd" fill-opacity="1" /><path clip-path="url(#clip790)" d="M138.845 434.136 L152.104 434.136 L152.104 437.334 L134.274 437.334 L134.274 434.136 Q136.437 431.898 140.161 428.137 Q143.904 424.356 144.863 423.266 Q146.688 421.216 147.402 419.805 Q148.136 418.376 148.136 417.003 Q148.136 414.764 146.556 413.354 Q144.995 411.943 142.475 411.943 Q140.688 411.943 138.694 412.564 Q136.719 413.185 134.462 414.445 L134.462 410.608 Q136.757 409.686 138.751 409.216 Q140.744 408.746 142.399 408.746 Q146.763 408.746 149.358 410.928 Q151.954 413.109 151.954 416.758 Q151.954 418.488 151.295 420.049 Q150.656 421.592 148.944 423.698 Q148.474 424.244 145.954 426.858 Q143.434 429.453 138.845 434.136 Z" fill="#000000" fill-rule="evenodd" fill-opacity="1" /><path clip-path="url(#clip790)" d="M82.3201 101.826 L89.9589 101.826 L89.9589 75.46 L81.6488 77.1267 L81.6488 72.8674 L89.9126 71.2008 L94.5885 71.2008 L94.5885 101.826 L102.227 101.826 L102.227 105.761 L82.3201 105.761 L82.3201 101.826 Z" fill="#000000" fill-rule="evenodd" fill-opacity="1" /><path clip-path="url(#clip790)" d="M121.672 74.2795 Q118.061 74.2795 116.232 77.8443 Q114.426 81.3859 114.426 88.5155 Q114.426 95.6219 116.232 99.1867 Q118.061 102.728 121.672 102.728 Q125.306 102.728 127.112 99.1867 Q128.94 95.6219 128.94 88.5155 Q128.94 81.3859 127.112 77.8443 Q125.306 74.2795 121.672 74.2795 M121.672 70.5758 Q127.482 70.5758 130.537 75.1822 Q133.616 79.7656 133.616 88.5155 Q133.616 97.2423 130.537 101.849 Q127.482 106.432 121.672 106.432 Q115.862 106.432 112.783 101.849 Q109.727 97.2423 109.727 88.5155 Q109.727 79.7656 112.783 75.1822 Q115.862 70.5758 121.672 70.5758 Z" fill="#000000" fill-rule="evenodd" fill-opacity="1" /><path clip-path="url(#clip790)" d="M146.311 63.2101 Q149.038 63.7932 150.562 65.6363 Q152.104 67.4795 152.104 70.1878 Q152.104 74.3443 149.245 76.6201 Q146.387 78.8958 141.12 78.8958 Q139.352 78.8958 137.472 78.5385 Q135.61 78.1999 133.616 77.504 L133.616 73.8365 Q135.196 74.7581 137.077 75.2283 Q138.958 75.6985 141.008 75.6985 Q144.581 75.6985 146.443 74.2879 Q148.324 72.8773 148.324 70.1878 Q148.324 67.7052 146.575 66.3134 Q144.844 64.9028 141.741 64.9028 L138.469 64.9028 L138.469 61.7807 L141.892 61.7807 Q144.694 61.7807 146.18 60.6711 Q147.666 59.5426 147.666 57.4361 Q147.666 55.2732 146.123 54.126 Q144.6 52.9599 141.741 52.9599 Q140.18 52.9599 138.393 53.2984 Q136.607 53.637 134.462 54.3517 L134.462 50.9663 Q136.625 50.3644 138.506 50.0635 Q140.406 49.7626 142.08 49.7626 Q146.405 49.7626 148.926 51.7374 Q151.446 53.6934 151.446 57.0412 Q151.446 59.3733 150.111 60.9908 Q148.775 62.5895 146.311 63.2101 Z" fill="#000000" fill-rule="evenodd" fill-opacity="1" /><path clip-path="url(#clip792)" d="
M307.164 1507.19 L307.164 1552.76 L444.773 1552.76 L444.773 1507.19 L307.164 1507.19 L307.164 1507.19  Z
  " fill="#8470ff" fill-rule="evenodd" fill-opacity="1"/>
<polyline clip-path="url(#clip792)" style="stroke:#000000; stroke-linecap:round; stroke-linejoin:round; stroke-width:24; stroke-opacity:0.8; fill:none" points="
  307.164,1507.19 307.164,1552.76 444.773,1552.76 444.773,1507.19 307.164,1507.19 
  "/>
<path clip-path="url(#clip792)" d="
M444.773 1497.87 L444.773 1552.76 L582.383 1552.76 L582.383 1497.87 L444.773 1497.87 L444.773 1497.87  Z
  " fill="#ab82ff" fill-rule="evenodd" fill-opacity="1"/>
<polyline clip-path="url(#clip792)" style="stroke:#000000; stroke-linecap:round; stroke-linejoin:round; stroke-width:24; stroke-opacity:0.8; fill:none" points="
  444.773,1497.87 444.773,1552.76 582.383,1552.76 582.383,1497.87 444.773,1497.87 
  "/>
<path clip-path="url(#clip792)" d="
M582.383 1493.55 L582.383 1552.76 L719.992 1552.76 L719.992 1493.55 L582.383 1493.55 L582.383 1493.55  Z
  " fill="#ee7ae9" fill-rule="evenodd" fill-opacity="1"/>
<polyline clip-path="url(#clip792)" style="stroke:#000000; stroke-linecap:round; stroke-linejoin:round; stroke-width:24; stroke-opacity:0.8; fill:none" points="
  582.383,1493.55 582.383,1552.76 719.992,1552.76 719.992,1493.55 582.383,1493.55 
  "/>
<path clip-path="url(#clip792)" d="
M857.602 1395.34 L857.602 1552.76 L995.211 1552.76 L995.211 1395.34 L857.602 1395.34 L857.602 1395.34  Z
  " fill="#54ff9f" fill-rule="evenodd" fill-opacity="1"/>
<polyline clip-path="url(#clip792)" style="stroke:#000000; stroke-linecap:round; stroke-linejoin:round; stroke-width:24; stroke-opacity:0.8; fill:none" points="
  857.602,1395.34 857.602,1552.76 995.211,1552.76 995.211,1395.34 857.602,1395.34 
  "/>
<path clip-path="url(#clip792)" d="
M995.211 1341.38 L995.211 1552.76 L1132.82 1552.76 L1132.82 1341.38 L995.211 1341.38 L995.211 1341.38  Z
  " fill="#7fff00" fill-rule="evenodd" fill-opacity="1"/>
<polyline clip-path="url(#clip792)" style="stroke:#000000; stroke-linecap:round; stroke-linejoin:round; stroke-width:24; stroke-opacity:0.8; fill:none" points="
  995.211,1341.38 995.211,1552.76 1132.82,1552.76 1132.82,1341.38 995.211,1341.38 
  "/>
<path clip-path="url(#clip792)" d="
M1270.43 373.231 L1270.43 1552.76 L1408.04 1552.76 L1408.04 373.231 L1270.43 373.231 L1270.43 373.231  Z
  " fill="#ffa500" fill-rule="evenodd" fill-opacity="1"/>
<polyline clip-path="url(#clip792)" style="stroke:#000000; stroke-linecap:round; stroke-linejoin:round; stroke-width:24; stroke-opacity:0.8; fill:none" points="
  1270.43,373.231 1270.43,1552.76 1408.04,1552.76 1408.04,373.231 1270.43,373.231 
  "/>
<path clip-path="url(#clip792)" d="
M1545.65 1184.43 L1545.65 1552.76 L1683.26 1552.76 L1683.26 1184.43 L1545.65 1184.43 L1545.65 1184.43  Z
  " fill="#f08080" fill-rule="evenodd" fill-opacity="1"/>
<polyline clip-path="url(#clip792)" style="stroke:#000000; stroke-linecap:round; stroke-linejoin:round; stroke-width:24; stroke-opacity:0.8; fill:none" points="
  1545.65,1184.43 1545.65,1552.76 1683.26,1552.76 1683.26,1184.43 1545.65,1184.43 
  "/>
<path clip-path="url(#clip792)" d="
M1820.87 715.062 L1820.87 1552.76 L1958.48 1552.76 L1958.48 715.062 L1820.87 715.062 L1820.87 715.062  Z
  " fill="#ff3030" fill-rule="evenodd" fill-opacity="1"/>
<polyline clip-path="url(#clip792)" style="stroke:#000000; stroke-linecap:round; stroke-linejoin:round; stroke-width:24; stroke-opacity:0.8; fill:none" points="
  1820.87,715.062 1820.87,1552.76 1958.48,1552.76 1958.48,715.062 1820.87,715.062 
  "/>
<path clip-path="url(#clip792)" d="
M2096.09 828.978 L2096.09 1552.76 L2233.7 1552.76 L2233.7 828.978 L2096.09 828.978 L2096.09 828.978  Z
  " fill="#8b1a1a" fill-rule="evenodd" fill-opacity="1"/>
<polyline clip-path="url(#clip792)" style="stroke:#000000; stroke-linecap:round; stroke-linejoin:round; stroke-width:24; stroke-opacity:0.8; fill:none" points="
  2096.09,828.978 2096.09,1552.76 2233.7,1552.76 2233.7,828.978 2096.09,828.978 
  "/>
<circle clip-path="url(#clip792)" style="fill:#8470ff; stroke:none; fill-opacity:0" cx="375.969" cy="1507.19" r="2"/>
<circle clip-path="url(#clip792)" style="fill:#ab82ff; stroke:none; fill-opacity:0" cx="513.578" cy="1497.87" r="2"/>
<circle clip-path="url(#clip792)" style="fill:#ee7ae9; stroke:none; fill-opacity:0" cx="651.187" cy="1493.55" r="2"/>
<circle clip-path="url(#clip792)" style="fill:#54ff9f; stroke:none; fill-opacity:0" cx="926.406" cy="1395.34" r="2"/>
<circle clip-path="url(#clip792)" style="fill:#7fff00; stroke:none; fill-opacity:0" cx="1064.02" cy="1341.38" r="2"/>
<circle clip-path="url(#clip792)" style="fill:#ffa500; stroke:none; fill-opacity:0" cx="1339.23" cy="373.231" r="2"/>
<circle clip-path="url(#clip792)" style="fill:#f08080; stroke:none; fill-opacity:0" cx="1614.45" cy="1184.43" r="2"/>
<circle clip-path="url(#clip792)" style="fill:#ff3030; stroke:none; fill-opacity:0" cx="1889.67" cy="715.062" r="2"/>
<circle clip-path="url(#clip792)" style="fill:#8b1a1a; stroke:none; fill-opacity:0" cx="2164.89" cy="828.978" r="2"/>
<path clip-path="url(#clip792)" d="M414.369 1507.19 L356.769 1473.59 L356.769 1540.79 L414.369 1507.19 Z" fill="#8470ff" fill-rule="evenodd" fill-opacity="0.6" stroke="#404040" stroke-opacity="0.6" stroke-width="12.8"/>
<path clip-path="url(#clip792)" d="M513.578 1545.87 L503.978 1514.48 L472.01 1521.87 L494.378 1497.87 L472.01 1473.87 L503.978 1481.26 L513.578 1449.87 L523.178 1481.26 L555.146 1473.87 L532.778 1497.87 L555.146 1521.87 L523.178 1514.48 L513.578 1545.87 Z" fill="#ab82ff" fill-rule="evenodd" fill-opacity="0.6" stroke="#404040" stroke-opacity="0.6" stroke-width="12.8"/>
<path clip-path="url(#clip792)" d="M612.787 1493.55 L670.387 1527.15 L670.387 1459.95 L612.787 1493.55 Z" fill="#ee7ae9" fill-rule="evenodd" fill-opacity="0.6" stroke="#404040" stroke-opacity="0.6" stroke-width="12.8"/>
<path clip-path="url(#clip792)" d="M926.406 1443.34 L912.822 1408.92 L878.406 1395.34 L912.822 1381.75 L926.406 1347.34 L939.99 1381.75 L974.406 1395.34 L939.99 1408.92 L926.406 1443.34 Z" fill="#54ff9f" fill-rule="evenodd" fill-opacity="0.6" stroke="#404040" stroke-opacity="0.6" stroke-width="12.8"/>
<circle clip-path="url(#clip792)" cx="1064.02" cy="1341.38" r="43.2" fill="#7fff00" fill-rule="evenodd" fill-opacity="0.6" stroke="#404040" stroke-opacity="0.6" stroke-width="12.8"/>
<path clip-path="url(#clip792)" d="M1339.23 325.231 L1291.23 373.231 L1339.23 421.231 L1387.23 373.231 L1339.23 325.231 Z" fill="#ffa500" fill-rule="evenodd" fill-opacity="0.6" stroke="#404040" stroke-opacity="0.6" stroke-width="12.8"/>
<path clip-path="url(#clip792)" d="M1614.45 1232.43 L1580.52 1218.36 L1566.45 1184.43 L1580.52 1150.49 L1614.45 1136.43 L1648.39 1150.49 L1662.45 1184.43 L1648.39 1218.36 Z" fill="#f08080" fill-rule="evenodd" fill-opacity="0.6" stroke="#404040" stroke-opacity="0.6" stroke-width="12.8"/>
<path clip-path="url(#clip792)" d="M1889.67 667.062 L1844.02 700.23 L1861.45 753.894 L1917.9 753.894 L1935.32 700.23 Z" fill="#ff3030" fill-rule="evenodd" fill-opacity="0.6" stroke="#404040" stroke-opacity="0.6" stroke-width="12.8"/>
<path clip-path="url(#clip792)" d="M2164.89 780.978 L2116.89 876.978 L2212.89 876.978 L2164.89 780.978 Z" fill="#8b1a1a" fill-rule="evenodd" fill-opacity="0.6" stroke="#404040" stroke-opacity="0.6" stroke-width="12.8"/>
</svg>
