<?xml version="1.0" encoding="utf-8"?>
<svg xmlns="http://www.w3.org/2000/svg" xmlns:xlink="http://www.w3.org/1999/xlink" width="600" height="400" viewBox="0 0 2400 1600">
<defs>
  <clipPath id="clip000">
    <rect x="0" y="0" width="2400" height="1600"/>
  </clipPath>
</defs>
<path clip-path="url(#clip000)" d="
M0 1600 L2400 1600 L2400 0 L0 0  Z
  " fill="#ffffff" fill-rule="evenodd" fill-opacity="1"/>
<defs>
  <clipPath id="clip001">
    <rect x="480" y="0" width="1681" height="1600"/>
  </clipPath>
</defs>
<path clip-path="url(#clip000)" d="
M159.422 1474.16 L2352.76 1474.16 L2352.76 47.2441 L159.422 47.2441  Z
  " fill="#ffffff" fill-rule="evenodd" fill-opacity="1"/>
<defs>
  <clipPath id="clip002">
    <rect x="159" y="47" width="2194" height="1428"/>
  </clipPath>
</defs>
<polyline clip-path="url(#clip002)" style="stroke:#000000; stroke-linecap:round; stroke-linejoin:round; stroke-width:10; stroke-opacity:0.3; fill:none" points="
  210.105,1474.16 210.105,47.2441 
  "/>
<polyline clip-path="url(#clip002)" style="stroke:#000000; stroke-linecap:round; stroke-linejoin:round; stroke-width:10; stroke-opacity:0.3; fill:none" points="
  733.097,1474.16 733.097,47.2441 
  "/>
<polyline clip-path="url(#clip002)" style="stroke:#000000; stroke-linecap:round; stroke-linejoin:round; stroke-width:10; stroke-opacity:0.3; fill:none" points="
  1256.09,1474.16 1256.09,47.2441 
  "/>
<polyline clip-path="url(#clip002)" style="stroke:#000000; stroke-linecap:round; stroke-linejoin:round; stroke-width:10; stroke-opacity:0.3; fill:none" points="
  1779.08,1474.16 1779.08,47.2441 
  "/>
<polyline clip-path="url(#clip002)" style="stroke:#000000; stroke-linecap:round; stroke-linejoin:round; stroke-width:10; stroke-opacity:0.3; fill:none" points="
  2302.07,1474.16 2302.07,47.2441 
  "/>
<polyline clip-path="url(#clip000)" style="stroke:#000000; stroke-linecap:round; stroke-linejoin:round; stroke-width:4; stroke-opacity:1; fill:none" points="
  159.422,1474.16 2352.76,1474.16 
  "/>
<polyline clip-path="url(#clip000)" style="stroke:#000000; stroke-linecap:round; stroke-linejoin:round; stroke-width:4; stroke-opacity:1; fill:none" points="
  159.422,47.2441 2352.76,47.2441 
  "/>
<polyline clip-path="url(#clip000)" style="stroke:#000000; stroke-linecap:round; stroke-linejoin:round; stroke-width:4; stroke-opacity:1; fill:none" points="
  210.105,1474.16 210.105,1455.27 
  "/>
<polyline clip-path="url(#clip000)" style="stroke:#000000; stroke-linecap:round; stroke-linejoin:round; stroke-width:4; stroke-opacity:1; fill:none" points="
  733.097,1474.16 733.097,1455.27 
  "/>
<polyline clip-path="url(#clip000)" style="stroke:#000000; stroke-linecap:round; stroke-linejoin:round; stroke-width:4; stroke-opacity:1; fill:none" points="
  1256.09,1474.16 1256.09,1455.27 
  "/>
<polyline clip-path="url(#clip000)" style="stroke:#000000; stroke-linecap:round; stroke-linejoin:round; stroke-width:4; stroke-opacity:1; fill:none" points="
  1779.08,1474.16 1779.08,1455.27 
  "/>
<polyline clip-path="url(#clip000)" style="stroke:#000000; stroke-linecap:round; stroke-linejoin:round; stroke-width:4; stroke-opacity:1; fill:none" points="
  2302.07,1474.16 2302.07,1455.27 
  "/>
<path clip-path="url(#clip000)" d="M176.433 1548.29 L184.072 1548.29 L184.072 1521.92 L175.762 1523.59 L175.762 1519.33 L184.026 1517.66 L188.701 1517.66 L188.701 1548.29 L196.34 1548.29 L196.34 1552.22 L176.433 1552.22 L176.433 1548.29 Z" fill="#000000" fill-rule="evenodd" fill-opacity="1" /><path clip-path="url(#clip000)" d="M215.785 1520.74 Q212.174 1520.74 210.345 1524.31 Q208.539 1527.85 208.539 1534.98 Q208.539 1542.09 210.345 1545.65 Q212.174 1549.19 215.785 1549.19 Q219.419 1549.19 221.224 1545.65 Q223.053 1542.09 223.053 1534.98 Q223.053 1527.85 221.224 1524.31 Q219.419 1520.74 215.785 1520.74 M215.785 1517.04 Q221.595 1517.04 224.65 1521.65 Q227.729 1526.23 227.729 1534.98 Q227.729 1543.71 224.65 1548.31 Q221.595 1552.9 215.785 1552.9 Q209.975 1552.9 206.896 1548.31 Q203.84 1543.71 203.84 1534.98 Q203.84 1526.23 206.896 1521.65 Q209.975 1517.04 215.785 1517.04 Z" fill="#000000" fill-rule="evenodd" fill-opacity="1" /><path clip-path="url(#clip000)" d="M228.274 1521.62 L234.481 1521.62 L234.481 1500.19 L227.729 1501.55 L227.729 1498.09 L234.443 1496.73 L238.243 1496.73 L238.243 1521.62 L244.449 1521.62 L244.449 1524.81 L228.274 1524.81 L228.274 1521.62 Z" fill="#000000" fill-rule="evenodd" fill-opacity="1" /><path clip-path="url(#clip000)" d="M698.87 1548.29 L706.509 1548.29 L706.509 1521.92 L698.199 1523.59 L698.199 1519.33 L706.463 1517.66 L711.138 1517.66 L711.138 1548.29 L718.777 1548.29 L718.777 1552.22 L698.87 1552.22 L698.87 1548.29 Z" fill="#000000" fill-rule="evenodd" fill-opacity="1" /><path clip-path="url(#clip000)" d="M738.222 1520.74 Q734.611 1520.74 732.782 1524.31 Q730.976 1527.85 730.976 1534.98 Q730.976 1542.09 732.782 1545.65 Q734.611 1549.19 738.222 1549.19 Q741.856 1549.19 743.661 1545.65 Q745.49 1542.09 745.49 1534.98 Q745.49 1527.85 743.661 1524.31 Q741.856 1520.74 738.222 1520.74 M738.222 1517.04 Q744.032 1517.04 747.087 1521.65 Q750.166 1526.23 750.166 1534.98 Q750.166 1543.71 747.087 1548.31 Q744.032 1552.9 738.222 1552.9 Q732.412 1552.9 729.333 1548.31 Q726.277 1543.71 726.277 1534.98 Q726.277 1526.23 729.333 1521.65 Q732.412 1517.04 738.222 1517.04 Z" fill="#000000" fill-rule="evenodd" fill-opacity="1" /><path clip-path="url(#clip000)" d="M754.736 1521.62 L767.996 1521.62 L767.996 1524.81 L750.166 1524.81 L750.166 1521.62 Q752.329 1519.38 756.053 1515.62 Q759.796 1511.84 760.755 1510.75 Q762.579 1508.7 763.294 1507.29 Q764.027 1505.86 764.027 1504.48 Q764.027 1502.24 762.448 1500.83 Q760.886 1499.42 758.366 1499.42 Q756.579 1499.42 754.586 1500.04 Q752.611 1500.67 750.354 1501.93 L750.354 1498.09 Q752.649 1497.17 754.642 1496.7 Q756.636 1496.23 758.291 1496.23 Q762.654 1496.23 765.25 1498.41 Q767.845 1500.59 767.845 1504.24 Q767.845 1505.97 767.187 1507.53 Q766.548 1509.07 764.836 1511.18 Q764.366 1511.72 761.846 1514.34 Q759.325 1516.93 754.736 1521.62 Z" fill="#000000" fill-rule="evenodd" fill-opacity="1" /><path clip-path="url(#clip000)" d="M1221.53 1548.29 L1229.17 1548.29 L1229.17 1521.92 L1220.86 1523.59 L1220.86 1519.33 L1229.13 1517.66 L1233.8 1517.66 L1233.8 1548.29 L1241.44 1548.29 L1241.44 1552.22 L1221.53 1552.22 L1221.53 1548.29 Z" fill="#000000" fill-rule="evenodd" fill-opacity="1" /><path clip-path="url(#clip000)" d="M1260.88 1520.74 Q1257.27 1520.74 1255.44 1524.31 Q1253.64 1527.85 1253.64 1534.98 Q1253.64 1542.09 1255.44 1545.65 Q1257.27 1549.19 1260.88 1549.19 Q1264.52 1549.19 1266.32 1545.65 Q1268.15 1542.09 1268.15 1534.98 Q1268.15 1527.85 1266.32 1524.31 Q1264.52 1520.74 1260.88 1520.74 M1260.88 1517.04 Q1266.69 1517.04 1269.75 1521.65 Q1272.83 1526.23 1272.83 1534.98 Q1272.83 1543.71 1269.75 1548.31 Q1266.69 1552.9 1260.88 1552.9 Q1255.07 1552.9 1252 1548.31 Q1248.94 1543.71 1248.94 1534.98 Q1248.94 1526.23 1252 1521.65 Q1255.07 1517.04 1260.88 1517.04 Z" fill="#000000" fill-rule="evenodd" fill-opacity="1" /><path clip-path="url(#clip000)" d="M1285.52 1509.67 Q1288.25 1510.26 1289.77 1512.1 Q1291.32 1513.94 1291.32 1516.65 Q1291.32 1520.81 1288.46 1523.08 Q1285.6 1525.36 1280.33 1525.36 Q1278.57 1525.36 1276.68 1525 Q1274.82 1524.66 1272.83 1523.97 L1272.83 1520.3 Q1274.41 1521.22 1276.29 1521.69 Q1278.17 1522.16 1280.22 1522.16 Q1283.79 1522.16 1285.66 1520.75 Q1287.54 1519.34 1287.54 1516.65 Q1287.54 1514.17 1285.79 1512.78 Q1284.06 1511.37 1280.95 1511.37 L1277.68 1511.37 L1277.68 1508.24 L1281.1 1508.24 Q1283.91 1508.24 1285.39 1507.13 Q1286.88 1506.01 1286.88 1503.9 Q1286.88 1501.74 1285.34 1500.59 Q1283.81 1499.42 1280.95 1499.42 Q1279.39 1499.42 1277.61 1499.76 Q1275.82 1500.1 1273.68 1500.82 L1273.68 1497.43 Q1275.84 1496.83 1277.72 1496.53 Q1279.62 1496.23 1281.29 1496.23 Q1285.62 1496.23 1288.14 1498.2 Q1290.66 1500.16 1290.66 1503.51 Q1290.66 1505.84 1289.32 1507.45 Q1287.99 1509.05 1285.52 1509.67 Z" fill="#000000" fill-rule="evenodd" fill-opacity="1" /><path clip-path="url(#clip000)" d="M1743.54 1548.29 L1751.18 1548.29 L1751.18 1521.92 L1742.87 1523.59 L1742.87 1519.33 L1751.13 1517.66 L1755.81 1517.66 L1755.81 1548.29 L1763.44 1548.29 L1763.44 1552.22 L1743.54 1552.22 L1743.54 1548.29 Z" fill="#000000" fill-rule="evenodd" fill-opacity="1" /><path clip-path="url(#clip000)" d="M1782.89 1520.74 Q1779.28 1520.74 1777.45 1524.31 Q1775.64 1527.85 1775.64 1534.98 Q1775.64 1542.09 1777.45 1545.65 Q1779.28 1549.19 1782.89 1549.19 Q1786.52 1549.19 1788.33 1545.65 Q1790.16 1542.09 1790.16 1534.98 Q1790.16 1527.85 1788.33 1524.31 Q1786.52 1520.74 1782.89 1520.74 M1782.89 1517.04 Q1788.7 1517.04 1791.75 1521.65 Q1794.83 1526.23 1794.83 1534.98 Q1794.83 1543.71 1791.75 1548.31 Q1788.7 1552.9 1782.89 1552.9 Q1777.08 1552.9 1774 1548.31 Q1770.94 1543.71 1770.94 1534.98 Q1770.94 1526.23 1774 1521.65 Q1777.08 1517.04 1782.89 1517.04 Z" fill="#000000" fill-rule="evenodd" fill-opacity="1" /><path clip-path="url(#clip000)" d="M1807.51 1500.04 L1797.92 1515.03 L1807.51 1515.03 L1807.51 1500.04 M1806.51 1496.73 L1811.29 1496.73 L1811.29 1515.03 L1815.3 1515.03 L1815.3 1518.19 L1811.29 1518.19 L1811.29 1524.81 L1807.51 1524.81 L1807.51 1518.19 L1794.83 1518.19 L1794.83 1514.53 L1806.51 1496.73 Z" fill="#000000" fill-rule="evenodd" fill-opacity="1" /><path clip-path="url(#clip000)" d="M2267.68 1548.29 L2275.32 1548.29 L2275.32 1521.92 L2267 1523.59 L2267 1519.33 L2275.27 1517.66 L2279.94 1517.66 L2279.94 1548.29 L2287.58 1548.29 L2287.58 1552.22 L2267.68 1552.22 L2267.68 1548.29 Z" fill="#000000" fill-rule="evenodd" fill-opacity="1" /><path clip-path="url(#clip000)" d="M2307.03 1520.74 Q2303.42 1520.74 2301.59 1524.31 Q2299.78 1527.85 2299.78 1534.98 Q2299.78 1542.09 2301.59 1545.65 Q2303.42 1549.19 2307.03 1549.19 Q2310.66 1549.19 2312.47 1545.65 Q2314.3 1542.09 2314.3 1534.98 Q2314.3 1527.85 2312.47 1524.31 Q2310.66 1520.74 2307.03 1520.74 M2307.03 1517.04 Q2312.84 1517.04 2315.89 1521.65 Q2318.97 1526.23 2318.97 1534.98 Q2318.97 1543.71 2315.89 1548.31 Q2312.84 1552.9 2307.03 1552.9 Q2301.22 1552.9 2298.14 1548.31 Q2295.08 1543.71 2295.08 1534.98 Q2295.08 1526.23 2298.14 1521.65 Q2301.22 1517.04 2307.03 1517.04 Z" fill="#000000" fill-rule="evenodd" fill-opacity="1" /><path clip-path="url(#clip000)" d="M2320.16 1496.73 L2335.07 1496.73 L2335.07 1499.93 L2323.64 1499.93 L2323.64 1506.82 Q2324.46 1506.53 2325.29 1506.4 Q2326.12 1506.25 2326.95 1506.25 Q2331.65 1506.25 2334.39 1508.83 Q2337.14 1511.4 2337.14 1515.81 Q2337.14 1520.34 2334.32 1522.86 Q2331.5 1525.36 2326.36 1525.36 Q2324.6 1525.36 2322.75 1525.06 Q2320.93 1524.76 2318.97 1524.16 L2318.97 1520.34 Q2320.66 1521.26 2322.47 1521.71 Q2324.28 1522.16 2326.29 1522.16 Q2329.54 1522.16 2331.44 1520.45 Q2333.34 1518.74 2333.34 1515.81 Q2333.34 1512.87 2331.44 1511.16 Q2329.54 1509.45 2326.29 1509.45 Q2324.77 1509.45 2323.24 1509.79 Q2321.74 1510.13 2320.16 1510.84 L2320.16 1496.73 Z" fill="#000000" fill-rule="evenodd" fill-opacity="1" /><polyline clip-path="url(#clip002)" style="stroke:#000000; stroke-linecap:round; stroke-linejoin:round; stroke-width:10; stroke-opacity:0.3; fill:none" points="
  159.422,1447.54 2352.76,1447.54 
  "/>
<polyline clip-path="url(#clip002)" style="stroke:#000000; stroke-linecap:round; stroke-linejoin:round; stroke-width:10; stroke-opacity:0.3; fill:none" points="
  159.422,1172.81 2352.76,1172.81 
  "/>
<polyline clip-path="url(#clip002)" style="stroke:#000000; stroke-linecap:round; stroke-linejoin:round; stroke-width:10; stroke-opacity:0.3; fill:none" points="
  159.422,898.072 2352.76,898.072 
  "/>
<polyline clip-path="url(#clip002)" style="stroke:#000000; stroke-linecap:round; stroke-linejoin:round; stroke-width:10; stroke-opacity:0.3; fill:none" points="
  159.422,623.337 2352.76,623.337 
  "/>
<polyline clip-path="url(#clip002)" style="stroke:#000000; stroke-linecap:round; stroke-linejoin:round; stroke-width:10; stroke-opacity:0.3; fill:none" points="
  159.422,348.603 2352.76,348.603 
  "/>
<polyline clip-path="url(#clip002)" style="stroke:#000000; stroke-linecap:round; stroke-linejoin:round; stroke-width:10; stroke-opacity:0.3; fill:none" points="
  159.422,73.8686 2352.76,73.8686 
  "/>
<polyline clip-path="url(#clip000)" style="stroke:#000000; stroke-linecap:round; stroke-linejoin:round; stroke-width:4; stroke-opacity:1; fill:none" points="
  159.422,1474.16 159.422,47.2441 
  "/>
<polyline clip-path="url(#clip000)" style="stroke:#000000; stroke-linecap:round; stroke-linejoin:round; stroke-width:4; stroke-opacity:1; fill:none" points="
  2352.76,1474.16 2352.76,47.2441 
  "/>
<polyline clip-path="url(#clip000)" style="stroke:#000000; stroke-linecap:round; stroke-linejoin:round; stroke-width:4; stroke-opacity:1; fill:none" points="
  159.422,1447.54 178.32,1447.54 
  "/>
<polyline clip-path="url(#clip000)" style="stroke:#000000; stroke-linecap:round; stroke-linejoin:round; stroke-width:4; stroke-opacity:1; fill:none" points="
  159.422,1172.81 178.32,1172.81 
  "/>
<polyline clip-path="url(#clip000)" style="stroke:#000000; stroke-linecap:round; stroke-linejoin:round; stroke-width:4; stroke-opacity:1; fill:none" points="
  159.422,898.072 178.32,898.072 
  "/>
<polyline clip-path="url(#clip000)" style="stroke:#000000; stroke-linecap:round; stroke-linejoin:round; stroke-width:4; stroke-opacity:1; fill:none" points="
  159.422,623.337 178.32,623.337 
  "/>
<polyline clip-path="url(#clip000)" style="stroke:#000000; stroke-linecap:round; stroke-linejoin:round; stroke-width:4; stroke-opacity:1; fill:none" points="
  159.422,348.603 178.32,348.603 
  "/>
<polyline clip-path="url(#clip000)" style="stroke:#000000; stroke-linecap:round; stroke-linejoin:round; stroke-width:4; stroke-opacity:1; fill:none" points="
  159.422,73.8686 178.32,73.8686 
  "/>
<path clip-path="url(#clip000)" d="M52.7167 1467.33 L60.3555 1467.33 L60.3555 1440.97 L52.0454 1442.63 L52.0454 1438.37 L60.3092 1436.71 L64.9851 1436.71 L64.9851 1467.33 L72.624 1467.33 L72.624 1471.27 L52.7167 1471.27 L52.7167 1467.33 Z" fill="#000000" fill-rule="evenodd" fill-opacity="1" /><path clip-path="url(#clip000)" d="M92.0683 1439.79 Q88.4572 1439.79 86.6285 1443.35 Q84.823 1446.89 84.823 1454.02 Q84.823 1461.13 86.6285 1464.69 Q88.4572 1468.24 92.0683 1468.24 Q95.7025 1468.24 97.5081 1464.69 Q99.3368 1461.13 99.3368 1454.02 Q99.3368 1446.89 97.5081 1443.35 Q95.7025 1439.79 92.0683 1439.79 M92.0683 1436.08 Q97.8784 1436.08 100.934 1440.69 Q104.013 1445.27 104.013 1454.02 Q104.013 1462.75 100.934 1467.36 Q97.8784 1471.94 92.0683 1471.94 Q86.2581 1471.94 83.1795 1467.36 Q80.1239 1462.75 80.1239 1454.02 Q80.1239 1445.27 83.1795 1440.69 Q86.2581 1436.08 92.0683 1436.08 Z" fill="#000000" fill-rule="evenodd" fill-opacity="1" /><path clip-path="url(#clip000)" d="M113.717 1418.28 Q110.783 1418.28 109.298 1421.18 Q107.831 1424.05 107.831 1429.85 Q107.831 1435.62 109.298 1438.52 Q110.783 1441.39 113.717 1441.39 Q116.67 1441.39 118.137 1438.52 Q119.623 1435.62 119.623 1429.85 Q119.623 1424.05 118.137 1421.18 Q116.67 1418.28 113.717 1418.28 M113.717 1415.27 Q118.438 1415.27 120.921 1419.01 Q123.422 1422.74 123.422 1429.85 Q123.422 1436.94 120.921 1440.68 Q118.438 1444.4 113.717 1444.4 Q108.997 1444.4 106.495 1440.68 Q104.013 1436.94 104.013 1429.85 Q104.013 1422.74 106.495 1419.01 Q108.997 1415.27 113.717 1415.27 Z" fill="#000000" fill-rule="evenodd" fill-opacity="1" /><path clip-path="url(#clip000)" d="M55.4062 1192.6 L63.045 1192.6 L63.045 1166.23 L54.7349 1167.9 L54.7349 1163.64 L62.9987 1161.97 L67.6746 1161.97 L67.6746 1192.6 L75.3135 1192.6 L75.3135 1196.53 L55.4062 1196.53 L55.4062 1192.6 Z" fill="#000000" fill-rule="evenodd" fill-opacity="1" /><path clip-path="url(#clip000)" d="M94.7578 1165.05 Q91.1467 1165.05 89.318 1168.62 Q87.5125 1172.16 87.5125 1179.29 Q87.5125 1186.39 89.318 1189.96 Q91.1467 1193.5 94.7578 1193.5 Q98.392 1193.5 100.198 1189.96 Q102.026 1186.39 102.026 1179.29 Q102.026 1172.16 100.198 1168.62 Q98.392 1165.05 94.7578 1165.05 M94.7578 1161.35 Q100.568 1161.35 103.623 1165.95 Q106.702 1170.54 106.702 1179.29 Q106.702 1188.01 103.623 1192.62 Q100.568 1197.2 94.7578 1197.2 Q88.9477 1197.2 85.869 1192.62 Q82.8134 1188.01 82.8134 1179.29 Q82.8134 1170.54 85.869 1165.95 Q88.9477 1161.35 94.7578 1161.35 Z" fill="#000000" fill-rule="evenodd" fill-opacity="1" /><path clip-path="url(#clip000)" d="M107.248 1165.93 L113.454 1165.93 L113.454 1144.5 L106.702 1145.86 L106.702 1142.4 L113.417 1141.04 L117.216 1141.04 L117.216 1165.93 L123.422 1165.93 L123.422 1169.12 L107.248 1169.12 L107.248 1165.93 Z" fill="#000000" fill-rule="evenodd" fill-opacity="1" /><path clip-path="url(#clip000)" d="M54.2965 917.864 L61.9354 917.864 L61.9354 891.498 L53.6252 893.165 L53.6252 888.906 L61.8891 887.239 L66.565 887.239 L66.565 917.864 L74.2038 917.864 L74.2038 921.799 L54.2965 921.799 L54.2965 917.864 Z" fill="#000000" fill-rule="evenodd" fill-opacity="1" /><path clip-path="url(#clip000)" d="M93.6481 890.318 Q90.0371 890.318 88.2084 893.883 Q86.4028 897.424 86.4028 904.554 Q86.4028 911.66 88.2084 915.225 Q90.0371 918.767 93.6481 918.767 Q97.2824 918.767 99.0879 915.225 Q100.917 911.66 100.917 904.554 Q100.917 897.424 99.0879 893.883 Q97.2824 890.318 93.6481 890.318 M93.6481 886.614 Q99.4583 886.614 102.514 891.221 Q105.593 895.804 105.593 904.554 Q105.593 913.281 102.514 917.887 Q99.4583 922.47 93.6481 922.47 Q87.838 922.47 84.7593 917.887 Q81.7038 913.281 81.7038 904.554 Q81.7038 895.804 84.7593 891.221 Q87.838 886.614 93.6481 886.614 Z" fill="#000000" fill-rule="evenodd" fill-opacity="1" /><path clip-path="url(#clip000)" d="M110.163 891.191 L123.422 891.191 L123.422 894.389 L105.593 894.389 L105.593 891.191 Q107.755 888.953 111.479 885.192 Q115.222 881.411 116.181 880.321 Q118.006 878.27 118.72 876.86 Q119.454 875.431 119.454 874.058 Q119.454 871.819 117.874 870.409 Q116.313 868.998 113.793 868.998 Q112.006 868.998 110.012 869.619 Q108.038 870.24 105.781 871.5 L105.781 867.663 Q108.075 866.741 110.069 866.271 Q112.062 865.801 113.717 865.801 Q118.081 865.801 120.676 867.983 Q123.272 870.164 123.272 873.813 Q123.272 875.543 122.614 877.104 Q121.974 878.647 120.263 880.753 Q119.792 881.299 117.272 883.913 Q114.752 886.508 110.163 891.191 Z" fill="#000000" fill-rule="evenodd" fill-opacity="1" /><path clip-path="url(#clip000)" d="M53.6382 643.13 L61.2771 643.13 L61.2771 616.764 L52.9669 618.431 L52.9669 614.171 L61.2308 612.505 L65.9067 612.505 L65.9067 643.13 L73.5455 643.13 L73.5455 647.065 L53.6382 647.065 L53.6382 643.13 Z" fill="#000000" fill-rule="evenodd" fill-opacity="1" /><path clip-path="url(#clip000)" d="M92.9899 615.584 Q89.3788 615.584 87.5501 619.148 Q85.7445 622.69 85.7445 629.82 Q85.7445 636.926 87.5501 640.491 Q89.3788 644.032 92.9899 644.032 Q96.6241 644.032 98.4297 640.491 Q100.258 636.926 100.258 629.82 Q100.258 622.69 98.4297 619.148 Q96.6241 615.584 92.9899 615.584 M92.9899 611.88 Q98.8 611.88 101.856 616.486 Q104.934 621.07 104.934 629.82 Q104.934 638.546 101.856 643.153 Q98.8 647.736 92.9899 647.736 Q87.1797 647.736 84.101 643.153 Q81.0455 638.546 81.0455 629.82 Q81.0455 621.07 84.101 616.486 Q87.1797 611.88 92.9899 611.88 Z" fill="#000000" fill-rule="evenodd" fill-opacity="1" /><path clip-path="url(#clip000)" d="M117.63 604.514 Q120.357 605.097 121.88 606.94 Q123.422 608.784 123.422 611.492 Q123.422 615.648 120.564 617.924 Q117.705 620.2 112.439 620.2 Q110.671 620.2 108.79 619.843 Q106.928 619.504 104.934 618.808 L104.934 615.141 Q106.514 616.062 108.395 616.532 Q110.276 617.003 112.326 617.003 Q115.899 617.003 117.761 615.592 Q119.642 614.181 119.642 611.492 Q119.642 609.009 117.893 607.617 Q116.162 606.207 113.059 606.207 L109.787 606.207 L109.787 603.085 L113.21 603.085 Q116.012 603.085 117.498 601.975 Q118.984 600.847 118.984 598.74 Q118.984 596.577 117.441 595.43 Q115.918 594.264 113.059 594.264 Q111.498 594.264 109.711 594.602 Q107.925 594.941 105.781 595.656 L105.781 592.27 Q107.943 591.668 109.824 591.368 Q111.724 591.067 113.398 591.067 Q117.724 591.067 120.244 593.041 Q122.764 594.997 122.764 598.345 Q122.764 600.677 121.429 602.295 Q120.093 603.894 117.63 604.514 Z" fill="#000000" fill-rule="evenodd" fill-opacity="1" /><path clip-path="url(#clip000)" d="M51.6634 368.395 L59.3023 368.395 L59.3023 342.03 L50.9921 343.696 L50.9921 339.437 L59.256 337.771 L63.9319 337.771 L63.9319 368.395 L71.5707 368.395 L71.5707 372.331 L51.6634 372.331 L51.6634 368.395 Z" fill="#000000" fill-rule="evenodd" fill-opacity="1" /><path clip-path="url(#clip000)" d="M91.0151 340.849 Q87.404 340.849 85.5753 344.414 Q83.7697 347.956 83.7697 355.085 Q83.7697 362.192 85.5753 365.756 Q87.404 369.298 91.0151 369.298 Q94.6493 369.298 96.4548 365.756 Q98.2835 362.192 98.2835 355.085 Q98.2835 347.956 96.4548 344.414 Q94.6493 340.849 91.0151 340.849 M91.0151 337.146 Q96.8252 337.146 99.8808 341.752 Q102.959 346.335 102.959 355.085 Q102.959 363.812 99.8808 368.418 Q96.8252 373.002 91.0151 373.002 Q85.2049 373.002 82.1262 368.418 Q79.0707 363.812 79.0707 355.085 Q79.0707 346.335 82.1262 341.752 Q85.2049 337.146 91.0151 337.146 Z" fill="#000000" fill-rule="evenodd" fill-opacity="1" /><path clip-path="url(#clip000)" d="M115.636 320.15 L106.044 335.14 L115.636 335.14 L115.636 320.15 M114.639 316.84 L119.416 316.84 L119.416 335.14 L123.422 335.14 L123.422 338.3 L119.416 338.3 L119.416 344.92 L115.636 344.92 L115.636 338.3 L102.959 338.3 L102.959 334.632 L114.639 316.84 Z" fill="#000000" fill-rule="evenodd" fill-opacity="1" /><path clip-path="url(#clip000)" d="M53.958 93.661 L61.5968 93.661 L61.5968 67.2954 L53.2867 68.9621 L53.2867 64.7029 L61.5505 63.0362 L66.2264 63.0362 L66.2264 93.661 L73.8653 93.661 L73.8653 97.5962 L53.958 97.5962 L53.958 93.661 Z" fill="#000000" fill-rule="evenodd" fill-opacity="1" /><path clip-path="url(#clip000)" d="M93.3096 66.1149 Q89.6985 66.1149 87.8698 69.6797 Q86.0643 73.2213 86.0643 80.3509 Q86.0643 87.4574 87.8698 91.0222 Q89.6985 94.5638 93.3096 94.5638 Q96.9438 94.5638 98.7494 91.0222 Q100.578 87.4574 100.578 80.3509 Q100.578 73.2213 98.7494 69.6797 Q96.9438 66.1149 93.3096 66.1149 M93.3096 62.4112 Q99.1198 62.4112 102.175 67.0177 Q105.254 71.601 105.254 80.3509 Q105.254 89.0777 102.175 93.6842 Q99.1198 98.2675 93.3096 98.2675 Q87.4995 98.2675 84.4208 93.6842 Q81.3652 89.0777 81.3652 80.3509 Q81.3652 71.601 84.4208 67.0177 Q87.4995 62.4112 93.3096 62.4112 Z" fill="#000000" fill-rule="evenodd" fill-opacity="1" /><path clip-path="url(#clip000)" d="M106.439 42.1058 L121.353 42.1058 L121.353 45.3031 L109.918 45.3031 L109.918 52.1868 Q110.746 51.9046 111.573 51.773 Q112.401 51.6225 113.228 51.6225 Q117.93 51.6225 120.676 54.1992 Q123.422 56.7759 123.422 61.1769 Q123.422 65.7096 120.601 68.2298 Q117.78 70.7312 112.645 70.7312 Q110.878 70.7312 109.034 70.4303 Q107.21 70.1294 105.254 69.5275 L105.254 65.7096 Q106.947 66.6311 108.752 67.0825 Q110.558 67.5339 112.57 67.5339 Q115.824 67.5339 117.724 65.8224 Q119.623 64.1109 119.623 61.1769 Q119.623 58.2429 117.724 56.5314 Q115.824 54.8199 112.57 54.8199 Q111.047 54.8199 109.523 55.1584 Q108.019 55.4969 106.439 56.2116 L106.439 42.1058 Z" fill="#000000" fill-rule="evenodd" fill-opacity="1" /><polyline clip-path="url(#clip002)" style="stroke:#c1ffc1; stroke-linecap:round; stroke-linejoin:round; stroke-width:24; stroke-opacity:0.8; fill:none" points="
  210.105,1372.79 471.601,1259.11 733.097,1132.89 994.593,1002.12 1256.09,869.829 1517.59,734.849 1779.08,597.165 2040.58,460.028 2302.07,322.265 
  "/>
<path clip-path="url(#clip002)" d="M210.105 1396.79 L203.313 1379.58 L186.105 1372.79 L203.313 1366 L210.105 1348.79 L216.897 1366 L234.105 1372.79 L216.897 1379.58 L210.105 1396.79 Z" fill="#c1ffc1" fill-rule="evenodd" fill-opacity="0.6" stroke="#000000" stroke-opacity="0.6" stroke-width="3.2"/>
<path clip-path="url(#clip002)" d="M471.601 1283.11 L464.809 1265.9 L447.601 1259.11 L464.809 1252.32 L471.601 1235.11 L478.393 1252.32 L495.601 1259.11 L478.393 1265.9 L471.601 1283.11 Z" fill="#c1ffc1" fill-rule="evenodd" fill-opacity="0.6" stroke="#000000" stroke-opacity="0.6" stroke-width="3.2"/>
<path clip-path="url(#clip002)" d="M733.097 1156.89 L726.305 1139.68 L709.097 1132.89 L726.305 1126.1 L733.097 1108.89 L739.889 1126.1 L757.097 1132.89 L739.889 1139.68 L733.097 1156.89 Z" fill="#c1ffc1" fill-rule="evenodd" fill-opacity="0.6" stroke="#000000" stroke-opacity="0.6" stroke-width="3.2"/>
<path clip-path="url(#clip002)" d="M994.593 1026.12 L987.801 1008.91 L970.593 1002.12 L987.801 995.327 L994.593 978.119 L1001.39 995.327 L1018.59 1002.12 L1001.39 1008.91 L994.593 1026.12 Z" fill="#c1ffc1" fill-rule="evenodd" fill-opacity="0.6" stroke="#000000" stroke-opacity="0.6" stroke-width="3.2"/>
<path clip-path="url(#clip002)" d="M1256.09 893.829 L1249.3 876.621 L1232.09 869.829 L1249.3 863.037 L1256.09 845.829 L1262.88 863.037 L1280.09 869.829 L1262.88 876.621 L1256.09 893.829 Z" fill="#c1ffc1" fill-rule="evenodd" fill-opacity="0.6" stroke="#000000" stroke-opacity="0.6" stroke-width="3.2"/>
<path clip-path="url(#clip002)" d="M1517.59 758.849 L1510.79 741.641 L1493.59 734.849 L1510.79 728.057 L1517.59 710.849 L1524.38 728.057 L1541.59 734.849 L1524.38 741.641 L1517.59 758.849 Z" fill="#c1ffc1" fill-rule="evenodd" fill-opacity="0.6" stroke="#000000" stroke-opacity="0.6" stroke-width="3.2"/>
<path clip-path="url(#clip002)" d="M1779.08 621.165 L1772.29 603.957 L1755.08 597.165 L1772.29 590.373 L1779.08 573.165 L1785.87 590.373 L1803.08 597.165 L1785.87 603.957 L1779.08 621.165 Z" fill="#c1ffc1" fill-rule="evenodd" fill-opacity="0.6" stroke="#000000" stroke-opacity="0.6" stroke-width="3.2"/>
<path clip-path="url(#clip002)" d="M2040.58 484.028 L2033.78 466.82 L2016.58 460.028 L2033.78 453.236 L2040.58 436.028 L2047.37 453.236 L2064.58 460.028 L2047.37 466.82 L2040.58 484.028 Z" fill="#c1ffc1" fill-rule="evenodd" fill-opacity="0.6" stroke="#000000" stroke-opacity="0.6" stroke-width="3.2"/>
<path clip-path="url(#clip002)" d="M2302.07 346.265 L2295.28 329.057 L2278.07 322.265 L2295.28 315.473 L2302.07 298.265 L2308.86 315.473 L2326.07 322.265 L2308.86 329.057 L2302.07 346.265 Z" fill="#c1ffc1" fill-rule="evenodd" fill-opacity="0.6" stroke="#000000" stroke-opacity="0.6" stroke-width="3.2"/>
<polyline clip-path="url(#clip002)" style="stroke:#00f5ff; stroke-linecap:round; stroke-linejoin:round; stroke-width:24; stroke-opacity:0.8; fill:none" points="
  210.105,1393.04 471.601,1284.07 733.097,1155.67 994.593,1020.19 1256.09,885.42 1517.59,751.797 1779.08,611.234 2040.58,473.159 2302.07,340.851 
  "/>
<circle clip-path="url(#clip002)" cx="210.105" cy="1393.04" r="21.6" fill="#00f5ff" fill-rule="evenodd" fill-opacity="0.6" stroke="#000000" stroke-opacity="0.6" stroke-width="3.2"/>
<circle clip-path="url(#clip002)" cx="471.601" cy="1284.07" r="21.6" fill="#00f5ff" fill-rule="evenodd" fill-opacity="0.6" stroke="#000000" stroke-opacity="0.6" stroke-width="3.2"/>
<circle clip-path="url(#clip002)" cx="733.097" cy="1155.67" r="21.6" fill="#00f5ff" fill-rule="evenodd" fill-opacity="0.6" stroke="#000000" stroke-opacity="0.6" stroke-width="3.2"/>
<circle clip-path="url(#clip002)" cx="994.593" cy="1020.19" r="21.6" fill="#00f5ff" fill-rule="evenodd" fill-opacity="0.6" stroke="#000000" stroke-opacity="0.6" stroke-width="3.2"/>
<circle clip-path="url(#clip002)" cx="1256.09" cy="885.42" r="21.6" fill="#00f5ff" fill-rule="evenodd" fill-opacity="0.6" stroke="#000000" stroke-opacity="0.6" stroke-width="3.2"/>
<circle clip-path="url(#clip002)" cx="1517.59" cy="751.797" r="21.6" fill="#00f5ff" fill-rule="evenodd" fill-opacity="0.6" stroke="#000000" stroke-opacity="0.6" stroke-width="3.2"/>
<circle clip-path="url(#clip002)" cx="1779.08" cy="611.234" r="21.6" fill="#00f5ff" fill-rule="evenodd" fill-opacity="0.6" stroke="#000000" stroke-opacity="0.6" stroke-width="3.2"/>
<circle clip-path="url(#clip002)" cx="2040.58" cy="473.159" r="21.6" fill="#00f5ff" fill-rule="evenodd" fill-opacity="0.6" stroke="#000000" stroke-opacity="0.6" stroke-width="3.2"/>
<circle clip-path="url(#clip002)" cx="2302.07" cy="340.851" r="21.6" fill="#00f5ff" fill-rule="evenodd" fill-opacity="0.6" stroke="#000000" stroke-opacity="0.6" stroke-width="3.2"/>
<polyline clip-path="url(#clip002)" style="stroke:#66cdaa; stroke-linecap:round; stroke-linejoin:round; stroke-width:24; stroke-opacity:0.8; fill:none" points="
  210.105,1422.91 471.601,1313.23 733.097,1184.77 994.593,1050.9 1256.09,914.388 1517.59,775.326 1779.08,637.073 2040.58,496.879 2302.07,362.832 
  "/>
<path clip-path="url(#clip002)" d="M210.105 1446.91 L206.433 1431.79 L193.137 1439.87 L201.225 1426.58 L186.105 1422.91 L201.225 1419.23 L193.137 1405.94 L206.433 1414.03 L210.105 1398.91 L213.777 1414.03 L227.073 1405.94 L218.985 1419.23 L234.105 1422.91 L218.985 1426.58 L227.073 1439.87 L213.777 1431.79 L210.105 1446.91 Z" fill="#66cdaa" fill-rule="evenodd" fill-opacity="0.6" stroke="#000000" stroke-opacity="0.6" stroke-width="3.2"/>
<path clip-path="url(#clip002)" d="M471.601 1337.23 L467.929 1322.11 L454.633 1330.19 L462.721 1316.9 L447.601 1313.23 L462.721 1309.55 L454.633 1296.26 L467.929 1304.35 L471.601 1289.23 L475.273 1304.35 L488.569 1296.26 L480.481 1309.55 L495.601 1313.23 L480.481 1316.9 L488.569 1330.19 L475.273 1322.11 L471.601 1337.23 Z" fill="#66cdaa" fill-rule="evenodd" fill-opacity="0.6" stroke="#000000" stroke-opacity="0.6" stroke-width="3.2"/>
<path clip-path="url(#clip002)" d="M733.097 1208.77 L729.425 1193.65 L716.129 1201.73 L724.217 1188.44 L709.097 1184.77 L724.217 1181.09 L716.129 1167.8 L729.425 1175.89 L733.097 1160.77 L736.769 1175.89 L750.065 1167.8 L741.977 1181.09 L757.097 1184.77 L741.977 1188.44 L750.065 1201.73 L736.769 1193.65 L733.097 1208.77 Z" fill="#66cdaa" fill-rule="evenodd" fill-opacity="0.6" stroke="#000000" stroke-opacity="0.6" stroke-width="3.2"/>
<path clip-path="url(#clip002)" d="M994.593 1074.9 L990.921 1059.78 L977.625 1067.87 L985.713 1054.57 L970.593 1050.9 L985.713 1047.23 L977.625 1033.93 L990.921 1042.02 L994.593 1026.9 L998.265 1042.02 L1011.56 1033.93 L1003.47 1047.23 L1018.59 1050.9 L1003.47 1054.57 L1011.56 1067.87 L998.265 1059.78 L994.593 1074.9 Z" fill="#66cdaa" fill-rule="evenodd" fill-opacity="0.6" stroke="#000000" stroke-opacity="0.6" stroke-width="3.2"/>
<path clip-path="url(#clip002)" d="M1256.09 938.388 L1252.42 923.268 L1239.12 931.356 L1247.21 918.06 L1232.09 914.388 L1247.21 910.716 L1239.12 897.42 L1252.42 905.508 L1256.09 890.388 L1259.76 905.508 L1273.06 897.42 L1264.97 910.716 L1280.09 914.388 L1264.97 918.06 L1273.06 931.356 L1259.76 923.268 L1256.09 938.388 Z" fill="#66cdaa" fill-rule="evenodd" fill-opacity="0.6" stroke="#000000" stroke-opacity="0.6" stroke-width="3.2"/>
<path clip-path="url(#clip002)" d="M1517.59 799.326 L1513.91 784.206 L1500.62 792.294 L1508.71 778.998 L1493.59 775.326 L1508.71 771.654 L1500.62 758.358 L1513.91 766.446 L1517.59 751.326 L1521.26 766.446 L1534.55 758.358 L1526.47 771.654 L1541.59 775.326 L1526.47 778.998 L1534.55 792.294 L1521.26 784.206 L1517.59 799.326 Z" fill="#66cdaa" fill-rule="evenodd" fill-opacity="0.6" stroke="#000000" stroke-opacity="0.6" stroke-width="3.2"/>
<path clip-path="url(#clip002)" d="M1779.08 661.073 L1775.41 645.953 L1762.11 654.041 L1770.2 640.745 L1755.08 637.073 L1770.2 633.401 L1762.11 620.105 L1775.41 628.193 L1779.08 613.073 L1782.75 628.193 L1796.05 620.105 L1787.96 633.401 L1803.08 637.073 L1787.96 640.745 L1796.05 654.041 L1782.75 645.953 L1779.08 661.073 Z" fill="#66cdaa" fill-rule="evenodd" fill-opacity="0.6" stroke="#000000" stroke-opacity="0.6" stroke-width="3.2"/>
<path clip-path="url(#clip002)" d="M2040.58 520.879 L2036.9 505.759 L2023.61 513.847 L2031.7 500.551 L2016.58 496.879 L2031.7 493.207 L2023.61 479.911 L2036.9 487.999 L2040.58 472.879 L2044.25 487.999 L2057.54 479.911 L2049.46 493.207 L2064.58 496.879 L2049.46 500.551 L2057.54 513.847 L2044.25 505.759 L2040.58 520.879 Z" fill="#66cdaa" fill-rule="evenodd" fill-opacity="0.6" stroke="#000000" stroke-opacity="0.6" stroke-width="3.2"/>
<path clip-path="url(#clip002)" d="M2302.07 386.832 L2298.4 371.712 L2285.1 379.8 L2293.19 366.504 L2278.07 362.832 L2293.19 359.16 L2285.1 345.864 L2298.4 353.952 L2302.07 338.832 L2305.74 353.952 L2319.04 345.864 L2310.95 359.16 L2326.07 362.832 L2310.95 366.504 L2319.04 379.8 L2305.74 371.712 L2302.07 386.832 Z" fill="#66cdaa" fill-rule="evenodd" fill-opacity="0.6" stroke="#000000" stroke-opacity="0.6" stroke-width="3.2"/>
<polyline clip-path="url(#clip002)" style="stroke:#008080; stroke-linecap:round; stroke-linejoin:round; stroke-width:24; stroke-opacity:0.8; fill:none" points="
  210.105,1369.46 471.601,1259.08 733.097,1132.19 994.593,998.471 1256.09,861.732 1517.59,723.542 1779.08,587.152 2040.58,450.462 2302.07,313.655 
  "/>
<path clip-path="url(#clip002)" d="M210.105 1345.46 L186.105 1369.46 L210.105 1393.46 L234.105 1369.46 L210.105 1345.46 Z" fill="#008080" fill-rule="evenodd" fill-opacity="0.6" stroke="#000000" stroke-opacity="0.6" stroke-width="3.2"/>
<path clip-path="url(#clip002)" d="M471.601 1235.08 L447.601 1259.08 L471.601 1283.08 L495.601 1259.08 L471.601 1235.08 Z" fill="#008080" fill-rule="evenodd" fill-opacity="0.6" stroke="#000000" stroke-opacity="0.6" stroke-width="3.2"/>
<path clip-path="url(#clip002)" d="M733.097 1108.19 L709.097 1132.19 L733.097 1156.19 L757.097 1132.19 L733.097 1108.19 Z" fill="#008080" fill-rule="evenodd" fill-opacity="0.6" stroke="#000000" stroke-opacity="0.6" stroke-width="3.2"/>
<path clip-path="url(#clip002)" d="M994.593 974.471 L970.593 998.471 L994.593 1022.47 L1018.59 998.471 L994.593 974.471 Z" fill="#008080" fill-rule="evenodd" fill-opacity="0.6" stroke="#000000" stroke-opacity="0.6" stroke-width="3.2"/>
<path clip-path="url(#clip002)" d="M1256.09 837.732 L1232.09 861.732 L1256.09 885.732 L1280.09 861.732 L1256.09 837.732 Z" fill="#008080" fill-rule="evenodd" fill-opacity="0.6" stroke="#000000" stroke-opacity="0.6" stroke-width="3.2"/>
<path clip-path="url(#clip002)" d="M1517.59 699.542 L1493.59 723.542 L1517.59 747.542 L1541.59 723.542 L1517.59 699.542 Z" fill="#008080" fill-rule="evenodd" fill-opacity="0.6" stroke="#000000" stroke-opacity="0.6" stroke-width="3.2"/>
<path clip-path="url(#clip002)" d="M1779.08 563.152 L1755.08 587.152 L1779.08 611.152 L1803.08 587.152 L1779.08 563.152 Z" fill="#008080" fill-rule="evenodd" fill-opacity="0.6" stroke="#000000" stroke-opacity="0.6" stroke-width="3.2"/>
<path clip-path="url(#clip002)" d="M2040.58 426.462 L2016.58 450.462 L2040.58 474.462 L2064.58 450.462 L2040.58 426.462 Z" fill="#008080" fill-rule="evenodd" fill-opacity="0.6" stroke="#000000" stroke-opacity="0.6" stroke-width="3.2"/>
<path clip-path="url(#clip002)" d="M2302.07 289.655 L2278.07 313.655 L2302.07 337.655 L2326.07 313.655 L2302.07 289.655 Z" fill="#008080" fill-rule="evenodd" fill-opacity="0.6" stroke="#000000" stroke-opacity="0.6" stroke-width="3.2"/>
<polyline clip-path="url(#clip002)" style="stroke:#ffa500; stroke-linecap:round; stroke-linejoin:round; stroke-width:24; stroke-opacity:0.8; fill:none" stroke-dasharray="96, 60" points="
  210.105,840.461 471.601,836.188 733.097,822.76 994.593,781.434 1256.09,703.371 1517.59,591.993 1779.08,467.257 2040.58,332.665 2302.07,195.63 
  "/>
<path clip-path="url(#clip002)" d="M210.105 816.461 L186.105 840.461 L210.105 864.461 L234.105 840.461 L210.105 816.461 Z" fill="#ffa500" fill-rule="evenodd" fill-opacity="0.6" stroke="#000000" stroke-opacity="0.6" stroke-width="3.2"/>
<path clip-path="url(#clip002)" d="M471.601 812.188 L447.601 836.188 L471.601 860.188 L495.601 836.188 L471.601 812.188 Z" fill="#ffa500" fill-rule="evenodd" fill-opacity="0.6" stroke="#000000" stroke-opacity="0.6" stroke-width="3.2"/>
<path clip-path="url(#clip002)" d="M733.097 798.76 L709.097 822.76 L733.097 846.76 L757.097 822.76 L733.097 798.76 Z" fill="#ffa500" fill-rule="evenodd" fill-opacity="0.6" stroke="#000000" stroke-opacity="0.6" stroke-width="3.2"/>
<path clip-path="url(#clip002)" d="M994.593 757.434 L970.593 781.434 L994.593 805.434 L1018.59 781.434 L994.593 757.434 Z" fill="#ffa500" fill-rule="evenodd" fill-opacity="0.6" stroke="#000000" stroke-opacity="0.6" stroke-width="3.2"/>
<path clip-path="url(#clip002)" d="M1256.09 679.371 L1232.09 703.371 L1256.09 727.371 L1280.09 703.371 L1256.09 679.371 Z" fill="#ffa500" fill-rule="evenodd" fill-opacity="0.6" stroke="#000000" stroke-opacity="0.6" stroke-width="3.2"/>
<path clip-path="url(#clip002)" d="M1517.59 567.993 L1493.59 591.993 L1517.59 615.993 L1541.59 591.993 L1517.59 567.993 Z" fill="#ffa500" fill-rule="evenodd" fill-opacity="0.6" stroke="#000000" stroke-opacity="0.6" stroke-width="3.2"/>
<path clip-path="url(#clip002)" d="M1779.08 443.257 L1755.08 467.257 L1779.08 491.257 L1803.08 467.257 L1779.08 443.257 Z" fill="#ffa500" fill-rule="evenodd" fill-opacity="0.6" stroke="#000000" stroke-opacity="0.6" stroke-width="3.2"/>
<path clip-path="url(#clip002)" d="M2040.58 308.665 L2016.58 332.665 L2040.58 356.665 L2064.58 332.665 L2040.58 308.665 Z" fill="#ffa500" fill-rule="evenodd" fill-opacity="0.6" stroke="#000000" stroke-opacity="0.6" stroke-width="3.2"/>
<path clip-path="url(#clip002)" d="M2302.07 171.63 L2278.07 195.63 L2302.07 219.63 L2326.07 195.63 L2302.07 171.63 Z" fill="#ffa500" fill-rule="evenodd" fill-opacity="0.6" stroke="#000000" stroke-opacity="0.6" stroke-width="3.2"/>
<polyline clip-path="url(#clip002)" style="stroke:#f08080; stroke-linecap:round; stroke-linejoin:round; stroke-width:24; stroke-opacity:0.8; fill:none" points="
  210.105,1263.85 471.601,1173.71 733.097,1056.3 994.593,931.2 1256.09,790.582 1517.59,655.332 1779.08,522.615 2040.58,380.838 2302.07,241.238 
  "/>
<path clip-path="url(#clip002)" d="M210.105 1287.85 L193.137 1280.81 L186.105 1263.85 L193.137 1246.88 L210.105 1239.85 L227.073 1246.88 L234.105 1263.85 L227.073 1280.81 Z" fill="#f08080" fill-rule="evenodd" fill-opacity="0.6" stroke="#000000" stroke-opacity="0.6" stroke-width="3.2"/>
<path clip-path="url(#clip002)" d="M471.601 1197.71 L454.633 1190.68 L447.601 1173.71 L454.633 1156.74 L471.601 1149.71 L488.569 1156.74 L495.601 1173.71 L488.569 1190.68 Z" fill="#f08080" fill-rule="evenodd" fill-opacity="0.6" stroke="#000000" stroke-opacity="0.6" stroke-width="3.2"/>
<path clip-path="url(#clip002)" d="M733.097 1080.3 L716.129 1073.27 L709.097 1056.3 L716.129 1039.33 L733.097 1032.3 L750.065 1039.33 L757.097 1056.3 L750.065 1073.27 Z" fill="#f08080" fill-rule="evenodd" fill-opacity="0.6" stroke="#000000" stroke-opacity="0.6" stroke-width="3.2"/>
<path clip-path="url(#clip002)" d="M994.593 955.2 L977.625 948.168 L970.593 931.2 L977.625 914.232 L994.593 907.2 L1011.56 914.232 L1018.59 931.2 L1011.56 948.168 Z" fill="#f08080" fill-rule="evenodd" fill-opacity="0.6" stroke="#000000" stroke-opacity="0.6" stroke-width="3.2"/>
<path clip-path="url(#clip002)" d="M1256.09 814.582 L1239.12 807.55 L1232.09 790.582 L1239.12 773.614 L1256.09 766.582 L1273.06 773.614 L1280.09 790.582 L1273.06 807.55 Z" fill="#f08080" fill-rule="evenodd" fill-opacity="0.6" stroke="#000000" stroke-opacity="0.6" stroke-width="3.2"/>
<path clip-path="url(#clip002)" d="M1517.59 679.332 L1500.62 672.3 L1493.59 655.332 L1500.62 638.364 L1517.59 631.332 L1534.55 638.364 L1541.59 655.332 L1534.55 672.3 Z" fill="#f08080" fill-rule="evenodd" fill-opacity="0.6" stroke="#000000" stroke-opacity="0.6" stroke-width="3.2"/>
<path clip-path="url(#clip002)" d="M1779.08 546.615 L1762.11 539.583 L1755.08 522.615 L1762.11 505.647 L1779.08 498.615 L1796.05 505.647 L1803.08 522.615 L1796.05 539.583 Z" fill="#f08080" fill-rule="evenodd" fill-opacity="0.6" stroke="#000000" stroke-opacity="0.6" stroke-width="3.2"/>
<path clip-path="url(#clip002)" d="M2040.58 404.838 L2023.61 397.806 L2016.58 380.838 L2023.61 363.87 L2040.58 356.838 L2057.54 363.87 L2064.58 380.838 L2057.54 397.806 Z" fill="#f08080" fill-rule="evenodd" fill-opacity="0.6" stroke="#000000" stroke-opacity="0.6" stroke-width="3.2"/>
<path clip-path="url(#clip002)" d="M2302.07 265.238 L2285.1 258.206 L2278.07 241.238 L2285.1 224.27 L2302.07 217.238 L2319.04 224.27 L2326.07 241.238 L2319.04 258.206 Z" fill="#f08080" fill-rule="evenodd" fill-opacity="0.6" stroke="#000000" stroke-opacity="0.6" stroke-width="3.2"/>
<polyline clip-path="url(#clip002)" style="stroke:#ff3030; stroke-linecap:round; stroke-linejoin:round; stroke-width:24; stroke-opacity:0.8; fill:none" points="
  210.105,552.143 471.601,551.309 733.097,549.944 994.593,541.059 1256.09,518.543 1517.59,466.811 1779.08,376.525 2040.58,259.595 2302.07,128.813 
  "/>
<path clip-path="url(#clip002)" d="M210.105 528.143 L187.281 544.727 L195.993 571.559 L224.217 571.559 L232.929 544.727 Z" fill="#ff3030" fill-rule="evenodd" fill-opacity="0.6" stroke="#000000" stroke-opacity="0.6" stroke-width="3.2"/>
<path clip-path="url(#clip002)" d="M471.601 527.309 L448.777 543.893 L457.489 570.725 L485.713 570.725 L494.425 543.893 Z" fill="#ff3030" fill-rule="evenodd" fill-opacity="0.6" stroke="#000000" stroke-opacity="0.6" stroke-width="3.2"/>
<path clip-path="url(#clip002)" d="M733.097 525.944 L710.273 542.528 L718.985 569.36 L747.209 569.36 L755.921 542.528 Z" fill="#ff3030" fill-rule="evenodd" fill-opacity="0.6" stroke="#000000" stroke-opacity="0.6" stroke-width="3.2"/>
<path clip-path="url(#clip002)" d="M994.593 517.059 L971.769 533.643 L980.481 560.475 L1008.71 560.475 L1017.42 533.643 Z" fill="#ff3030" fill-rule="evenodd" fill-opacity="0.6" stroke="#000000" stroke-opacity="0.6" stroke-width="3.2"/>
<path clip-path="url(#clip002)" d="M1256.09 494.543 L1233.27 511.127 L1241.98 537.959 L1270.2 537.959 L1278.91 511.127 Z" fill="#ff3030" fill-rule="evenodd" fill-opacity="0.6" stroke="#000000" stroke-opacity="0.6" stroke-width="3.2"/>
<path clip-path="url(#clip002)" d="M1517.59 442.811 L1494.76 459.395 L1503.47 486.227 L1531.7 486.227 L1540.41 459.395 Z" fill="#ff3030" fill-rule="evenodd" fill-opacity="0.6" stroke="#000000" stroke-opacity="0.6" stroke-width="3.2"/>
<path clip-path="url(#clip002)" d="M1779.08 352.525 L1756.26 369.109 L1764.97 395.941 L1793.19 395.941 L1801.9 369.109 Z" fill="#ff3030" fill-rule="evenodd" fill-opacity="0.6" stroke="#000000" stroke-opacity="0.6" stroke-width="3.2"/>
<path clip-path="url(#clip002)" d="M2040.58 235.595 L2017.75 252.179 L2026.46 279.011 L2054.69 279.011 L2063.4 252.179 Z" fill="#ff3030" fill-rule="evenodd" fill-opacity="0.6" stroke="#000000" stroke-opacity="0.6" stroke-width="3.2"/>
<path clip-path="url(#clip002)" d="M2302.07 104.813 L2279.25 121.397 L2287.96 148.229 L2316.18 148.229 L2324.9 121.397 Z" fill="#ff3030" fill-rule="evenodd" fill-opacity="0.6" stroke="#000000" stroke-opacity="0.6" stroke-width="3.2"/>
<polyline clip-path="url(#clip002)" style="stroke:#8b1a1a; stroke-linecap:round; stroke-linejoin:round; stroke-width:24; stroke-opacity:0.8; fill:none" points="
  210.105,1139.31 471.601,1049.1 733.097,919.772 994.593,785.933 1256.09,649.044 1517.59,512.442 1779.08,371.855 2040.58,234.727 2302.07,101.166 
  "/>
<path clip-path="url(#clip002)" d="M210.105 1115.31 L186.105 1163.31 L234.105 1163.31 L210.105 1115.31 Z" fill="#8b1a1a" fill-rule="evenodd" fill-opacity="0.6" stroke="#000000" stroke-opacity="0.6" stroke-width="3.2"/>
<path clip-path="url(#clip002)" d="M471.601 1025.1 L447.601 1073.1 L495.601 1073.1 L471.601 1025.1 Z" fill="#8b1a1a" fill-rule="evenodd" fill-opacity="0.6" stroke="#000000" stroke-opacity="0.6" stroke-width="3.2"/>
<path clip-path="url(#clip002)" d="M733.097 895.772 L709.097 943.772 L757.097 943.772 L733.097 895.772 Z" fill="#8b1a1a" fill-rule="evenodd" fill-opacity="0.6" stroke="#000000" stroke-opacity="0.6" stroke-width="3.2"/>
<path clip-path="url(#clip002)" d="M994.593 761.933 L970.593 809.933 L1018.59 809.933 L994.593 761.933 Z" fill="#8b1a1a" fill-rule="evenodd" fill-opacity="0.6" stroke="#000000" stroke-opacity="0.6" stroke-width="3.2"/>
<path clip-path="url(#clip002)" d="M1256.09 625.044 L1232.09 673.044 L1280.09 673.044 L1256.09 625.044 Z" fill="#8b1a1a" fill-rule="evenodd" fill-opacity="0.6" stroke="#000000" stroke-opacity="0.6" stroke-width="3.2"/>
<path clip-path="url(#clip002)" d="M1517.59 488.442 L1493.59 536.442 L1541.59 536.442 L1517.59 488.442 Z" fill="#8b1a1a" fill-rule="evenodd" fill-opacity="0.6" stroke="#000000" stroke-opacity="0.6" stroke-width="3.2"/>
<path clip-path="url(#clip002)" d="M1779.08 347.855 L1755.08 395.855 L1803.08 395.855 L1779.08 347.855 Z" fill="#8b1a1a" fill-rule="evenodd" fill-opacity="0.6" stroke="#000000" stroke-opacity="0.6" stroke-width="3.2"/>
<path clip-path="url(#clip002)" d="M2040.58 210.727 L2016.58 258.727 L2064.58 258.727 L2040.58 210.727 Z" fill="#8b1a1a" fill-rule="evenodd" fill-opacity="0.6" stroke="#000000" stroke-opacity="0.6" stroke-width="3.2"/>
<path clip-path="url(#clip002)" d="M2302.07 77.166 L2278.07 125.166 L2326.07 125.166 L2302.07 77.166 Z" fill="#8b1a1a" fill-rule="evenodd" fill-opacity="0.6" stroke="#000000" stroke-opacity="0.6" stroke-width="3.2"/>
</svg>
