<?xml version="1.0" encoding="utf-8"?>
<svg xmlns="http://www.w3.org/2000/svg" xmlns:xlink="http://www.w3.org/1999/xlink" width="600" height="400" viewBox="0 0 2400 1600">
<defs>
  <clipPath id="clip550">
    <rect x="0" y="0" width="2400" height="1600"/>
  </clipPath>
</defs>
<path clip-path="url(#clip550)" d="
M0 1600 L2400 1600 L2400 0 L0 0  Z
  " fill="#ffffff" fill-rule="evenodd" fill-opacity="1"/>
<defs>
  <clipPath id="clip551">
    <rect x="480" y="0" width="1681" height="1600"/>
  </clipPath>
</defs>
<path clip-path="url(#clip550)" d="
M159.422 1474.16 L2352.76 1474.16 L2352.76 47.2441 L159.422 47.2441  Z
  " fill="#ffffff" fill-rule="evenodd" fill-opacity="1"/>
<defs>
  <clipPath id="clip552">
    <rect x="159" y="47" width="2194" height="1428"/>
  </clipPath>
</defs>
<polyline clip-path="url(#clip552)" style="stroke:#000000; stroke-linecap:round; stroke-linejoin:round; stroke-width:10; stroke-opacity:0.3; fill:none" points="
  210.105,1474.16 210.105,47.2441 
  "/>
<polyline clip-path="url(#clip552)" style="stroke:#000000; stroke-linecap:round; stroke-linejoin:round; stroke-width:10; stroke-opacity:0.3; fill:none" points="
  733.097,1474.16 733.097,47.2441 
  "/>
<polyline clip-path="url(#clip552)" style="stroke:#000000; stroke-linecap:round; stroke-linejoin:round; stroke-width:10; stroke-opacity:0.3; fill:none" points="
  1256.09,1474.16 1256.09,47.2441 
  "/>
<polyline clip-path="url(#clip552)" style="stroke:#000000; stroke-linecap:round; stroke-linejoin:round; stroke-width:10; stroke-opacity:0.3; fill:none" points="
  1779.08,1474.16 1779.08,47.2441 
  "/>
<polyline clip-path="url(#clip552)" style="stroke:#000000; stroke-linecap:round; stroke-linejoin:round; stroke-width:10; stroke-opacity:0.3; fill:none" points="
  2302.07,1474.16 2302.07,47.2441 
  "/>
<polyline clip-path="url(#clip550)" style="stroke:#000000; stroke-linecap:round; stroke-linejoin:round; stroke-width:4; stroke-opacity:1; fill:none" points="
  159.422,1474.16 2352.76,1474.16 
  "/>
<polyline clip-path="url(#clip550)" style="stroke:#000000; stroke-linecap:round; stroke-linejoin:round; stroke-width:4; stroke-opacity:1; fill:none" points="
  159.422,47.2441 2352.76,47.2441 
  "/>
<polyline clip-path="url(#clip550)" style="stroke:#000000; stroke-linecap:round; stroke-linejoin:round; stroke-width:4; stroke-opacity:1; fill:none" points="
  210.105,1474.16 210.105,1455.27 
  "/>
<polyline clip-path="url(#clip550)" style="stroke:#000000; stroke-linecap:round; stroke-linejoin:round; stroke-width:4; stroke-opacity:1; fill:none" points="
  733.097,1474.16 733.097,1455.27 
  "/>
<polyline clip-path="url(#clip550)" style="stroke:#000000; stroke-linecap:round; stroke-linejoin:round; stroke-width:4; stroke-opacity:1; fill:none" points="
  1256.09,1474.16 1256.09,1455.27 
  "/>
<polyline clip-path="url(#clip550)" style="stroke:#000000; stroke-linecap:round; stroke-linejoin:round; stroke-width:4; stroke-opacity:1; fill:none" points="
  1779.08,1474.16 1779.08,1455.27 
  "/>
<polyline clip-path="url(#clip550)" style="stroke:#000000; stroke-linecap:round; stroke-linejoin:round; stroke-width:4; stroke-opacity:1; fill:none" points="
  2302.07,1474.16 2302.07,1455.27 
  "/>
<path clip-path="url(#clip550)" d="M176.433 1548.29 L184.072 1548.29 L184.072 1521.92 L175.762 1523.59 L175.762 1519.33 L184.026 1517.66 L188.701 1517.66 L188.701 1548.29 L196.34 1548.29 L196.34 1552.22 L176.433 1552.22 L176.433 1548.29 Z" fill="#000000" fill-rule="evenodd" fill-opacity="1" /><path clip-path="url(#clip550)" d="M215.785 1520.74 Q212.174 1520.74 210.345 1524.31 Q208.539 1527.85 208.539 1534.98 Q208.539 1542.09 210.345 1545.65 Q212.174 1549.19 215.785 1549.19 Q219.419 1549.19 221.224 1545.65 Q223.053 1542.09 223.053 1534.98 Q223.053 1527.85 221.224 1524.31 Q219.419 1520.74 215.785 1520.74 M215.785 1517.04 Q221.595 1517.04 224.65 1521.65 Q227.729 1526.23 227.729 1534.98 Q227.729 1543.71 224.65 1548.31 Q221.595 1552.9 215.785 1552.9 Q209.975 1552.9 206.896 1548.31 Q203.84 1543.71 203.84 1534.98 Q203.84 1526.23 206.896 1521.65 Q209.975 1517.04 215.785 1517.04 Z" fill="#000000" fill-rule="evenodd" fill-opacity="1" /><path clip-path="url(#clip550)" d="M228.274 1521.62 L234.481 1521.62 L234.481 1500.19 L227.729 1501.55 L227.729 1498.09 L234.443 1496.73 L238.243 1496.73 L238.243 1521.62 L244.449 1521.62 L244.449 1524.81 L228.274 1524.81 L228.274 1521.62 Z" fill="#000000" fill-rule="evenodd" fill-opacity="1" /><path clip-path="url(#clip550)" d="M698.87 1548.29 L706.509 1548.29 L706.509 1521.92 L698.199 1523.59 L698.199 1519.33 L706.463 1517.66 L711.138 1517.66 L711.138 1548.29 L718.777 1548.29 L718.777 1552.22 L698.87 1552.22 L698.87 1548.29 Z" fill="#000000" fill-rule="evenodd" fill-opacity="1" /><path clip-path="url(#clip550)" d="M738.222 1520.74 Q734.611 1520.74 732.782 1524.31 Q730.976 1527.85 730.976 1534.98 Q730.976 1542.09 732.782 1545.65 Q734.611 1549.19 738.222 1549.19 Q741.856 1549.19 743.661 1545.65 Q745.49 1542.09 745.49 1534.98 Q745.49 1527.85 743.661 1524.31 Q741.856 1520.74 738.222 1520.74 M738.222 1517.04 Q744.032 1517.04 747.087 1521.65 Q750.166 1526.23 750.166 1534.98 Q750.166 1543.71 747.087 1548.31 Q744.032 1552.9 738.222 1552.9 Q732.412 1552.9 729.333 1548.31 Q726.277 1543.71 726.277 1534.98 Q726.277 1526.23 729.333 1521.65 Q732.412 1517.04 738.222 1517.04 Z" fill="#000000" fill-rule="evenodd" fill-opacity="1" /><path clip-path="url(#clip550)" d="M754.736 1521.62 L767.996 1521.62 L767.996 1524.81 L750.166 1524.81 L750.166 1521.62 Q752.329 1519.38 756.053 1515.62 Q759.796 1511.84 760.755 1510.75 Q762.579 1508.7 763.294 1507.29 Q764.027 1505.86 764.027 1504.48 Q764.027 1502.24 762.448 1500.83 Q760.886 1499.42 758.366 1499.42 Q756.579 1499.42 754.586 1500.04 Q752.611 1500.67 750.354 1501.93 L750.354 1498.09 Q752.649 1497.17 754.642 1496.7 Q756.636 1496.23 758.291 1496.23 Q762.654 1496.23 765.25 1498.41 Q767.845 1500.59 767.845 1504.24 Q767.845 1505.97 767.187 1507.53 Q766.548 1509.07 764.836 1511.18 Q764.366 1511.72 761.846 1514.34 Q759.325 1516.93 754.736 1521.62 Z" fill="#000000" fill-rule="evenodd" fill-opacity="1" /><path clip-path="url(#clip550)" d="M1221.53 1548.29 L1229.17 1548.29 L1229.17 1521.92 L1220.86 1523.59 L1220.86 1519.33 L1229.13 1517.66 L1233.8 1517.66 L1233.8 1548.29 L1241.44 1548.29 L1241.44 1552.22 L1221.53 1552.22 L1221.53 1548.29 Z" fill="#000000" fill-rule="evenodd" fill-opacity="1" /><path clip-path="url(#clip550)" d="M1260.88 1520.74 Q1257.27 1520.74 1255.44 1524.31 Q1253.64 1527.85 1253.64 1534.98 Q1253.64 1542.09 1255.44 1545.65 Q1257.27 1549.19 1260.88 1549.19 Q1264.52 1549.19 1266.32 1545.65 Q1268.15 1542.09 1268.15 1534.98 Q1268.15 1527.85 1266.32 1524.31 Q1264.52 1520.74 1260.88 1520.74 M1260.88 1517.04 Q1266.69 1517.04 1269.75 1521.65 Q1272.83 1526.23 1272.83 1534.98 Q1272.83 1543.71 1269.75 1548.31 Q1266.69 1552.9 1260.88 1552.9 Q1255.07 1552.9 1252 1548.31 Q1248.94 1543.71 1248.94 1534.98 Q1248.94 1526.23 1252 1521.65 Q1255.07 1517.04 1260.88 1517.04 Z" fill="#000000" fill-rule="evenodd" fill-opacity="1" /><path clip-path="url(#clip550)" d="M1285.52 1509.67 Q1288.25 1510.26 1289.77 1512.1 Q1291.32 1513.94 1291.32 1516.65 Q1291.32 1520.81 1288.46 1523.08 Q1285.6 1525.36 1280.33 1525.36 Q1278.57 1525.36 1276.68 1525 Q1274.82 1524.66 1272.83 1523.97 L1272.83 1520.3 Q1274.41 1521.22 1276.29 1521.69 Q1278.17 1522.16 1280.22 1522.16 Q1283.79 1522.16 1285.66 1520.75 Q1287.54 1519.34 1287.54 1516.65 Q1287.54 1514.17 1285.79 1512.78 Q1284.06 1511.37 1280.95 1511.37 L1277.68 1511.37 L1277.68 1508.24 L1281.1 1508.24 Q1283.91 1508.24 1285.39 1507.13 Q1286.88 1506.01 1286.88 1503.9 Q1286.88 1501.74 1285.34 1500.59 Q1283.81 1499.42 1280.95 1499.42 Q1279.39 1499.42 1277.61 1499.76 Q1275.82 1500.1 1273.68 1500.82 L1273.68 1497.43 Q1275.84 1496.83 1277.72 1496.53 Q1279.62 1496.23 1281.29 1496.23 Q1285.62 1496.23 1288.14 1498.2 Q1290.66 1500.16 1290.66 1503.51 Q1290.66 1505.84 1289.32 1507.45 Q1287.99 1509.05 1285.52 1509.67 Z" fill="#000000" fill-rule="evenodd" fill-opacity="1" /><path clip-path="url(#clip550)" d="M1743.54 1548.29 L1751.18 1548.29 L1751.18 1521.92 L1742.87 1523.59 L1742.87 1519.33 L1751.13 1517.66 L1755.81 1517.66 L1755.81 1548.29 L1763.44 1548.29 L1763.44 1552.22 L1743.54 1552.22 L1743.54 1548.29 Z" fill="#000000" fill-rule="evenodd" fill-opacity="1" /><path clip-path="url(#clip550)" d="M1782.89 1520.74 Q1779.28 1520.74 1777.45 1524.31 Q1775.64 1527.85 1775.64 1534.98 Q1775.64 1542.09 1777.45 1545.65 Q1779.28 1549.19 1782.89 1549.19 Q1786.52 1549.19 1788.33 1545.65 Q1790.16 1542.09 1790.16 1534.98 Q1790.16 1527.85 1788.33 1524.31 Q1786.52 1520.74 1782.89 1520.74 M1782.89 1517.04 Q1788.7 1517.04 1791.75 1521.65 Q1794.83 1526.23 1794.83 1534.98 Q1794.83 1543.71 1791.75 1548.31 Q1788.7 1552.9 1782.89 1552.9 Q1777.08 1552.9 1774 1548.31 Q1770.94 1543.71 1770.94 1534.98 Q1770.94 1526.23 1774 1521.65 Q1777.08 1517.04 1782.89 1517.04 Z" fill="#000000" fill-rule="evenodd" fill-opacity="1" /><path clip-path="url(#clip550)" d="M1807.51 1500.04 L1797.92 1515.03 L1807.51 1515.03 L1807.51 1500.04 M1806.51 1496.73 L1811.29 1496.73 L1811.29 1515.03 L1815.3 1515.03 L1815.3 1518.19 L1811.29 1518.19 L1811.29 1524.81 L1807.51 1524.81 L1807.51 1518.19 L1794.83 1518.19 L1794.83 1514.53 L1806.51 1496.73 Z" fill="#000000" fill-rule="evenodd" fill-opacity="1" /><path clip-path="url(#clip550)" d="M2267.68 1548.29 L2275.32 1548.29 L2275.32 1521.92 L2267 1523.59 L2267 1519.33 L2275.27 1517.66 L2279.94 1517.66 L2279.94 1548.29 L2287.58 1548.29 L2287.58 1552.22 L2267.68 1552.22 L2267.68 1548.29 Z" fill="#000000" fill-rule="evenodd" fill-opacity="1" /><path clip-path="url(#clip550)" d="M2307.03 1520.74 Q2303.42 1520.74 2301.59 1524.31 Q2299.78 1527.85 2299.78 1534.98 Q2299.78 1542.09 2301.59 1545.65 Q2303.42 1549.19 2307.03 1549.19 Q2310.66 1549.19 2312.47 1545.65 Q2314.3 1542.09 2314.3 1534.98 Q2314.3 1527.85 2312.47 1524.31 Q2310.66 1520.74 2307.03 1520.74 M2307.03 1517.04 Q2312.84 1517.04 2315.89 1521.65 Q2318.97 1526.23 2318.97 1534.98 Q2318.97 1543.71 2315.89 1548.31 Q2312.84 1552.9 2307.03 1552.9 Q2301.22 1552.9 2298.14 1548.31 Q2295.08 1543.71 2295.08 1534.98 Q2295.08 1526.23 2298.14 1521.65 Q2301.22 1517.04 2307.03 1517.04 Z" fill="#000000" fill-rule="evenodd" fill-opacity="1" /><path clip-path="url(#clip550)" d="M2320.16 1496.73 L2335.07 1496.73 L2335.07 1499.93 L2323.64 1499.93 L2323.64 1506.82 Q2324.46 1506.53 2325.29 1506.4 Q2326.12 1506.25 2326.95 1506.25 Q2331.65 1506.25 2334.39 1508.83 Q2337.14 1511.4 2337.14 1515.81 Q2337.14 1520.34 2334.32 1522.86 Q2331.5 1525.36 2326.36 1525.36 Q2324.6 1525.36 2322.75 1525.06 Q2320.93 1524.76 2318.97 1524.16 L2318.97 1520.34 Q2320.66 1521.26 2322.47 1521.71 Q2324.28 1522.16 2326.29 1522.16 Q2329.54 1522.16 2331.44 1520.45 Q2333.34 1518.74 2333.34 1515.81 Q2333.34 1512.87 2331.44 1511.16 Q2329.54 1509.45 2326.29 1509.45 Q2324.77 1509.45 2323.24 1509.79 Q2321.74 1510.13 2320.16 1510.84 L2320.16 1496.73 Z" fill="#000000" fill-rule="evenodd" fill-opacity="1" /><polyline clip-path="url(#clip552)" style="stroke:#000000; stroke-linecap:round; stroke-linejoin:round; stroke-width:10; stroke-opacity:0.3; fill:none" points="
  159.422,1451.84 2352.76,1451.84 
  "/>
<polyline clip-path="url(#clip552)" style="stroke:#000000; stroke-linecap:round; stroke-linejoin:round; stroke-width:10; stroke-opacity:0.3; fill:none" points="
  159.422,1221.46 2352.76,1221.46 
  "/>
<polyline clip-path="url(#clip552)" style="stroke:#000000; stroke-linecap:round; stroke-linejoin:round; stroke-width:10; stroke-opacity:0.3; fill:none" points="
  159.422,991.082 2352.76,991.082 
  "/>
<polyline clip-path="url(#clip552)" style="stroke:#000000; stroke-linecap:round; stroke-linejoin:round; stroke-width:10; stroke-opacity:0.3; fill:none" points="
  159.422,760.704 2352.76,760.704 
  "/>
<polyline clip-path="url(#clip552)" style="stroke:#000000; stroke-linecap:round; stroke-linejoin:round; stroke-width:10; stroke-opacity:0.3; fill:none" points="
  159.422,530.326 2352.76,530.326 
  "/>
<polyline clip-path="url(#clip552)" style="stroke:#000000; stroke-linecap:round; stroke-linejoin:round; stroke-width:10; stroke-opacity:0.3; fill:none" points="
  159.422,299.948 2352.76,299.948 
  "/>
<polyline clip-path="url(#clip552)" style="stroke:#000000; stroke-linecap:round; stroke-linejoin:round; stroke-width:10; stroke-opacity:0.3; fill:none" points="
  159.422,69.57 2352.76,69.57 
  "/>
<polyline clip-path="url(#clip550)" style="stroke:#000000; stroke-linecap:round; stroke-linejoin:round; stroke-width:4; stroke-opacity:1; fill:none" points="
  159.422,1474.16 159.422,47.2441 
  "/>
<polyline clip-path="url(#clip550)" style="stroke:#000000; stroke-linecap:round; stroke-linejoin:round; stroke-width:4; stroke-opacity:1; fill:none" points="
  2352.76,1474.16 2352.76,47.2441 
  "/>
<polyline clip-path="url(#clip550)" style="stroke:#000000; stroke-linecap:round; stroke-linejoin:round; stroke-width:4; stroke-opacity:1; fill:none" points="
  159.422,1451.84 178.32,1451.84 
  "/>
<polyline clip-path="url(#clip550)" style="stroke:#000000; stroke-linecap:round; stroke-linejoin:round; stroke-width:4; stroke-opacity:1; fill:none" points="
  159.422,1221.46 178.32,1221.46 
  "/>
<polyline clip-path="url(#clip550)" style="stroke:#000000; stroke-linecap:round; stroke-linejoin:round; stroke-width:4; stroke-opacity:1; fill:none" points="
  159.422,991.082 178.32,991.082 
  "/>
<polyline clip-path="url(#clip550)" style="stroke:#000000; stroke-linecap:round; stroke-linejoin:round; stroke-width:4; stroke-opacity:1; fill:none" points="
  159.422,760.704 178.32,760.704 
  "/>
<polyline clip-path="url(#clip550)" style="stroke:#000000; stroke-linecap:round; stroke-linejoin:round; stroke-width:4; stroke-opacity:1; fill:none" points="
  159.422,530.326 178.32,530.326 
  "/>
<polyline clip-path="url(#clip550)" style="stroke:#000000; stroke-linecap:round; stroke-linejoin:round; stroke-width:4; stroke-opacity:1; fill:none" points="
  159.422,299.948 178.32,299.948 
  "/>
<polyline clip-path="url(#clip550)" style="stroke:#000000; stroke-linecap:round; stroke-linejoin:round; stroke-width:4; stroke-opacity:1; fill:none" points="
  159.422,69.57 178.32,69.57 
  "/>
<path clip-path="url(#clip550)" d="M55.4062 1471.63 L63.045 1471.63 L63.045 1445.27 L54.7349 1446.93 L54.7349 1442.67 L62.9987 1441.01 L67.6746 1441.01 L67.6746 1471.63 L75.3135 1471.63 L75.3135 1475.57 L55.4062 1475.57 L55.4062 1471.63 Z" fill="#000000" fill-rule="evenodd" fill-opacity="1" /><path clip-path="url(#clip550)" d="M94.7578 1444.09 Q91.1467 1444.09 89.318 1447.65 Q87.5125 1451.19 87.5125 1458.32 Q87.5125 1465.43 89.318 1468.99 Q91.1467 1472.53 94.7578 1472.53 Q98.392 1472.53 100.198 1468.99 Q102.026 1465.43 102.026 1458.32 Q102.026 1451.19 100.198 1447.65 Q98.392 1444.09 94.7578 1444.09 M94.7578 1440.38 Q100.568 1440.38 103.623 1444.99 Q106.702 1449.57 106.702 1458.32 Q106.702 1467.05 103.623 1471.65 Q100.568 1476.24 94.7578 1476.24 Q88.9477 1476.24 85.869 1471.65 Q82.8134 1467.05 82.8134 1458.32 Q82.8134 1449.57 85.869 1444.99 Q88.9477 1440.38 94.7578 1440.38 Z" fill="#000000" fill-rule="evenodd" fill-opacity="1" /><path clip-path="url(#clip550)" d="M107.248 1444.96 L113.454 1444.96 L113.454 1423.54 L106.702 1424.89 L106.702 1421.43 L113.417 1420.08 L117.216 1420.08 L117.216 1444.96 L123.422 1444.96 L123.422 1448.16 L107.248 1448.16 L107.248 1444.96 Z" fill="#000000" fill-rule="evenodd" fill-opacity="1" /><path clip-path="url(#clip550)" d="M54.2965 1241.25 L61.9354 1241.25 L61.9354 1214.89 L53.6252 1216.55 L53.6252 1212.29 L61.8891 1210.63 L66.565 1210.63 L66.565 1241.25 L74.2038 1241.25 L74.2038 1245.19 L54.2965 1245.19 L54.2965 1241.25 Z" fill="#000000" fill-rule="evenodd" fill-opacity="1" /><path clip-path="url(#clip550)" d="M93.6481 1213.71 Q90.0371 1213.71 88.2084 1217.27 Q86.4028 1220.81 86.4028 1227.94 Q86.4028 1235.05 88.2084 1238.61 Q90.0371 1242.16 93.6481 1242.16 Q97.2824 1242.16 99.0879 1238.61 Q100.917 1235.05 100.917 1227.94 Q100.917 1220.81 99.0879 1217.27 Q97.2824 1213.71 93.6481 1213.71 M93.6481 1210 Q99.4583 1210 102.514 1214.61 Q105.593 1219.19 105.593 1227.94 Q105.593 1236.67 102.514 1241.28 Q99.4583 1245.86 93.6481 1245.86 Q87.838 1245.86 84.7593 1241.28 Q81.7038 1236.67 81.7038 1227.94 Q81.7038 1219.19 84.7593 1214.61 Q87.838 1210 93.6481 1210 Z" fill="#000000" fill-rule="evenodd" fill-opacity="1" /><path clip-path="url(#clip550)" d="M110.163 1214.58 L123.422 1214.58 L123.422 1217.78 L105.593 1217.78 L105.593 1214.58 Q107.755 1212.34 111.479 1208.58 Q115.222 1204.8 116.181 1203.71 Q118.006 1201.66 118.72 1200.25 Q119.454 1198.82 119.454 1197.45 Q119.454 1195.21 117.874 1193.8 Q116.313 1192.39 113.793 1192.39 Q112.006 1192.39 110.012 1193.01 Q108.038 1193.63 105.781 1194.89 L105.781 1191.05 Q108.075 1190.13 110.069 1189.66 Q112.062 1189.19 113.717 1189.19 Q118.081 1189.19 120.676 1191.37 Q123.272 1193.55 123.272 1197.2 Q123.272 1198.93 122.614 1200.49 Q121.974 1202.04 120.263 1204.14 Q119.792 1204.69 117.272 1207.3 Q114.752 1209.9 110.163 1214.58 Z" fill="#000000" fill-rule="evenodd" fill-opacity="1" /><path clip-path="url(#clip550)" d="M53.6382 1010.87 L61.2771 1010.87 L61.2771 984.509 L52.9669 986.176 L52.9669 981.917 L61.2308 980.25 L65.9067 980.25 L65.9067 1010.87 L73.5455 1010.87 L73.5455 1014.81 L53.6382 1014.81 L53.6382 1010.87 Z" fill="#000000" fill-rule="evenodd" fill-opacity="1" /><path clip-path="url(#clip550)" d="M92.9899 983.329 Q89.3788 983.329 87.5501 986.894 Q85.7445 990.435 85.7445 997.565 Q85.7445 1004.67 87.5501 1008.24 Q89.3788 1011.78 92.9899 1011.78 Q96.6241 1011.78 98.4297 1008.24 Q100.258 1004.67 100.258 997.565 Q100.258 990.435 98.4297 986.894 Q96.6241 983.329 92.9899 983.329 M92.9899 979.625 Q98.8 979.625 101.856 984.232 Q104.934 988.815 104.934 997.565 Q104.934 1006.29 101.856 1010.9 Q98.8 1015.48 92.9899 1015.48 Q87.1797 1015.48 84.101 1010.9 Q81.0455 1006.29 81.0455 997.565 Q81.0455 988.815 84.101 984.232 Q87.1797 979.625 92.9899 979.625 Z" fill="#000000" fill-rule="evenodd" fill-opacity="1" /><path clip-path="url(#clip550)" d="M117.63 972.259 Q120.357 972.842 121.88 974.686 Q123.422 976.529 123.422 979.237 Q123.422 983.394 120.564 985.669 Q117.705 987.945 112.439 987.945 Q110.671 987.945 108.79 987.588 Q106.928 987.249 104.934 986.553 L104.934 982.886 Q106.514 983.807 108.395 984.278 Q110.276 984.748 112.326 984.748 Q115.899 984.748 117.761 983.337 Q119.642 981.927 119.642 979.237 Q119.642 976.755 117.893 975.363 Q116.162 973.952 113.059 973.952 L109.787 973.952 L109.787 970.83 L113.21 970.83 Q116.012 970.83 117.498 969.72 Q118.984 968.592 118.984 966.485 Q118.984 964.323 117.441 963.175 Q115.918 962.009 113.059 962.009 Q111.498 962.009 109.711 962.348 Q107.925 962.686 105.781 963.401 L105.781 960.016 Q107.943 959.414 109.824 959.113 Q111.724 958.812 113.398 958.812 Q117.724 958.812 120.244 960.787 Q122.764 962.743 122.764 966.09 Q122.764 968.423 121.429 970.04 Q120.093 971.639 117.63 972.259 Z" fill="#000000" fill-rule="evenodd" fill-opacity="1" /><path clip-path="url(#clip550)" d="M51.6634 780.497 L59.3023 780.497 L59.3023 754.131 L50.9921 755.798 L50.9921 751.539 L59.256 749.872 L63.9319 749.872 L63.9319 780.497 L71.5707 780.497 L71.5707 784.432 L51.6634 784.432 L51.6634 780.497 Z" fill="#000000" fill-rule="evenodd" fill-opacity="1" /><path clip-path="url(#clip550)" d="M91.0151 752.951 Q87.404 752.951 85.5753 756.515 Q83.7697 760.057 83.7697 767.187 Q83.7697 774.293 85.5753 777.858 Q87.404 781.4 91.0151 781.4 Q94.6493 781.4 96.4548 777.858 Q98.2835 774.293 98.2835 767.187 Q98.2835 760.057 96.4548 756.515 Q94.6493 752.951 91.0151 752.951 M91.0151 749.247 Q96.8252 749.247 99.8808 753.853 Q102.959 758.437 102.959 767.187 Q102.959 775.914 99.8808 780.52 Q96.8252 785.103 91.0151 785.103 Q85.2049 785.103 82.1262 780.52 Q79.0707 775.914 79.0707 767.187 Q79.0707 758.437 82.1262 753.853 Q85.2049 749.247 91.0151 749.247 Z" fill="#000000" fill-rule="evenodd" fill-opacity="1" /><path clip-path="url(#clip550)" d="M115.636 732.252 L106.044 747.242 L115.636 747.242 L115.636 732.252 M114.639 728.942 L119.416 728.942 L119.416 747.242 L123.422 747.242 L123.422 750.401 L119.416 750.401 L119.416 757.022 L115.636 757.022 L115.636 750.401 L102.959 750.401 L102.959 746.734 L114.639 728.942 Z" fill="#000000" fill-rule="evenodd" fill-opacity="1" /><path clip-path="url(#clip550)" d="M53.958 550.119 L61.5968 550.119 L61.5968 523.753 L53.2867 525.42 L53.2867 521.161 L61.5505 519.494 L66.2264 519.494 L66.2264 550.119 L73.8653 550.119 L73.8653 554.054 L53.958 554.054 L53.958 550.119 Z" fill="#000000" fill-rule="evenodd" fill-opacity="1" /><path clip-path="url(#clip550)" d="M93.3096 522.573 Q89.6985 522.573 87.8698 526.137 Q86.0643 529.679 86.0643 536.809 Q86.0643 543.915 87.8698 547.48 Q89.6985 551.021 93.3096 551.021 Q96.9438 551.021 98.7494 547.48 Q100.578 543.915 100.578 536.809 Q100.578 529.679 98.7494 526.137 Q96.9438 522.573 93.3096 522.573 M93.3096 518.869 Q99.1198 518.869 102.175 523.475 Q105.254 528.059 105.254 536.809 Q105.254 545.535 102.175 550.142 Q99.1198 554.725 93.3096 554.725 Q87.4995 554.725 84.4208 550.142 Q81.3652 545.535 81.3652 536.809 Q81.3652 528.059 84.4208 523.475 Q87.4995 518.869 93.3096 518.869 Z" fill="#000000" fill-rule="evenodd" fill-opacity="1" /><path clip-path="url(#clip550)" d="M106.439 498.563 L121.353 498.563 L121.353 501.761 L109.918 501.761 L109.918 508.644 Q110.746 508.362 111.573 508.231 Q112.401 508.08 113.228 508.08 Q117.93 508.08 120.676 510.657 Q123.422 513.234 123.422 517.635 Q123.422 522.167 120.601 524.687 Q117.78 527.189 112.645 527.189 Q110.878 527.189 109.034 526.888 Q107.21 526.587 105.254 525.985 L105.254 522.167 Q106.947 523.089 108.752 523.54 Q110.558 523.992 112.57 523.992 Q115.824 523.992 117.724 522.28 Q119.623 520.569 119.623 517.635 Q119.623 514.701 117.724 512.989 Q115.824 511.278 112.57 511.278 Q111.047 511.278 109.523 511.616 Q108.019 511.955 106.439 512.669 L106.439 498.563 Z" fill="#000000" fill-rule="evenodd" fill-opacity="1" /><path clip-path="url(#clip550)" d="M52.7355 319.741 L60.3743 319.741 L60.3743 293.375 L52.0642 295.042 L52.0642 290.782 L60.328 289.116 L65.0039 289.116 L65.0039 319.741 L72.6428 319.741 L72.6428 323.676 L52.7355 323.676 L52.7355 319.741 Z" fill="#000000" fill-rule="evenodd" fill-opacity="1" /><path clip-path="url(#clip550)" d="M92.0871 292.194 Q88.476 292.194 86.6473 295.759 Q84.8418 299.301 84.8418 306.43 Q84.8418 313.537 86.6473 317.102 Q88.476 320.643 92.0871 320.643 Q95.7213 320.643 97.5269 317.102 Q99.3556 313.537 99.3556 306.43 Q99.3556 299.301 97.5269 295.759 Q95.7213 292.194 92.0871 292.194 M92.0871 288.491 Q97.8973 288.491 100.953 293.097 Q104.031 297.681 104.031 306.43 Q104.031 315.157 100.953 319.764 Q97.8973 324.347 92.0871 324.347 Q86.2769 324.347 83.1983 319.764 Q80.1427 315.157 80.1427 306.43 Q80.1427 297.681 83.1983 293.097 Q86.2769 288.491 92.0871 288.491 Z" fill="#000000" fill-rule="evenodd" fill-opacity="1" /><path clip-path="url(#clip550)" d="M114.056 280.711 Q111.498 280.711 109.994 282.46 Q108.508 284.21 108.508 287.256 Q108.508 290.284 109.994 292.052 Q111.498 293.802 114.056 293.802 Q116.614 293.802 118.1 292.052 Q119.604 290.284 119.604 287.256 Q119.604 284.21 118.1 282.46 Q116.614 280.711 114.056 280.711 M121.598 268.806 L121.598 272.267 Q120.169 271.59 118.702 271.232 Q117.253 270.875 115.824 270.875 Q112.062 270.875 110.069 273.414 Q108.094 275.953 107.812 281.087 Q108.922 279.451 110.595 278.586 Q112.269 277.702 114.282 277.702 Q118.513 277.702 120.958 280.279 Q123.422 282.837 123.422 287.256 Q123.422 291.582 120.864 294.197 Q118.307 296.811 114.056 296.811 Q109.185 296.811 106.608 293.087 Q104.031 289.344 104.031 282.254 Q104.031 275.596 107.191 271.646 Q110.351 267.678 115.673 267.678 Q117.103 267.678 118.551 267.96 Q120.018 268.242 121.598 268.806 Z" fill="#000000" fill-rule="evenodd" fill-opacity="1" /><path clip-path="url(#clip550)" d="M54.0708 89.3625 L61.7097 89.3625 L61.7097 62.9969 L53.3995 64.6635 L53.3995 60.4043 L61.6634 58.7376 L66.3393 58.7376 L66.3393 89.3625 L73.9781 89.3625 L73.9781 93.2976 L54.0708 93.2976 L54.0708 89.3625 Z" fill="#000000" fill-rule="evenodd" fill-opacity="1" /><path clip-path="url(#clip550)" d="M93.4225 61.8163 Q89.8114 61.8163 87.9827 65.3811 Q86.1771 68.9228 86.1771 76.0524 Q86.1771 83.1588 87.9827 86.7236 Q89.8114 90.2652 93.4225 90.2652 Q97.0567 90.2652 98.8622 86.7236 Q100.691 83.1588 100.691 76.0524 Q100.691 68.9228 98.8622 65.3811 Q97.0567 61.8163 93.4225 61.8163 M93.4225 58.1126 Q99.2326 58.1126 102.288 62.7191 Q105.367 67.3024 105.367 76.0524 Q105.367 84.7792 102.288 89.3856 Q99.2326 93.9689 93.4225 93.9689 Q87.6123 93.9689 84.5336 89.3856 Q81.4781 84.7792 81.4781 76.0524 Q81.4781 67.3024 84.5336 62.7191 Q87.6123 58.1126 93.4225 58.1126 Z" fill="#000000" fill-rule="evenodd" fill-opacity="1" /><path clip-path="url(#clip550)" d="M105.367 37.8072 L123.422 37.8072 L123.422 39.4247 L113.228 65.8872 L109.26 65.8872 L118.852 41.0046 L105.367 41.0046 L105.367 37.8072 Z" fill="#000000" fill-rule="evenodd" fill-opacity="1" /><polyline clip-path="url(#clip552)" style="stroke:#c1ffc1; stroke-linecap:round; stroke-linejoin:round; stroke-width:24; stroke-opacity:0.8; fill:none" points="
  210.105,1064.16 471.601,957.628 733.097,845.841 994.593,735.555 1256.09,650.589 1517.59,525.643 1779.08,406.804 2040.58,295.406 2302.07,179.215 
  "/>
<path clip-path="url(#clip552)" d="M210.105 1088.16 L203.313 1070.95 L186.105 1064.16 L203.313 1057.37 L210.105 1040.16 L216.897 1057.37 L234.105 1064.16 L216.897 1070.95 L210.105 1088.16 Z" fill="#c1ffc1" fill-rule="evenodd" fill-opacity="0.6" stroke="#000000" stroke-opacity="0.6" stroke-width="3.2"/>
<path clip-path="url(#clip552)" d="M471.601 981.628 L464.809 964.42 L447.601 957.628 L464.809 950.836 L471.601 933.628 L478.393 950.836 L495.601 957.628 L478.393 964.42 L471.601 981.628 Z" fill="#c1ffc1" fill-rule="evenodd" fill-opacity="0.6" stroke="#000000" stroke-opacity="0.6" stroke-width="3.2"/>
<path clip-path="url(#clip552)" d="M733.097 869.841 L726.305 852.633 L709.097 845.841 L726.305 839.049 L733.097 821.841 L739.889 839.049 L757.097 845.841 L739.889 852.633 L733.097 869.841 Z" fill="#c1ffc1" fill-rule="evenodd" fill-opacity="0.6" stroke="#000000" stroke-opacity="0.6" stroke-width="3.2"/>
<path clip-path="url(#clip552)" d="M994.593 759.555 L987.801 742.347 L970.593 735.555 L987.801 728.763 L994.593 711.555 L1001.39 728.763 L1018.59 735.555 L1001.39 742.347 L994.593 759.555 Z" fill="#c1ffc1" fill-rule="evenodd" fill-opacity="0.6" stroke="#000000" stroke-opacity="0.6" stroke-width="3.2"/>
<path clip-path="url(#clip552)" d="M1256.09 674.589 L1249.3 657.381 L1232.09 650.589 L1249.3 643.797 L1256.09 626.589 L1262.88 643.797 L1280.09 650.589 L1262.88 657.381 L1256.09 674.589 Z" fill="#c1ffc1" fill-rule="evenodd" fill-opacity="0.6" stroke="#000000" stroke-opacity="0.6" stroke-width="3.2"/>
<path clip-path="url(#clip552)" d="M1517.59 549.643 L1510.79 532.435 L1493.59 525.643 L1510.79 518.851 L1517.59 501.643 L1524.38 518.851 L1541.59 525.643 L1524.38 532.435 L1517.59 549.643 Z" fill="#c1ffc1" fill-rule="evenodd" fill-opacity="0.6" stroke="#000000" stroke-opacity="0.6" stroke-width="3.2"/>
<path clip-path="url(#clip552)" d="M1779.08 430.804 L1772.29 413.596 L1755.08 406.804 L1772.29 400.012 L1779.08 382.804 L1785.87 400.012 L1803.08 406.804 L1785.87 413.596 L1779.08 430.804 Z" fill="#c1ffc1" fill-rule="evenodd" fill-opacity="0.6" stroke="#000000" stroke-opacity="0.6" stroke-width="3.2"/>
<path clip-path="url(#clip552)" d="M2040.58 319.406 L2033.78 302.198 L2016.58 295.406 L2033.78 288.614 L2040.58 271.406 L2047.37 288.614 L2064.58 295.406 L2047.37 302.198 L2040.58 319.406 Z" fill="#c1ffc1" fill-rule="evenodd" fill-opacity="0.6" stroke="#000000" stroke-opacity="0.6" stroke-width="3.2"/>
<path clip-path="url(#clip552)" d="M2302.07 203.215 L2295.28 186.007 L2278.07 179.215 L2295.28 172.423 L2302.07 155.215 L2308.86 172.423 L2326.07 179.215 L2308.86 186.007 L2302.07 203.215 Z" fill="#c1ffc1" fill-rule="evenodd" fill-opacity="0.6" stroke="#000000" stroke-opacity="0.6" stroke-width="3.2"/>
<polyline clip-path="url(#clip552)" style="stroke:#00f5ff; stroke-linecap:round; stroke-linejoin:round; stroke-width:24; stroke-opacity:0.8; fill:none" points="
  210.105,1214.22 471.601,1107.39 733.097,995.303 994.593,880.426 1256.09,763.256 1517.59,645.287 1779.08,536.83 2040.58,422.056 2302.07,306.928 
  "/>
<circle clip-path="url(#clip552)" cx="210.105" cy="1214.22" r="21.6" fill="#00f5ff" fill-rule="evenodd" fill-opacity="0.6" stroke="#000000" stroke-opacity="0.6" stroke-width="3.2"/>
<circle clip-path="url(#clip552)" cx="471.601" cy="1107.39" r="21.6" fill="#00f5ff" fill-rule="evenodd" fill-opacity="0.6" stroke="#000000" stroke-opacity="0.6" stroke-width="3.2"/>
<circle clip-path="url(#clip552)" cx="733.097" cy="995.303" r="21.6" fill="#00f5ff" fill-rule="evenodd" fill-opacity="0.6" stroke="#000000" stroke-opacity="0.6" stroke-width="3.2"/>
<circle clip-path="url(#clip552)" cx="994.593" cy="880.426" r="21.6" fill="#00f5ff" fill-rule="evenodd" fill-opacity="0.6" stroke="#000000" stroke-opacity="0.6" stroke-width="3.2"/>
<circle clip-path="url(#clip552)" cx="1256.09" cy="763.256" r="21.6" fill="#00f5ff" fill-rule="evenodd" fill-opacity="0.6" stroke="#000000" stroke-opacity="0.6" stroke-width="3.2"/>
<circle clip-path="url(#clip552)" cx="1517.59" cy="645.287" r="21.6" fill="#00f5ff" fill-rule="evenodd" fill-opacity="0.6" stroke="#000000" stroke-opacity="0.6" stroke-width="3.2"/>
<circle clip-path="url(#clip552)" cx="1779.08" cy="536.83" r="21.6" fill="#00f5ff" fill-rule="evenodd" fill-opacity="0.6" stroke="#000000" stroke-opacity="0.6" stroke-width="3.2"/>
<circle clip-path="url(#clip552)" cx="2040.58" cy="422.056" r="21.6" fill="#00f5ff" fill-rule="evenodd" fill-opacity="0.6" stroke="#000000" stroke-opacity="0.6" stroke-width="3.2"/>
<circle clip-path="url(#clip552)" cx="2302.07" cy="306.928" r="21.6" fill="#00f5ff" fill-rule="evenodd" fill-opacity="0.6" stroke="#000000" stroke-opacity="0.6" stroke-width="3.2"/>
<polyline clip-path="url(#clip552)" style="stroke:#66cdaa; stroke-linecap:round; stroke-linejoin:round; stroke-width:24; stroke-opacity:0.8; fill:none" points="
  210.105,1240.34 471.601,1126.09 733.097,1014.88 994.593,897.44 1256.09,787.867 1517.59,661.798 1779.08,557.187 2040.58,434.366 2302.07,325.41 
  "/>
<path clip-path="url(#clip552)" d="M210.105 1264.34 L206.433 1249.22 L193.137 1257.31 L201.225 1244.02 L186.105 1240.34 L201.225 1236.67 L193.137 1223.38 L206.433 1231.46 L210.105 1216.34 L213.777 1231.46 L227.073 1223.38 L218.985 1236.67 L234.105 1240.34 L218.985 1244.02 L227.073 1257.31 L213.777 1249.22 L210.105 1264.34 Z" fill="#66cdaa" fill-rule="evenodd" fill-opacity="0.6" stroke="#000000" stroke-opacity="0.6" stroke-width="3.2"/>
<path clip-path="url(#clip552)" d="M471.601 1150.09 L467.929 1134.97 L454.633 1143.06 L462.721 1129.76 L447.601 1126.09 L462.721 1122.42 L454.633 1109.12 L467.929 1117.21 L471.601 1102.09 L475.273 1117.21 L488.569 1109.12 L480.481 1122.42 L495.601 1126.09 L480.481 1129.76 L488.569 1143.06 L475.273 1134.97 L471.601 1150.09 Z" fill="#66cdaa" fill-rule="evenodd" fill-opacity="0.6" stroke="#000000" stroke-opacity="0.6" stroke-width="3.2"/>
<path clip-path="url(#clip552)" d="M733.097 1038.88 L729.425 1023.76 L716.129 1031.84 L724.217 1018.55 L709.097 1014.88 L724.217 1011.2 L716.129 997.909 L729.425 1006 L733.097 990.877 L736.769 1006 L750.065 997.909 L741.977 1011.2 L757.097 1014.88 L741.977 1018.55 L750.065 1031.84 L736.769 1023.76 L733.097 1038.88 Z" fill="#66cdaa" fill-rule="evenodd" fill-opacity="0.6" stroke="#000000" stroke-opacity="0.6" stroke-width="3.2"/>
<path clip-path="url(#clip552)" d="M994.593 921.44 L990.921 906.32 L977.625 914.408 L985.713 901.112 L970.593 897.44 L985.713 893.768 L977.625 880.472 L990.921 888.56 L994.593 873.44 L998.265 888.56 L1011.56 880.472 L1003.47 893.768 L1018.59 897.44 L1003.47 901.112 L1011.56 914.408 L998.265 906.32 L994.593 921.44 Z" fill="#66cdaa" fill-rule="evenodd" fill-opacity="0.6" stroke="#000000" stroke-opacity="0.6" stroke-width="3.2"/>
<path clip-path="url(#clip552)" d="M1256.09 811.867 L1252.42 796.747 L1239.12 804.835 L1247.21 791.539 L1232.09 787.867 L1247.21 784.195 L1239.12 770.899 L1252.42 778.987 L1256.09 763.867 L1259.76 778.987 L1273.06 770.899 L1264.97 784.195 L1280.09 787.867 L1264.97 791.539 L1273.06 804.835 L1259.76 796.747 L1256.09 811.867 Z" fill="#66cdaa" fill-rule="evenodd" fill-opacity="0.6" stroke="#000000" stroke-opacity="0.6" stroke-width="3.2"/>
<path clip-path="url(#clip552)" d="M1517.59 685.798 L1513.91 670.678 L1500.62 678.766 L1508.71 665.47 L1493.59 661.798 L1508.71 658.126 L1500.62 644.83 L1513.91 652.918 L1517.59 637.798 L1521.26 652.918 L1534.55 644.83 L1526.47 658.126 L1541.59 661.798 L1526.47 665.47 L1534.55 678.766 L1521.26 670.678 L1517.59 685.798 Z" fill="#66cdaa" fill-rule="evenodd" fill-opacity="0.6" stroke="#000000" stroke-opacity="0.6" stroke-width="3.2"/>
<path clip-path="url(#clip552)" d="M1779.08 581.187 L1775.41 566.067 L1762.11 574.155 L1770.2 560.859 L1755.08 557.187 L1770.2 553.515 L1762.11 540.219 L1775.41 548.307 L1779.08 533.187 L1782.75 548.307 L1796.05 540.219 L1787.96 553.515 L1803.08 557.187 L1787.96 560.859 L1796.05 574.155 L1782.75 566.067 L1779.08 581.187 Z" fill="#66cdaa" fill-rule="evenodd" fill-opacity="0.6" stroke="#000000" stroke-opacity="0.6" stroke-width="3.2"/>
<path clip-path="url(#clip552)" d="M2040.58 458.366 L2036.9 443.246 L2023.61 451.334 L2031.7 438.038 L2016.58 434.366 L2031.7 430.694 L2023.61 417.398 L2036.9 425.486 L2040.58 410.366 L2044.25 425.486 L2057.54 417.398 L2049.46 430.694 L2064.58 434.366 L2049.46 438.038 L2057.54 451.334 L2044.25 443.246 L2040.58 458.366 Z" fill="#66cdaa" fill-rule="evenodd" fill-opacity="0.6" stroke="#000000" stroke-opacity="0.6" stroke-width="3.2"/>
<path clip-path="url(#clip552)" d="M2302.07 349.41 L2298.4 334.29 L2285.1 342.378 L2293.19 329.082 L2278.07 325.41 L2293.19 321.738 L2285.1 308.442 L2298.4 316.53 L2302.07 301.41 L2305.74 316.53 L2319.04 308.442 L2310.95 321.738 L2326.07 325.41 L2310.95 329.082 L2319.04 342.378 L2305.74 334.29 L2302.07 349.41 Z" fill="#66cdaa" fill-rule="evenodd" fill-opacity="0.6" stroke="#000000" stroke-opacity="0.6" stroke-width="3.2"/>
<polyline clip-path="url(#clip552)" style="stroke:#ffa500; stroke-linecap:round; stroke-linejoin:round; stroke-width:24; stroke-opacity:0.8; fill:none" stroke-dasharray="96, 60" points="
  210.105,1014.99 471.601,938.733 733.097,840.747 994.593,730.345 1256.09,617.518 1517.59,503.307 1779.08,388.45 
  "/>
<path clip-path="url(#clip552)" d="M210.105 990.986 L186.105 1014.99 L210.105 1038.99 L234.105 1014.99 L210.105 990.986 Z" fill="#ffa500" fill-rule="evenodd" fill-opacity="0.6" stroke="#000000" stroke-opacity="0.6" stroke-width="3.2"/>
<path clip-path="url(#clip552)" d="M471.601 914.733 L447.601 938.733 L471.601 962.733 L495.601 938.733 L471.601 914.733 Z" fill="#ffa500" fill-rule="evenodd" fill-opacity="0.6" stroke="#000000" stroke-opacity="0.6" stroke-width="3.2"/>
<path clip-path="url(#clip552)" d="M733.097 816.747 L709.097 840.747 L733.097 864.747 L757.097 840.747 L733.097 816.747 Z" fill="#ffa500" fill-rule="evenodd" fill-opacity="0.6" stroke="#000000" stroke-opacity="0.6" stroke-width="3.2"/>
<path clip-path="url(#clip552)" d="M994.593 706.345 L970.593 730.345 L994.593 754.345 L1018.59 730.345 L994.593 706.345 Z" fill="#ffa500" fill-rule="evenodd" fill-opacity="0.6" stroke="#000000" stroke-opacity="0.6" stroke-width="3.2"/>
<path clip-path="url(#clip552)" d="M1256.09 593.518 L1232.09 617.518 L1256.09 641.518 L1280.09 617.518 L1256.09 593.518 Z" fill="#ffa500" fill-rule="evenodd" fill-opacity="0.6" stroke="#000000" stroke-opacity="0.6" stroke-width="3.2"/>
<path clip-path="url(#clip552)" d="M1517.59 479.307 L1493.59 503.307 L1517.59 527.307 L1541.59 503.307 L1517.59 479.307 Z" fill="#ffa500" fill-rule="evenodd" fill-opacity="0.6" stroke="#000000" stroke-opacity="0.6" stroke-width="3.2"/>
<path clip-path="url(#clip552)" d="M1779.08 364.45 L1755.08 388.45 L1779.08 412.45 L1803.08 388.45 L1779.08 364.45 Z" fill="#ffa500" fill-rule="evenodd" fill-opacity="0.6" stroke="#000000" stroke-opacity="0.6" stroke-width="3.2"/>
<polyline clip-path="url(#clip552)" style="stroke:#f08080; stroke-linecap:round; stroke-linejoin:round; stroke-width:24; stroke-opacity:0.8; fill:none" points="
  210.105,1037.19 471.601,941.793 733.097,839.488 994.593,727.023 1256.09,610.874 1517.59,497.036 1779.08,380.656 
  "/>
<path clip-path="url(#clip552)" d="M210.105 1061.19 L193.137 1054.16 L186.105 1037.19 L193.137 1020.22 L210.105 1013.19 L227.073 1020.22 L234.105 1037.19 L227.073 1054.16 Z" fill="#f08080" fill-rule="evenodd" fill-opacity="0.6" stroke="#000000" stroke-opacity="0.6" stroke-width="3.2"/>
<path clip-path="url(#clip552)" d="M471.601 965.793 L454.633 958.761 L447.601 941.793 L454.633 924.825 L471.601 917.793 L488.569 924.825 L495.601 941.793 L488.569 958.761 Z" fill="#f08080" fill-rule="evenodd" fill-opacity="0.6" stroke="#000000" stroke-opacity="0.6" stroke-width="3.2"/>
<path clip-path="url(#clip552)" d="M733.097 863.488 L716.129 856.456 L709.097 839.488 L716.129 822.52 L733.097 815.488 L750.065 822.52 L757.097 839.488 L750.065 856.456 Z" fill="#f08080" fill-rule="evenodd" fill-opacity="0.6" stroke="#000000" stroke-opacity="0.6" stroke-width="3.2"/>
<path clip-path="url(#clip552)" d="M994.593 751.023 L977.625 743.991 L970.593 727.023 L977.625 710.055 L994.593 703.023 L1011.56 710.055 L1018.59 727.023 L1011.56 743.991 Z" fill="#f08080" fill-rule="evenodd" fill-opacity="0.6" stroke="#000000" stroke-opacity="0.6" stroke-width="3.2"/>
<path clip-path="url(#clip552)" d="M1256.09 634.874 L1239.12 627.842 L1232.09 610.874 L1239.12 593.906 L1256.09 586.874 L1273.06 593.906 L1280.09 610.874 L1273.06 627.842 Z" fill="#f08080" fill-rule="evenodd" fill-opacity="0.6" stroke="#000000" stroke-opacity="0.6" stroke-width="3.2"/>
<path clip-path="url(#clip552)" d="M1517.59 521.036 L1500.62 514.004 L1493.59 497.036 L1500.62 480.068 L1517.59 473.036 L1534.55 480.068 L1541.59 497.036 L1534.55 514.004 Z" fill="#f08080" fill-rule="evenodd" fill-opacity="0.6" stroke="#000000" stroke-opacity="0.6" stroke-width="3.2"/>
<path clip-path="url(#clip552)" d="M1779.08 404.656 L1762.11 397.624 L1755.08 380.656 L1762.11 363.688 L1779.08 356.656 L1796.05 363.688 L1803.08 380.656 L1796.05 397.624 Z" fill="#f08080" fill-rule="evenodd" fill-opacity="0.6" stroke="#000000" stroke-opacity="0.6" stroke-width="3.2"/>
<polyline clip-path="url(#clip552)" style="stroke:#ff3030; stroke-linecap:round; stroke-linejoin:round; stroke-width:24; stroke-opacity:0.8; fill:none" points="
  210.105,869.988 471.601,827.372 733.097,754.115 994.593,656.323 1256.09,546.276 1517.59,431.984 1779.08,316.583 
  "/>
<path clip-path="url(#clip552)" d="M210.105 845.988 L187.281 862.572 L195.993 889.404 L224.217 889.404 L232.929 862.572 Z" fill="#ff3030" fill-rule="evenodd" fill-opacity="0.6" stroke="#000000" stroke-opacity="0.6" stroke-width="3.2"/>
<path clip-path="url(#clip552)" d="M471.601 803.372 L448.777 819.956 L457.489 846.788 L485.713 846.788 L494.425 819.956 Z" fill="#ff3030" fill-rule="evenodd" fill-opacity="0.6" stroke="#000000" stroke-opacity="0.6" stroke-width="3.2"/>
<path clip-path="url(#clip552)" d="M733.097 730.115 L710.273 746.699 L718.985 773.531 L747.209 773.531 L755.921 746.699 Z" fill="#ff3030" fill-rule="evenodd" fill-opacity="0.6" stroke="#000000" stroke-opacity="0.6" stroke-width="3.2"/>
<path clip-path="url(#clip552)" d="M994.593 632.323 L971.769 648.907 L980.481 675.739 L1008.71 675.739 L1017.42 648.907 Z" fill="#ff3030" fill-rule="evenodd" fill-opacity="0.6" stroke="#000000" stroke-opacity="0.6" stroke-width="3.2"/>
<path clip-path="url(#clip552)" d="M1256.09 522.276 L1233.27 538.86 L1241.98 565.692 L1270.2 565.692 L1278.91 538.86 Z" fill="#ff3030" fill-rule="evenodd" fill-opacity="0.6" stroke="#000000" stroke-opacity="0.6" stroke-width="3.2"/>
<path clip-path="url(#clip552)" d="M1517.59 407.984 L1494.76 424.568 L1503.47 451.4 L1531.7 451.4 L1540.41 424.568 Z" fill="#ff3030" fill-rule="evenodd" fill-opacity="0.6" stroke="#000000" stroke-opacity="0.6" stroke-width="3.2"/>
<path clip-path="url(#clip552)" d="M1779.08 292.583 L1756.26 309.167 L1764.97 335.999 L1793.19 335.999 L1801.9 309.167 Z" fill="#ff3030" fill-rule="evenodd" fill-opacity="0.6" stroke="#000000" stroke-opacity="0.6" stroke-width="3.2"/>
<polyline clip-path="url(#clip552)" style="stroke:#8b1a1a; stroke-linecap:round; stroke-linejoin:round; stroke-width:24; stroke-opacity:0.8; fill:none" points="
  210.105,1010.89 471.601,898.449 733.097,786.04 994.593,653.356 1256.09,556.681 1517.59,440.019 1779.08,317.544 
  "/>
<path clip-path="url(#clip552)" d="M210.105 986.892 L186.105 1034.89 L234.105 1034.89 L210.105 986.892 Z" fill="#8b1a1a" fill-rule="evenodd" fill-opacity="0.6" stroke="#000000" stroke-opacity="0.6" stroke-width="3.2"/>
<path clip-path="url(#clip552)" d="M471.601 874.449 L447.601 922.449 L495.601 922.449 L471.601 874.449 Z" fill="#8b1a1a" fill-rule="evenodd" fill-opacity="0.6" stroke="#000000" stroke-opacity="0.6" stroke-width="3.2"/>
<path clip-path="url(#clip552)" d="M733.097 762.04 L709.097 810.04 L757.097 810.04 L733.097 762.04 Z" fill="#8b1a1a" fill-rule="evenodd" fill-opacity="0.6" stroke="#000000" stroke-opacity="0.6" stroke-width="3.2"/>
<path clip-path="url(#clip552)" d="M994.593 629.356 L970.593 677.356 L1018.59 677.356 L994.593 629.356 Z" fill="#8b1a1a" fill-rule="evenodd" fill-opacity="0.6" stroke="#000000" stroke-opacity="0.6" stroke-width="3.2"/>
<path clip-path="url(#clip552)" d="M1256.09 532.681 L1232.09 580.681 L1280.09 580.681 L1256.09 532.681 Z" fill="#8b1a1a" fill-rule="evenodd" fill-opacity="0.6" stroke="#000000" stroke-opacity="0.6" stroke-width="3.2"/>
<path clip-path="url(#clip552)" d="M1517.59 416.019 L1493.59 464.019 L1541.59 464.019 L1517.59 416.019 Z" fill="#8b1a1a" fill-rule="evenodd" fill-opacity="0.6" stroke="#000000" stroke-opacity="0.6" stroke-width="3.2"/>
<path clip-path="url(#clip552)" d="M1779.08 293.544 L1755.08 341.544 L1803.08 341.544 L1779.08 293.544 Z" fill="#8b1a1a" fill-rule="evenodd" fill-opacity="0.6" stroke="#000000" stroke-opacity="0.6" stroke-width="3.2"/>
</svg>
