<?xml version="1.0" encoding="utf-8"?>
<svg xmlns="http://www.w3.org/2000/svg" xmlns:xlink="http://www.w3.org/1999/xlink" width="600" height="400" viewBox="0 0 2400 1600">
<defs>
  <clipPath id="clip280">
    <rect x="0" y="0" width="2400" height="1600"/>
  </clipPath>
</defs>
<path clip-path="url(#clip280)" d="
M0 1600 L2400 1600 L2400 0 L0 0  Z
  " fill="#ffffff" fill-rule="evenodd" fill-opacity="1"/>
<defs>
  <clipPath id="clip281">
    <rect x="480" y="0" width="1681" height="1600"/>
  </clipPath>
</defs>
<path clip-path="url(#clip280)" d="
M159.422 1474.16 L2352.76 1474.16 L2352.76 47.2441 L159.422 47.2441  Z
  " fill="#ffffff" fill-rule="evenodd" fill-opacity="1"/>
<defs>
  <clipPath id="clip282">
    <rect x="159" y="47" width="2194" height="1428"/>
  </clipPath>
</defs>
<polyline clip-path="url(#clip282)" style="stroke:#000000; stroke-linecap:round; stroke-linejoin:round; stroke-width:10; stroke-opacity:0.3; fill:none" points="
  256.311,1474.16 256.311,47.2441 
  "/>
<polyline clip-path="url(#clip282)" style="stroke:#000000; stroke-linecap:round; stroke-linejoin:round; stroke-width:10; stroke-opacity:0.3; fill:none" points="
  1256.09,1474.16 1256.09,47.2441 
  "/>
<polyline clip-path="url(#clip282)" style="stroke:#000000; stroke-linecap:round; stroke-linejoin:round; stroke-width:10; stroke-opacity:0.3; fill:none" points="
  2255.87,1474.16 2255.87,47.2441 
  "/>
<polyline clip-path="url(#clip280)" style="stroke:#000000; stroke-linecap:round; stroke-linejoin:round; stroke-width:4; stroke-opacity:1; fill:none" points="
  159.422,1474.16 2352.76,1474.16 
  "/>
<polyline clip-path="url(#clip280)" style="stroke:#000000; stroke-linecap:round; stroke-linejoin:round; stroke-width:4; stroke-opacity:1; fill:none" points="
  159.422,47.2441 2352.76,47.2441 
  "/>
<polyline clip-path="url(#clip280)" style="stroke:#000000; stroke-linecap:round; stroke-linejoin:round; stroke-width:4; stroke-opacity:1; fill:none" points="
  256.311,1474.16 256.311,1455.27 
  "/>
<polyline clip-path="url(#clip280)" style="stroke:#000000; stroke-linecap:round; stroke-linejoin:round; stroke-width:4; stroke-opacity:1; fill:none" points="
  1256.09,1474.16 1256.09,1455.27 
  "/>
<polyline clip-path="url(#clip280)" style="stroke:#000000; stroke-linecap:round; stroke-linejoin:round; stroke-width:4; stroke-opacity:1; fill:none" points="
  2255.87,1474.16 2255.87,1455.27 
  "/>
<path clip-path="url(#clip280)" d="M222.638 1548.29 L230.277 1548.29 L230.277 1521.92 L221.967 1523.59 L221.967 1519.33 L230.231 1517.66 L234.907 1517.66 L234.907 1548.29 L242.546 1548.29 L242.546 1552.22 L222.638 1552.22 L222.638 1548.29 Z" fill="#000000" fill-rule="evenodd" fill-opacity="1" /><path clip-path="url(#clip280)" d="M261.99 1520.74 Q258.379 1520.74 256.55 1524.31 Q254.745 1527.85 254.745 1534.98 Q254.745 1542.09 256.55 1545.65 Q258.379 1549.19 261.99 1549.19 Q265.624 1549.19 267.43 1545.65 Q269.259 1542.09 269.259 1534.98 Q269.259 1527.85 267.43 1524.31 Q265.624 1520.74 261.99 1520.74 M261.99 1517.04 Q267.8 1517.04 270.856 1521.65 Q273.934 1526.23 273.934 1534.98 Q273.934 1543.71 270.856 1548.31 Q267.8 1552.9 261.99 1552.9 Q256.18 1552.9 253.101 1548.31 Q250.046 1543.71 250.046 1534.98 Q250.046 1526.23 253.101 1521.65 Q256.18 1517.04 261.99 1517.04 Z" fill="#000000" fill-rule="evenodd" fill-opacity="1" /><path clip-path="url(#clip280)" d="M274.48 1521.62 L280.686 1521.62 L280.686 1500.19 L273.934 1501.55 L273.934 1498.09 L280.649 1496.73 L284.448 1496.73 L284.448 1521.62 L290.655 1521.62 L290.655 1524.81 L274.48 1524.81 L274.48 1521.62 Z" fill="#000000" fill-rule="evenodd" fill-opacity="1" /><path clip-path="url(#clip280)" d="M1221.86 1548.29 L1229.5 1548.29 L1229.5 1521.92 L1221.19 1523.59 L1221.19 1519.33 L1229.45 1517.66 L1234.13 1517.66 L1234.13 1548.29 L1241.77 1548.29 L1241.77 1552.22 L1221.86 1552.22 L1221.86 1548.29 Z" fill="#000000" fill-rule="evenodd" fill-opacity="1" /><path clip-path="url(#clip280)" d="M1261.21 1520.74 Q1257.6 1520.74 1255.77 1524.31 Q1253.97 1527.85 1253.97 1534.98 Q1253.97 1542.09 1255.77 1545.65 Q1257.6 1549.19 1261.21 1549.19 Q1264.85 1549.19 1266.65 1545.65 Q1268.48 1542.09 1268.48 1534.98 Q1268.48 1527.85 1266.65 1524.31 Q1264.85 1520.74 1261.21 1520.74 M1261.21 1517.04 Q1267.02 1517.04 1270.08 1521.65 Q1273.16 1526.23 1273.16 1534.98 Q1273.16 1543.71 1270.08 1548.31 Q1267.02 1552.9 1261.21 1552.9 Q1255.4 1552.9 1252.32 1548.31 Q1249.27 1543.71 1249.27 1534.98 Q1249.27 1526.23 1252.32 1521.65 Q1255.4 1517.04 1261.21 1517.04 Z" fill="#000000" fill-rule="evenodd" fill-opacity="1" /><path clip-path="url(#clip280)" d="M1277.73 1521.62 L1290.99 1521.62 L1290.99 1524.81 L1273.16 1524.81 L1273.16 1521.62 Q1275.32 1519.38 1279.04 1515.62 Q1282.79 1511.84 1283.75 1510.75 Q1285.57 1508.7 1286.29 1507.29 Q1287.02 1505.86 1287.02 1504.48 Q1287.02 1502.24 1285.44 1500.83 Q1283.88 1499.42 1281.36 1499.42 Q1279.57 1499.42 1277.58 1500.04 Q1275.6 1500.67 1273.35 1501.93 L1273.35 1498.09 Q1275.64 1497.17 1277.63 1496.7 Q1279.63 1496.23 1281.28 1496.23 Q1285.65 1496.23 1288.24 1498.41 Q1290.84 1500.59 1290.84 1504.24 Q1290.84 1505.97 1290.18 1507.53 Q1289.54 1509.07 1287.83 1511.18 Q1287.36 1511.72 1284.84 1514.34 Q1282.32 1516.93 1277.73 1521.62 Z" fill="#000000" fill-rule="evenodd" fill-opacity="1" /><path clip-path="url(#clip280)" d="M2221.31 1548.29 L2228.95 1548.29 L2228.95 1521.92 L2220.64 1523.59 L2220.64 1519.33 L2228.9 1517.66 L2233.58 1517.66 L2233.58 1548.29 L2241.22 1548.29 L2241.22 1552.22 L2221.31 1552.22 L2221.31 1548.29 Z" fill="#000000" fill-rule="evenodd" fill-opacity="1" /><path clip-path="url(#clip280)" d="M2260.66 1520.74 Q2257.05 1520.74 2255.22 1524.31 Q2253.42 1527.85 2253.42 1534.98 Q2253.42 1542.09 2255.22 1545.65 Q2257.05 1549.19 2260.66 1549.19 Q2264.3 1549.19 2266.1 1545.65 Q2267.93 1542.09 2267.93 1534.98 Q2267.93 1527.85 2266.1 1524.31 Q2264.3 1520.74 2260.66 1520.74 M2260.66 1517.04 Q2266.47 1517.04 2269.53 1521.65 Q2272.61 1526.23 2272.61 1534.98 Q2272.61 1543.71 2269.53 1548.31 Q2266.47 1552.9 2260.66 1552.9 Q2254.85 1552.9 2251.77 1548.31 Q2248.72 1543.71 2248.72 1534.98 Q2248.72 1526.23 2251.77 1521.65 Q2254.85 1517.04 2260.66 1517.04 Z" fill="#000000" fill-rule="evenodd" fill-opacity="1" /><path clip-path="url(#clip280)" d="M2285.3 1509.67 Q2288.03 1510.26 2289.55 1512.1 Q2291.1 1513.94 2291.1 1516.65 Q2291.1 1520.81 2288.24 1523.08 Q2285.38 1525.36 2280.11 1525.36 Q2278.34 1525.36 2276.46 1525 Q2274.6 1524.66 2272.61 1523.97 L2272.61 1520.3 Q2274.19 1521.22 2276.07 1521.69 Q2277.95 1522.16 2280 1522.16 Q2283.57 1522.16 2285.43 1520.75 Q2287.31 1519.34 2287.31 1516.65 Q2287.31 1514.17 2285.57 1512.78 Q2283.84 1511.37 2280.73 1511.37 L2277.46 1511.37 L2277.46 1508.24 L2280.88 1508.24 Q2283.68 1508.24 2285.17 1507.13 Q2286.66 1506.01 2286.66 1503.9 Q2286.66 1501.74 2285.11 1500.59 Q2283.59 1499.42 2280.73 1499.42 Q2279.17 1499.42 2277.38 1499.76 Q2275.6 1500.1 2273.45 1500.82 L2273.45 1497.43 Q2275.62 1496.83 2277.5 1496.53 Q2279.4 1496.23 2281.07 1496.23 Q2285.4 1496.23 2287.92 1498.2 Q2290.44 1500.16 2290.44 1503.51 Q2290.44 1505.84 2289.1 1507.45 Q2287.77 1509.05 2285.3 1509.67 Z" fill="#000000" fill-rule="evenodd" fill-opacity="1" /><polyline clip-path="url(#clip282)" style="stroke:#000000; stroke-linecap:round; stroke-linejoin:round; stroke-width:10; stroke-opacity:0.3; fill:none" points="
  159.422,1441.19 2352.76,1441.19 
  "/>
<polyline clip-path="url(#clip282)" style="stroke:#000000; stroke-linecap:round; stroke-linejoin:round; stroke-width:10; stroke-opacity:0.3; fill:none" points="
  159.422,1100.95 2352.76,1100.95 
  "/>
<polyline clip-path="url(#clip282)" style="stroke:#000000; stroke-linecap:round; stroke-linejoin:round; stroke-width:10; stroke-opacity:0.3; fill:none" points="
  159.422,760.704 2352.76,760.704 
  "/>
<polyline clip-path="url(#clip282)" style="stroke:#000000; stroke-linecap:round; stroke-linejoin:round; stroke-width:10; stroke-opacity:0.3; fill:none" points="
  159.422,420.461 2352.76,420.461 
  "/>
<polyline clip-path="url(#clip282)" style="stroke:#000000; stroke-linecap:round; stroke-linejoin:round; stroke-width:10; stroke-opacity:0.3; fill:none" points="
  159.422,80.2171 2352.76,80.2171 
  "/>
<polyline clip-path="url(#clip280)" style="stroke:#000000; stroke-linecap:round; stroke-linejoin:round; stroke-width:4; stroke-opacity:1; fill:none" points="
  159.422,1474.16 159.422,47.2441 
  "/>
<polyline clip-path="url(#clip280)" style="stroke:#000000; stroke-linecap:round; stroke-linejoin:round; stroke-width:4; stroke-opacity:1; fill:none" points="
  2352.76,1474.16 2352.76,47.2441 
  "/>
<polyline clip-path="url(#clip280)" style="stroke:#000000; stroke-linecap:round; stroke-linejoin:round; stroke-width:4; stroke-opacity:1; fill:none" points="
  159.422,1441.19 178.32,1441.19 
  "/>
<polyline clip-path="url(#clip280)" style="stroke:#000000; stroke-linecap:round; stroke-linejoin:round; stroke-width:4; stroke-opacity:1; fill:none" points="
  159.422,1100.95 178.32,1100.95 
  "/>
<polyline clip-path="url(#clip280)" style="stroke:#000000; stroke-linecap:round; stroke-linejoin:round; stroke-width:4; stroke-opacity:1; fill:none" points="
  159.422,760.704 178.32,760.704 
  "/>
<polyline clip-path="url(#clip280)" style="stroke:#000000; stroke-linecap:round; stroke-linejoin:round; stroke-width:4; stroke-opacity:1; fill:none" points="
  159.422,420.461 178.32,420.461 
  "/>
<polyline clip-path="url(#clip280)" style="stroke:#000000; stroke-linecap:round; stroke-linejoin:round; stroke-width:4; stroke-opacity:1; fill:none" points="
  159.422,80.2171 178.32,80.2171 
  "/>
<path clip-path="url(#clip280)" d="M54.2965 1460.98 L61.9354 1460.98 L61.9354 1434.62 L53.6252 1436.29 L53.6252 1432.03 L61.8891 1430.36 L66.565 1430.36 L66.565 1460.98 L74.2038 1460.98 L74.2038 1464.92 L54.2965 1464.92 L54.2965 1460.98 Z" fill="#000000" fill-rule="evenodd" fill-opacity="1" /><path clip-path="url(#clip280)" d="M93.6481 1433.44 Q90.0371 1433.44 88.2084 1437 Q86.4028 1440.54 86.4028 1447.67 Q86.4028 1454.78 88.2084 1458.35 Q90.0371 1461.89 93.6481 1461.89 Q97.2824 1461.89 99.0879 1458.35 Q100.917 1454.78 100.917 1447.67 Q100.917 1440.54 99.0879 1437 Q97.2824 1433.44 93.6481 1433.44 M93.6481 1429.73 Q99.4583 1429.73 102.514 1434.34 Q105.593 1438.92 105.593 1447.67 Q105.593 1456.4 102.514 1461.01 Q99.4583 1465.59 93.6481 1465.59 Q87.838 1465.59 84.7593 1461.01 Q81.7038 1456.4 81.7038 1447.67 Q81.7038 1438.92 84.7593 1434.34 Q87.838 1429.73 93.6481 1429.73 Z" fill="#000000" fill-rule="evenodd" fill-opacity="1" /><path clip-path="url(#clip280)" d="M110.163 1434.31 L123.422 1434.31 L123.422 1437.51 L105.593 1437.51 L105.593 1434.31 Q107.755 1432.07 111.479 1428.31 Q115.222 1424.53 116.181 1423.44 Q118.006 1421.39 118.72 1419.98 Q119.454 1418.55 119.454 1417.18 Q119.454 1414.94 117.874 1413.53 Q116.313 1412.12 113.793 1412.12 Q112.006 1412.12 110.012 1412.74 Q108.038 1413.36 105.781 1414.62 L105.781 1410.78 Q108.075 1409.86 110.069 1409.39 Q112.062 1408.92 113.717 1408.92 Q118.081 1408.92 120.676 1411.1 Q123.272 1413.28 123.272 1416.93 Q123.272 1418.66 122.614 1420.22 Q121.974 1421.77 120.263 1423.87 Q119.792 1424.42 117.272 1427.03 Q114.752 1429.63 110.163 1434.31 Z" fill="#000000" fill-rule="evenodd" fill-opacity="1" /><path clip-path="url(#clip280)" d="M53.6382 1120.74 L61.2771 1120.74 L61.2771 1094.37 L52.9669 1096.04 L52.9669 1091.78 L61.2308 1090.12 L65.9067 1090.12 L65.9067 1120.74 L73.5455 1120.74 L73.5455 1124.68 L53.6382 1124.68 L53.6382 1120.74 Z" fill="#000000" fill-rule="evenodd" fill-opacity="1" /><path clip-path="url(#clip280)" d="M92.9899 1093.19 Q89.3788 1093.19 87.5501 1096.76 Q85.7445 1100.3 85.7445 1107.43 Q85.7445 1114.54 87.5501 1118.1 Q89.3788 1121.64 92.9899 1121.64 Q96.6241 1121.64 98.4297 1118.1 Q100.258 1114.54 100.258 1107.43 Q100.258 1100.3 98.4297 1096.76 Q96.6241 1093.19 92.9899 1093.19 M92.9899 1089.49 Q98.8 1089.49 101.856 1094.1 Q104.934 1098.68 104.934 1107.43 Q104.934 1116.16 101.856 1120.76 Q98.8 1125.35 92.9899 1125.35 Q87.1797 1125.35 84.101 1120.76 Q81.0455 1116.16 81.0455 1107.43 Q81.0455 1098.68 84.101 1094.1 Q87.1797 1089.49 92.9899 1089.49 Z" fill="#000000" fill-rule="evenodd" fill-opacity="1" /><path clip-path="url(#clip280)" d="M117.63 1082.12 Q120.357 1082.71 121.88 1084.55 Q123.422 1086.39 123.422 1089.1 Q123.422 1093.26 120.564 1095.53 Q117.705 1097.81 112.439 1097.81 Q110.671 1097.81 108.79 1097.45 Q106.928 1097.11 104.934 1096.42 L104.934 1092.75 Q106.514 1093.67 108.395 1094.14 Q110.276 1094.61 112.326 1094.61 Q115.899 1094.61 117.761 1093.2 Q119.642 1091.79 119.642 1089.1 Q119.642 1086.62 117.893 1085.23 Q116.162 1083.82 113.059 1083.82 L109.787 1083.82 L109.787 1080.7 L113.21 1080.7 Q116.012 1080.7 117.498 1079.59 Q118.984 1078.46 118.984 1076.35 Q118.984 1074.19 117.441 1073.04 Q115.918 1071.87 113.059 1071.87 Q111.498 1071.87 109.711 1072.21 Q107.925 1072.55 105.781 1073.27 L105.781 1069.88 Q107.943 1069.28 109.824 1068.98 Q111.724 1068.68 113.398 1068.68 Q117.724 1068.68 120.244 1070.65 Q122.764 1072.61 122.764 1075.96 Q122.764 1078.29 121.429 1079.91 Q120.093 1081.5 117.63 1082.12 Z" fill="#000000" fill-rule="evenodd" fill-opacity="1" /><path clip-path="url(#clip280)" d="M51.6634 780.497 L59.3023 780.497 L59.3023 754.131 L50.9921 755.798 L50.9921 751.539 L59.256 749.872 L63.9319 749.872 L63.9319 780.497 L71.5707 780.497 L71.5707 784.432 L51.6634 784.432 L51.6634 780.497 Z" fill="#000000" fill-rule="evenodd" fill-opacity="1" /><path clip-path="url(#clip280)" d="M91.0151 752.951 Q87.404 752.951 85.5753 756.515 Q83.7697 760.057 83.7697 767.187 Q83.7697 774.293 85.5753 777.858 Q87.404 781.4 91.0151 781.4 Q94.6493 781.4 96.4548 777.858 Q98.2835 774.293 98.2835 767.187 Q98.2835 760.057 96.4548 756.515 Q94.6493 752.951 91.0151 752.951 M91.0151 749.247 Q96.8252 749.247 99.8808 753.853 Q102.959 758.437 102.959 767.187 Q102.959 775.914 99.8808 780.52 Q96.8252 785.103 91.0151 785.103 Q85.2049 785.103 82.1262 780.52 Q79.0707 775.914 79.0707 767.187 Q79.0707 758.437 82.1262 753.853 Q85.2049 749.247 91.0151 749.247 Z" fill="#000000" fill-rule="evenodd" fill-opacity="1" /><path clip-path="url(#clip280)" d="M115.636 732.252 L106.044 747.242 L115.636 747.242 L115.636 732.252 M114.639 728.942 L119.416 728.942 L119.416 747.242 L123.422 747.242 L123.422 750.401 L119.416 750.401 L119.416 757.022 L115.636 757.022 L115.636 750.401 L102.959 750.401 L102.959 746.734 L114.639 728.942 Z" fill="#000000" fill-rule="evenodd" fill-opacity="1" /><path clip-path="url(#clip280)" d="M53.958 440.253 L61.5968 440.253 L61.5968 413.888 L53.2867 415.554 L53.2867 411.295 L61.5505 409.628 L66.2264 409.628 L66.2264 440.253 L73.8653 440.253 L73.8653 444.188 L53.958 444.188 L53.958 440.253 Z" fill="#000000" fill-rule="evenodd" fill-opacity="1" /><path clip-path="url(#clip280)" d="M93.3096 412.707 Q89.6985 412.707 87.8698 416.272 Q86.0643 419.813 86.0643 426.943 Q86.0643 434.05 87.8698 437.614 Q89.6985 441.156 93.3096 441.156 Q96.9438 441.156 98.7494 437.614 Q100.578 434.05 100.578 426.943 Q100.578 419.813 98.7494 416.272 Q96.9438 412.707 93.3096 412.707 M93.3096 409.003 Q99.1198 409.003 102.175 413.61 Q105.254 418.193 105.254 426.943 Q105.254 435.67 102.175 440.276 Q99.1198 444.86 93.3096 444.86 Q87.4995 444.86 84.4208 440.276 Q81.3652 435.67 81.3652 426.943 Q81.3652 418.193 84.4208 413.61 Q87.4995 409.003 93.3096 409.003 Z" fill="#000000" fill-rule="evenodd" fill-opacity="1" /><path clip-path="url(#clip280)" d="M106.439 388.698 L121.353 388.698 L121.353 391.895 L109.918 391.895 L109.918 398.779 Q110.746 398.497 111.573 398.365 Q112.401 398.215 113.228 398.215 Q117.93 398.215 120.676 400.791 Q123.422 403.368 123.422 407.769 Q123.422 412.302 120.601 414.822 Q117.78 417.323 112.645 417.323 Q110.878 417.323 109.034 417.022 Q107.21 416.722 105.254 416.12 L105.254 412.302 Q106.947 413.223 108.752 413.675 Q110.558 414.126 112.57 414.126 Q115.824 414.126 117.724 412.415 Q119.623 410.703 119.623 407.769 Q119.623 404.835 117.724 403.124 Q115.824 401.412 112.57 401.412 Q111.047 401.412 109.523 401.751 Q108.019 402.089 106.439 402.804 L106.439 388.698 Z" fill="#000000" fill-rule="evenodd" fill-opacity="1" /><path clip-path="url(#clip280)" d="M52.7355 100.01 L60.3743 100.01 L60.3743 73.6439 L52.0642 75.3106 L52.0642 71.0514 L60.328 69.3847 L65.0039 69.3847 L65.0039 100.01 L72.6428 100.01 L72.6428 103.945 L52.7355 103.945 L52.7355 100.01 Z" fill="#000000" fill-rule="evenodd" fill-opacity="1" /><path clip-path="url(#clip280)" d="M92.0871 72.4634 Q88.476 72.4634 86.6473 76.0282 Q84.8418 79.5698 84.8418 86.6994 Q84.8418 93.8059 86.6473 97.3707 Q88.476 100.912 92.0871 100.912 Q95.7213 100.912 97.5269 97.3707 Q99.3556 93.8059 99.3556 86.6994 Q99.3556 79.5698 97.5269 76.0282 Q95.7213 72.4634 92.0871 72.4634 M92.0871 68.7597 Q97.8973 68.7597 100.953 73.3662 Q104.031 77.9495 104.031 86.6994 Q104.031 95.4262 100.953 100.033 Q97.8973 104.616 92.0871 104.616 Q86.2769 104.616 83.1983 100.033 Q80.1427 95.4262 80.1427 86.6994 Q80.1427 77.9495 83.1983 73.3662 Q86.2769 68.7597 92.0871 68.7597 Z" fill="#000000" fill-rule="evenodd" fill-opacity="1" /><path clip-path="url(#clip280)" d="M114.056 60.9803 Q111.498 60.9803 109.994 62.7294 Q108.508 64.4785 108.508 67.5254 Q108.508 70.5534 109.994 72.3214 Q111.498 74.0705 114.056 74.0705 Q116.614 74.0705 118.1 72.3214 Q119.604 70.5534 119.604 67.5254 Q119.604 64.4785 118.1 62.7294 Q116.614 60.9803 114.056 60.9803 M121.598 49.075 L121.598 52.5356 Q120.169 51.8585 118.702 51.5012 Q117.253 51.1438 115.824 51.1438 Q112.062 51.1438 110.069 53.6829 Q108.094 56.2219 107.812 61.3564 Q108.922 59.7202 110.595 58.855 Q112.269 57.971 114.282 57.971 Q118.513 57.971 120.958 60.5477 Q123.422 63.1056 123.422 67.5254 Q123.422 71.8512 120.864 74.4655 Q118.307 77.0797 114.056 77.0797 Q109.185 77.0797 106.608 73.3558 Q104.031 69.6131 104.031 62.5225 Q104.031 55.8646 107.191 51.9149 Q110.351 47.9465 115.673 47.9465 Q117.103 47.9465 118.551 48.2286 Q120.018 48.5107 121.598 49.075 Z" fill="#000000" fill-rule="evenodd" fill-opacity="1" /><polyline clip-path="url(#clip282)" style="stroke:#c1ffc1; stroke-linecap:round; stroke-linejoin:round; stroke-width:24; stroke-opacity:0.8; fill:none" points="
  256.311,510.927 589.57,391.352 922.83,276.865 1256.09,162.795 
  "/>
<path clip-path="url(#clip282)" d="M256.311 534.927 L249.519 517.719 L232.311 510.927 L249.519 504.135 L256.311 486.927 L263.103 504.135 L280.311 510.927 L263.103 517.719 L256.311 534.927 Z" fill="#c1ffc1" fill-rule="evenodd" fill-opacity="0.6" stroke="#000000" stroke-opacity="0.6" stroke-width="3.2"/>
<path clip-path="url(#clip282)" d="M589.57 415.352 L582.778 398.144 L565.57 391.352 L582.778 384.56 L589.57 367.352 L596.362 384.56 L613.57 391.352 L596.362 398.144 L589.57 415.352 Z" fill="#c1ffc1" fill-rule="evenodd" fill-opacity="0.6" stroke="#000000" stroke-opacity="0.6" stroke-width="3.2"/>
<path clip-path="url(#clip282)" d="M922.83 300.865 L916.038 283.657 L898.83 276.865 L916.038 270.073 L922.83 252.865 L929.622 270.073 L946.83 276.865 L929.622 283.657 L922.83 300.865 Z" fill="#c1ffc1" fill-rule="evenodd" fill-opacity="0.6" stroke="#000000" stroke-opacity="0.6" stroke-width="3.2"/>
<path clip-path="url(#clip282)" d="M1256.09 186.795 L1249.3 169.587 L1232.09 162.795 L1249.3 156.003 L1256.09 138.795 L1262.88 156.003 L1280.09 162.795 L1262.88 169.587 L1256.09 186.795 Z" fill="#c1ffc1" fill-rule="evenodd" fill-opacity="0.6" stroke="#000000" stroke-opacity="0.6" stroke-width="3.2"/>
<polyline clip-path="url(#clip282)" style="stroke:#00f5ff; stroke-linecap:round; stroke-linejoin:round; stroke-width:24; stroke-opacity:0.8; fill:none" points="
  256.311,1043.78 589.57,922.569 922.83,828.131 1256.09,731.706 1589.35,625.616 1922.61,518.315 2255.87,409.72 
  "/>
<circle clip-path="url(#clip282)" cx="256.311" cy="1043.78" r="21.6" fill="#00f5ff" fill-rule="evenodd" fill-opacity="0.6" stroke="#000000" stroke-opacity="0.6" stroke-width="3.2"/>
<circle clip-path="url(#clip282)" cx="589.57" cy="922.569" r="21.6" fill="#00f5ff" fill-rule="evenodd" fill-opacity="0.6" stroke="#000000" stroke-opacity="0.6" stroke-width="3.2"/>
<circle clip-path="url(#clip282)" cx="922.83" cy="828.131" r="21.6" fill="#00f5ff" fill-rule="evenodd" fill-opacity="0.6" stroke="#000000" stroke-opacity="0.6" stroke-width="3.2"/>
<circle clip-path="url(#clip282)" cx="1256.09" cy="731.706" r="21.6" fill="#00f5ff" fill-rule="evenodd" fill-opacity="0.6" stroke="#000000" stroke-opacity="0.6" stroke-width="3.2"/>
<circle clip-path="url(#clip282)" cx="1589.35" cy="625.616" r="21.6" fill="#00f5ff" fill-rule="evenodd" fill-opacity="0.6" stroke="#000000" stroke-opacity="0.6" stroke-width="3.2"/>
<circle clip-path="url(#clip282)" cx="1922.61" cy="518.315" r="21.6" fill="#00f5ff" fill-rule="evenodd" fill-opacity="0.6" stroke="#000000" stroke-opacity="0.6" stroke-width="3.2"/>
<circle clip-path="url(#clip282)" cx="2255.87" cy="409.72" r="21.6" fill="#00f5ff" fill-rule="evenodd" fill-opacity="0.6" stroke="#000000" stroke-opacity="0.6" stroke-width="3.2"/>
<polyline clip-path="url(#clip282)" style="stroke:#66cdaa; stroke-linecap:round; stroke-linejoin:round; stroke-width:24; stroke-opacity:0.8; fill:none" points="
  256.311,1058.44 589.57,944.266 922.83,881.018 1256.09,804.458 1589.35,715.21 1922.61,613.186 2255.87,506.593 
  "/>
<path clip-path="url(#clip282)" d="M256.311 1082.44 L252.639 1067.32 L239.343 1075.41 L247.431 1062.11 L232.311 1058.44 L247.431 1054.77 L239.343 1041.47 L252.639 1049.56 L256.311 1034.44 L259.983 1049.56 L273.279 1041.47 L265.191 1054.77 L280.311 1058.44 L265.191 1062.11 L273.279 1075.41 L259.983 1067.32 L256.311 1082.44 Z" fill="#66cdaa" fill-rule="evenodd" fill-opacity="0.6" stroke="#000000" stroke-opacity="0.6" stroke-width="3.2"/>
<path clip-path="url(#clip282)" d="M589.57 968.266 L585.898 953.146 L572.602 961.234 L580.69 947.938 L565.57 944.266 L580.69 940.594 L572.602 927.298 L585.898 935.386 L589.57 920.266 L593.242 935.386 L606.538 927.298 L598.45 940.594 L613.57 944.266 L598.45 947.938 L606.538 961.234 L593.242 953.146 L589.57 968.266 Z" fill="#66cdaa" fill-rule="evenodd" fill-opacity="0.6" stroke="#000000" stroke-opacity="0.6" stroke-width="3.2"/>
<path clip-path="url(#clip282)" d="M922.83 905.018 L919.158 889.898 L905.862 897.986 L913.95 884.69 L898.83 881.018 L913.95 877.346 L905.862 864.05 L919.158 872.138 L922.83 857.018 L926.502 872.138 L939.798 864.05 L931.71 877.346 L946.83 881.018 L931.71 884.69 L939.798 897.986 L926.502 889.898 L922.83 905.018 Z" fill="#66cdaa" fill-rule="evenodd" fill-opacity="0.6" stroke="#000000" stroke-opacity="0.6" stroke-width="3.2"/>
<path clip-path="url(#clip282)" d="M1256.09 828.458 L1252.42 813.338 L1239.12 821.426 L1247.21 808.13 L1232.09 804.458 L1247.21 800.786 L1239.12 787.49 L1252.42 795.578 L1256.09 780.458 L1259.76 795.578 L1273.06 787.49 L1264.97 800.786 L1280.09 804.458 L1264.97 808.13 L1273.06 821.426 L1259.76 813.338 L1256.09 828.458 Z" fill="#66cdaa" fill-rule="evenodd" fill-opacity="0.6" stroke="#000000" stroke-opacity="0.6" stroke-width="3.2"/>
<path clip-path="url(#clip282)" d="M1589.35 739.21 L1585.68 724.09 L1572.38 732.178 L1580.47 718.882 L1565.35 715.21 L1580.47 711.538 L1572.38 698.242 L1585.68 706.33 L1589.35 691.21 L1593.02 706.33 L1606.32 698.242 L1598.23 711.538 L1613.35 715.21 L1598.23 718.882 L1606.32 732.178 L1593.02 724.09 L1589.35 739.21 Z" fill="#66cdaa" fill-rule="evenodd" fill-opacity="0.6" stroke="#000000" stroke-opacity="0.6" stroke-width="3.2"/>
<path clip-path="url(#clip282)" d="M1922.61 637.186 L1918.94 622.066 L1905.64 630.154 L1913.73 616.858 L1898.61 613.186 L1913.73 609.514 L1905.64 596.218 L1918.94 604.306 L1922.61 589.186 L1926.28 604.306 L1939.58 596.218 L1931.49 609.514 L1946.61 613.186 L1931.49 616.858 L1939.58 630.154 L1926.28 622.066 L1922.61 637.186 Z" fill="#66cdaa" fill-rule="evenodd" fill-opacity="0.6" stroke="#000000" stroke-opacity="0.6" stroke-width="3.2"/>
<path clip-path="url(#clip282)" d="M2255.87 530.593 L2252.2 515.473 L2238.9 523.561 L2246.99 510.265 L2231.87 506.593 L2246.99 502.921 L2238.9 489.625 L2252.2 497.713 L2255.87 482.593 L2259.54 497.713 L2272.84 489.625 L2264.75 502.921 L2279.87 506.593 L2264.75 510.265 L2272.84 523.561 L2259.54 515.473 L2255.87 530.593 Z" fill="#66cdaa" fill-rule="evenodd" fill-opacity="0.6" stroke="#000000" stroke-opacity="0.6" stroke-width="3.2"/>
<polyline clip-path="url(#clip282)" style="stroke:#008080; stroke-linecap:round; stroke-linejoin:round; stroke-width:24; stroke-opacity:0.8; fill:none" points="
  256.311,1281.44 589.57,1165.85 922.83,1060.17 1256.09,949.836 1589.35,841.853 1922.61,728.826 2255.87,616.255 
  "/>
<path clip-path="url(#clip282)" d="M256.311 1257.44 L232.311 1281.44 L256.311 1305.44 L280.311 1281.44 L256.311 1257.44 Z" fill="#008080" fill-rule="evenodd" fill-opacity="0.6" stroke="#000000" stroke-opacity="0.6" stroke-width="3.2"/>
<path clip-path="url(#clip282)" d="M589.57 1141.85 L565.57 1165.85 L589.57 1189.85 L613.57 1165.85 L589.57 1141.85 Z" fill="#008080" fill-rule="evenodd" fill-opacity="0.6" stroke="#000000" stroke-opacity="0.6" stroke-width="3.2"/>
<path clip-path="url(#clip282)" d="M922.83 1036.17 L898.83 1060.17 L922.83 1084.17 L946.83 1060.17 L922.83 1036.17 Z" fill="#008080" fill-rule="evenodd" fill-opacity="0.6" stroke="#000000" stroke-opacity="0.6" stroke-width="3.2"/>
<path clip-path="url(#clip282)" d="M1256.09 925.836 L1232.09 949.836 L1256.09 973.836 L1280.09 949.836 L1256.09 925.836 Z" fill="#008080" fill-rule="evenodd" fill-opacity="0.6" stroke="#000000" stroke-opacity="0.6" stroke-width="3.2"/>
<path clip-path="url(#clip282)" d="M1589.35 817.853 L1565.35 841.853 L1589.35 865.853 L1613.35 841.853 L1589.35 817.853 Z" fill="#008080" fill-rule="evenodd" fill-opacity="0.6" stroke="#000000" stroke-opacity="0.6" stroke-width="3.2"/>
<path clip-path="url(#clip282)" d="M1922.61 704.826 L1898.61 728.826 L1922.61 752.826 L1946.61 728.826 L1922.61 704.826 Z" fill="#008080" fill-rule="evenodd" fill-opacity="0.6" stroke="#000000" stroke-opacity="0.6" stroke-width="3.2"/>
<path clip-path="url(#clip282)" d="M2255.87 592.255 L2231.87 616.255 L2255.87 640.255 L2279.87 616.255 L2255.87 592.255 Z" fill="#008080" fill-rule="evenodd" fill-opacity="0.6" stroke="#000000" stroke-opacity="0.6" stroke-width="3.2"/>
<polyline clip-path="url(#clip282)" style="stroke:#ffa500; stroke-linecap:round; stroke-linejoin:round; stroke-width:24; stroke-opacity:0.8; fill:none" stroke-dasharray="96, 60" points="
  256.311,733.362 589.57,655.723 922.83,587.4 1256.09,506.575 1589.35,409.979 1922.61,306.433 2255.87,197.222 
  "/>
<path clip-path="url(#clip282)" d="M256.311 709.362 L232.311 733.362 L256.311 757.362 L280.311 733.362 L256.311 709.362 Z" fill="#ffa500" fill-rule="evenodd" fill-opacity="0.6" stroke="#000000" stroke-opacity="0.6" stroke-width="3.2"/>
<path clip-path="url(#clip282)" d="M589.57 631.723 L565.57 655.723 L589.57 679.723 L613.57 655.723 L589.57 631.723 Z" fill="#ffa500" fill-rule="evenodd" fill-opacity="0.6" stroke="#000000" stroke-opacity="0.6" stroke-width="3.2"/>
<path clip-path="url(#clip282)" d="M922.83 563.4 L898.83 587.4 L922.83 611.4 L946.83 587.4 L922.83 563.4 Z" fill="#ffa500" fill-rule="evenodd" fill-opacity="0.6" stroke="#000000" stroke-opacity="0.6" stroke-width="3.2"/>
<path clip-path="url(#clip282)" d="M1256.09 482.575 L1232.09 506.575 L1256.09 530.575 L1280.09 506.575 L1256.09 482.575 Z" fill="#ffa500" fill-rule="evenodd" fill-opacity="0.6" stroke="#000000" stroke-opacity="0.6" stroke-width="3.2"/>
<path clip-path="url(#clip282)" d="M1589.35 385.979 L1565.35 409.979 L1589.35 433.979 L1613.35 409.979 L1589.35 385.979 Z" fill="#ffa500" fill-rule="evenodd" fill-opacity="0.6" stroke="#000000" stroke-opacity="0.6" stroke-width="3.2"/>
<path clip-path="url(#clip282)" d="M1922.61 282.433 L1898.61 306.433 L1922.61 330.433 L1946.61 306.433 L1922.61 282.433 Z" fill="#ffa500" fill-rule="evenodd" fill-opacity="0.6" stroke="#000000" stroke-opacity="0.6" stroke-width="3.2"/>
<path clip-path="url(#clip282)" d="M2255.87 173.222 L2231.87 197.222 L2255.87 221.222 L2279.87 197.222 L2255.87 173.222 Z" fill="#ffa500" fill-rule="evenodd" fill-opacity="0.6" stroke="#000000" stroke-opacity="0.6" stroke-width="3.2"/>
<polyline clip-path="url(#clip282)" style="stroke:#f08080; stroke-linecap:round; stroke-linejoin:round; stroke-width:24; stroke-opacity:0.8; fill:none" points="
  256.311,572.179 589.57,495.916 922.83,410.953 1256.09,314.149 
  "/>
<path clip-path="url(#clip282)" d="M256.311 596.179 L239.343 589.147 L232.311 572.179 L239.343 555.211 L256.311 548.179 L273.279 555.211 L280.311 572.179 L273.279 589.147 Z" fill="#f08080" fill-rule="evenodd" fill-opacity="0.6" stroke="#000000" stroke-opacity="0.6" stroke-width="3.2"/>
<path clip-path="url(#clip282)" d="M589.57 519.916 L572.602 512.884 L565.57 495.916 L572.602 478.948 L589.57 471.916 L606.538 478.948 L613.57 495.916 L606.538 512.884 Z" fill="#f08080" fill-rule="evenodd" fill-opacity="0.6" stroke="#000000" stroke-opacity="0.6" stroke-width="3.2"/>
<path clip-path="url(#clip282)" d="M922.83 434.953 L905.862 427.921 L898.83 410.953 L905.862 393.985 L922.83 386.953 L939.798 393.985 L946.83 410.953 L939.798 427.921 Z" fill="#f08080" fill-rule="evenodd" fill-opacity="0.6" stroke="#000000" stroke-opacity="0.6" stroke-width="3.2"/>
<path clip-path="url(#clip282)" d="M1256.09 338.149 L1239.12 331.117 L1232.09 314.149 L1239.12 297.181 L1256.09 290.149 L1273.06 297.181 L1280.09 314.149 L1273.06 331.117 Z" fill="#f08080" fill-rule="evenodd" fill-opacity="0.6" stroke="#000000" stroke-opacity="0.6" stroke-width="3.2"/>
<polyline clip-path="url(#clip282)" style="stroke:#ff3030; stroke-linecap:round; stroke-linejoin:round; stroke-width:24; stroke-opacity:0.8; fill:none" points="
  256.311,303.06 589.57,269.609 922.83,218.904 1256.09,147.314 
  "/>
<path clip-path="url(#clip282)" d="M256.311 279.06 L233.487 295.644 L242.199 322.476 L270.423 322.476 L279.135 295.644 Z" fill="#ff3030" fill-rule="evenodd" fill-opacity="0.6" stroke="#000000" stroke-opacity="0.6" stroke-width="3.2"/>
<path clip-path="url(#clip282)" d="M589.57 245.609 L566.746 262.193 L575.458 289.025 L603.682 289.025 L612.394 262.193 Z" fill="#ff3030" fill-rule="evenodd" fill-opacity="0.6" stroke="#000000" stroke-opacity="0.6" stroke-width="3.2"/>
<path clip-path="url(#clip282)" d="M922.83 194.904 L900.006 211.488 L908.718 238.32 L936.942 238.32 L945.654 211.488 Z" fill="#ff3030" fill-rule="evenodd" fill-opacity="0.6" stroke="#000000" stroke-opacity="0.6" stroke-width="3.2"/>
<path clip-path="url(#clip282)" d="M1256.09 123.314 L1233.27 139.898 L1241.98 166.73 L1270.2 166.73 L1278.91 139.898 Z" fill="#ff3030" fill-rule="evenodd" fill-opacity="0.6" stroke="#000000" stroke-opacity="0.6" stroke-width="3.2"/>
</svg>
