<?xml version="1.0" encoding="utf-8"?>
<svg xmlns="http://www.w3.org/2000/svg" xmlns:xlink="http://www.w3.org/1999/xlink" width="600" height="400" viewBox="0 0 2400 1600">
<defs>
  <clipPath id="clip190">
    <rect x="0" y="0" width="2400" height="1600"/>
  </clipPath>
</defs>
<path clip-path="url(#clip190)" d="
M0 1600 L2400 1600 L2400 0 L0 0  Z
  " fill="#ffffff" fill-rule="evenodd" fill-opacity="1"/>
<defs>
  <clipPath id="clip191">
    <rect x="480" y="0" width="1681" height="1600"/>
  </clipPath>
</defs>
<path clip-path="url(#clip190)" d="
M159.422 1474.16 L2352.76 1474.16 L2352.76 47.2441 L159.422 47.2441  Z
  " fill="#ffffff" fill-rule="evenodd" fill-opacity="1"/>
<defs>
  <clipPath id="clip192">
    <rect x="159" y="47" width="2194" height="1428"/>
  </clipPath>
</defs>
<polyline clip-path="url(#clip192)" style="stroke:#000000; stroke-linecap:round; stroke-linejoin:round; stroke-width:10; stroke-opacity:0.3; fill:none" points="
  256.311,1474.16 256.311,47.2441 
  "/>
<polyline clip-path="url(#clip192)" style="stroke:#000000; stroke-linecap:round; stroke-linejoin:round; stroke-width:10; stroke-opacity:0.3; fill:none" points="
  1256.09,1474.16 1256.09,47.2441 
  "/>
<polyline clip-path="url(#clip192)" style="stroke:#000000; stroke-linecap:round; stroke-linejoin:round; stroke-width:10; stroke-opacity:0.3; fill:none" points="
  2255.87,1474.16 2255.87,47.2441 
  "/>
<polyline clip-path="url(#clip190)" style="stroke:#000000; stroke-linecap:round; stroke-linejoin:round; stroke-width:4; stroke-opacity:1; fill:none" points="
  159.422,1474.16 2352.76,1474.16 
  "/>
<polyline clip-path="url(#clip190)" style="stroke:#000000; stroke-linecap:round; stroke-linejoin:round; stroke-width:4; stroke-opacity:1; fill:none" points="
  159.422,47.2441 2352.76,47.2441 
  "/>
<polyline clip-path="url(#clip190)" style="stroke:#000000; stroke-linecap:round; stroke-linejoin:round; stroke-width:4; stroke-opacity:1; fill:none" points="
  256.311,1474.16 256.311,1455.27 
  "/>
<polyline clip-path="url(#clip190)" style="stroke:#000000; stroke-linecap:round; stroke-linejoin:round; stroke-width:4; stroke-opacity:1; fill:none" points="
  1256.09,1474.16 1256.09,1455.27 
  "/>
<polyline clip-path="url(#clip190)" style="stroke:#000000; stroke-linecap:round; stroke-linejoin:round; stroke-width:4; stroke-opacity:1; fill:none" points="
  2255.87,1474.16 2255.87,1455.27 
  "/>
<path clip-path="url(#clip190)" d="M222.638 1548.29 L230.277 1548.29 L230.277 1521.92 L221.967 1523.59 L221.967 1519.33 L230.231 1517.66 L234.907 1517.66 L234.907 1548.29 L242.546 1548.29 L242.546 1552.22 L222.638 1552.22 L222.638 1548.29 Z" fill="#000000" fill-rule="evenodd" fill-opacity="1" /><path clip-path="url(#clip190)" d="M261.99 1520.74 Q258.379 1520.74 256.55 1524.31 Q254.745 1527.85 254.745 1534.98 Q254.745 1542.09 256.55 1545.65 Q258.379 1549.19 261.99 1549.19 Q265.624 1549.19 267.43 1545.65 Q269.259 1542.09 269.259 1534.98 Q269.259 1527.85 267.43 1524.31 Q265.624 1520.74 261.99 1520.74 M261.99 1517.04 Q267.8 1517.04 270.856 1521.65 Q273.934 1526.23 273.934 1534.98 Q273.934 1543.71 270.856 1548.31 Q267.8 1552.9 261.99 1552.9 Q256.18 1552.9 253.101 1548.31 Q250.046 1543.71 250.046 1534.98 Q250.046 1526.23 253.101 1521.65 Q256.18 1517.04 261.99 1517.04 Z" fill="#000000" fill-rule="evenodd" fill-opacity="1" /><path clip-path="url(#clip190)" d="M274.48 1521.62 L280.686 1521.62 L280.686 1500.19 L273.934 1501.55 L273.934 1498.09 L280.649 1496.73 L284.448 1496.73 L284.448 1521.62 L290.655 1521.62 L290.655 1524.81 L274.48 1524.81 L274.48 1521.62 Z" fill="#000000" fill-rule="evenodd" fill-opacity="1" /><path clip-path="url(#clip190)" d="M1221.86 1548.29 L1229.5 1548.29 L1229.5 1521.92 L1221.19 1523.59 L1221.19 1519.33 L1229.45 1517.66 L1234.13 1517.66 L1234.13 1548.29 L1241.77 1548.29 L1241.77 1552.22 L1221.86 1552.22 L1221.86 1548.29 Z" fill="#000000" fill-rule="evenodd" fill-opacity="1" /><path clip-path="url(#clip190)" d="M1261.21 1520.74 Q1257.6 1520.74 1255.77 1524.31 Q1253.97 1527.85 1253.97 1534.98 Q1253.97 1542.09 1255.77 1545.65 Q1257.6 1549.19 1261.21 1549.19 Q1264.85 1549.19 1266.65 1545.65 Q1268.48 1542.09 1268.48 1534.98 Q1268.48 1527.85 1266.65 1524.31 Q1264.85 1520.74 1261.21 1520.74 M1261.21 1517.04 Q1267.02 1517.04 1270.08 1521.65 Q1273.16 1526.23 1273.16 1534.98 Q1273.16 1543.71 1270.08 1548.31 Q1267.02 1552.9 1261.21 1552.9 Q1255.4 1552.9 1252.32 1548.31 Q1249.27 1543.71 1249.27 1534.98 Q1249.27 1526.23 1252.32 1521.65 Q1255.4 1517.04 1261.21 1517.04 Z" fill="#000000" fill-rule="evenodd" fill-opacity="1" /><path clip-path="url(#clip190)" d="M1277.73 1521.62 L1290.99 1521.62 L1290.99 1524.81 L1273.16 1524.81 L1273.16 1521.62 Q1275.32 1519.38 1279.04 1515.62 Q1282.79 1511.84 1283.75 1510.75 Q1285.57 1508.7 1286.29 1507.29 Q1287.02 1505.86 1287.02 1504.48 Q1287.02 1502.24 1285.44 1500.83 Q1283.88 1499.42 1281.36 1499.42 Q1279.57 1499.42 1277.58 1500.04 Q1275.6 1500.67 1273.35 1501.93 L1273.35 1498.09 Q1275.64 1497.17 1277.63 1496.7 Q1279.63 1496.23 1281.28 1496.23 Q1285.65 1496.23 1288.24 1498.41 Q1290.84 1500.59 1290.84 1504.24 Q1290.84 1505.97 1290.18 1507.53 Q1289.54 1509.07 1287.83 1511.18 Q1287.36 1511.72 1284.84 1514.34 Q1282.32 1516.93 1277.73 1521.62 Z" fill="#000000" fill-rule="evenodd" fill-opacity="1" /><path clip-path="url(#clip190)" d="M2221.31 1548.29 L2228.95 1548.29 L2228.95 1521.92 L2220.64 1523.59 L2220.64 1519.33 L2228.9 1517.66 L2233.58 1517.66 L2233.58 1548.29 L2241.22 1548.29 L2241.22 1552.22 L2221.31 1552.22 L2221.31 1548.29 Z" fill="#000000" fill-rule="evenodd" fill-opacity="1" /><path clip-path="url(#clip190)" d="M2260.66 1520.74 Q2257.05 1520.74 2255.22 1524.31 Q2253.42 1527.85 2253.42 1534.98 Q2253.42 1542.09 2255.22 1545.65 Q2257.05 1549.19 2260.66 1549.19 Q2264.3 1549.19 2266.1 1545.65 Q2267.93 1542.09 2267.93 1534.98 Q2267.93 1527.85 2266.1 1524.31 Q2264.3 1520.74 2260.66 1520.74 M2260.66 1517.04 Q2266.47 1517.04 2269.53 1521.65 Q2272.61 1526.23 2272.61 1534.98 Q2272.61 1543.71 2269.53 1548.31 Q2266.47 1552.9 2260.66 1552.9 Q2254.85 1552.9 2251.77 1548.31 Q2248.72 1543.71 2248.72 1534.98 Q2248.72 1526.23 2251.77 1521.65 Q2254.85 1517.04 2260.66 1517.04 Z" fill="#000000" fill-rule="evenodd" fill-opacity="1" /><path clip-path="url(#clip190)" d="M2285.3 1509.67 Q2288.03 1510.26 2289.55 1512.1 Q2291.1 1513.94 2291.1 1516.65 Q2291.1 1520.81 2288.24 1523.08 Q2285.38 1525.36 2280.11 1525.36 Q2278.34 1525.36 2276.46 1525 Q2274.6 1524.66 2272.61 1523.97 L2272.61 1520.3 Q2274.19 1521.22 2276.07 1521.69 Q2277.95 1522.16 2280 1522.16 Q2283.57 1522.16 2285.43 1520.75 Q2287.31 1519.34 2287.31 1516.65 Q2287.31 1514.17 2285.57 1512.78 Q2283.84 1511.37 2280.73 1511.37 L2277.46 1511.37 L2277.46 1508.24 L2280.88 1508.24 Q2283.68 1508.24 2285.17 1507.13 Q2286.66 1506.01 2286.66 1503.9 Q2286.66 1501.74 2285.11 1500.59 Q2283.59 1499.42 2280.73 1499.42 Q2279.17 1499.42 2277.38 1499.76 Q2275.6 1500.1 2273.45 1500.82 L2273.45 1497.43 Q2275.62 1496.83 2277.5 1496.53 Q2279.4 1496.23 2281.07 1496.23 Q2285.4 1496.23 2287.92 1498.2 Q2290.44 1500.16 2290.44 1503.51 Q2290.44 1505.84 2289.1 1507.45 Q2287.77 1509.05 2285.3 1509.67 Z" fill="#000000" fill-rule="evenodd" fill-opacity="1" /><polyline clip-path="url(#clip192)" style="stroke:#000000; stroke-linecap:round; stroke-linejoin:round; stroke-width:10; stroke-opacity:0.3; fill:none" points="
  159.422,1441.19 2352.76,1441.19 
  "/>
<polyline clip-path="url(#clip192)" style="stroke:#000000; stroke-linecap:round; stroke-linejoin:round; stroke-width:10; stroke-opacity:0.3; fill:none" points="
  159.422,1100.95 2352.76,1100.95 
  "/>
<polyline clip-path="url(#clip192)" style="stroke:#000000; stroke-linecap:round; stroke-linejoin:round; stroke-width:10; stroke-opacity:0.3; fill:none" points="
  159.422,760.704 2352.76,760.704 
  "/>
<polyline clip-path="url(#clip192)" style="stroke:#000000; stroke-linecap:round; stroke-linejoin:round; stroke-width:10; stroke-opacity:0.3; fill:none" points="
  159.422,420.461 2352.76,420.461 
  "/>
<polyline clip-path="url(#clip192)" style="stroke:#000000; stroke-linecap:round; stroke-linejoin:round; stroke-width:10; stroke-opacity:0.3; fill:none" points="
  159.422,80.2171 2352.76,80.2171 
  "/>
<polyline clip-path="url(#clip190)" style="stroke:#000000; stroke-linecap:round; stroke-linejoin:round; stroke-width:4; stroke-opacity:1; fill:none" points="
  159.422,1474.16 159.422,47.2441 
  "/>
<polyline clip-path="url(#clip190)" style="stroke:#000000; stroke-linecap:round; stroke-linejoin:round; stroke-width:4; stroke-opacity:1; fill:none" points="
  2352.76,1474.16 2352.76,47.2441 
  "/>
<polyline clip-path="url(#clip190)" style="stroke:#000000; stroke-linecap:round; stroke-linejoin:round; stroke-width:4; stroke-opacity:1; fill:none" points="
  159.422,1441.19 178.32,1441.19 
  "/>
<polyline clip-path="url(#clip190)" style="stroke:#000000; stroke-linecap:round; stroke-linejoin:round; stroke-width:4; stroke-opacity:1; fill:none" points="
  159.422,1100.95 178.32,1100.95 
  "/>
<polyline clip-path="url(#clip190)" style="stroke:#000000; stroke-linecap:round; stroke-linejoin:round; stroke-width:4; stroke-opacity:1; fill:none" points="
  159.422,760.704 178.32,760.704 
  "/>
<polyline clip-path="url(#clip190)" style="stroke:#000000; stroke-linecap:round; stroke-linejoin:round; stroke-width:4; stroke-opacity:1; fill:none" points="
  159.422,420.461 178.32,420.461 
  "/>
<polyline clip-path="url(#clip190)" style="stroke:#000000; stroke-linecap:round; stroke-linejoin:round; stroke-width:4; stroke-opacity:1; fill:none" points="
  159.422,80.2171 178.32,80.2171 
  "/>
<path clip-path="url(#clip190)" d="M54.2965 1460.98 L61.9354 1460.98 L61.9354 1434.62 L53.6252 1436.29 L53.6252 1432.03 L61.8891 1430.36 L66.565 1430.36 L66.565 1460.98 L74.2038 1460.98 L74.2038 1464.92 L54.2965 1464.92 L54.2965 1460.98 Z" fill="#000000" fill-rule="evenodd" fill-opacity="1" /><path clip-path="url(#clip190)" d="M93.6481 1433.44 Q90.0371 1433.44 88.2084 1437 Q86.4028 1440.54 86.4028 1447.67 Q86.4028 1454.78 88.2084 1458.35 Q90.0371 1461.89 93.6481 1461.89 Q97.2824 1461.89 99.0879 1458.35 Q100.917 1454.78 100.917 1447.67 Q100.917 1440.54 99.0879 1437 Q97.2824 1433.44 93.6481 1433.44 M93.6481 1429.73 Q99.4583 1429.73 102.514 1434.34 Q105.593 1438.92 105.593 1447.67 Q105.593 1456.4 102.514 1461.01 Q99.4583 1465.59 93.6481 1465.59 Q87.838 1465.59 84.7593 1461.01 Q81.7038 1456.4 81.7038 1447.67 Q81.7038 1438.92 84.7593 1434.34 Q87.838 1429.73 93.6481 1429.73 Z" fill="#000000" fill-rule="evenodd" fill-opacity="1" /><path clip-path="url(#clip190)" d="M110.163 1434.31 L123.422 1434.31 L123.422 1437.51 L105.593 1437.51 L105.593 1434.31 Q107.755 1432.07 111.479 1428.31 Q115.222 1424.53 116.181 1423.44 Q118.006 1421.39 118.72 1419.98 Q119.454 1418.55 119.454 1417.18 Q119.454 1414.94 117.874 1413.53 Q116.313 1412.12 113.793 1412.12 Q112.006 1412.12 110.012 1412.74 Q108.038 1413.36 105.781 1414.62 L105.781 1410.78 Q108.075 1409.86 110.069 1409.39 Q112.062 1408.92 113.717 1408.92 Q118.081 1408.92 120.676 1411.1 Q123.272 1413.28 123.272 1416.93 Q123.272 1418.66 122.614 1420.22 Q121.974 1421.77 120.263 1423.87 Q119.792 1424.42 117.272 1427.03 Q114.752 1429.63 110.163 1434.31 Z" fill="#000000" fill-rule="evenodd" fill-opacity="1" /><path clip-path="url(#clip190)" d="M53.6382 1120.74 L61.2771 1120.74 L61.2771 1094.37 L52.9669 1096.04 L52.9669 1091.78 L61.2308 1090.12 L65.9067 1090.12 L65.9067 1120.74 L73.5455 1120.74 L73.5455 1124.68 L53.6382 1124.68 L53.6382 1120.74 Z" fill="#000000" fill-rule="evenodd" fill-opacity="1" /><path clip-path="url(#clip190)" d="M92.9899 1093.19 Q89.3788 1093.19 87.5501 1096.76 Q85.7445 1100.3 85.7445 1107.43 Q85.7445 1114.54 87.5501 1118.1 Q89.3788 1121.64 92.9899 1121.64 Q96.6241 1121.64 98.4297 1118.1 Q100.258 1114.54 100.258 1107.43 Q100.258 1100.3 98.4297 1096.76 Q96.6241 1093.19 92.9899 1093.19 M92.9899 1089.49 Q98.8 1089.49 101.856 1094.1 Q104.934 1098.68 104.934 1107.43 Q104.934 1116.16 101.856 1120.76 Q98.8 1125.35 92.9899 1125.35 Q87.1797 1125.35 84.101 1120.76 Q81.0455 1116.16 81.0455 1107.43 Q81.0455 1098.68 84.101 1094.1 Q87.1797 1089.49 92.9899 1089.49 Z" fill="#000000" fill-rule="evenodd" fill-opacity="1" /><path clip-path="url(#clip190)" d="M117.63 1082.12 Q120.357 1082.71 121.88 1084.55 Q123.422 1086.39 123.422 1089.1 Q123.422 1093.26 120.564 1095.53 Q117.705 1097.81 112.439 1097.81 Q110.671 1097.81 108.79 1097.45 Q106.928 1097.11 104.934 1096.42 L104.934 1092.75 Q106.514 1093.67 108.395 1094.14 Q110.276 1094.61 112.326 1094.61 Q115.899 1094.61 117.761 1093.2 Q119.642 1091.79 119.642 1089.1 Q119.642 1086.62 117.893 1085.23 Q116.162 1083.82 113.059 1083.82 L109.787 1083.82 L109.787 1080.7 L113.21 1080.7 Q116.012 1080.7 117.498 1079.59 Q118.984 1078.46 118.984 1076.35 Q118.984 1074.19 117.441 1073.04 Q115.918 1071.87 113.059 1071.87 Q111.498 1071.87 109.711 1072.21 Q107.925 1072.55 105.781 1073.27 L105.781 1069.88 Q107.943 1069.28 109.824 1068.98 Q111.724 1068.68 113.398 1068.68 Q117.724 1068.68 120.244 1070.65 Q122.764 1072.61 122.764 1075.96 Q122.764 1078.29 121.429 1079.91 Q120.093 1081.5 117.63 1082.12 Z" fill="#000000" fill-rule="evenodd" fill-opacity="1" /><path clip-path="url(#clip190)" d="M51.6634 780.497 L59.3023 780.497 L59.3023 754.131 L50.9921 755.798 L50.9921 751.539 L59.256 749.872 L63.9319 749.872 L63.9319 780.497 L71.5707 780.497 L71.5707 784.432 L51.6634 784.432 L51.6634 780.497 Z" fill="#000000" fill-rule="evenodd" fill-opacity="1" /><path clip-path="url(#clip190)" d="M91.0151 752.951 Q87.404 752.951 85.5753 756.515 Q83.7697 760.057 83.7697 767.187 Q83.7697 774.293 85.5753 777.858 Q87.404 781.4 91.0151 781.4 Q94.6493 781.4 96.4548 777.858 Q98.2835 774.293 98.2835 767.187 Q98.2835 760.057 96.4548 756.515 Q94.6493 752.951 91.0151 752.951 M91.0151 749.247 Q96.8252 749.247 99.8808 753.853 Q102.959 758.437 102.959 767.187 Q102.959 775.914 99.8808 780.52 Q96.8252 785.103 91.0151 785.103 Q85.2049 785.103 82.1262 780.52 Q79.0707 775.914 79.0707 767.187 Q79.0707 758.437 82.1262 753.853 Q85.2049 749.247 91.0151 749.247 Z" fill="#000000" fill-rule="evenodd" fill-opacity="1" /><path clip-path="url(#clip190)" d="M115.636 732.252 L106.044 747.242 L115.636 747.242 L115.636 732.252 M114.639 728.942 L119.416 728.942 L119.416 747.242 L123.422 747.242 L123.422 750.401 L119.416 750.401 L119.416 757.022 L115.636 757.022 L115.636 750.401 L102.959 750.401 L102.959 746.734 L114.639 728.942 Z" fill="#000000" fill-rule="evenodd" fill-opacity="1" /><path clip-path="url(#clip190)" d="M53.958 440.253 L61.5968 440.253 L61.5968 413.888 L53.2867 415.554 L53.2867 411.295 L61.5505 409.628 L66.2264 409.628 L66.2264 440.253 L73.8653 440.253 L73.8653 444.188 L53.958 444.188 L53.958 440.253 Z" fill="#000000" fill-rule="evenodd" fill-opacity="1" /><path clip-path="url(#clip190)" d="M93.3096 412.707 Q89.6985 412.707 87.8698 416.272 Q86.0643 419.813 86.0643 426.943 Q86.0643 434.05 87.8698 437.614 Q89.6985 441.156 93.3096 441.156 Q96.9438 441.156 98.7494 437.614 Q100.578 434.05 100.578 426.943 Q100.578 419.813 98.7494 416.272 Q96.9438 412.707 93.3096 412.707 M93.3096 409.003 Q99.1198 409.003 102.175 413.61 Q105.254 418.193 105.254 426.943 Q105.254 435.67 102.175 440.276 Q99.1198 444.86 93.3096 444.86 Q87.4995 444.86 84.4208 440.276 Q81.3652 435.67 81.3652 426.943 Q81.3652 418.193 84.4208 413.61 Q87.4995 409.003 93.3096 409.003 Z" fill="#000000" fill-rule="evenodd" fill-opacity="1" /><path clip-path="url(#clip190)" d="M106.439 388.698 L121.353 388.698 L121.353 391.895 L109.918 391.895 L109.918 398.779 Q110.746 398.497 111.573 398.365 Q112.401 398.215 113.228 398.215 Q117.93 398.215 120.676 400.791 Q123.422 403.368 123.422 407.769 Q123.422 412.302 120.601 414.822 Q117.78 417.323 112.645 417.323 Q110.878 417.323 109.034 417.022 Q107.21 416.722 105.254 416.12 L105.254 412.302 Q106.947 413.223 108.752 413.675 Q110.558 414.126 112.57 414.126 Q115.824 414.126 117.724 412.415 Q119.623 410.703 119.623 407.769 Q119.623 404.835 117.724 403.124 Q115.824 401.412 112.57 401.412 Q111.047 401.412 109.523 401.751 Q108.019 402.089 106.439 402.804 L106.439 388.698 Z" fill="#000000" fill-rule="evenodd" fill-opacity="1" /><path clip-path="url(#clip190)" d="M52.7355 100.01 L60.3743 100.01 L60.3743 73.6439 L52.0642 75.3106 L52.0642 71.0514 L60.328 69.3847 L65.0039 69.3847 L65.0039 100.01 L72.6428 100.01 L72.6428 103.945 L52.7355 103.945 L52.7355 100.01 Z" fill="#000000" fill-rule="evenodd" fill-opacity="1" /><path clip-path="url(#clip190)" d="M92.0871 72.4634 Q88.476 72.4634 86.6473 76.0282 Q84.8418 79.5698 84.8418 86.6994 Q84.8418 93.8059 86.6473 97.3707 Q88.476 100.912 92.0871 100.912 Q95.7213 100.912 97.5269 97.3707 Q99.3556 93.8059 99.3556 86.6994 Q99.3556 79.5698 97.5269 76.0282 Q95.7213 72.4634 92.0871 72.4634 M92.0871 68.7597 Q97.8973 68.7597 100.953 73.3662 Q104.031 77.9495 104.031 86.6994 Q104.031 95.4262 100.953 100.033 Q97.8973 104.616 92.0871 104.616 Q86.2769 104.616 83.1983 100.033 Q80.1427 95.4262 80.1427 86.6994 Q80.1427 77.9495 83.1983 73.3662 Q86.2769 68.7597 92.0871 68.7597 Z" fill="#000000" fill-rule="evenodd" fill-opacity="1" /><path clip-path="url(#clip190)" d="M114.056 60.9803 Q111.498 60.9803 109.994 62.7294 Q108.508 64.4785 108.508 67.5254 Q108.508 70.5534 109.994 72.3214 Q111.498 74.0705 114.056 74.0705 Q116.614 74.0705 118.1 72.3214 Q119.604 70.5534 119.604 67.5254 Q119.604 64.4785 118.1 62.7294 Q116.614 60.9803 114.056 60.9803 M121.598 49.075 L121.598 52.5356 Q120.169 51.8585 118.702 51.5012 Q117.253 51.1438 115.824 51.1438 Q112.062 51.1438 110.069 53.6829 Q108.094 56.2219 107.812 61.3564 Q108.922 59.7202 110.595 58.855 Q112.269 57.971 114.282 57.971 Q118.513 57.971 120.958 60.5477 Q123.422 63.1056 123.422 67.5254 Q123.422 71.8512 120.864 74.4655 Q118.307 77.0797 114.056 77.0797 Q109.185 77.0797 106.608 73.3558 Q104.031 69.6131 104.031 62.5225 Q104.031 55.8646 107.191 51.9149 Q110.351 47.9465 115.673 47.9465 Q117.103 47.9465 118.551 48.2286 Q120.018 48.5107 121.598 49.075 Z" fill="#000000" fill-rule="evenodd" fill-opacity="1" /><polyline clip-path="url(#clip192)" style="stroke:#c1ffc1; stroke-linecap:round; stroke-linejoin:round; stroke-width:24; stroke-opacity:0.8; fill:none" points="
  256.311,513.269 589.57,380.487 922.83,269.974 1256.09,157.917 
  "/>
<path clip-path="url(#clip192)" d="M256.311 537.269 L249.519 520.061 L232.311 513.269 L249.519 506.477 L256.311 489.269 L263.103 506.477 L280.311 513.269 L263.103 520.061 L256.311 537.269 Z" fill="#c1ffc1" fill-rule="evenodd" fill-opacity="0.6" stroke="#000000" stroke-opacity="0.6" stroke-width="3.2"/>
<path clip-path="url(#clip192)" d="M589.57 404.487 L582.778 387.279 L565.57 380.487 L582.778 373.695 L589.57 356.487 L596.362 373.695 L613.57 380.487 L596.362 387.279 L589.57 404.487 Z" fill="#c1ffc1" fill-rule="evenodd" fill-opacity="0.6" stroke="#000000" stroke-opacity="0.6" stroke-width="3.2"/>
<path clip-path="url(#clip192)" d="M922.83 293.974 L916.038 276.766 L898.83 269.974 L916.038 263.182 L922.83 245.974 L929.622 263.182 L946.83 269.974 L929.622 276.766 L922.83 293.974 Z" fill="#c1ffc1" fill-rule="evenodd" fill-opacity="0.6" stroke="#000000" stroke-opacity="0.6" stroke-width="3.2"/>
<path clip-path="url(#clip192)" d="M1256.09 181.917 L1249.3 164.709 L1232.09 157.917 L1249.3 151.125 L1256.09 133.917 L1262.88 151.125 L1280.09 157.917 L1262.88 164.709 L1256.09 181.917 Z" fill="#c1ffc1" fill-rule="evenodd" fill-opacity="0.6" stroke="#000000" stroke-opacity="0.6" stroke-width="3.2"/>
<polyline clip-path="url(#clip192)" style="stroke:#00f5ff; stroke-linecap:round; stroke-linejoin:round; stroke-width:24; stroke-opacity:0.8; fill:none" points="
  256.311,1040.24 589.57,918.167 922.83,826.333 1256.09,730.814 1589.35,628.989 1922.61,518.076 2255.87,406.405 
  "/>
<circle clip-path="url(#clip192)" cx="256.311" cy="1040.24" r="21.6" fill="#00f5ff" fill-rule="evenodd" fill-opacity="0.6" stroke="#000000" stroke-opacity="0.6" stroke-width="3.2"/>
<circle clip-path="url(#clip192)" cx="589.57" cy="918.167" r="21.6" fill="#00f5ff" fill-rule="evenodd" fill-opacity="0.6" stroke="#000000" stroke-opacity="0.6" stroke-width="3.2"/>
<circle clip-path="url(#clip192)" cx="922.83" cy="826.333" r="21.6" fill="#00f5ff" fill-rule="evenodd" fill-opacity="0.6" stroke="#000000" stroke-opacity="0.6" stroke-width="3.2"/>
<circle clip-path="url(#clip192)" cx="1256.09" cy="730.814" r="21.6" fill="#00f5ff" fill-rule="evenodd" fill-opacity="0.6" stroke="#000000" stroke-opacity="0.6" stroke-width="3.2"/>
<circle clip-path="url(#clip192)" cx="1589.35" cy="628.989" r="21.6" fill="#00f5ff" fill-rule="evenodd" fill-opacity="0.6" stroke="#000000" stroke-opacity="0.6" stroke-width="3.2"/>
<circle clip-path="url(#clip192)" cx="1922.61" cy="518.076" r="21.6" fill="#00f5ff" fill-rule="evenodd" fill-opacity="0.6" stroke="#000000" stroke-opacity="0.6" stroke-width="3.2"/>
<circle clip-path="url(#clip192)" cx="2255.87" cy="406.405" r="21.6" fill="#00f5ff" fill-rule="evenodd" fill-opacity="0.6" stroke="#000000" stroke-opacity="0.6" stroke-width="3.2"/>
<polyline clip-path="url(#clip192)" style="stroke:#66cdaa; stroke-linecap:round; stroke-linejoin:round; stroke-width:24; stroke-opacity:0.8; fill:none" points="
  256.311,1058.05 589.57,936.504 922.83,876.128 1256.09,799.914 1589.35,706.257 1922.61,597.708 2255.87,502.554 
  "/>
<path clip-path="url(#clip192)" d="M256.311 1082.05 L252.639 1066.93 L239.343 1075.02 L247.431 1061.72 L232.311 1058.05 L247.431 1054.38 L239.343 1041.08 L252.639 1049.17 L256.311 1034.05 L259.983 1049.17 L273.279 1041.08 L265.191 1054.38 L280.311 1058.05 L265.191 1061.72 L273.279 1075.02 L259.983 1066.93 L256.311 1082.05 Z" fill="#66cdaa" fill-rule="evenodd" fill-opacity="0.6" stroke="#000000" stroke-opacity="0.6" stroke-width="3.2"/>
<path clip-path="url(#clip192)" d="M589.57 960.504 L585.898 945.384 L572.602 953.472 L580.69 940.176 L565.57 936.504 L580.69 932.832 L572.602 919.536 L585.898 927.624 L589.57 912.504 L593.242 927.624 L606.538 919.536 L598.45 932.832 L613.57 936.504 L598.45 940.176 L606.538 953.472 L593.242 945.384 L589.57 960.504 Z" fill="#66cdaa" fill-rule="evenodd" fill-opacity="0.6" stroke="#000000" stroke-opacity="0.6" stroke-width="3.2"/>
<path clip-path="url(#clip192)" d="M922.83 900.128 L919.158 885.008 L905.862 893.096 L913.95 879.8 L898.83 876.128 L913.95 872.456 L905.862 859.16 L919.158 867.248 L922.83 852.128 L926.502 867.248 L939.798 859.16 L931.71 872.456 L946.83 876.128 L931.71 879.8 L939.798 893.096 L926.502 885.008 L922.83 900.128 Z" fill="#66cdaa" fill-rule="evenodd" fill-opacity="0.6" stroke="#000000" stroke-opacity="0.6" stroke-width="3.2"/>
<path clip-path="url(#clip192)" d="M1256.09 823.914 L1252.42 808.794 L1239.12 816.882 L1247.21 803.586 L1232.09 799.914 L1247.21 796.242 L1239.12 782.946 L1252.42 791.034 L1256.09 775.914 L1259.76 791.034 L1273.06 782.946 L1264.97 796.242 L1280.09 799.914 L1264.97 803.586 L1273.06 816.882 L1259.76 808.794 L1256.09 823.914 Z" fill="#66cdaa" fill-rule="evenodd" fill-opacity="0.6" stroke="#000000" stroke-opacity="0.6" stroke-width="3.2"/>
<path clip-path="url(#clip192)" d="M1589.35 730.257 L1585.68 715.137 L1572.38 723.225 L1580.47 709.929 L1565.35 706.257 L1580.47 702.585 L1572.38 689.289 L1585.68 697.377 L1589.35 682.257 L1593.02 697.377 L1606.32 689.289 L1598.23 702.585 L1613.35 706.257 L1598.23 709.929 L1606.32 723.225 L1593.02 715.137 L1589.35 730.257 Z" fill="#66cdaa" fill-rule="evenodd" fill-opacity="0.6" stroke="#000000" stroke-opacity="0.6" stroke-width="3.2"/>
<path clip-path="url(#clip192)" d="M1922.61 621.708 L1918.94 606.588 L1905.64 614.676 L1913.73 601.38 L1898.61 597.708 L1913.73 594.036 L1905.64 580.74 L1918.94 588.828 L1922.61 573.708 L1926.28 588.828 L1939.58 580.74 L1931.49 594.036 L1946.61 597.708 L1931.49 601.38 L1939.58 614.676 L1926.28 606.588 L1922.61 621.708 Z" fill="#66cdaa" fill-rule="evenodd" fill-opacity="0.6" stroke="#000000" stroke-opacity="0.6" stroke-width="3.2"/>
<path clip-path="url(#clip192)" d="M2255.87 526.554 L2252.2 511.434 L2238.9 519.522 L2246.99 506.226 L2231.87 502.554 L2246.99 498.882 L2238.9 485.586 L2252.2 493.674 L2255.87 478.554 L2259.54 493.674 L2272.84 485.586 L2264.75 498.882 L2279.87 502.554 L2264.75 506.226 L2272.84 519.522 L2259.54 511.434 L2255.87 526.554 Z" fill="#66cdaa" fill-rule="evenodd" fill-opacity="0.6" stroke="#000000" stroke-opacity="0.6" stroke-width="3.2"/>
<polyline clip-path="url(#clip192)" style="stroke:#008080; stroke-linecap:round; stroke-linejoin:round; stroke-width:24; stroke-opacity:0.8; fill:none" points="
  256.311,1270.06 589.57,1155.42 922.83,1061.2 1256.09,945.364 1589.35,843.579 1922.61,731.389 2255.87,623.227 
  "/>
<path clip-path="url(#clip192)" d="M256.311 1246.06 L232.311 1270.06 L256.311 1294.06 L280.311 1270.06 L256.311 1246.06 Z" fill="#008080" fill-rule="evenodd" fill-opacity="0.6" stroke="#000000" stroke-opacity="0.6" stroke-width="3.2"/>
<path clip-path="url(#clip192)" d="M589.57 1131.42 L565.57 1155.42 L589.57 1179.42 L613.57 1155.42 L589.57 1131.42 Z" fill="#008080" fill-rule="evenodd" fill-opacity="0.6" stroke="#000000" stroke-opacity="0.6" stroke-width="3.2"/>
<path clip-path="url(#clip192)" d="M922.83 1037.2 L898.83 1061.2 L922.83 1085.2 L946.83 1061.2 L922.83 1037.2 Z" fill="#008080" fill-rule="evenodd" fill-opacity="0.6" stroke="#000000" stroke-opacity="0.6" stroke-width="3.2"/>
<path clip-path="url(#clip192)" d="M1256.09 921.364 L1232.09 945.364 L1256.09 969.364 L1280.09 945.364 L1256.09 921.364 Z" fill="#008080" fill-rule="evenodd" fill-opacity="0.6" stroke="#000000" stroke-opacity="0.6" stroke-width="3.2"/>
<path clip-path="url(#clip192)" d="M1589.35 819.579 L1565.35 843.579 L1589.35 867.579 L1613.35 843.579 L1589.35 819.579 Z" fill="#008080" fill-rule="evenodd" fill-opacity="0.6" stroke="#000000" stroke-opacity="0.6" stroke-width="3.2"/>
<path clip-path="url(#clip192)" d="M1922.61 707.389 L1898.61 731.389 L1922.61 755.389 L1946.61 731.389 L1922.61 707.389 Z" fill="#008080" fill-rule="evenodd" fill-opacity="0.6" stroke="#000000" stroke-opacity="0.6" stroke-width="3.2"/>
<path clip-path="url(#clip192)" d="M2255.87 599.227 L2231.87 623.227 L2255.87 647.227 L2279.87 623.227 L2255.87 599.227 Z" fill="#008080" fill-rule="evenodd" fill-opacity="0.6" stroke="#000000" stroke-opacity="0.6" stroke-width="3.2"/>
<polyline clip-path="url(#clip192)" style="stroke:#ffa500; stroke-linecap:round; stroke-linejoin:round; stroke-width:24; stroke-opacity:0.8; fill:none" stroke-dasharray="96, 60" points="
  256.311,734.605 589.57,658.38 922.83,589.483 1256.09,506.482 1589.35,411.806 1922.61,306.668 2255.87,197.979 
  "/>
<path clip-path="url(#clip192)" d="M256.311 710.605 L232.311 734.605 L256.311 758.605 L280.311 734.605 L256.311 710.605 Z" fill="#ffa500" fill-rule="evenodd" fill-opacity="0.6" stroke="#000000" stroke-opacity="0.6" stroke-width="3.2"/>
<path clip-path="url(#clip192)" d="M589.57 634.38 L565.57 658.38 L589.57 682.38 L613.57 658.38 L589.57 634.38 Z" fill="#ffa500" fill-rule="evenodd" fill-opacity="0.6" stroke="#000000" stroke-opacity="0.6" stroke-width="3.2"/>
<path clip-path="url(#clip192)" d="M922.83 565.483 L898.83 589.483 L922.83 613.483 L946.83 589.483 L922.83 565.483 Z" fill="#ffa500" fill-rule="evenodd" fill-opacity="0.6" stroke="#000000" stroke-opacity="0.6" stroke-width="3.2"/>
<path clip-path="url(#clip192)" d="M1256.09 482.482 L1232.09 506.482 L1256.09 530.482 L1280.09 506.482 L1256.09 482.482 Z" fill="#ffa500" fill-rule="evenodd" fill-opacity="0.6" stroke="#000000" stroke-opacity="0.6" stroke-width="3.2"/>
<path clip-path="url(#clip192)" d="M1589.35 387.806 L1565.35 411.806 L1589.35 435.806 L1613.35 411.806 L1589.35 387.806 Z" fill="#ffa500" fill-rule="evenodd" fill-opacity="0.6" stroke="#000000" stroke-opacity="0.6" stroke-width="3.2"/>
<path clip-path="url(#clip192)" d="M1922.61 282.668 L1898.61 306.668 L1922.61 330.668 L1946.61 306.668 L1922.61 282.668 Z" fill="#ffa500" fill-rule="evenodd" fill-opacity="0.6" stroke="#000000" stroke-opacity="0.6" stroke-width="3.2"/>
<path clip-path="url(#clip192)" d="M2255.87 173.979 L2231.87 197.979 L2255.87 221.979 L2279.87 197.979 L2255.87 173.979 Z" fill="#ffa500" fill-rule="evenodd" fill-opacity="0.6" stroke="#000000" stroke-opacity="0.6" stroke-width="3.2"/>
<polyline clip-path="url(#clip192)" style="stroke:#f08080; stroke-linecap:round; stroke-linejoin:round; stroke-width:24; stroke-opacity:0.8; fill:none" points="
  256.311,576.214 589.57,498.777 922.83,414.002 1256.09,316.635 
  "/>
<path clip-path="url(#clip192)" d="M256.311 600.214 L239.343 593.182 L232.311 576.214 L239.343 559.246 L256.311 552.214 L273.279 559.246 L280.311 576.214 L273.279 593.182 Z" fill="#f08080" fill-rule="evenodd" fill-opacity="0.6" stroke="#000000" stroke-opacity="0.6" stroke-width="3.2"/>
<path clip-path="url(#clip192)" d="M589.57 522.777 L572.602 515.745 L565.57 498.777 L572.602 481.809 L589.57 474.777 L606.538 481.809 L613.57 498.777 L606.538 515.745 Z" fill="#f08080" fill-rule="evenodd" fill-opacity="0.6" stroke="#000000" stroke-opacity="0.6" stroke-width="3.2"/>
<path clip-path="url(#clip192)" d="M922.83 438.002 L905.862 430.97 L898.83 414.002 L905.862 397.034 L922.83 390.002 L939.798 397.034 L946.83 414.002 L939.798 430.97 Z" fill="#f08080" fill-rule="evenodd" fill-opacity="0.6" stroke="#000000" stroke-opacity="0.6" stroke-width="3.2"/>
<path clip-path="url(#clip192)" d="M1256.09 340.635 L1239.12 333.603 L1232.09 316.635 L1239.12 299.667 L1256.09 292.635 L1273.06 299.667 L1280.09 316.635 L1273.06 333.603 Z" fill="#f08080" fill-rule="evenodd" fill-opacity="0.6" stroke="#000000" stroke-opacity="0.6" stroke-width="3.2"/>
<polyline clip-path="url(#clip192)" style="stroke:#ff3030; stroke-linecap:round; stroke-linejoin:round; stroke-width:24; stroke-opacity:0.8; fill:none" points="
  256.311,300.992 589.57,267.721 922.83,215.715 1256.09,142.994 
  "/>
<path clip-path="url(#clip192)" d="M256.311 276.992 L233.487 293.576 L242.199 320.408 L270.423 320.408 L279.135 293.576 Z" fill="#ff3030" fill-rule="evenodd" fill-opacity="0.6" stroke="#000000" stroke-opacity="0.6" stroke-width="3.2"/>
<path clip-path="url(#clip192)" d="M589.57 243.721 L566.746 260.305 L575.458 287.137 L603.682 287.137 L612.394 260.305 Z" fill="#ff3030" fill-rule="evenodd" fill-opacity="0.6" stroke="#000000" stroke-opacity="0.6" stroke-width="3.2"/>
<path clip-path="url(#clip192)" d="M922.83 191.715 L900.006 208.299 L908.718 235.131 L936.942 235.131 L945.654 208.299 Z" fill="#ff3030" fill-rule="evenodd" fill-opacity="0.6" stroke="#000000" stroke-opacity="0.6" stroke-width="3.2"/>
<path clip-path="url(#clip192)" d="M1256.09 118.994 L1233.27 135.578 L1241.98 162.41 L1270.2 162.41 L1278.91 135.578 Z" fill="#ff3030" fill-rule="evenodd" fill-opacity="0.6" stroke="#000000" stroke-opacity="0.6" stroke-width="3.2"/>
<polyline clip-path="url(#clip192)" style="stroke:#8b1a1a; stroke-linecap:round; stroke-linejoin:round; stroke-width:24; stroke-opacity:0.8; fill:none" points="
  256.311,791.767 589.57,669.353 922.83,558.968 1256.09,453.667 
  "/>
<path clip-path="url(#clip192)" d="M256.311 767.767 L232.311 815.767 L280.311 815.767 L256.311 767.767 Z" fill="#8b1a1a" fill-rule="evenodd" fill-opacity="0.6" stroke="#000000" stroke-opacity="0.6" stroke-width="3.2"/>
<path clip-path="url(#clip192)" d="M589.57 645.353 L565.57 693.353 L613.57 693.353 L589.57 645.353 Z" fill="#8b1a1a" fill-rule="evenodd" fill-opacity="0.6" stroke="#000000" stroke-opacity="0.6" stroke-width="3.2"/>
<path clip-path="url(#clip192)" d="M922.83 534.968 L898.83 582.968 L946.83 582.968 L922.83 534.968 Z" fill="#8b1a1a" fill-rule="evenodd" fill-opacity="0.6" stroke="#000000" stroke-opacity="0.6" stroke-width="3.2"/>
<path clip-path="url(#clip192)" d="M1256.09 429.667 L1232.09 477.667 L1280.09 477.667 L1256.09 429.667 Z" fill="#8b1a1a" fill-rule="evenodd" fill-opacity="0.6" stroke="#000000" stroke-opacity="0.6" stroke-width="3.2"/>
</svg>
